<svg width="156" height="155" viewBox="0 0 156 155" fill="none" xmlns="http://www.w3.org/2000/svg">
<g clip-path="url(#clip0_464_1485)">
<g clip-path="url(#clip1_464_1485)">
<path d="M81.2836 90.2956L82.4198 90.0596C83.6123 89.8119 84.4157 88.7075 84.2833 87.5208L81.2986 60.7642L81.7953 60.7079L81.2986 60.7642C81.1481 59.4156 79.8579 58.4831 78.5011 58.7649L72.0293 60.1092C70.6553 60.3946 69.8394 61.7936 70.2632 63.1001L78.5836 88.7485C78.947 89.8683 80.1075 90.5399 81.2836 90.2956Z" fill="#F25F5F" stroke="black"/>
<path d="M70.5776 94.6818L70.5776 94.6818L71.3535 93.8234C71.3535 93.8234 71.3535 93.8233 71.3535 93.8233C72.164 92.9265 72.1528 91.5734 71.3329 90.7005L52.8675 71.0414C51.9323 70.0458 50.3259 70.0638 49.4011 71.0871L44.9818 75.9771C44.0487 77.0096 44.2235 78.6066 45.3532 79.4052L67.4622 95.0327C68.4329 95.7188 69.7763 95.5685 70.5776 94.6818Z" fill="#F25F5F" stroke="black"/>
<path d="M94.3382 89.3716L94.3383 89.3716C95.4746 89.7915 96.7506 89.2803 97.2807 88.198L109.176 63.9076C109.176 63.9076 109.176 63.9075 109.176 63.9075C109.776 62.6805 109.189 61.2119 107.9 60.7357L108.074 60.2665L107.9 60.7357L101.724 58.4538L101.897 57.9845L101.724 58.4538C100.414 57.9699 98.9673 58.7253 98.6195 60.0637L98.6195 60.0637L91.8169 86.2354L91.8169 86.2354C91.5198 87.3786 92.1357 88.5579 93.2538 88.9711C93.2538 88.9711 93.2538 88.9711 93.2539 88.9711L94.3382 89.3716Z" fill="#F25F5F" stroke="black"/>
</g>
</g>
<path d="M52.5433 41.3282C49.0687 44.3207 46.0806 47.8352 43.6858 51.746C39.2594 59.0091 37.2528 67.4908 37.955 75.9697C38.2971 80.105 39.2625 84.1652 40.8185 88.0124C42.4182 91.9637 44.6002 95.6536 47.2921 98.9593C50.6564 103.128 54.7007 106.699 59.2543 109.521C61.4273 110.856 63.718 111.99 66.0978 112.907C67.2487 113.349 68.4188 113.735 69.6082 114.066C70.1954 114.229 70.8547 114.307 71.4201 114.529C71.9383 114.731 72.0684 115.557 72.2505 116.028C72.7782 117.39 73.3055 118.752 73.8324 120.115C74.1175 120.85 74.4032 121.586 74.6894 122.32C74.8253 122.67 74.9616 123.019 75.0982 123.368C75.2441 123.74 75.3513 124.219 75.6181 124.527C75.7377 124.656 75.8886 124.752 76.0561 124.806C76.2236 124.86 76.4022 124.87 76.5747 124.835C77.0025 124.747 77.2061 124.39 77.4036 124.042C77.7894 123.362 78.1744 122.681 78.5585 122.001C79.3179 120.655 80.0753 119.308 80.8307 117.961C81.1697 117.356 81.5088 116.752 81.8481 116.148C81.9496 115.883 82.115 115.647 82.3295 115.461C82.5865 115.307 82.965 115.344 83.2552 115.319C84.5004 115.21 85.7376 115.039 86.9668 114.807C89.4884 114.326 91.9584 113.607 94.3436 112.659C99.3648 110.627 103.989 107.726 108.003 104.09C111.267 101.205 114.12 97.8861 116.482 94.2258C118.64 90.8653 120.276 87.1972 121.336 83.3462C122.346 79.6276 122.768 75.7734 122.586 71.9237C122.383 67.9547 121.585 64.0385 120.22 60.3059C118.762 56.3618 116.772 52.6351 114.306 49.229C111.774 45.6466 108.751 42.4378 105.326 39.6971C102.037 37.0969 98.3761 35.0065 94.4656 33.4962C90.6162 32.0112 86.5627 31.1232 82.4456 30.863C78.258 30.6027 74.0559 31.0021 69.993 32.0466C65.7441 33.1472 61.6953 34.9101 57.9954 37.2706C56.0819 38.4889 54.2597 39.845 52.5433 41.3282C51.8592 41.9209 52.7796 42.9855 53.4648 42.3918C57.6666 38.7209 62.5513 35.9148 67.8395 34.1343C72.695 32.5366 77.819 31.9155 82.9165 32.3065C87.9543 32.6976 92.8695 34.0582 97.3921 36.3136C102.073 38.6625 106.267 41.8764 109.753 45.7854C113.295 49.7056 116.158 54.1891 118.225 59.0513C120.107 63.496 121.125 68.2586 121.223 73.0837C121.285 77.8185 120.416 82.5189 118.664 86.9174C116.756 91.621 114 95.9333 110.532 99.6392C106.221 104.306 101.027 108.208 95.2023 110.776C92.3255 112.05 89.3047 112.97 86.2061 113.516C85.4343 113.651 84.6586 113.762 83.8792 113.849C83.0832 113.938 82.1662 113.865 81.4841 114.342C80.8157 114.81 80.4773 115.724 80.0881 116.417L78.7745 118.757C78.3129 119.579 77.8507 120.4 77.3879 121.221C77.1504 121.642 76.9125 122.063 76.6742 122.484C76.4731 122.912 76.2327 123.321 75.956 123.705L76.2398 123.459L76.2121 123.462L76.5681 123.488L76.5414 123.481L76.7863 123.764C76.5208 123.251 76.303 122.715 76.1359 122.163C75.9234 121.619 75.7116 121.075 75.5006 120.531C75.1107 119.527 74.7219 118.524 74.334 117.519C73.9719 116.583 73.6095 115.647 73.2468 114.71C73.1002 114.209 72.7976 113.767 72.3829 113.45C71.9605 113.216 71.4999 113.059 71.0227 112.987C67.5486 112.115 64.211 110.768 61.1043 108.984C54.7815 105.349 49.4311 100.238 45.5095 94.0887C42.3005 89.0255 40.2505 83.3159 39.5063 77.3686C38.7888 71.4805 39.4295 65.507 41.3791 59.9062C43.5082 53.914 47.0069 48.5022 51.5967 44.1018C52.2037 43.5147 52.8264 42.9447 53.4648 42.3918C54.1488 41.7993 53.2286 40.7345 52.5433 41.3282Z" fill="#211715"/>
<defs>
<clipPath id="clip0_464_1485">
<rect width="79.5192" height="79.6477" fill="white" transform="translate(27.9998 104.182) rotate(-73.3412)"/>
</clipPath>
<clipPath id="clip1_464_1485">
<rect width="70.5029" height="38.1178" fill="white" transform="matrix(-0.979101 0.203374 0.201572 0.979474 109.046 51.9095)"/>
</clipPath>
</defs>
</svg>
