<svg width="69" height="69" viewBox="0 0 69 69" fill="none" xmlns="http://www.w3.org/2000/svg">
<g clip-path="url(#clip0_464_1406)">
<path d="M34.379 3.63164e-05C30.6014 -0.0111014 26.8449 0.565223 23.2442 1.70838C16.5702 3.84285 10.7454 8.04138 6.60876 13.6994C4.59101 16.4587 3.00191 19.5075 1.89537 22.7422C0.759842 26.0654 0.127977 29.5399 0.0207761 33.0503C-0.133489 37.4609 0.458344 41.866 1.77128 46.0793C2.40397 48.0829 3.21894 50.0243 4.20595 51.879C4.68412 52.775 5.2042 53.6469 5.76622 54.4945C6.04385 54.9128 6.41225 55.3171 6.64497 55.7599C6.85838 56.1654 6.4936 56.7501 6.35334 57.1412C5.94712 58.2739 5.5405 59.4066 5.13347 60.5392C4.9141 61.1511 4.69538 61.763 4.4773 62.3749C4.37349 62.6657 4.27001 62.9566 4.16684 63.2475C4.05676 63.5581 3.86531 63.9139 3.86531 64.2496C3.87009 64.3946 3.91212 64.5358 3.98735 64.6598C4.06258 64.7837 4.16846 64.8862 4.29479 64.9573C4.60863 65.1334 4.92802 65.0208 5.23848 64.9109C5.84556 64.6956 6.45232 64.4796 7.05876 64.2629C8.25746 63.8348 9.45553 63.4048 10.6529 62.9731C11.1899 62.7799 11.7269 62.5867 12.2642 62.3935C12.4703 62.2832 12.7005 62.2256 12.9343 62.2256C13.1774 62.2684 13.393 62.4956 13.5876 62.6362C14.4214 63.2404 15.2839 63.8014 16.1748 64.3194C18.0039 65.3807 19.9298 66.2654 21.9263 66.9618C26.149 68.405 30.5926 69.0933 35.0538 68.995C38.6423 68.9594 42.209 68.4319 45.6543 67.4272C48.8105 66.4988 51.808 65.0976 54.5449 63.2712C57.18 61.5009 59.5219 59.3289 61.4856 56.8339C63.5001 54.2531 65.1159 51.3844 66.2791 48.3236C67.499 45.0815 68.2706 41.6879 68.5726 38.2369C68.9286 34.6405 68.7773 31.0119 68.1231 27.4576C67.478 24.0646 66.3261 20.7881 64.7061 17.7382C63.1104 14.7371 61.0656 11.9976 58.6424 9.61461C56.1756 7.19361 53.3438 5.17549 50.2506 3.63409C47.0114 2.0273 43.5395 0.94088 39.9625 0.414743C38.1138 0.141075 36.2477 0.00247254 34.379 3.63164e-05C33.6333 3.63164e-05 33.6321 1.15938 34.379 1.15938C38.9754 1.14035 43.5305 2.02824 47.7836 3.77225C51.6686 5.39678 55.1941 7.77414 58.157 10.7674C61.0827 13.7285 63.4091 17.2272 65.0083 21.0711C66.6558 25.0587 67.5336 29.3223 67.5953 33.6367C67.6859 37.9882 67.0499 42.3242 65.7137 46.4663C64.488 50.2491 62.5525 53.7634 60.011 56.8209C57.4954 59.8023 54.4185 62.2598 50.9553 64.0537C47.2301 65.9532 43.1876 67.1512 39.0294 67.5881C33.8279 68.1677 28.4887 67.7958 23.4767 66.2526C20.9985 65.4937 18.6214 64.4369 16.3974 63.1055C15.8441 62.7732 15.3012 62.4239 14.7688 62.0577C14.2254 61.6836 13.6938 61.1436 13.0118 61.0725C12.3433 61.0032 11.6394 61.3899 11.0233 61.6114L8.94276 62.3601C8.21224 62.6226 7.48147 62.8846 6.75047 63.1461C6.37547 63.28 6.00031 63.4138 5.62499 63.5473C5.26866 63.7055 4.89843 63.8303 4.51907 63.9202H4.82832L4.80925 63.9074L5.01711 64.1153L5.00431 64.0965V64.4047C5.11545 63.9423 5.269 63.4911 5.463 63.0569C5.62394 62.6038 5.78553 62.1509 5.94776 61.6981C6.24631 60.8631 6.54567 60.0283 6.84583 59.1939C7.12555 58.4156 7.40503 57.637 7.68426 56.8583C7.86342 56.4671 7.91322 56.0289 7.82646 55.6074C7.68944 55.2341 7.48712 54.8882 7.22895 54.5858C5.53638 52.1686 4.18494 49.5295 3.21277 46.7431C1.23709 41.0688 0.662606 35.0006 1.53831 29.0561C2.27155 24.1725 4.07518 19.5116 6.82 15.4072C9.54957 11.3541 13.1709 7.98034 17.4061 5.54484C21.9641 2.9624 27.0619 1.48024 32.2934 1.21638C32.988 1.17822 33.6832 1.15922 34.379 1.15938C35.1245 1.15938 35.1259 3.63164e-05 34.379 3.63164e-05Z" fill="#211715"/>
<g clip-path="url(#clip1_464_1406)">
<path d="M28.1147 44.3857L28.9283 44.9741C29.7543 45.5714 30.8885 45.4432 31.5454 44.6911C31.5454 44.6911 31.5454 44.6911 31.5454 44.6911L46.875 27.1391C47.6214 26.2845 47.4694 24.9601 46.5296 24.2805L41.8953 20.9293C40.9437 20.2411 39.6207 20.5283 39.0544 21.528L27.5455 41.8429C27.06 42.6998 27.3001 43.7967 28.1147 44.3857Z" fill="#F2E35F" stroke="black"/>
<path d="M19.0286 40.0935L19.0287 40.0935L20.0291 40.0876C20.0291 40.0876 20.0292 40.0876 20.0292 40.0876C21.0395 40.0816 21.8673 39.3101 21.9431 38.3105L23.7106 15.0121C23.7971 13.8716 22.8798 12.8886 21.7265 12.8954C21.7265 12.8954 21.7265 12.8954 21.7265 12.8954L16.0277 12.9294C14.8646 12.9363 13.9786 13.9467 14.1233 15.0958L17.0542 38.3663C17.1786 39.354 18.0294 40.0995 19.0286 40.0935Z" fill="#F2E35F" stroke="black"/>
<path d="M36.3452 52.2202L36.3452 52.2203C36.7274 53.1602 37.7629 53.6598 38.7295 53.3756L61.1685 46.7775C61.1685 46.7775 61.1685 46.7775 61.1685 46.7775C62.2638 46.4554 62.8383 45.263 62.4049 44.1974L62.8681 44.009L62.4049 44.1974L60.2565 38.9147L60.7195 38.7264L60.2565 38.9147C59.8159 37.8313 58.5335 37.3645 57.512 37.9059L57.512 37.9059L36.8442 48.8593L36.8442 48.8593C35.9719 49.3216 35.592 50.3683 35.9679 51.2929L36.3452 52.2202Z" fill="#F2E35F" stroke="black"/>
</g>
</g>
<defs>
<clipPath id="clip0_464_1406">
<rect width="68.7553" height="69" fill="white"/>
</clipPath>
<clipPath id="clip1_464_1406">
<rect width="61" height="33" fill="white" transform="matrix(-0.81033 -0.585974 -0.585974 0.81033 68.7673 39.7444)"/>
</clipPath>
</defs>
</svg>
