<svg width="71" height="71" viewBox="0 0 71 71" fill="none" xmlns="http://www.w3.org/2000/svg">
<g clip-path="url(#clip0_464_710)">
<path d="M35.4096 0.369485C31.5676 0.358142 27.7472 0.945112 24.0852 2.10938C17.2975 4.28328 11.3735 8.55937 7.16643 14.3219C5.11432 17.1322 3.49816 20.2373 2.37277 23.5318C1.21791 26.9163 0.575279 30.455 0.466252 34.0302C0.30936 38.5223 0.911272 43.0088 2.24657 47.2999C2.89004 49.3405 3.71888 51.3177 4.72271 53.2067C5.20901 54.1193 5.73796 55.0073 6.30955 55.8705C6.5919 56.2966 6.96658 56.7084 7.20326 57.1593C7.42031 57.5723 7.04932 58.1678 6.90667 58.5661C6.49353 59.7198 6.07998 60.8734 5.66602 62.0269C5.44292 62.6501 5.22047 63.2733 4.99868 63.8965C4.8931 64.1926 4.78785 64.4889 4.68293 64.7852C4.57097 65.1016 4.37627 65.4639 4.37627 65.8059C4.38113 65.9535 4.42387 66.0973 4.50038 66.2236C4.57689 66.3498 4.68458 66.4542 4.81306 66.5266C5.13224 66.7059 5.45708 66.5913 5.77282 66.4794C6.39024 66.2601 7.00733 66.0401 7.6241 65.8194C8.84322 65.3833 10.0617 64.9455 11.2795 64.5058C11.8256 64.309 12.3718 64.1122 12.9181 63.9154C13.1278 63.8031 13.362 63.7444 13.5997 63.7445C13.847 63.788 14.0662 64.0195 14.2641 64.1626C15.1122 64.7779 15.9893 65.3494 16.8954 65.8769C18.7557 66.9578 20.7143 67.8589 22.7449 68.5681C27.0394 70.038 31.5587 70.739 36.0959 70.6388C39.7455 70.6026 43.373 70.0654 46.877 69.0421C50.0869 68.0965 53.1355 66.6694 55.919 64.8093C58.599 63.0064 60.9808 60.7942 62.9779 58.2532C65.0267 55.6247 66.67 52.703 67.8531 49.5857C69.0937 46.2837 69.8784 42.8274 70.1856 39.3126C70.5476 35.6498 70.3937 31.9541 69.7284 28.3343C69.0724 24.8786 67.9009 21.5416 66.2532 18.4353C64.6303 15.3787 62.5507 12.5886 60.0863 10.1617C57.5774 7.69594 54.6974 5.64054 51.5515 4.07067C48.2572 2.4342 44.7261 1.32771 41.0882 0.791852C39.2081 0.513129 37.3102 0.371966 35.4096 0.369485C34.6512 0.369485 34.65 1.55024 35.4096 1.55024C40.0843 1.53086 44.717 2.43515 49.0425 4.21138C52.9937 5.86591 56.5792 8.28719 59.5925 11.3358C62.5681 14.3515 64.9341 17.9148 66.5606 21.8298C68.2361 25.891 69.1288 30.2334 69.1917 34.6275C69.2838 39.0593 68.637 43.4755 67.278 47.694C66.0314 51.5467 64.063 55.1259 61.4782 58.2399C58.9197 61.2764 55.7904 63.7793 52.2682 65.6064C48.4796 67.5409 44.3683 68.761 40.1392 69.2059C34.8491 69.7963 29.419 69.4175 24.3216 67.8459C21.8012 67.0729 19.3836 65.9966 17.1218 64.6406C16.5591 64.3021 16.007 63.9464 15.4655 63.5735C14.9128 63.1924 14.3722 62.6424 13.6785 62.5701C12.9987 62.4995 12.2827 62.8933 11.6561 63.1189L9.54019 63.8815C8.79722 64.1488 8.05401 64.4156 7.31056 64.6819C6.92917 64.8184 6.54762 64.9546 6.16591 65.0905C5.80351 65.2517 5.42698 65.3788 5.04115 65.4703H5.35567L5.33628 65.4573L5.54768 65.6691L5.53466 65.6499V65.9638C5.6477 65.4928 5.80386 65.0333 6.00116 64.5912C6.16485 64.1297 6.32919 63.6684 6.49418 63.2072C6.79782 62.3567 7.10227 61.5066 7.40754 60.6568C7.69203 59.864 7.97626 59.0711 8.26026 58.278C8.44246 57.8796 8.49312 57.4333 8.40487 57.004C8.26552 56.6238 8.05976 56.2715 7.79719 55.9635C6.0758 53.5017 4.70133 50.8138 3.71261 47.9759C1.70328 42.1968 1.11901 36.0165 2.00963 29.9622C2.75536 24.9885 4.5897 20.2415 7.38127 16.0613C10.1573 11.9333 13.8403 8.4972 18.1476 6.01671C22.7833 3.38656 27.9679 1.87704 33.2885 1.6083C33.995 1.56943 34.702 1.55008 35.4096 1.55024C36.1678 1.55024 36.1693 0.369485 35.4096 0.369485Z" fill="#211715"/>
<path d="M55.7803 30.5301C55.0703 26.1884 53.0115 22.1805 49.8958 19.0745C46.7801 15.9686 42.7657 13.9223 38.4218 13.226C37.1285 13.0147 35.8214 12.8996 34.5112 12.8815C29.9764 12.8949 25.312 14.2029 21.6584 16.95C20.6881 17.6563 19.7749 18.438 18.9273 19.2878C18.1033 20.1537 17.3474 21.082 16.6662 22.0643C15.4394 23.8416 14.4946 25.7979 13.8655 27.8639C13.2117 29.9941 12.8869 32.2117 12.9024 34.44C12.9028 36.7268 13.2259 39.0021 13.8622 41.1986C14.4527 43.236 15.3519 45.1709 16.5284 46.936C17.8282 48.8375 19.4282 50.5153 21.2658 51.9039C24.7027 54.5441 29.0188 55.8354 33.3089 56.0689C37.7414 56.347 42.16 55.3397 46.034 53.168C49.571 51.1154 52.3716 48.001 54.0384 44.2667C54.5264 43.1888 54.9355 42.0769 55.2626 40.9397C55.5692 39.7477 55.7921 38.5357 55.9296 37.3126C56.2014 35.0561 56.1511 32.7725 55.7803 30.5301ZM48.5695 36.8161C48.3649 38.1372 48.0213 39.433 47.5446 40.682C47.0718 41.7456 46.4876 42.756 45.802 43.6965C45.1509 44.4888 44.4237 45.2152 43.6307 45.8652C42.717 46.5291 41.7365 47.0958 40.7052 47.5561C39.4943 48.018 38.2385 48.3518 36.9581 48.552C35.3753 48.7316 33.7775 48.7337 32.1942 48.5583C30.9306 48.3586 29.6913 48.0277 28.4963 47.571C27.428 47.0943 26.4131 46.506 25.4684 45.8161C24.6487 45.1436 23.8974 44.3917 23.2256 43.5714C22.5309 42.6185 21.9389 41.5948 21.4595 40.5174C20.9893 39.2868 20.6501 38.0102 20.4476 36.7085C20.2852 35.2985 20.2739 33.8751 20.4137 32.4627C20.6126 31.1782 20.9517 29.9193 21.4249 28.7085C21.916 27.6219 22.5178 26.5888 23.2207 25.6255C23.9489 24.7316 24.7659 23.9139 25.6591 23.1849C26.5975 22.5001 27.6031 21.9126 28.6606 21.4315C29.9011 20.9462 31.1917 20.6002 32.5086 20.3999C33.8496 20.2598 35.2016 20.2606 36.5424 20.4021C37.8449 20.6025 39.1216 20.9449 40.3495 21.4233C41.421 21.9087 42.4397 22.5033 43.3893 23.1976C44.268 23.9155 45.0725 24.7197 45.7908 25.598C46.4929 26.5557 47.0945 27.5832 47.5859 28.6642C48.0661 29.8849 48.4097 31.1549 48.6105 32.4512C48.7529 33.9034 48.7391 35.3668 48.5695 36.8161Z" fill="#3D8DCC"/>
<path d="M56.6424 30.2926C55.2457 21.5183 48.1299 14.1739 39.4067 12.4931C34.8383 11.5564 30.0965 11.9599 25.7521 13.6551C21.3415 15.4592 17.6313 18.6392 15.1734 22.7217C10.1596 31.0725 11.1384 42.6943 17.748 49.907C20.8027 53.2311 24.8237 55.5128 29.244 56.4302C33.7386 57.4045 38.414 57.1326 42.7654 55.644C46.9427 54.1876 50.5533 51.4489 53.0819 47.8187C55.8182 43.8642 57.0856 38.8731 56.9958 34.0951C56.9623 32.8212 56.8446 31.5509 56.6435 30.2926C56.5791 30.0648 56.4276 29.8716 56.2219 29.7547C56.0161 29.6379 55.7726 29.6067 55.544 29.668C55.3187 29.7361 55.1281 29.8882 55.0119 30.093C54.8957 30.2978 54.8627 30.5394 54.9198 30.7678C55.6618 35.4093 54.99 40.1668 52.9917 44.4213C51.2474 48.0017 48.4062 50.9321 44.8815 52.7863C37.5885 56.638 27.5692 56.0045 21.1573 50.6783C17.8213 47.9204 15.4691 44.1555 14.4534 39.948C13.3223 35.4184 13.6424 30.648 15.3685 26.3101C17.0698 22.1961 20.0764 18.7556 23.9253 16.5184C27.5748 14.4505 31.757 13.515 35.9397 13.8309C40.0921 14.0714 44.0794 15.5405 47.3951 18.0517C51.4307 21.1777 54.1214 25.7257 54.9183 30.7678C54.9828 30.9955 55.1343 31.1886 55.34 31.3054C55.5458 31.4222 55.7893 31.4533 56.0178 31.392C56.2433 31.3243 56.4341 31.1722 56.5504 30.9674C56.6667 30.7627 56.6996 30.521 56.6424 30.2926Z" fill="#211715"/>
<path d="M47.6996 36.5796C47.2624 39.2768 46.3239 41.9032 44.4118 43.914C43.4712 44.8995 42.372 45.7203 41.16 46.3423C39.9213 46.9541 38.5984 47.3783 37.2349 47.6008C35.7467 47.8396 34.2335 47.8797 32.7347 47.72C31.3762 47.5929 30.045 47.2594 28.7869 46.7311C26.2872 45.6688 24.2154 43.7997 22.9024 41.422C20.2819 36.7252 20.5799 30.0288 24.1639 25.8806C25.0162 24.8629 26.0177 23.9802 27.1344 23.2624C28.2901 22.5372 29.5502 21.9935 30.8707 21.6501C33.6528 20.9379 36.5826 21.0574 39.2975 21.9939C42.1444 22.9949 44.5349 24.9891 46.03 27.6106C46.7774 28.9291 47.3039 30.3611 47.5886 31.8497C47.8693 33.4913 47.8959 35.1664 47.6676 36.8161C47.6692 37.0527 47.7638 37.2791 47.9311 37.4464C48.0984 37.6137 48.3249 37.7084 48.5615 37.71C48.7968 37.7047 49.0211 37.6088 49.1876 37.4423C49.3541 37.2758 49.45 37.0515 49.4553 36.8161C49.8005 33.6463 49.4814 30.4001 48.0181 27.5261C46.6621 24.8249 44.5071 22.6069 41.846 21.1738C36.3492 18.2155 28.9046 18.9496 24.2719 23.2002C22.0175 25.2745 20.4516 27.9887 19.7844 30.9785C19.1196 34.0741 19.3368 37.2941 20.4112 40.2723C21.4471 43.1787 23.4329 45.6509 26.0476 47.289C28.7808 48.9266 31.9362 49.7219 35.1191 49.5754C38.2762 49.5348 41.3482 48.5459 43.9362 46.7371C46.3983 44.9695 48.1019 42.2381 48.9209 39.3509C49.1323 38.5959 49.3001 37.8292 49.4233 37.0548C49.4792 36.8265 49.4456 36.5855 49.3296 36.3811C49.2136 36.1767 49.0238 36.0244 48.7991 35.9554C48.5706 35.8942 48.3271 35.9254 48.1214 36.0422C47.9157 36.159 47.7642 36.352 47.6996 36.5796Z" fill="#211715"/>
</g>
<defs>
<clipPath id="clip0_464_710">
<rect width="69.9263" height="70.2745" fill="white" transform="translate(0.445068 0.369446)"/>
</clipPath>
</defs>
</svg>
