<svg width="403" height="295" viewBox="0 0 403 295" fill="none" xmlns="http://www.w3.org/2000/svg">
<g clip-path="url(#clip0_523_2212)">
<path d="M15.2722 272.362C10.9282 271.267 6.85324 270.23 3.18724 269.29L1.96924 199.477C17.7212 202.828 34.5922 206.193 48.8832 209.273C53.6712 210.755 55.9412 213.61 56.8292 217.599C58.2352 223.914 60.2002 233.806 62.2002 244.033C65.9112 244.847 68.6882 245.456 68.6882 245.456C87.5942 249.588 105.446 253.251 120.879 256.853C123.377 257.645 125.482 258.769 125.482 261.97C125.482 264.725 123.798 266.503 120.903 267.577C105.891 273.146 90.8272 278.581 75.8842 284.332C72.0762 285.798 68.7742 285.492 65.0202 284.321C49.1192 280.762 30.5322 276.207 15.2722 272.362Z" fill="white"/>
<path d="M300.3 275.965C301.81 280.265 301.14 285.125 300.3 288.375L300.22 288.795L282.38 285.365L253.23 279.745L255.65 278.245V267.135L255.9 265.865C269.55 268.605 287.54 272.265 296.8 274.125C297.37 274.235 297.95 274.295 298.53 274.295L300.3 275.965Z" fill="white"/>
<path d="M255.65 267.135V278.245L253.23 279.745L282.38 285.365L280.15 286.885C276.43 289.045 274.69 290.045 270.69 292.355C270.04 292.725 269.29 292.845 268.56 292.685C250.5 288.665 225.88 283.535 207.77 279.075C206.86 278.845 206.72 277.595 207.57 277.185C217.11 272.525 251.78 255.885 266.02 248.565C266.23 248.455 266.45 248.425 266.68 248.465C271.41 249.215 276.2 249.965 280.92 250.705C272.38 254.835 262.05 259.835 254.94 263.275C253.81 263.825 254.03 265.495 255.26 265.735C255.47 265.775 255.68 265.825 255.9 265.865L255.65 267.135Z" fill="white"/>
<path d="M137.055 58.5009C136.453 64.4159 136.11 70.3269 135.676 75.7689C134.923 85.2059 132.307 93.7989 125.874 99.3899C120.8 103.8 115.433 106.329 109.309 107.091C109.343 107.182 109.363 107.234 109.363 107.234C110.25 109.208 112.141 110.862 114.198 111.53C115.694 112.161 117.787 112.883 119.95 113.609C117.616 117.754 113.921 120.813 109.895 122.625C105.527 124.59 100.763 125.186 96.0681 125.186C83.8061 125.168 71.5831 121.042 61.2821 113.455C61.2821 113.455 59.9471 112.403 59.5101 112.059C60.1971 111.765 60.8531 111.472 61.4451 111.183C65.0371 109.428 69.4421 107.619 71.5171 104.201C72.2851 102.931 72.7691 101.514 73.2531 100.116C73.8151 98.4779 74.3771 96.8399 74.9381 95.2029C73.0081 93.2079 71.3591 91.1499 69.8021 88.9859C69.8021 88.9859 68.0251 86.4139 67.2621 84.9369C67.2621 84.9369 67.1211 84.5939 66.9301 84.1319C64.6151 84.3229 62.1751 83.5649 61.1711 83.0009C57.7871 81.0859 56.1401 78.2619 55.0551 76.2209C53.5141 73.3349 52.7171 68.4279 53.9341 65.5149C54.3421 64.5409 55.3771 62.8299 58.3201 62.2939C59.6721 62.0469 61.3241 62.2159 62.6621 63.1149C62.6621 63.1149 50.6211 23.0389 110.787 23.0389C140.62 23.0389 137.055 58.5009 137.055 58.5009Z" fill="white"/>
<path d="M242.599 130.097C245.46 127.994 247.459 125.361 249.084 122.253C250.31 119.909 250.674 117.241 250.955 114.626C252.376 101.404 253.025 82.9639 252.454 68.3449C251.741 46.6509 257.392 30.9179 266.301 22.3049C271.671 17.1129 283.772 10.0399 297.368 10.0399C305.533 10.0399 315.083 10.8479 324.178 18.8269C335.161 26.1019 341.451 35.2309 342.701 52.0259C342.872 54.3249 342.91 59.7009 342.972 67.0989C342.401 82.2929 342.722 102.705 344.143 116.447C344.424 119.165 344.789 121.938 346.014 124.374C347.639 127.604 350.595 129.902 353.456 132.088" fill="#645D5C"/>
<path d="M354.466 130.36C351.326 127.959 348.167 125.385 347.015 121.445C345.948 117.796 345.859 113.796 345.589 110.022C345.006 101.863 344.77 93.6789 344.715 85.5009C344.659 77.2679 345.001 69.0439 344.916 60.8129C344.846 54.0459 344.66 47.3269 342.889 40.7429C340.935 33.4799 337.09 27.0209 331.518 21.9589C329.616 20.2309 326.779 23.0519 328.69 24.7869C333.444 29.1059 336.844 34.4389 338.69 40.5999C340.632 47.0839 340.841 53.7059 340.912 60.4139C341.001 68.7069 340.661 76.9929 340.713 85.2879C340.765 93.5369 341 101.793 341.589 110.022C341.901 114.389 341.957 119.166 343.419 123.325C345.042 127.941 348.684 130.936 352.447 133.814C353.306 134.471 354.686 133.947 355.183 133.096C355.785 132.066 355.326 131.018 354.465 130.36H354.466Z" fill="#211715"/>
<path d="M326.795 68.5559C328.066 67.7339 329.62 67.6019 330.885 67.8559C333.64 68.4079 334.584 70.0319 334.951 70.9529C336.046 73.7069 335.217 78.3019 333.723 80.9869C332.67 82.8859 331.078 85.5109 327.869 87.2529C326.858 87.7989 324.322 88.5229 322.04 88.1699C323.733 87.0619 319.666 92.7329 319.666 92.7329C318.308 94.5519 316.881 96.2879 315.251 97.9689C315.822 99.6409 316.397 101.316 316.972 102.99C317.427 104.303 317.882 105.634 318.603 106.827C320.551 110.037 324.689 111.737 328.062 113.385C328.618 113.657 329.234 113.932 329.879 114.208C329.467 114.533 328.215 115.519 328.215 115.519C318.542 122.644 307.062 126.519 295.546 126.536C291.137 126.536 286.662 125.976 282.56 124.131C278.726 122.406 275.212 119.477 273.026 115.5C275.09 114.81 277.094 114.12 278.519 113.519C280.45 112.892 282.227 111.339 283.06 109.485C283.077 109.448 283.112 109.346 283.159 109.196C277.046 108.521 271.775 106.026 266.844 101.586C260.896 96.2309 258.58 88.1189 258.027 79.2449C257.785 75.3589 257.597 71.2189 257.316 67.0149C257.914 64.7949 259.317 61.0379 260.701 58.9459H282.17C286.12 57.5309 289.395 54.4039 291.425 50.7319C293.067 47.7619 293.971 45.3999 294.733 41.4299L304.612 42.5539C305.748 47.0919 307.142 51.4389 308.407 53.8529C310.974 58.7509 315.463 65.5179 320.104 67.3509L326.796 68.5579L326.795 68.5559Z" fill="white"/>
<path d="M266.957 119.687C270.064 118.518 273.25 117.571 276.379 116.463C277.876 115.932 279.5 115.43 280.882 114.643C282.538 113.7 283.972 112.221 284.787 110.494C285.248 109.518 285.059 108.336 284.069 107.758C283.199 107.249 281.796 107.495 281.333 108.476C280.044 111.205 277.311 111.917 274.636 112.845C271.727 113.855 268.776 114.746 265.893 115.831C264.883 116.211 264.191 117.182 264.496 118.291C264.762 119.26 265.94 120.07 266.956 119.688L266.957 119.687Z" fill="#211715"/>
<path d="M313.55 99.17C314.437 101.753 315.186 104.456 316.381 106.918C317.436 109.091 319.193 110.732 321.19 112.041C325.105 114.606 329.641 116.252 333.95 118.008C334.951 118.416 336.148 117.565 336.41 116.611C336.725 115.466 336.018 114.56 335.013 114.151C331.173 112.586 327.23 111.075 323.686 108.89C322.098 107.911 320.757 106.741 319.912 105.055C318.821 102.879 318.195 100.405 317.407 98.107C316.576 95.686 312.711 96.726 313.55 99.17Z" fill="#211715"/>
<path d="M279.047 94.144C280.781 95.138 282.855 95.546 284.836 95.597C285.833 95.623 286.851 95.531 287.823 95.311C288.316 95.199 288.78 95.021 289.245 94.825C289.539 94.701 289.831 94.574 290.122 94.443C290.231 94.394 290.339 94.345 290.448 94.296C290.482 94.281 291.026 94.054 290.63 94.216C291.595 93.823 292.387 92.868 292.027 91.756C291.726 90.825 290.604 89.936 289.567 90.359C288.993 90.593 288.428 90.846 287.862 91.098C287.824 91.115 287.483 91.256 287.705 91.168C287.925 91.081 287.597 91.206 287.558 91.22C287.381 91.285 287.202 91.341 287.02 91.39C286.823 91.443 286.624 91.486 286.424 91.522C286.337 91.538 286.229 91.537 286.147 91.567C286.259 91.526 286.524 91.526 286.252 91.548C285.831 91.582 285.412 91.606 284.989 91.6C284.58 91.594 284.177 91.553 283.77 91.524C283.48 91.503 284.133 91.584 283.848 91.537C283.748 91.52 283.648 91.506 283.548 91.489C283.326 91.451 283.106 91.407 282.887 91.356C282.513 91.269 282.143 91.163 281.781 91.034C281.71 91.009 281.334 90.919 281.638 90.987C281.896 91.044 281.649 90.993 281.573 90.955C281.402 90.871 281.234 90.786 281.068 90.691C280.16 90.171 278.839 90.448 278.332 91.409C277.829 92.361 278.08 93.59 279.05 94.145L279.047 94.144Z" fill="#211715"/>
<path d="M292.199 73.49C291.797 71.665 292.49 67.599 295.892 67.527C300.347 67.92 300.178 72.891 298.487 75.095C297.102 76.9 293.424 77.396 292.2 73.489L292.199 73.49Z" fill="#211715"/>
<path d="M265.666 72.149C265.306 70.32 265.959 66.239 269.075 66.152C273.154 66.526 272.977 71.513 271.418 73.731C270.141 75.548 266.771 76.062 265.666 72.149Z" fill="#211715"/>
<path d="M279.005 76.92C278.4 77.835 277.803 78.767 277.287 79.736C277.076 80.133 276.848 80.542 276.751 80.984C276.545 81.92 276.75 82.777 277.384 83.501C277.809 83.986 278.344 84.288 278.932 84.522C279.314 84.674 279.73 84.696 280.134 84.75L279.602 84.679C279.662 84.687 279.721 84.697 279.78 84.708C280.314 84.812 280.839 84.788 281.321 84.506C281.736 84.263 282.132 83.788 282.24 83.311C282.357 82.799 282.331 82.224 282.038 81.77C281.768 81.351 281.35 80.95 280.843 80.851C280.577 80.799 280.307 80.773 280.039 80.738L280.571 80.809C280.372 80.782 280.181 80.742 279.995 80.665L280.473 80.867C280.347 80.809 280.232 80.739 280.12 80.656L280.525 80.969C280.395 80.864 280.273 80.75 280.17 80.618L280.483 81.023C280.458 80.986 280.438 80.947 280.423 80.906L280.625 81.384C280.61 81.343 280.6 81.301 280.595 81.257L280.666 81.789C280.661 81.719 280.662 81.657 280.669 81.587L280.598 82.119C280.618 81.997 280.653 81.883 280.697 81.768L280.495 82.246C280.753 81.639 281.129 81.064 281.472 80.502C281.793 79.976 282.121 79.455 282.46 78.941C282.737 78.522 282.792 77.873 282.662 77.4C282.534 76.936 282.176 76.433 281.743 76.205C280.74 75.675 279.623 75.989 279.007 76.923L279.005 76.92Z" fill="#211715"/>
<path d="M311.354 104.054C314.303 101.784 316.98 99.255 319.341 96.375C320.981 94.375 322.598 92.257 323.844 89.982C324.363 89.035 324.077 87.801 323.126 87.246C322.211 86.711 320.91 87.013 320.39 87.964C319.792 89.056 319.083 90.088 318.372 91.109C317.71 92.06 317.242 92.657 316.512 93.548C314.387 96.14 311.971 98.572 309.334 100.602C308.48 101.26 308.022 102.322 308.616 103.338C309.108 104.179 310.491 104.719 311.352 104.056L311.354 104.054Z" fill="#211715"/>
<path d="M302.339 103.961C293.495 107.517 283.334 109.146 274.527 104.562C270.505 102.468 266.79 99.4419 264.424 95.5349C262.044 91.6039 260.846 87.0169 260.314 82.4819C259.556 76.0289 259.551 69.4819 259.014 63.0059C258.803 60.4589 254.801 60.4359 255.014 63.0059C255.529 69.2189 255.587 75.4799 256.226 81.6799C256.759 86.8499 257.908 92.0159 260.425 96.6079C265.311 105.522 275.392 110.966 285.383 111.366C291.6 111.615 297.667 110.124 303.402 107.818C304.403 107.415 305.108 106.484 304.799 105.358C304.538 104.407 303.347 103.556 302.339 103.961Z" fill="#211715"/>
<path d="M327.804 70.2829C328.958 69.5919 330.343 69.5829 331.563 70.1409C332.486 70.5629 332.701 70.8849 333.124 71.7279C332.823 71.1279 333.213 72.0419 333.251 72.1879C333.318 72.4409 333.372 72.7029 333.404 72.9589C333.497 73.7119 333.467 74.5009 333.394 75.2549C333.27 76.5339 332.947 77.8559 332.456 79.0439C331.503 81.3499 329.819 83.6509 327.72 85.0139C327.399 85.2219 327.07 85.4189 326.729 85.5929C326.269 85.8279 327.124 85.4639 326.55 85.6669C325.959 85.8759 325.35 86.0459 324.732 86.1509C323.56 86.3499 322.214 86.3739 321.135 85.8129C318.854 84.6279 316.829 88.0779 319.116 89.2669C321.73 90.6249 324.985 90.5029 327.705 89.4899C330.521 88.4409 332.776 86.2019 334.409 83.7349C335.998 81.3339 336.974 78.7059 337.328 75.8479C337.652 73.2309 337.396 70.3609 335.628 68.2819C333.282 65.5249 328.824 65.0089 325.785 66.8289C323.579 68.1509 325.588 71.6099 327.804 70.2829Z" fill="#211715"/>
<path d="M302.683 43.085C304.055 48.514 305.765 53.681 308.735 58.455C311.411 62.756 314.759 67.275 319.572 69.279C320.57 69.694 321.772 68.831 322.032 67.882C322.348 66.731 321.637 65.839 320.635 65.422C318.811 64.663 317.297 63.107 316.009 61.662C314.403 59.86 313.039 57.855 311.794 55.791C309.205 51.498 307.765 46.865 306.541 42.023C305.911 39.529 302.052 40.586 302.684 43.086L302.683 43.085Z" fill="#211715"/>
<path d="M292.804 40.897C291.535 47.402 288.35 54.541 281.637 57.017C280.624 57.39 279.937 58.373 280.24 59.477C280.508 60.452 281.682 61.249 282.7 60.874C290.76 57.902 295.092 50.004 296.661 41.961C296.868 40.902 296.361 39.802 295.264 39.501C294.283 39.231 293.012 39.831 292.804 40.897Z" fill="#211715"/>
<path d="M278.952 41.225C278.654 47.695 275.632 53.684 270.647 57.804C269.814 58.493 269.934 59.92 270.647 60.632C271.471 61.456 272.64 61.322 273.475 60.632C279.265 55.846 282.608 48.688 282.952 41.224C283.002 40.144 281.997 39.224 280.952 39.224C279.827 39.224 279.002 40.142 278.952 41.225Z" fill="#211715"/>
<path d="M258.106 73.4909C258.819 68.3949 260.079 63.2819 263.087 59.0239C266.575 54.0869 269.267 48.2149 268.261 42.0529C268.087 40.9859 266.762 40.3919 265.801 40.6559C264.667 40.9679 264.229 42.0459 264.404 43.1159C265.326 48.7629 261.741 53.6369 258.873 58.0899C256.155 62.3099 254.934 67.5269 254.249 72.4259C254.1 73.4939 254.509 74.5739 255.646 74.8859C256.582 75.1429 257.956 74.5659 258.106 73.4889V73.4909Z" fill="#211715"/>
<path d="M243.608 131.824C246.117 129.94 248.188 127.683 249.828 125.003C251.565 122.163 252.393 119.219 252.804 115.937C253.554 109.947 253.919 103.893 254.212 97.867C254.53 91.341 254.684 84.807 254.658 78.273C254.632 71.866 254.189 65.457 254.549 59.053C255.124 48.827 257.337 38.23 262.972 29.523C268.196 21.451 276.934 16.279 286.05 13.682C292.241 11.918 298.757 11.648 305.131 12.441C311.899 13.283 318.102 16.079 323.191 20.621C325.106 22.33 327.945 19.511 326.019 17.793C321.21 13.501 315.523 10.435 309.198 9.09597C303.681 7.92797 297.729 7.67597 292.137 8.38197C281.609 9.70997 270.387 14.588 263.222 22.628C256.577 30.085 253.123 39.932 251.561 49.663C250.527 56.108 250.251 62.622 250.484 69.14C250.717 75.658 250.708 82.198 250.547 88.724C250.37 95.88 250.014 103.036 249.389 110.168C249.09 113.575 249.037 117.331 247.7 120.526C246.436 123.548 244.205 126.408 241.59 128.372C240.728 129.02 240.283 130.1 240.872 131.108C241.369 131.958 242.739 132.478 243.608 131.826V131.824Z" fill="#211715"/>
<path d="M369.217 152.225C367.464 147.14 365.548 142.215 363.528 138.267C359.844 131.07 356.701 127.778 354.218 125.698C348.397 120.819 340.141 116.818 330.793 113.488L330.016 114.1L328.215 115.519C318.542 122.644 307.062 126.519 295.546 126.536C291.137 126.536 286.662 125.976 282.56 124.131C278.482 122.296 274.765 119.098 272.638 114.722C271.599 114.986 269.914 115.419 269.2 115.629C261.629 117.856 251.324 121.725 246.028 127.03C244.997 128.063 242.899 130.214 240.657 133.379C238.661 135.05 225.918 159.944 222.375 171.74C221.037 176.193 218.213 185.765 217.549 192.929C217.293 195.696 217.889 198.984 219.049 201.54C221.612 207.184 231.271 210.957 240.605 206.707L254.394 200.4C255.375 205.222 256.248 210.065 257.015 214.924C257.015 214.924 257.561 218.207 258.301 222.657C301.576 222.657 347.962 222.657 370.383 222.657C375.357 219.735 373.164 216.331 373.164 216.331C378.778 211.619 380.526 203.686 380.147 194.957C379.836 187.772 378.8 183.201 377.312 177.2C374.68 166.582 372.057 160.66 369.218 152.226" fill="#FFDA71"/>
<path d="M281.961 248.856C278.232 248.273 274.504 247.69 270.776 247.099C269.183 246.847 267.06 246.099 265.492 246.634C264.577 246.946 263.706 247.506 262.846 247.943C259.053 249.868 255.241 251.757 251.426 253.638C242.365 258.106 233.277 262.517 224.185 266.921C220.351 268.778 216.516 270.632 212.681 272.488C211.228 273.191 209.776 273.894 208.324 274.6C206.555 275.459 204.373 276.51 205.133 278.96C205.603 280.476 206.931 280.924 208.33 281.266C209.825 281.631 211.321 281.991 212.818 282.347C215.855 283.068 218.897 283.772 221.941 284.466C228.372 285.932 234.813 287.352 241.257 288.76C248.326 290.305 255.399 291.832 262.467 293.385C264.081 293.74 265.696 294.096 267.309 294.455C269.314 294.901 270.74 294.636 272.524 293.606C275.405 291.943 278.286 290.28 281.165 288.614C283.392 287.325 281.38 283.867 279.146 285.16C276.76 286.541 274.372 287.92 271.984 289.299C271.012 289.86 269.89 290.877 268.734 290.678C267.246 290.422 265.767 290.02 264.292 289.695C258.517 288.424 252.738 287.173 246.96 285.915C235.096 283.331 223.228 280.747 211.423 277.902C210.746 277.739 210.069 277.575 209.393 277.409C209.161 277.352 208.9 277.259 208.667 277.231L208.306 277.142C207.959 278.629 208.092 279.198 208.705 278.85C209.208 278.767 209.802 278.316 210.264 278.092C211.603 277.442 212.942 276.793 214.281 276.145C217.791 274.446 221.301 272.749 224.811 271.049C233.367 266.906 241.92 262.756 250.453 258.564C254.687 256.484 258.917 254.395 263.13 252.273C263.982 251.844 264.833 251.413 265.683 250.98C266.027 250.805 266.465 250.466 266.846 250.385C266.106 250.543 267.534 250.61 267.57 250.616C268.046 250.692 268.522 250.767 268.997 250.843C272.962 251.472 276.929 252.092 280.896 252.713C281.962 252.88 283.047 252.441 283.356 251.316C283.617 250.367 283.033 249.024 281.959 248.856H281.961Z" fill="#211715"/>
<path d="M124.397 33.6259L120.875 36.8089C116.391 46.5569 105.305 55.5059 94.049 53.8159H87.242C85.816 54.6119 84.402 55.3469 83.034 56.0229C78.802 57.6549 72.405 59.3359 71.367 64.1259L62.661 63.1119C61.323 62.2129 59.671 62.0439 58.319 62.2909C55.961 62.7209 54.828 63.9039 54.262 64.8579L52.186 60.5049C48.345 52.1939 47.899 42.2449 51.03 33.6249L52.689 25.6239C57.969 17.4519 64.626 10.2599 73.484 5.94291C74.422 5.48591 75.377 5.06391 76.347 4.67991C85.368 1.11091 96.287 0.843908 105.057 5.33491L112.411 7.35491C124.141 9.62291 132.866 17.0549 137.053 27.2059C140.609 35.8259 140.416 46.8529 138.453 57.7719H134.431C134.337 56.8059 134.217 55.8429 134.066 54.8839C132.779 46.7159 129.141 38.9589 123.734 32.8539" fill="#FFDA71"/>
<path d="M72.9141 94.949C72.0891 97.352 71.4261 99.923 70.3161 102.213C69.3981 104.106 67.9391 105.417 66.1681 106.509C62.3851 108.841 58.1751 110.454 54.0761 112.124C53.0761 112.531 52.3691 113.455 52.6791 114.584C52.9391 115.531 54.1331 116.391 55.1391 115.981C59.7171 114.115 64.5351 112.365 68.6951 109.64C70.7471 108.296 72.5751 106.615 73.6871 104.397C75.0141 101.751 75.8121 98.805 76.7711 96.012C77.6081 93.572 73.7461 92.524 72.9141 94.949Z" fill="#211715"/>
<path d="M127.606 114.116C124.537 112.961 121.394 112.011 118.297 110.936C115.467 109.954 112.469 109.146 111.089 106.225C110.628 105.248 109.227 104.996 108.353 105.507C107.353 106.092 107.172 107.263 107.635 108.243C108.496 110.065 110.001 111.617 111.747 112.614C113.207 113.448 114.928 113.978 116.51 114.539C119.841 115.719 123.234 116.727 126.542 117.972C127.553 118.353 128.735 117.549 129.002 116.575C129.31 115.453 128.62 114.497 127.605 114.115L127.606 114.116Z" fill="#211715"/>
<path d="M110.967 87.6569C110.81 87.7439 110.65 87.8219 110.488 87.8999C110.216 88.0329 110.519 87.8399 110.577 87.8629C110.537 87.8469 110.35 87.9489 110.305 87.9649C109.898 88.1099 109.481 88.2249 109.059 88.3179C108.852 88.3639 108.644 88.4039 108.435 88.4389C108.387 88.4469 108.034 88.5019 108.302 88.4629C108.57 88.4239 108.214 88.4719 108.165 88.4769C107.707 88.5249 107.246 88.5509 106.784 88.5519C106.359 88.5529 105.937 88.5269 105.513 88.4899C105.169 88.4599 105.581 88.4729 105.587 88.5039C105.585 88.4909 105.316 88.4599 105.289 88.4549C105.097 88.4199 104.906 88.3789 104.716 88.3309C104.535 88.2849 104.356 88.2329 104.179 88.1719C104.134 88.1559 103.703 87.9899 103.936 88.0849C104.142 88.1689 103.796 88.0199 103.761 88.0039C103.272 87.7799 102.79 87.5429 102.296 87.3309C101.337 86.9199 100.107 87.0129 99.5599 88.0489C99.1059 88.9079 99.2509 90.3459 100.278 90.7849C101.373 91.2539 102.427 91.8619 103.584 92.1689C104.616 92.4429 105.717 92.5539 106.784 92.5509C108.9 92.5459 111.116 92.1369 112.985 91.1089C113.903 90.6039 114.277 89.2639 113.703 88.3729C113.104 87.4429 111.948 87.1149 110.967 87.6549V87.6569Z" fill="#211715"/>
<path d="M99.4009 69.0089C99.8629 67.0729 99.1999 62.7319 95.5809 62.5919C90.8299 62.9269 90.9179 68.2229 92.6779 70.6009C94.1189 72.5489 98.0249 73.1449 99.4019 69.0079L99.4009 69.0089Z" fill="#211715"/>
<path d="M127.674 68.073C128.091 66.133 127.472 61.776 124.156 61.625C119.806 61.948 119.902 67.259 121.521 69.651C122.846 71.609 126.425 72.218 127.674 68.073Z" fill="#211715"/>
<path d="M109.799 74.957C110.144 75.5 110.477 76.05 110.803 76.605C111.153 77.201 111.52 77.804 111.8 78.438L111.598 77.96C111.658 78.107 111.704 78.253 111.727 78.41L111.656 77.878C111.662 77.953 111.662 78.019 111.655 78.094L111.726 77.562C111.72 77.608 111.708 77.653 111.692 77.696L111.894 77.218C111.877 77.262 111.855 77.303 111.828 77.342L112.141 76.937C112.029 77.076 111.897 77.195 111.756 77.304L112.161 76.991C112.041 77.077 111.917 77.149 111.782 77.209L112.26 77.007C112.094 77.072 111.925 77.111 111.748 77.136L112.28 77.065C111.971 77.105 111.66 77.134 111.354 77.189C110.887 77.272 110.39 77.714 110.159 78.108C109.908 78.537 109.802 79.169 109.957 79.649C110.114 80.133 110.414 80.6 110.876 80.844C111.376 81.108 111.861 81.144 112.417 81.046C112.464 81.038 112.511 81.031 112.558 81.024L112.026 81.095C112.439 81.044 112.867 81.026 113.263 80.887C113.865 80.676 114.407 80.356 114.854 79.895C115.552 79.175 115.754 78.31 115.585 77.345C115.501 76.864 115.266 76.421 115.043 75.991C114.5 74.945 113.886 73.931 113.254 72.937C112.978 72.502 112.562 72.157 112.059 72.018C111.58 71.886 110.943 71.946 110.518 72.22C109.635 72.789 109.2 74.012 109.8 74.956L109.799 74.957Z" fill="#211715"/>
<path d="M80.962 97.9579C76.138 94.1079 71.856 89.3859 68.989 83.9259C68.487 82.9699 67.155 82.6809 66.253 83.2079C65.284 83.7749 65.032 84.9849 65.535 85.9439C66.788 88.3309 68.423 90.5429 70.084 92.6579C72.451 95.6709 75.138 98.3949 78.133 100.786C78.977 101.459 80.138 101.61 80.961 100.786C81.659 100.088 81.811 98.6349 80.962 97.9579Z" fill="#211715"/>
<path d="M86.4283 105.03C91.8683 107.33 97.4833 109.011 103.414 109.294C108.92 109.557 114.389 108.565 119.361 106.162C124.209 103.819 128.672 100.235 131.689 95.753C134.722 91.248 136.326 85.87 137.123 80.543C138.213 73.258 138.317 65.828 139.054 58.501C139.162 57.425 138.057 56.501 137.054 56.501C135.882 56.501 135.163 57.422 135.054 58.501C134.435 64.656 134.171 70.841 133.566 76.995C133.087 81.872 132.016 86.855 129.728 91.224C125.191 99.889 115.492 105.163 105.853 105.332C99.8223 105.437 93.9753 103.914 88.4473 101.576C87.4533 101.156 86.3053 101.277 85.7113 102.294C85.2213 103.132 85.4273 104.607 86.4283 105.03Z" fill="#211715"/>
<path d="M63.6712 61.386C60.7152 59.544 56.6922 59.908 54.0202 62.105C51.9092 63.841 51.2892 66.686 51.3452 69.302C51.4732 75.276 54.8262 81.992 60.3032 84.801C63.3432 86.36 67.3222 86.712 70.4182 85.175C72.7242 84.03 70.7002 80.579 68.3992 81.721C66.0152 82.904 62.8232 81.851 60.9902 80.514C58.9322 79.013 57.2752 76.64 56.3502 74.278C55.7902 72.85 55.4432 71.302 55.3622 69.771C55.3252 69.071 55.3122 68.338 55.4142 67.641C55.4562 67.356 55.5272 67.067 55.6052 66.79C55.6532 66.619 55.7072 66.451 55.7682 66.285C55.6932 66.444 55.6942 66.441 55.7712 66.276C56.0302 65.728 56.0732 65.661 56.3592 65.377C56.6942 65.044 57.0002 64.807 57.5222 64.582C58.8842 63.994 60.3972 64.058 61.6522 64.84C63.8432 66.205 65.8532 62.746 63.6712 61.386Z" fill="#211715"/>
<path d="M111.881 9.28395C118.989 10.6949 125.44 14.1499 130.184 19.6819C135.339 25.6929 137.523 33.3799 137.81 41.1819C138.008 46.5639 137.466 51.9449 136.527 57.2399C136.338 58.3019 136.814 59.3949 137.924 59.6999C138.891 59.9659 140.195 59.3719 140.384 58.3029C142.085 48.7169 142.879 38.3509 139.817 28.9419C137.352 21.3689 132.334 14.7809 125.637 10.4629C121.789 7.98195 117.427 6.31695 112.944 5.42595C110.43 4.92695 109.354 8.78095 111.881 9.28295V9.28395Z" fill="#211715"/>
<path d="M122.322 34.268C125.758 38.186 128.451 42.777 130.185 47.694C132.126 53.201 132.61 58.849 132.874 64.642C132.991 67.205 136.991 67.22 136.874 64.642C136.588 58.37 136.058 52.181 133.901 46.236C131.925 40.789 128.971 35.796 125.151 31.44C123.451 29.501 120.63 32.339 122.322 34.268Z" fill="#211715"/>
<path d="M119.148 35.7989C114.947 44.7769 105.134 53.3609 94.5802 51.8869C93.5122 51.7379 92.4322 52.1469 92.1202 53.2839C91.8632 54.2199 92.4402 55.5939 93.5172 55.7439C105.875 57.4689 117.532 48.6509 122.602 37.8169C123.06 36.8389 122.876 35.6609 121.884 35.0809C121.017 34.5739 119.608 34.8159 119.148 35.7989Z" fill="#211715"/>
<path d="M103.708 35.462C101.42 41.21 96.3933 45.58 91.3793 48.948C88.7783 50.695 86.0513 52.249 83.2633 53.674C80.8383 54.914 78.1623 55.588 75.7123 56.794C72.8473 58.205 70.2243 60.365 69.4393 63.594C68.8313 66.095 72.6873 67.162 73.2963 64.657C73.8893 62.218 76.1913 60.948 78.3193 59.969C80.8783 58.792 83.5603 58.032 86.0663 56.722C91.7003 53.779 97.2383 50.251 101.639 45.614C104.168 42.95 106.205 39.941 107.565 36.524C107.965 35.52 107.128 34.328 106.168 34.064C105.03 33.751 104.109 34.453 103.708 35.461V35.462Z" fill="#211715"/>
<path d="M53.9141 59.497C50.3061 51.557 50.0451 42.347 52.9601 34.158C53.8251 31.728 49.9611 30.683 49.1031 33.095C45.8131 42.34 46.4161 52.615 50.4611 61.516C50.9081 62.499 52.3331 62.739 53.1971 62.234C54.2081 61.643 54.3631 60.485 53.9151 59.498L53.9141 59.497Z" fill="#211715"/>
<path d="M54.4169 26.635C58.4289 20.458 63.3149 14.704 69.4699 10.57C75.9519 6.21596 83.5899 3.78296 91.4249 3.99896C95.7939 4.11896 100.135 5.09696 104.049 7.06396C106.343 8.21696 108.371 4.76796 106.068 3.60996C98.3139 -0.288036 89.3189 -0.888036 80.9379 1.13396C72.7879 3.09996 65.4809 7.68196 59.6329 13.622C56.3539 16.953 53.5059 20.701 50.9629 24.616C49.5569 26.781 53.0179 28.788 54.4169 26.635Z" fill="#211715"/>
<path d="M172.861 196.217C172.551 189.248 170.351 179.216 169.241 174.845C166.421 163.805 164.591 157.903 162.191 149.974C161.171 146.611 159.231 141.008 157.381 136.996L157.379 137C154.085 131.115 150.329 127.249 148.793 125.71C143.155 120.061 132.182 115.942 124.12 113.571C123.36 113.348 121.569 112.887 120.474 112.61C118.194 117.264 114.237 120.669 109.894 122.623C105.526 124.588 100.762 125.184 96.0669 125.184C83.8049 125.166 71.5819 121.04 61.2809 113.454L59.3639 111.943C59.3639 111.943 59.0589 111.702 58.5349 111.29C48.5839 114.837 39.7919 119.097 33.5949 124.292C30.9519 126.507 27.6049 130.012 23.6819 137.676C18.5569 147.687 14.0669 163.598 11.0489 173.667C9.63487 178.653 7.43887 187.488 11.0489 192.142C11.0489 192.142 14.4909 196.88 18.9549 203.026C29.3429 205.173 39.6529 207.282 48.8839 209.271C53.6719 210.753 55.9419 213.608 56.8299 217.597C57.1629 219.093 57.5289 220.799 57.9179 222.654H150.14C152.803 222.09 154.438 221.743 154.438 221.743C166.021 219.287 168.995 214.069 170.266 211.383C171.826 208.087 172.902 201.787 172.833 199.483C172.801 198.397 172.91 197.3 172.861 196.215V196.217Z" fill="white"/>
<path d="M79.1819 259.314C74.4879 258.392 69.8169 257.545 64.7139 256.931C65.7469 262.231 66.7259 267.236 67.5719 271.454C68.2479 271.284 68.6459 271.188 68.6459 271.188C75.8039 269.463 82.5929 267.471 88.9029 265.232C89.5039 265.136 90.7489 264.464 90.7729 263.08C90.7919 261.933 89.9449 261.498 89.3539 261.332C85.8429 260.659 82.5069 259.968 79.1819 259.315V259.314Z" fill="#3D8DCC"/>
<path d="M68.1561 247.385C81.0111 250.193 93.8911 252.885 106.742 255.71C109.671 256.354 112.599 257.006 115.524 257.671C116.868 257.977 118.211 258.285 119.554 258.597C120.585 258.836 121.718 259.13 122.569 259.802C123.901 260.853 123.71 263.041 122.661 264.216C121.941 265.022 120.898 265.454 119.907 265.821C118.204 266.452 116.501 267.082 114.798 267.71C101.789 272.51 88.7731 277.287 75.8151 282.225C72.8191 283.367 69.9991 283.583 66.8851 282.774C64.0151 282.029 61.1191 281.393 58.2271 280.727C52.2801 279.356 46.3421 277.947 40.4101 276.513C28.1581 273.552 15.9291 270.492 3.71909 267.361C1.22409 266.721 0.16009 270.578 2.65609 271.218C14.1571 274.167 25.6741 277.052 37.2121 279.853C43.4401 281.365 49.6741 282.851 55.9171 284.296C58.9161 284.99 61.9721 285.56 64.9371 286.385C68.1321 287.275 71.3651 287.647 74.6231 286.831C76.3451 286.4 77.9971 285.651 79.6531 285.02C81.4261 284.343 83.2021 283.671 84.9781 283.001C88.4531 281.691 91.9331 280.394 95.4161 279.103C102.227 276.579 109.047 274.081 115.861 271.567C118.817 270.477 122.301 269.683 124.791 267.672C126.89 265.977 127.771 263.348 127.371 260.709C126.486 254.867 119.112 254.381 114.535 253.349C99.4571 249.952 84.3201 246.825 69.2201 243.527C66.7111 242.979 65.6391 246.834 68.1571 247.384L68.1561 247.385Z" fill="#211715"/>
<path d="M71.0251 278.314C68.0651 264.548 65.5541 250.683 62.8271 236.87C61.5361 230.332 60.2681 223.782 58.8051 217.279C57.9551 213.498 55.7961 210.285 52.2891 208.502C50.1841 207.431 47.9371 207.024 45.6491 206.537C43.1911 206.014 40.7311 205.498 38.2711 204.984C26.3501 202.496 14.4131 200.079 2.50109 197.547C-0.00991249 197.013 -1.08291 200.868 1.43809 201.404C11.7861 203.604 22.1531 205.717 32.5121 207.865C37.4501 208.889 42.3861 209.919 47.3171 210.978C50.8021 211.726 53.6321 213.683 54.6651 217.207C55.4881 220.014 55.9501 222.972 56.5401 225.835C57.2451 229.26 57.9321 232.689 58.6121 236.119C60.1201 243.73 61.5941 251.347 63.0791 258.962C64.4071 265.773 65.7101 272.592 67.1691 279.377C67.7101 281.892 71.5661 280.828 71.0251 278.314Z" fill="#211715"/>
<path d="M69.1772 273.116C73.0522 272.178 76.9042 271.15 80.7222 270.004C82.5222 269.464 84.3152 268.898 86.0992 268.305C87.5442 267.824 89.2222 267.465 90.5562 266.72C93.5012 265.076 93.4842 260.555 90.0902 259.467C88.3312 258.903 86.3652 258.713 84.5522 258.35C82.6742 257.973 80.7962 257.594 78.9152 257.229C74.4612 256.363 69.9932 255.601 65.4912 255.026C64.4182 254.889 63.4912 256.043 63.4912 257.026C63.4912 258.221 64.4152 258.888 65.4912 259.026C69.6362 259.556 73.7512 260.289 77.8512 261.087C79.8842 261.482 81.9132 261.893 83.9442 262.3C84.9432 262.5 85.9422 262.699 86.9412 262.895C87.4862 263.002 88.0462 263.08 88.5842 263.214C89.2982 263.392 88.7652 263.207 88.8162 263.162C88.7752 263.198 88.6762 263.052 88.8262 263.034C89.0012 263.013 88.0912 263.474 88.5322 263.267C87.8412 263.592 87.0232 263.776 86.2952 264.024C84.3122 264.7 82.3172 265.34 80.3132 265.949C76.2802 267.174 72.2092 268.267 68.1122 269.258C65.6112 269.863 66.6702 273.722 69.1752 273.115L69.1772 273.116Z" fill="#211715"/>
<path d="M115.589 260.506C103.925 264.373 92.3541 268.521 80.6801 272.357C79.7841 272.652 78.8871 272.946 77.9841 273.22C77.7261 273.298 77.4641 273.365 77.2071 273.446C76.7131 273.602 76.9831 273.469 77.2801 273.471C74.7051 273.451 74.7031 277.451 77.2801 277.471C78.4051 277.48 79.6551 276.892 80.6991 276.555C83.0611 275.791 85.4111 274.993 87.7621 274.196C94.1431 272.031 100.512 269.833 106.89 267.658C110.141 266.549 113.392 265.444 116.652 264.363C119.084 263.557 118.042 259.693 115.589 260.506Z" fill="#211715"/>
<path d="M367.288 152.757C370.095 161.067 373.261 169.202 375.382 177.731C377.461 186.091 379.264 195.127 377.663 203.734C376.862 208.038 375.122 212.023 371.749 214.916C369.792 216.595 372.632 219.413 374.577 217.744C381.539 211.772 382.593 201.926 382.06 193.326C381.472 183.856 378.99 174.471 375.998 165.5C374.455 160.872 372.706 156.315 371.145 151.693C370.326 149.267 366.461 150.308 367.288 152.756V152.757Z" fill="#211715"/>
<path d="M239.595 204.98C236.148 206.506 232.195 206.982 228.516 206.09C225.803 205.432 222.943 204.037 221.376 201.625C219.384 198.558 219.275 194.555 219.764 191.057C220.287 187.313 221.162 183.614 222.12 179.96C223.546 174.518 225.2 169.191 227.343 163.987C229.691 158.285 232.336 152.698 235.105 147.19C236.44 144.535 237.808 141.895 239.256 139.299C240.11 137.768 240.954 136.174 242.028 134.781C242.688 133.925 242.158 132.541 241.31 132.045C240.277 131.441 239.236 131.905 238.574 132.763C237.568 134.067 236.772 135.552 235.968 136.985C234.633 139.363 233.37 141.781 232.137 144.212C229.098 150.202 226.239 156.291 223.664 162.496C221.323 168.136 219.534 173.92 218.022 179.834C217.011 183.786 216.142 187.783 215.665 191.838C215.203 195.768 215.753 200.395 218 203.763C223.08 211.374 233.971 211.818 241.615 208.435C242.603 207.998 242.834 206.556 242.333 205.699C241.737 204.681 240.588 204.543 239.597 204.981L239.595 204.98Z" fill="#211715"/>
<path d="M118.999 114.299C124.275 115.624 129.474 117.212 134.495 119.321C139.921 121.6 144.986 124.446 148.994 128.808C151.569 131.61 153.777 134.699 155.652 138.011C156.92 140.251 160.377 138.238 159.106 135.992C156.018 130.539 151.961 125.223 146.862 121.495C141.226 117.375 134.434 114.767 127.839 112.629C125.273 111.797 122.678 111.1 120.062 110.443C117.565 109.816 116.499 113.671 118.999 114.299Z" fill="#211715"/>
<path d="M118.786 111.52C116.969 115.178 114.119 118.102 110.542 120.069C106.338 122.38 101.49 123.12 96.7483 123.18C87.7013 123.296 78.6683 121.045 70.6353 116.907C67.0853 115.078 63.8383 112.941 60.7773 110.529C59.9293 109.861 58.7763 109.702 57.9493 110.529C57.2553 111.223 57.0963 112.685 57.9493 113.357C64.8983 118.833 72.6993 122.994 81.2893 125.248C90.8873 127.766 102.239 128.509 111.405 124.116C116.038 121.895 119.951 118.147 122.24 113.538C123.382 111.24 119.933 109.212 118.786 111.52Z" fill="#211715"/>
<path d="M62.828 107.725C54.853 110.315 46.902 113.362 39.661 117.635C34.33 120.782 29.686 124.566 26.117 129.65C21.718 135.917 18.824 143.146 16.282 150.325C13.799 157.336 11.7 164.474 9.57799 171.6C8.53099 175.118 7.61099 178.664 7.22899 182.324C6.84899 185.964 7.05699 190.107 9.32099 193.153C9.96399 194.019 11.052 194.458 12.057 193.871C12.911 193.372 13.422 192.007 12.775 191.135C10.969 188.704 10.925 185.581 11.195 182.678C11.467 179.755 12.2 176.862 13.022 174.05C14.978 167.358 16.97 160.667 19.212 154.065C21.562 147.145 24.168 140.248 28.03 134.011C31.056 129.123 34.891 125.385 39.724 122.292C47.169 117.527 55.518 114.303 63.891 111.583C66.329 110.791 65.286 106.926 62.828 107.725Z" fill="#211715"/>
<path d="M270.86 115.66C279.884 133.8 306.065 129.819 320.89 122.364C324.666 120.465 328.118 118.124 331.43 115.514C332.279 114.845 332.13 113.386 331.43 112.686C330.592 111.848 329.453 112.015 328.602 112.686C322.809 117.251 316.037 120.794 308.785 122.752C304.736 123.845 300.583 124.453 296.389 124.528C292.006 124.606 287.436 124.174 283.404 122.327C279.45 120.516 276.255 117.542 274.314 113.641C273.167 111.336 269.716 113.36 270.86 115.66Z" fill="#211715"/>
<path d="M305.322 203.576C304.303 202.652 299.566 198.348 298.568 197.298C295.339 193.901 293.674 186.844 297.85 184.566C298.669 184.163 299.71 183.995 300.164 183.204C300.42 182.758 300.418 182.217 300.493 181.709C300.68 180.458 301.43 179.325 302.459 178.594C303.488 177.863 304.048 176.648 303.999 175.388C303.973 174.716 303.975 174.132 303.988 174.006C304.201 171.959 305.111 169.972 306.597 168.538C306.643 168.494 306.699 168.448 306.762 168.401C307.699 167.707 308.315 166.666 308.38 165.502C308.439 164.436 308.528 163.388 308.505 163.008C308.44 161.911 308.883 160.743 309.344 159.929C310.09 158.61 311.514 158.024 312.902 158.081C314.134 158.131 315.237 158.582 315.813 159.73C317.239 162.573 320.881 173.117 324.669 178.986C326.579 178.213 328.55 177.393 329.343 176.99C332.545 175.364 334.844 177.314 335.646 178.615C336.246 179.589 336.444 180.839 336.492 181.982C336.624 185.157 336.567 187.822 336.339 191.161C336.31 191.586 336.243 192.027 336.396 192.425C336.529 192.769 336.778 193.064 337.066 193.295C337.786 193.873 338.478 194.426 339.154 194.953C340.627 196.102 341.028 198.16 340.099 199.782C337.594 204.153 334.887 208.45 331.637 212.176C329.723 214.371 326.475 214.883 324.002 213.347C320.948 211.451 317.757 209.877 314.387 208.201C311.579 206.894 308.143 206.091 305.514 203.751C305.514 203.751 305.446 203.689 305.322 203.576Z" fill="white"/>
<path d="M313.379 209.928C315.765 211.114 318.156 212.294 320.481 213.596C322.544 214.751 324.384 216.105 326.829 216.222C331.96 216.466 334.958 211.512 337.492 207.797C338.952 205.657 340.327 203.446 341.598 201.188C342.735 199.169 342.991 196.848 341.688 194.816C341.05 193.82 340.101 193.176 339.191 192.45C338.846 192.175 338.371 191.803 338.307 191.59C338.138 191.025 338.42 189.91 338.451 189.319C338.577 186.88 338.624 184.423 338.492 181.983C338.37 179.721 337.791 177.488 335.957 176.016C333.898 174.364 331.249 174.197 328.811 175.061C326.402 175.915 327.439 179.781 329.874 178.918C331.167 178.459 332.527 178.259 333.604 179.253C334.569 180.144 334.508 182.119 334.541 183.532C334.589 185.612 334.542 187.691 334.425 189.768C334.366 190.808 334.148 191.938 334.466 192.956C334.784 193.974 335.562 194.639 336.362 195.278C337.449 196.146 339.147 197.066 338.414 198.698C337.547 200.628 336.199 202.485 335.048 204.257C333.904 206.018 332.703 207.749 331.381 209.382C330.327 210.684 329.303 212.037 327.516 212.215C325.503 212.415 323.765 210.841 322.106 209.924C319.904 208.708 317.648 207.594 315.396 206.474C313.098 205.331 311.069 208.781 313.377 209.928H313.379Z" fill="#211715"/>
<path d="M328.215 180.297C326.259 178.341 324.919 175.578 323.689 173.043C322.256 170.089 321.006 167.051 319.774 164.009C318.865 161.763 318.104 158.456 316.005 157.013C314.344 155.871 311.996 155.815 310.192 156.624C308.19 157.522 306.976 159.525 306.617 161.647C306.453 162.618 306.497 163.626 306.436 164.608C306.366 165.734 306.187 166.218 305.349 166.987C303.82 168.39 302.726 170.312 302.253 172.333C301.887 173.894 302.48 175.997 301.151 177.099C300.341 177.77 299.638 178.49 299.162 179.444C298.917 179.936 298.715 180.455 298.602 180.992C298.552 181.23 298.505 182.07 298.44 182.15C298.236 182.397 297.415 182.58 297.158 182.698C296.837 182.845 296.548 183.013 296.261 183.218C295.515 183.748 294.882 184.414 294.413 185.203C293.582 186.598 293.286 188.317 293.381 189.923C293.575 193.219 295.009 196.519 297.32 198.881C299.263 200.867 301.385 202.696 303.44 204.564C304.452 205.484 305.504 206.346 306.698 207.027C308.818 208.235 311.17 208.923 313.382 209.929C314.365 210.376 315.534 210.21 316.118 209.211C316.62 208.352 316.388 206.924 315.4 206.475C312.467 205.141 309.166 204.338 306.716 202.143C305.033 200.635 303.37 199.102 301.72 197.558C299.961 195.912 298.487 194.297 297.773 191.921C297.417 190.735 297.199 189.432 297.483 188.211C297.801 186.846 298.624 186.421 299.833 185.894C300.657 185.535 301.438 185.02 301.892 184.214C302.392 183.324 302.25 182.304 302.649 181.4C303.003 180.597 303.7 180.235 304.301 179.646C305.021 178.942 305.556 178.004 305.812 177.03C306.259 175.329 305.803 173.724 306.543 172.052C307.303 170.335 308.992 169.462 309.792 167.799C310.68 165.953 310.134 163.989 310.605 162.097C310.914 160.852 312.198 159.37 313.646 160.238C313.977 160.436 314.104 160.772 314.266 161.108C314.36 161.303 314.446 161.503 314.533 161.702C314.577 161.803 314.808 162.345 314.712 162.116C315.179 163.226 315.623 164.346 316.076 165.462C317.406 168.743 318.754 172.024 320.307 175.207C321.666 177.992 323.174 180.912 325.388 183.126C327.211 184.949 330.04 182.121 328.216 180.298L328.215 180.297Z" fill="#211715"/>
<path d="M325.732 113.877C333.75 116.482 341.761 119.577 348.849 124.212C351.239 125.775 353.507 127.523 355.443 129.631C357.838 132.238 359.703 135.296 361.353 138.414C363.777 142.996 365.597 147.866 367.289 152.756C368.125 155.174 371.991 154.135 371.146 151.693C368.249 143.319 364.936 134.709 359.179 127.837C354.631 122.409 348.123 118.733 341.784 115.798C336.921 113.546 331.89 111.675 326.796 110.019C324.342 109.222 323.291 113.083 325.733 113.876L325.732 113.877Z" fill="#211715"/>
<path d="M251.236 195.152C252.724 201.88 254.007 208.65 255.085 215.455C255.254 216.523 256.587 217.115 257.545 216.852C258.682 216.539 259.112 215.463 258.942 214.392C257.864 207.587 256.581 200.816 255.093 194.089C254.537 191.577 250.68 192.64 251.236 195.152Z" fill="#211715"/>
<path d="M59.9213 224.657H400.271C402.845 224.657 402.849 220.657 400.271 220.657H59.9213C57.3473 220.657 57.3433 224.657 59.9213 224.657Z" fill="#211715"/>
<path d="M154.969 223.674C160.753 222.418 166.674 220.077 170.325 215.194C173.359 211.136 174.486 205.504 174.804 200.554C175.268 193.353 173.791 186.012 172.267 179.007C170.782 172.182 168.879 165.436 166.912 158.736C164.655 151.049 162.444 143.292 159.108 135.988C158.659 135.005 157.237 134.764 156.372 135.27C155.363 135.86 155.204 137.02 155.654 138.006C158.451 144.13 160.319 150.63 162.244 157.065C164.211 163.64 166.099 170.255 167.694 176.93C169.211 183.274 170.706 189.906 170.867 196.451C170.991 201.51 170.426 207.277 167.832 211.732C166.894 213.343 165.724 214.643 164.012 215.831C160.993 217.927 157.466 219.044 153.905 219.817C151.391 220.363 152.456 224.22 154.969 223.674Z" fill="#211715"/>
<path d="M135.139 186.631C133.834 192.859 132.529 199.087 131.224 205.316C131.003 206.372 131.534 207.478 132.621 207.776C133.614 208.049 134.859 207.441 135.081 206.379C136.386 200.151 137.691 193.923 138.996 187.694C139.217 186.638 138.686 185.532 137.599 185.234C136.606 184.961 135.361 185.569 135.139 186.631Z" fill="#211715"/>
<path d="M341.831 263.27C341.942 262.871 342.001 262.455 342.001 262.03C342.001 259.487 342.001 256.945 342.003 254.402C342.003 253.047 341.419 251.813 340.472 250.961C332.018 255.914 312.706 267.373 303.017 273.076C301.985 273.683 300.851 274.069 299.684 274.221C300.06 275.283 300.299 275.963 300.299 275.963C301.879 280.45 301.072 285.553 300.188 288.793C300.844 288.919 301.34 289.014 301.34 289.014C302.16 289.171 303.009 289.012 303.716 288.569C315.754 281.022 327.794 273.477 339.837 265.937C340.823 265.319 341.526 264.363 341.831 263.27Z" fill="#3D8DCC"/>
<path d="M254.315 263.912C254.431 263.651 254.638 263.423 254.943 263.275C267.133 257.376 288.799 246.892 294.647 244.062C295.489 243.655 296.433 243.514 297.358 243.654C313.8 246.151 329.254 248.499 338.092 249.841C339.007 249.98 339.823 250.381 340.47 250.962C332.017 255.913 312.706 267.373 303.016 273.075C301.143 274.177 298.934 274.548 296.804 274.121C287.399 272.234 268.994 268.489 255.258 265.737C254.358 265.557 254 264.618 254.314 263.912H254.315Z" fill="#3D8DCC"/>
<path d="M227.243 156.32C226.112 155.27 224.99 154.212 223.876 153.144C221.952 151.301 219.891 148.664 221.026 146.254C221.801 144.608 223.863 143.902 225.666 144.141C227.469 144.38 229.077 145.357 230.625 146.312C233.776 148.255 237.077 149.974 240.078 152.142C243.066 154.301 245.964 157.844 246.072 161.064C247.345 162.944 248.244 165.728 248.313 167.182C248.637 174.08 245.079 178.748 239.954 181.673L235.657 183.214C232.946 183.818 228.772 184.484 226.025 184.894C223.964 185.202 221.19 185.559 219.11 185.419C215.557 185.179 212.191 183.806 208.898 182.45C207.234 181.765 205.478 181.008 204.449 179.531C203.391 178.013 203.249 175.921 201.926 174.627C200.817 173.542 199.163 173.296 197.738 172.682C195.22 171.597 193.813 169.225 193.731 166.484C193.692 165.185 193.788 163.885 194.038 162.722C194.365 161.201 194.957 159.914 195.859 159.173C197.691 157.667 200.622 157.364 203.507 157.688C206.392 158.012 209.86 158.628 212.743 158.969C217.379 159.516 222.174 158.628 226.306 156.455" fill="white"/>
<path d="M228.657 154.906C227.528 153.856 226.393 152.808 225.29 151.73C224.4 150.862 223.438 149.9 222.946 148.732C222.006 146.5 224.392 145.787 226.154 146.286C227.408 146.641 228.515 147.364 229.617 148.038C230.934 148.843 232.27 149.618 233.602 150.399C236.119 151.875 238.761 153.339 240.848 155.408C241.709 156.262 242.479 157.183 243.092 158.232C243.394 158.749 243.661 159.276 243.836 159.849C244.034 160.497 243.998 161.218 244.246 161.834C244.683 162.921 245.395 163.858 245.778 164.989C246.114 165.981 246.329 166.923 246.335 167.968C246.357 172.334 244.321 176.213 240.79 178.766C240.163 179.219 239.495 179.691 239.186 179.83C238.575 180.105 237.906 180.289 237.275 180.515C235.853 181.025 234.542 181.425 233.051 181.709C230.65 182.167 228.234 182.553 225.817 182.917C223.191 183.312 220.449 183.707 217.805 183.268C214.865 182.78 212.043 181.625 209.311 180.471C208.281 180.036 207.111 179.555 206.347 178.707C205.548 177.82 205.277 176.536 204.808 175.465C204.267 174.229 203.488 173.162 202.339 172.421C201.19 171.68 199.86 171.434 198.63 170.899C196.706 170.061 195.769 168.282 195.727 166.24C195.696 164.732 195.799 163.051 196.462 161.666C197.011 160.52 198.042 160.065 199.236 159.79C202.141 159.12 205.353 159.917 208.244 160.347C211.408 160.818 214.559 161.329 217.765 161.008C221.125 160.671 224.312 159.724 227.316 158.181C229.607 157.005 227.585 153.552 225.297 154.727C221.021 156.923 216.377 157.47 211.652 156.83C207.112 156.215 201.934 154.673 197.425 156.138C195.32 156.822 193.672 158.111 192.776 160.16C191.803 162.385 191.521 165.056 191.819 167.455C192.066 169.444 192.889 171.358 194.34 172.773C195.032 173.448 195.848 174.011 196.729 174.408C197.785 174.885 198.991 175.1 199.995 175.678C201.609 176.608 201.729 179.085 202.723 180.54C204.082 182.53 206.216 183.486 208.368 184.378C213.069 186.326 217.644 187.795 222.79 187.305C227.052 186.899 231.352 186.163 235.541 185.283C236.583 185.064 237.569 184.649 238.57 184.29C239.585 183.926 240.627 183.621 241.551 183.055C245.25 180.788 248.232 177.479 249.561 173.301C250.99 168.806 250.378 164.013 247.803 160.055L248.076 161.064C247.791 156.595 244.553 152.947 241.092 150.415C239.1 148.958 236.952 147.722 234.823 146.478C232.861 145.331 230.95 143.987 228.873 143.058C226.941 142.194 224.817 141.769 222.753 142.441C220.76 143.091 219.164 144.661 218.801 146.766C218.003 151.408 222.872 154.981 225.832 157.734C227.715 159.485 230.551 156.663 228.66 154.906H228.657Z" fill="#211715"/>
<path d="M333.078 252.99C323.017 258.899 312.996 264.875 302.943 270.797C301.665 271.55 300.464 272.206 298.945 272.285C297.768 272.346 296.632 272.052 295.487 271.821C293.173 271.355 290.86 270.888 288.547 270.421C283.008 269.301 277.47 268.18 271.932 267.06C268.971 266.462 266.01 265.864 263.049 265.267C261.75 265.005 260.452 264.744 259.153 264.483C258.4 264.332 257.646 264.18 256.893 264.029C256.657 263.982 256.391 263.899 256.155 263.881C255.732 263.741 255.675 263.766 255.985 263.955C256.234 264.234 256.271 264.519 256.096 264.81C256.182 265.001 255.491 265.058 256.204 264.878C256.458 264.814 256.744 264.617 256.98 264.502C257.428 264.285 257.876 264.069 258.323 263.852C259.371 263.345 260.42 262.837 261.468 262.33C263.749 261.226 266.031 260.122 268.312 259.018C276.599 255.008 284.886 250.998 293.173 246.988C293.755 246.706 294.338 246.424 294.92 246.143C295.936 245.652 296.662 245.563 297.808 245.732C301.266 246.243 304.721 246.782 308.177 247.307C314.401 248.252 320.624 249.198 326.848 250.143C329.368 250.526 331.888 250.908 334.408 251.291C336.134 251.553 338.864 251.412 339.744 253.251C340.289 254.389 339.999 256.042 339.999 257.262C339.999 258.928 340.226 260.748 339.984 262.394C339.782 263.767 338.635 264.329 337.565 265C336.025 265.964 334.484 266.929 332.944 267.893C326.923 271.664 320.903 275.435 314.883 279.208C311.803 281.138 308.723 283.069 305.644 284.999C304.627 285.636 302.86 287.129 301.809 287.076C301.954 287.083 301.675 287.046 301.636 287.041C297.466 286.418 293.318 285.439 289.178 284.642C277.605 282.413 266.033 280.184 254.46 277.955L253.759 277.82L254.237 281.475L255.934 280.422C257.01 279.754 257.607 279.153 257.644 277.766C257.738 274.229 257.644 270.676 257.644 267.138C257.644 264.564 253.644 264.56 253.644 267.138C253.644 270.842 253.644 274.545 253.644 278.249L254.635 276.522L252.218 278.022C250.858 278.866 250.927 281.337 252.696 281.677C263.754 283.807 274.813 285.937 285.871 288.067C290.694 288.996 295.513 289.958 300.343 290.854C301.399 291.05 302.437 291.158 303.498 290.846C305.122 290.369 306.66 289.083 308.083 288.191C309.763 287.138 311.443 286.085 313.122 285.032C319.561 280.996 326.001 276.961 332.442 272.927C333.982 271.962 335.522 270.998 337.063 270.033C338.636 269.048 340.449 268.173 341.831 266.921C344.489 264.514 343.998 260.983 343.998 257.74C343.998 254.641 344.259 251.491 341.605 249.32C339.633 247.707 336.952 247.66 334.534 247.293C328.543 246.383 322.551 245.473 316.56 244.563C312.933 244.012 309.306 243.461 305.679 242.91C303.901 242.64 302.122 242.37 300.344 242.1C298.529 241.824 296.673 241.343 294.855 241.851C293.32 242.28 291.809 243.219 290.377 243.912C288.557 244.793 286.737 245.673 284.917 246.554C280.223 248.825 275.53 251.097 270.836 253.368C266.083 255.668 261.331 257.968 256.578 260.267C254.423 261.31 251.382 262.471 252.374 265.499C252.85 266.951 254.061 267.534 255.456 267.814C256.976 268.119 258.497 268.424 260.017 268.73C271.487 271.038 282.951 273.371 294.42 275.679C297.48 276.295 300.33 276.6 303.255 275.205C305.924 273.932 308.443 272.197 310.987 270.692C316.518 267.421 322.045 264.143 327.577 260.874C330.08 259.395 332.585 257.917 335.092 256.444C337.31 255.141 335.3 251.682 333.073 252.99H333.078Z" fill="#211715"/>
<path d="M298.371 276.495C299.105 278.632 299.269 280.308 299.181 282.562C299.162 283.043 299.128 283.523 299.082 284.001C299.056 284.267 299.027 284.533 298.992 284.798C299.044 284.406 298.934 285.161 298.922 285.231C298.778 286.109 298.591 286.98 298.372 287.842C298.114 288.854 298.702 290.059 299.769 290.302C300.809 290.539 301.953 289.99 302.229 288.905C303.338 284.547 303.711 279.748 302.229 275.431C301.89 274.444 300.841 273.687 299.769 274.034C298.79 274.351 298.008 275.435 298.372 276.494L298.371 276.495Z" fill="#211715"/>
<path d="M217.406 262.451C225.23 258.699 233.025 254.885 240.893 251.223C241.872 250.767 242.119 249.357 241.611 248.487C241.024 247.483 239.858 247.312 238.875 247.769C231.007 251.43 223.213 255.245 215.388 258.997C213.068 260.11 215.093 263.56 217.406 262.451Z" fill="#211715"/>
<path d="M219.135 257.142L218.774 256.675C218.699 256.578 218.623 256.481 218.548 256.383C218.38 256.164 218.726 256.676 218.604 256.449C218.399 256.068 218.499 256.291 218.487 257.044C218.478 257.65 218.574 257.838 218.153 258.168C217.878 258.384 218.136 258.203 218.206 258.168C218.276 258.132 218.349 258.101 218.421 258.068C218.587 257.993 218.753 257.919 218.92 257.846C219.004 257.809 219.087 257.773 219.171 257.737C219.593 257.553 218.885 257.854 219.135 257.751C219.496 257.602 219.857 257.455 220.221 257.314C221.702 256.741 223.213 256.25 224.743 255.829C225.751 255.552 226.472 254.396 226.14 253.369C225.808 252.342 224.761 251.675 223.68 251.972C221.795 252.49 219.94 253.117 218.135 253.867C217.059 254.314 215.697 254.7 215.048 255.751C214.547 256.562 214.615 257.618 215.111 258.413C215.451 258.958 215.911 259.46 216.305 259.97C216.595 260.345 217.271 260.556 217.719 260.556C218.21 260.556 218.795 260.338 219.133 259.97C219.483 259.589 219.743 259.088 219.719 258.556C219.694 257.989 219.477 257.586 219.133 257.142H219.135Z" fill="#211715"/>
<path d="M272.978 112.572C267.712 113.895 262.56 115.527 257.558 117.653C252.056 119.992 246.959 122.942 242.911 127.397C240.354 130.212 238.11 133.314 236.236 136.622C234.965 138.865 238.42 140.883 239.69 138.641C241.588 135.291 243.851 132.191 246.506 129.401C248.864 126.923 251.596 125.048 254.614 123.449C260.719 120.214 267.362 118.106 274.041 116.428C276.536 115.801 275.479 111.944 272.978 112.572Z" fill="#211715"/>
<path d="M61.1102 177.043C62.0342 173.989 62.5542 170.579 64.0542 167.736C64.1722 167.513 64.3042 167.298 64.4302 167.08C64.4842 166.986 64.7872 166.584 64.5032 166.952C64.7632 166.615 65.0522 166.298 65.3422 165.986C66.0892 165.184 66.8862 164.429 67.6942 163.689C69.6012 161.942 71.5892 160.283 73.5962 158.653C74.4892 157.928 75.3872 157.21 76.2912 156.498C76.6562 156.211 77.0212 155.924 77.3872 155.639C77.5592 155.505 78.3882 154.863 77.9392 155.209C78.5042 154.774 79.0712 154.277 79.7122 153.963C81.0732 153.297 82.7582 153.98 82.5462 155.636C82.4092 156.709 83.5632 157.636 84.5462 157.636C85.7412 157.636 86.4082 156.712 86.5462 155.636C86.8022 153.633 85.6582 151.595 83.9532 150.576C81.9382 149.373 79.5582 149.451 77.5492 150.591C76.0252 151.456 74.6592 152.724 73.2902 153.805C71.0552 155.571 68.8422 157.368 66.6912 159.235C64.7622 160.91 62.7262 162.628 61.2192 164.712C58.9312 167.877 58.3592 172.322 57.2532 175.978C56.5062 178.447 60.3662 179.503 61.1102 177.041V177.043Z" fill="#211715"/>
<path d="M92.3939 174.436L97.9349 170.711L101.519 168.302C102.273 167.795 103.108 167.317 103.753 166.671C104.873 165.549 105.641 163.991 105.657 162.389C105.666 161.548 105.438 160.684 105.021 159.955C104.654 159.314 104.216 158.865 103.518 158.6C103.366 158.542 103.211 158.493 103.058 158.44C102.069 158.096 100.827 158.832 100.598 159.837C100.344 160.953 100.936 161.928 101.995 162.297L102.455 162.457L101.572 161.943C101.332 161.643 101.568 161.932 101.567 161.974L101.647 162.125C101.57 161.929 101.554 161.899 101.599 162.035C101.599 162.035 101.735 162.477 101.653 162.168C101.574 161.87 101.653 162.361 101.656 162.389C101.667 162.483 101.61 162.781 101.684 162.348C101.665 162.457 101.643 162.566 101.615 162.673C101.587 162.78 101.541 162.887 101.516 162.994C101.602 162.624 101.501 163.023 101.439 163.139C101.377 163.255 101.032 163.758 101.271 163.454C101.109 163.66 100.91 163.827 100.735 164.021C100.529 164.25 101.146 163.752 100.852 163.939C100.182 164.365 99.5309 164.827 98.8719 165.27L92.1219 169.808L90.3729 170.983C89.5059 171.566 89.0449 172.772 89.6549 173.719C90.2119 174.583 91.4629 175.061 92.3909 174.437L92.3939 174.436Z" fill="#211715"/>
<path d="M81.838 162.527C84.669 160.704 87.559 158.969 90.454 157.25C91.856 156.417 93.261 155.59 94.678 154.782C95.852 154.112 97.148 153.262 98.563 153.388C99.045 153.431 99.124 153.508 99.315 153.944C99.417 154.177 99.485 154.91 99.382 155.319C99.162 156.19 98.079 156.739 97.257 157.327C94.826 159.067 92.405 160.822 89.986 162.578C88.379 163.744 86.772 164.912 85.167 166.082C84.295 166.717 83.865 167.819 84.449 168.818C84.952 169.678 86.308 170.175 87.185 169.536C91.428 166.443 95.671 163.349 99.947 160.301C101.489 159.202 102.872 158.116 103.291 156.15C103.706 154.202 103.244 151.865 101.681 150.524C98.348 147.665 93.876 150.608 90.81 152.398C87.11 154.558 83.422 156.754 79.819 159.075C77.662 160.464 79.665 163.928 81.838 162.529V162.527Z" fill="#211715"/>
<path d="M101.48 168.259C101.537 168.351 101.589 168.447 101.634 168.546C101.532 168.3 101.514 168.28 101.579 168.484C101.614 168.664 101.616 168.664 101.585 168.484C101.563 168.307 101.556 168.305 101.564 168.478C101.549 168.7 101.558 168.647 101.592 168.319C101.575 168.399 101.554 168.478 101.53 168.556C101.45 168.913 101.748 168.191 101.544 168.522C101.462 168.655 101.381 168.791 101.299 168.924C101.106 169.237 101.589 168.585 101.341 168.876C101.231 169.005 101.124 169.134 101.008 169.257C100.443 169.855 99.8033 170.387 99.1723 170.913C98.3903 171.566 97.5923 172.2 96.7883 172.826C96.7043 172.891 96.6203 172.956 96.5373 173.021C96.2583 173.238 96.9523 172.702 96.5373 173.021C96.3633 173.155 96.1883 173.289 96.0133 173.422C95.7333 173.635 95.4533 173.848 95.1713 174.059C94.7383 174.384 94.4013 174.711 94.2523 175.254C94.1203 175.733 94.1803 176.37 94.4543 176.795C94.9853 177.619 96.2963 178.185 97.1903 177.513C98.9303 176.205 100.663 174.877 102.324 173.468C102.97 172.919 103.631 172.363 104.168 171.704C104.71 171.039 105.199 170.345 105.42 169.501C105.716 168.375 105.508 167.237 104.932 166.238C104.409 165.331 103.1 164.938 102.196 165.52C101.281 166.11 100.919 167.286 101.478 168.256L101.48 168.259Z" fill="#211715"/>
<path d="M101.071 174.732C101.148 174.772 101.424 174.969 101.153 174.752C100.833 174.497 101.267 174.947 101.008 174.596C100.739 174.232 101.02 174.606 101.003 174.618C100.991 174.626 100.816 174.118 100.891 174.381C100.965 174.639 100.84 174.114 100.861 174.099C100.857 174.102 100.863 174.285 100.865 174.309C100.869 174.391 100.831 174.63 100.881 174.251C100.933 173.867 100.894 174.138 100.874 174.228C100.741 174.812 100.482 175.378 100.261 175.932C100.198 176.09 100.134 176.248 100.069 176.406C100.028 176.507 99.9849 176.608 99.9439 176.709C99.8419 176.958 100.098 176.349 99.9909 176.599C99.8299 176.972 99.6689 177.345 99.5009 177.716C99.1679 178.451 98.8169 179.178 98.4359 179.89C97.9429 180.812 98.1739 182.109 99.1539 182.626C100.083 183.117 101.363 182.893 101.89 181.908C102.815 180.18 103.591 178.364 104.298 176.538C104.582 175.806 104.838 175.108 104.865 174.309C104.908 173.049 104.204 171.86 103.09 171.278C102.164 170.794 100.874 171.01 100.354 171.996C99.8669 172.917 100.081 174.215 101.071 174.732Z" fill="#211715"/>
<path d="M99.4953 179.319C99.4593 180.849 99.5943 182.406 99.1363 183.887C98.7833 185.028 98.0813 186.037 97.2563 186.887C95.4653 188.734 93.0933 189.971 90.6963 190.842C85.1633 192.852 79.3273 194.079 73.6073 195.423C71.1023 196.012 72.1633 199.87 74.6703 199.28C80.9583 197.802 87.5303 196.551 93.4973 194.01C96.2293 192.847 98.8923 191.231 100.797 188.912C101.768 187.729 102.536 186.416 102.993 184.949C103.562 183.124 103.451 181.202 103.495 179.318C103.555 176.743 99.5553 176.744 99.4953 179.318V179.319Z" fill="#211715"/>
<path d="M54.7542 185.097C56.7542 183.349 58.5921 181.424 60.2461 179.346C60.5891 178.915 60.8322 178.506 60.8322 177.932C60.8322 177.441 60.6141 176.856 60.2461 176.518C59.8651 176.168 59.3642 175.908 58.8321 175.932C58.3372 175.954 57.7411 176.112 57.4181 176.518C55.7641 178.596 53.9261 180.521 51.9261 182.269C51.1361 182.96 51.1671 184.4 51.9261 185.097C52.7691 185.87 53.9112 185.834 54.7542 185.097Z" fill="#211715"/>
</g>
<defs>
<clipPath id="clip0_523_2212">
<rect width="402.203" height="294.662" fill="white"/>
</clipPath>
</defs>
</svg>
