<svg width="141" height="119" viewBox="0 0 141 119" fill="none" xmlns="http://www.w3.org/2000/svg">
<path d="M73.0827 101.013V96.1914L47.8457 96.2014C47.8517 102.865 47.8537 109.527 47.8517 116.189H73.0817C73.0817 116.189 73.0817 109.15 73.0827 101.013Z" fill="white"/>
<path d="M2.45268 79.6934C2.44568 60.2934 2.43669 38.0224 2.42969 22.9014C2.43139 22.4783 2.51645 22.0596 2.68002 21.6693C2.84359 21.2791 3.08246 20.9248 3.38298 20.6269C3.6835 20.329 4.03978 20.0932 4.43146 19.9331C4.82313 19.7729 5.24252 19.6915 5.66568 19.6934L73.2657 19.6694H114.116C115.177 19.6694 116.194 20.0909 116.944 20.841C117.694 21.5912 118.116 22.6086 118.116 23.6694V61.1294C118.116 68.0474 118.122 74.9914 118.124 81.5624C116.924 81.5624 116.194 81.5624 116.194 81.5624C116.194 81.5624 59.0937 81.5624 2.44968 81.5624L2.45268 79.6934Z" fill="white"/>
<path d="M118.128 81.5564C118.128 85.5224 118.137 89.3564 118.137 92.9704C118.135 93.3941 118.05 93.8133 117.886 94.204C117.722 94.5948 117.483 94.9493 117.182 95.2474C116.881 95.5455 116.524 95.7812 116.131 95.9411C115.739 96.1011 115.319 96.182 114.895 96.1794C92.6591 96.1884 28.3041 96.2064 5.68909 96.2164C5.26673 96.2188 4.84805 96.1378 4.457 95.9782C4.06595 95.8187 3.71021 95.5835 3.41011 95.2863C3.11002 94.9891 2.87147 94.6356 2.70812 94.2461C2.54476 93.8566 2.4598 93.4388 2.4581 93.0164C2.4581 89.3884 2.4491 85.5414 2.4581 81.5564H118.128Z" fill="white"/>
<path d="M74.2696 17.2693L7.87563 17.2923C5.52863 17.2923 3.17563 17.2373 1.47063 19.1643C-0.338369 21.2133 0.0306201 23.9433 0.0316201 26.4773L0.0376168 42.3443L0.0526161 77.9203V86.6493V90.4403C-0.0605853 91.8327 0.0178142 93.2341 0.285618 94.6053C1.08562 97.4053 3.69963 98.6183 6.40563 98.6173H10.5726C18.2046 98.6133 25.838 98.6103 33.4726 98.6083L89.4726 98.5863L111.53 98.5793C113.083 98.7017 114.645 98.6507 116.188 98.4273C117.615 98.0877 118.857 97.2096 119.653 95.9763C120.362 94.6689 120.668 93.1805 120.532 91.6993C120.532 85.9993 120.529 80.2993 120.524 74.5993C120.524 71.4413 120.524 68.2839 120.524 65.1273C120.524 62.0393 115.724 62.0333 115.724 65.1273C115.724 70.9939 115.726 76.8623 115.732 82.7323C115.732 85.4423 115.732 88.153 115.732 90.8643C115.732 91.5643 116.026 93.0163 115.489 93.5413C115.096 93.9253 114.362 93.7773 113.833 93.7783L94.1816 93.7853L40.7146 93.8053L16.7416 93.8143H7.52962C6.55562 93.8143 5.08462 94.1713 4.85762 93.0143C4.74794 91.7834 4.74794 90.5452 4.85762 89.3143V85.0963C4.85362 73.8169 4.84929 62.5383 4.84462 51.2603C4.84462 45.7203 4.84229 40.1806 4.83762 34.6413V27.4903V24.1793C4.83762 23.5013 4.60762 22.4793 5.33762 22.1583C5.94513 22.0313 6.57006 22.0107 7.18462 22.0973H9.73563H15.5906H30.1166L65.5906 22.0843H74.2736C77.3616 22.0843 77.3666 17.2843 74.2736 17.2843L74.2696 17.2693Z" fill="#211715"/>
<path d="M50.2531 116.188V96.2083C50.2531 93.1193 45.4531 93.1143 45.4531 96.2083V116.188C45.4531 119.277 50.2531 119.282 50.2531 116.188Z" fill="#211715"/>
<path d="M70.6816 96.4253V116.189C70.6816 119.278 75.4816 119.283 75.4816 116.189V96.4253C75.4816 93.3363 70.6816 93.3313 70.6816 96.4253Z" fill="#211715"/>
<path d="M38.2112 118.589H83.1332C86.2212 118.589 86.2272 113.789 83.1332 113.789H38.2112C35.1222 113.789 35.1172 118.589 38.2112 118.589Z" fill="#211715"/>
<path d="M3.79444 83.9562H116.194C119.282 83.9562 119.287 79.1562 116.194 79.1562H3.79444C0.706438 79.1562 0.701438 83.9562 3.79444 83.9562Z" fill="#211715"/>
<path d="M138.563 33.0894V23.1144H132.769C132.306 21.1376 131.56 19.2382 130.554 17.4754L134.565 13.4634L127.511 6.40935C126.551 7.37035 124.938 8.98335 123.552 10.3684C121.777 9.35674 119.857 8.6229 117.861 8.19235V2.41235H107.885V8.26635C105.911 8.71562 104.01 9.43756 102.237 10.4114L98.2365 6.41135L91.1835 13.4654L95.1065 17.3884C94.0926 19.1752 93.3587 21.107 92.9305 23.1164H87.1855V33.0894H92.9855C93.4288 35.0807 94.1506 36.9995 95.1295 38.7894C93.7355 40.1824 92.1416 41.7764 91.1826 42.7364L98.2355 49.7904L102.111 45.9154C103.911 46.9289 105.861 47.6527 107.887 48.0604V53.7874H117.863V47.8204C119.742 47.2841 121.543 46.5041 123.22 45.5004L127.513 49.7944L134.567 42.7404L130.425 38.5974C131.473 36.8915 132.251 35.0335 132.731 33.0894H138.563Z" fill="#645D5C"/>
<path d="M112.474 20.3224C113.538 20.2316 114.61 20.3625 115.621 20.7068C116.632 21.051 117.562 21.6011 118.35 22.3224C119.725 23.7549 120.547 25.6295 120.669 27.6118C120.791 29.5941 120.204 31.5552 119.015 33.1454C117.606 34.7201 115.647 35.6952 113.542 35.87C111.436 36.0449 109.344 35.4062 107.695 34.0854C106.164 32.7107 105.229 30.7945 105.087 28.7425C104.945 26.6905 105.607 24.6637 106.934 23.0914C108.363 21.5002 110.343 20.5106 112.474 20.3224Z" fill="white"/>
<path d="M112.474 22.7222C112.921 22.7022 113.359 22.7222 113.805 22.7412C114.489 22.7772 113.374 22.6142 114.037 22.7772C114.179 22.8112 114.323 22.8352 114.464 22.8712C114.677 22.9232 114.881 22.9982 115.092 23.0542C115.728 23.2232 114.739 22.8412 115.325 23.1402C115.721 23.331 116.099 23.5565 116.454 23.8142C116.062 23.5142 116.625 23.9872 116.654 24.0142C116.787 24.1416 116.914 24.2732 117.034 24.4092C117.115 24.5002 117.193 24.5942 117.269 24.6892C116.894 24.2212 117.262 24.7082 117.319 24.7982C117.513 25.1106 117.689 25.4338 117.846 25.7662C117.81 25.6932 117.673 25.2912 117.817 25.7052C117.898 25.9392 117.981 26.1712 118.047 26.4112C118.131 26.7112 118.189 27.0112 118.247 27.3202C118.368 27.9302 118.235 26.8032 118.254 27.4202C118.26 27.6072 118.279 27.7932 118.283 27.9802C118.289 28.2932 118.27 28.6022 118.253 28.9132C118.219 29.5362 118.371 28.4042 118.245 29.0132C118.194 29.2562 118.151 29.4972 118.087 29.7372C118.007 30.0372 117.907 30.3232 117.8 30.6112C118.012 30.0422 117.793 30.6012 117.739 30.7052C117.656 30.8672 117.566 31.0262 117.47 31.1822C117.406 31.2822 117.335 31.3822 117.27 31.4822C116.957 31.9822 117.605 31.1522 117.198 31.5712C116.93 31.8482 116.629 32.1022 116.365 32.3802C116.131 32.6272 116.83 32.0892 116.353 32.3802C116.2 32.4732 116.053 32.5802 115.901 32.6682C115.643 32.8192 115.376 32.9502 115.101 33.0772C115.662 32.8142 115.118 33.0592 115.001 33.0982C114.83 33.1576 114.658 33.2109 114.485 33.2582C114.141 33.3698 113.785 33.4443 113.425 33.4802C114.083 33.4502 113.467 33.4622 113.344 33.4692C113.163 33.4812 112.983 33.4872 112.802 33.4872C112.502 33.5265 112.197 33.5112 111.902 33.4422L112.183 33.4832C112.065 33.4662 111.946 33.4462 111.829 33.4242C111.653 33.3912 111.477 33.3522 111.304 33.3072C111.189 33.2772 111.074 33.2442 110.96 33.2072C110.846 33.1702 110.103 32.8692 110.697 33.1392C110.426 33.0184 110.162 32.8825 109.906 32.7322C109.752 32.6402 109.606 32.5382 109.457 32.4402C108.968 32.1232 109.793 32.7872 109.38 32.3722C109.157 32.1482 108.92 31.9422 108.71 31.7042C108.636 31.6192 108.298 31.1242 108.619 31.6042C108.481 31.3972 108.34 31.1952 108.219 30.9802C108.149 30.8612 107.741 29.9852 107.972 30.5582C107.834 30.2163 107.719 29.8656 107.627 29.5082C107.585 29.3432 107.327 28.4162 107.512 29.0622C107.439 28.6697 107.421 28.2686 107.461 27.8712C107.461 27.7192 107.48 27.5712 107.487 27.4142C107.516 27.1402 107.509 27.1712 107.467 27.5072C107.486 27.3872 107.507 27.2662 107.532 27.1472C107.606 26.7842 107.722 26.4472 107.832 26.0902C108.004 25.5152 107.591 26.5172 107.872 25.9902C107.987 25.7722 108.094 25.5522 108.222 25.3402C108.287 25.2352 108.357 25.1332 108.422 25.0282C108.578 24.8122 108.564 24.8239 108.381 25.0632C108.46 24.9632 108.542 24.8692 108.626 24.7762C108.915 24.4535 109.23 24.1551 109.568 23.8842C109.18 24.1952 109.759 23.7632 109.795 23.7382C110.043 23.5762 110.298 23.4262 110.561 23.2882C110.533 23.3032 111.186 22.9882 110.877 23.1262C111.06 23.0734 111.24 23.0113 111.416 22.9402C111.624 22.8762 111.835 22.8202 112.048 22.7742C112.188 22.7442 112.33 22.7182 112.472 22.6962C112.187 22.7356 112.187 22.7419 112.472 22.7152C113.109 22.7152 113.719 22.4624 114.169 22.0123C114.619 21.5622 114.872 20.9518 114.872 20.3152C114.872 19.6787 114.619 19.0683 114.169 18.6182C113.719 18.1681 113.109 17.9152 112.472 17.9152C108.03 18.2362 103.826 21.3962 102.909 25.8752C102.469 27.9008 102.641 30.0115 103.405 31.9387C104.168 33.8659 105.487 35.5223 107.195 36.6972C108.866 37.7238 110.784 38.2776 112.744 38.2994C114.705 38.3213 116.635 37.8104 118.328 36.8212C122.056 34.6212 123.539 30.3712 122.908 26.2292C122.581 24.0613 121.547 22.0623 119.966 20.5432C118.953 19.632 117.769 18.9311 116.484 18.4812C115.198 18.0312 113.835 17.8413 112.475 17.9222C111.839 17.9222 111.228 18.1751 110.778 18.6252C110.328 19.0753 110.075 19.6857 110.075 20.3222C110.075 20.9588 110.328 21.5692 110.778 22.0193C111.228 22.4694 111.839 22.7222 112.475 22.7222H112.474Z" fill="#211715"/>
<path d="M140.963 32.2164C140.963 29.5424 141.063 26.8504 140.963 24.1784C140.877 21.8314 139.198 20.7144 137.01 20.7144H132.769L135.084 22.4764C134.546 20.3048 133.719 18.2152 132.626 16.2634L132.251 19.1724L134.792 16.6304C135.692 15.7304 136.605 14.8304 136.605 13.4614C136.605 12.1044 135.705 11.2114 134.816 10.3204L132.4 7.90341C131.168 6.67141 129.688 4.56241 127.83 4.41041C125.359 4.21041 123.43 7.09541 121.855 8.67141L124.764 8.29641C122.799 7.19729 120.689 6.38346 118.495 5.87941L120.257 8.19441C120.257 6.66141 120.305 5.12041 120.257 3.58841C120.296 2.88837 120.118 2.19331 119.747 1.59843C119.376 1.00356 118.83 0.537956 118.184 0.265405C117.493 0.0484463 116.767 -0.0366987 116.045 0.0144054H110.329C109.811 0.0144054 109.282 -0.0175946 108.765 0.0144054C107.901 0.0376137 107.08 0.390785 106.469 1.00127C105.858 1.61175 105.505 2.43312 105.481 3.29641C105.381 4.94141 105.481 6.62041 105.481 8.26841L107.243 5.95441C105.076 6.47766 102.986 7.27933 101.025 8.33941L103.934 8.71441L101.403 6.17941C100.503 5.27941 99.6028 4.36441 98.2358 4.36441C96.2088 4.36441 94.6528 6.59341 93.3458 7.89941L91.0718 10.1794C90.2118 11.0384 89.2898 11.8544 89.1838 13.1434C88.9838 15.6064 91.8358 17.5134 93.4068 19.0844L93.0308 16.1754C91.9303 18.1502 91.1161 20.2714 90.6128 22.4754L92.9278 20.7134C91.4058 20.7134 89.8758 20.6654 88.3558 20.7134C87.6559 20.6744 86.9611 20.8526 86.3664 21.2237C85.7717 21.5948 85.3063 22.1406 85.0338 22.7864C84.8174 23.4772 84.7323 24.2023 84.7828 24.9244V30.6414C84.7828 31.1594 84.7508 31.6884 84.7828 32.2054C84.8062 33.0685 85.1595 33.8899 85.77 34.5005C86.3804 35.1112 87.2017 35.4647 88.0648 35.4884C89.6918 35.5884 91.3528 35.4884 92.9838 35.4884L90.6698 33.7264C91.1864 35.9142 91.9882 38.0246 93.0548 40.0034L93.4308 37.0954L90.9308 39.5954C90.0388 40.4884 89.1368 41.3814 89.1368 42.7424C89.1368 44.7674 91.3678 46.3254 92.6728 47.6304L94.9478 49.9054C95.8068 50.7644 96.6228 51.6874 97.9118 51.7934C100.359 51.9934 102.243 49.1804 103.804 47.6184L100.896 47.9944C102.885 49.0943 105.024 49.8981 107.245 50.3804L105.483 48.0664C105.483 49.6024 105.427 51.1494 105.483 52.6844C105.453 53.4282 105.667 54.1613 106.093 54.7715C106.52 55.3818 107.134 55.8356 107.843 56.0634C108.478 56.1932 109.129 56.2369 109.776 56.1934H115.508C115.995 56.1934 116.494 56.2244 116.98 56.1934C117.847 56.1676 118.671 55.8094 119.281 55.1929C119.892 54.5764 120.242 53.7488 120.259 52.8814C120.359 51.2074 120.259 49.5004 120.259 47.8224L118.495 50.1354C120.568 49.5239 122.559 48.6633 124.425 47.5724L121.517 47.1974L123.965 49.6454C124.705 50.6169 125.716 51.3476 126.871 51.7454C129.431 52.2954 131.479 49.2134 133.071 47.6254C134.497 46.1994 136.747 44.6504 136.564 42.4174C136.456 41.0994 135.488 40.2654 134.609 39.3874L132.12 36.8974L132.495 39.8064C133.631 37.9114 134.489 35.8632 135.044 33.7244L132.729 35.4864C135.274 35.4864 140.307 36.3864 140.877 32.8514C141.027 32.2383 140.937 31.5911 140.625 31.0422C140.313 30.4933 139.804 30.0841 139.201 29.8984C138.586 29.7347 137.932 29.8193 137.38 30.1338C136.827 30.4483 136.421 30.9676 136.248 31.5794C136.602 29.3854 138.333 30.8384 137.448 30.6904C137.238 30.6744 137.028 30.6744 136.819 30.6904H132.729C132.205 30.6975 131.698 30.8725 131.281 31.1897C130.865 31.5069 130.561 31.9496 130.415 32.4524C129.971 34.1893 129.275 35.8519 128.35 37.3874C128.089 37.8477 127.985 38.3801 128.053 38.9046C128.121 39.429 128.357 39.9174 128.726 40.2964L130.51 42.0804L131.351 42.9214L131.751 43.3214C132.036 43.6514 132.083 43.6694 131.889 43.3764V42.1014C131.966 41.7104 132.095 41.8134 131.726 42.1824L131.081 42.8274L129.674 44.2344L128.115 45.7934L127.257 46.6514C127.101 46.8084 126.42 47.2094 126.872 47.1194H128.148C128.623 47.2104 127.969 46.8604 127.791 46.6824L126.77 45.6614L124.912 43.8034C124.532 43.4351 124.044 43.1996 123.52 43.132C122.995 43.0644 122.463 43.1684 122.003 43.4284C120.5 44.3142 118.893 45.0121 117.22 45.5064C116.718 45.6537 116.276 45.9578 115.959 46.3741C115.642 46.7904 115.466 47.2972 115.458 47.8204C115.326 49.4394 115.326 51.0664 115.458 52.6854C115.63 53.6854 117.711 51.5474 116.834 51.3914C116.545 51.3679 116.254 51.3679 115.965 51.3914H109.95C109.629 51.3699 109.307 51.3699 108.986 51.3914C107.978 51.5344 110.157 53.3964 110.286 52.8194C110.371 51.9645 110.371 51.1033 110.286 50.2484V48.0644C110.281 47.5402 110.107 47.0316 109.789 46.6144C109.472 46.1972 109.028 45.8938 108.524 45.7494C106.706 45.3757 104.954 44.7354 103.324 43.8494C102.863 43.5911 102.332 43.488 101.808 43.5556C101.284 43.6231 100.796 43.8577 100.416 44.2244L98.7158 45.9244L97.9708 46.6694C97.7988 46.8414 97.1298 47.2144 97.5958 47.1244H98.8718C99.0898 47.2594 99.1008 47.2424 98.9048 47.0754L98.4868 46.6564L97.6288 45.7984L96.0698 44.2394L94.6628 42.8324L94.0178 42.1874L93.8278 41.9974C93.5805 41.7307 93.5891 41.7674 93.8538 42.1074V43.3794C93.7118 43.6041 93.7265 43.6171 93.8978 43.4184L94.3288 42.9884L95.0928 42.2244L96.8258 40.4914C97.1926 40.1105 97.427 39.6217 97.4943 39.0973C97.5617 38.5728 97.4584 38.0406 97.1998 37.5794C96.3433 35.9602 95.7044 34.2349 95.2998 32.4484C95.1554 31.9446 94.8522 31.5009 94.4352 31.1834C94.0182 30.8659 93.5098 30.6916 92.9858 30.6864H90.7678C89.9124 30.6119 89.0522 30.6119 88.1968 30.6864C87.4718 30.8244 89.4138 32.9954 89.5848 31.9864C89.6083 31.6949 89.6083 31.4019 89.5848 31.1104V25.1794C89.6108 24.8586 89.6108 24.5362 89.5848 24.2154C89.4148 23.2154 87.4468 25.3734 88.1948 25.5154C89.0406 25.5879 89.891 25.5879 90.7368 25.5154H92.9298C93.4537 25.5096 93.9618 25.3351 94.3786 25.0176C94.7954 24.7002 95.0988 24.2569 95.2438 23.7534C95.637 21.951 96.2885 20.2147 97.1778 18.5984C97.4361 18.1378 97.5392 17.6061 97.4716 17.0823C97.4041 16.5585 97.1695 16.0704 96.8028 15.6904L95.0858 13.9794L94.3268 13.2204C94.1588 13.0524 93.7668 12.3694 93.8548 12.8284V14.0994C93.7208 14.3174 93.7368 14.3294 93.9048 14.1334L94.3238 13.7144L95.1808 12.8574L96.7398 11.2984L98.1478 9.89041L98.7928 9.24541L98.9818 9.05541C99.2488 8.80841 99.2118 8.81841 98.8738 9.08341H97.5948C97.3735 8.95007 97.3635 8.96807 97.5648 9.13741L98.0048 9.57741L98.7858 10.3584L100.537 12.1094C100.917 12.4757 101.405 12.71 101.929 12.7775C102.452 12.845 102.984 12.7423 103.445 12.4844C105.046 11.6325 106.752 10.9937 108.52 10.5844C109.023 10.4398 109.467 10.1364 109.784 9.71953C110.102 9.30262 110.276 8.79439 110.282 8.27041V6.02441C110.358 5.15943 110.358 4.28938 110.282 3.42441C110.143 2.69441 107.974 4.64041 108.982 4.81141C109.274 4.83441 109.567 4.83441 109.859 4.81141H115.795C116.116 4.83691 116.438 4.83691 116.759 4.81141C117.759 4.64041 115.602 2.67141 115.459 3.42241C115.385 4.27413 115.385 5.13068 115.459 5.98241V8.19241C115.464 8.71635 115.639 9.2245 115.956 9.64138C116.274 10.0583 116.717 10.3616 117.221 10.5064C119.011 10.9021 120.734 11.5535 122.339 12.4404C122.799 12.6992 123.331 12.8025 123.855 12.735C124.379 12.6674 124.867 12.4326 125.247 12.0654L126.983 10.3304L127.751 9.56141C127.916 9.39741 128.61 8.99141 128.151 9.08241H126.875C126.482 9.00441 126.587 8.87741 126.955 9.24541L127.6 9.89041L129.008 11.2984L130.567 12.8574L131.424 13.7144C131.581 13.8714 131.983 14.5514 131.893 14.0994V12.8234C132.03 12.6044 132.013 12.5954 131.84 12.7964L131.4 13.2364L130.621 14.0154L128.857 15.7794C128.49 16.1593 128.255 16.6476 128.187 17.1716C128.119 17.6957 128.222 18.2276 128.481 18.6884C129.366 20.2796 130.03 21.9839 130.455 23.7544C130.6 24.2578 130.903 24.7011 131.32 25.0185C131.737 25.3358 132.245 25.5105 132.769 25.5164H136.414C136.693 25.5314 136.972 25.5314 137.251 25.5164C137.869 25.4484 138.015 25.8594 136.918 24.7584C135.885 23.7204 136.163 23.9824 136.163 24.9274V32.2184C136.163 35.3044 140.963 35.3094 140.963 32.2164Z" fill="#211715"/>
</svg>
