<svg width="384" height="279" viewBox="0 0 384 279" fill="none" xmlns="http://www.w3.org/2000/svg">
<g clip-path="url(#clip0_523_3703)">
<path d="M337.63 167.749C339.148 166.718 343.74 163.6 347.273 161.199C364.968 165.064 378.006 175.439 380.523 191.689C382.259 215.207 376.824 238.7 364.935 259.066C362.343 263.847 358.711 267.986 354.307 271.176C349.652 274.444 343.15 276.786 337.38 276.076C332.091 275.263 327.266 272.588 323.774 268.534C320.294 264.621 317.486 260.159 315.465 255.329C315.169 254.641 314.88 253.949 314.597 253.253H260.671C257.498 246.067 253.295 239.382 248.194 233.408C244.029 228.473 236.061 224.045 227.611 220.755L223.884 220.1C223.524 219.938 218.892 217.74 218.656 217.666C215.105 215.704 214.356 212.687 213.901 210.017C213.814 209.509 213.739 209.062 213.691 208.67C222.36 204.615 229.256 193.547 230.491 190.427C230.925 189.28 231.3 188.112 231.616 186.927C232.393 187.31 233.268 187.443 234.124 187.309C234.979 187.174 235.772 186.779 236.394 186.177C237.903 184.894 239.117 183.3 239.953 181.505C241.441 178.525 242.22 175.242 242.228 171.911C245.106 169.607 248.116 167.474 251.243 165.523C254.039 163.913 256.992 162.591 260.056 161.578C279.605 171.931 289.531 175.057 307.604 174.658C325.162 174.27 331.096 171.419 337.123 168.098L337.63 167.749Z" fill="white"/>
<path d="M145.1 71.964C145.767 71.3861 146.543 70.946 147.381 70.6694C148.22 70.3927 149.105 70.2848 149.985 70.352C151.107 70.3513 152.209 70.6553 153.172 71.2316C154.135 71.8078 154.924 72.6347 155.454 73.624C157.241 76.966 156.966 83.01 155.576 86.71C154.592 89.33 152.988 93.336 149.343 96.128C148.54 96.7533 147.617 97.2055 146.63 97.4561C145.644 97.7066 144.617 97.7502 143.613 97.584L143.071 97.475C142.478 99.2658 141.769 101.016 140.948 102.714C139.389 106.559 131.073 119.887 120.903 124.999C120.582 127.192 120.438 129.406 120.473 131.622C120.483 134.352 120.948 136.996 123.645 138.754C123.771 138.823 126.001 140.243 129.302 142C108.933 156.493 78.9829 152.235 62.9649 137.6C67.0649 136.041 72.5349 133.926 72.7069 133.877C75.7239 132.753 76.7569 130.277 77.3649 127.614C77.78 125.864 78.0876 124.091 78.2859 122.304C74.7483 119.795 71.6177 116.756 69.0039 113.295C64.7547 107.811 61.6734 101.515 59.9499 94.795C58.8693 94.988 57.7589 94.9321 56.7032 94.6317C55.6474 94.3312 54.674 93.7941 53.8569 93.061C50.3979 90.04 49.0569 85.94 48.2409 83.261C47.0909 79.479 47.2059 73.431 49.2029 70.21C49.796 69.2573 50.6366 68.4835 51.635 67.971C52.6333 67.4585 53.7521 67.2266 54.8719 67.3C55.7551 67.2893 56.6317 67.4537 57.4509 67.7837C58.2702 68.1138 59.0159 68.603 59.6449 69.223C59.6449 69.223 52.8449 34.623 107.062 34.623C155.951 34.617 145.1 71.964 145.1 71.964Z" fill="white"/>
<path d="M132.247 140.828C130.419 139.895 128.619 138.911 126.847 137.878C126.341 137.582 125.838 137.282 125.338 136.978C125.215 136.903 125.09 136.828 124.968 136.751C124.88 136.695 124.521 136.456 124.715 136.603C124.523 136.452 124.342 136.287 124.173 136.111C124.136 136.073 123.741 135.628 123.904 135.829C124.03 135.986 123.687 135.5 123.644 135.429C123.549 135.272 123.468 135.109 123.382 134.947C123.129 134.47 123.432 135.189 123.295 134.715C123.234 134.505 123.165 134.301 123.112 134.088C123.059 133.875 123.019 133.661 122.977 133.445C122.877 132.929 122.977 133.782 122.945 133.204C122.817 131.04 122.864 128.869 123.085 126.713C123.081 126.078 122.826 125.47 122.377 125.021C121.928 124.572 121.32 124.317 120.685 124.313C120.053 124.326 119.45 124.583 119.003 125.031C118.555 125.478 118.298 126.081 118.285 126.713C117.86 131.022 117.493 136.427 120.95 139.675C121.916 140.508 122.971 141.232 124.095 141.834C125.971 142.943 127.881 143.991 129.824 144.978C130.377 145.284 131.027 145.366 131.639 145.206C132.25 145.045 132.776 144.655 133.108 144.117C133.423 143.566 133.509 142.913 133.348 142.299C133.187 141.685 132.792 141.159 132.247 140.833V140.828Z" fill="#211715"/>
<path d="M45.246 256.6C43.3146 258.102 41.2376 259.406 39.046 260.493C32.683 263.611 24.766 264.514 18.395 261.411C11.049 257.834 7.28603 249.911 5.27003 242.311C1.41503 227.755 1.97803 212.459 3.87003 197.557C5.52503 184.526 8.47003 171 17.242 160.867C25.13 151.76 47.262 141.945 62.832 137.454C79.074 152.469 109.915 156.69 130.356 141.238C143.436 144.327 153.204 147.426 162.834 155.046C165.842 157.592 168.298 160.726 170.048 164.257C171.709 167.432 173.048 172.616 173.913 175.916C177.277 188.613 179.626 201.557 180.939 214.626C180.151 215.911 179.035 216.963 177.705 217.672C177.444 217.746 172.837 219.944 172.452 220.106C163.807 223.396 152.137 228.479 147.877 233.414C142.069 240.14 139.837 245.273 136.851 253.914C136.851 253.914 70.215 253.914 48.431 253.914C47.405 254.854 46.346 255.754 45.246 256.6Z" fill="white"/>
<path d="M253 91.963C253.585 91.2208 254.335 90.6257 255.19 90.2252C256.046 89.8246 256.984 89.6297 257.928 89.656C258.775 89.6218 259.62 89.7558 260.414 90.0502C261.209 90.3446 261.937 90.7935 262.557 91.371C262.557 91.371 257.077 53.83 302.077 53.83C349.892 53.83 344.577 91.69 344.577 91.69C345.202 91.1175 345.933 90.6744 346.73 90.3862C347.527 90.0981 348.373 89.9705 349.219 90.011C350.296 89.9796 351.361 90.241 352.301 90.7674C353.241 91.2938 354.02 92.0654 354.556 93C356.356 96.157 356.256 101.96 355.027 105.546C354.154 108.085 352.727 111.97 349.305 114.746C348.552 115.367 347.679 115.826 346.739 116.093C345.8 116.36 344.816 116.429 343.849 116.297L343.327 116.207C342.807 117.94 342.174 119.638 341.432 121.289C339.957 125.246 331.474 139.649 321.032 144.06C321.175 144.716 321.23 145.389 321.196 146.06C321.058 147.735 320.81 149.398 320.452 151.04L323.23 151.675C324.318 151.158 325.557 151.054 326.716 151.385C327.725 151.548 328.646 152.055 329.322 152.821C329.998 153.587 330.387 154.564 330.424 155.585C334.524 158.509 340.812 160.974 345.961 163.094L337.122 168.102C331.095 171.423 325.161 174.274 307.603 174.662C289.552 175.062 279.628 171.942 260.129 161.616C269.01 158.38 278.064 156.135 282.338 153.269C282.849 153.029 283.302 152.682 283.666 152.251C283.84 151.918 283.952 151.556 283.995 151.183C284.442 148.679 284.888 146.179 285.332 143.683C280.732 141.561 276.632 138.092 272.732 133.391C268.509 128.249 265.384 122.297 263.549 115.901C262.518 116.114 261.451 116.09 260.43 115.83C259.41 115.57 258.462 115.082 257.658 114.401C254.258 111.601 252.858 107.701 252.007 105.157C250.807 101.557 250.748 95.757 252.577 92.615C252.704 92.3888 252.845 92.171 253 91.963Z" fill="white"/>
<path d="M238.545 178.732C242.772 174.15 247.689 170.255 253.117 167.189C258.117 164.289 263.974 162.689 269.453 160.982C272.391 160.063 271.137 155.428 268.177 156.353C262.311 158.187 256.045 159.938 250.694 163.044C244.908 166.313 239.665 170.46 235.151 175.337C233.098 177.637 236.482 181.037 238.545 178.737V178.732Z" fill="#211715"/>
<path d="M125.35 142.54C138.026 145.419 151.805 148.517 161.865 157.346C164.431 159.685 166.53 162.489 168.05 165.61C169.432 168.656 170.493 171.837 171.216 175.103C173.186 182.514 174.89 189.987 176.195 197.545C177.723 206.4 178.702 215.333 179.435 224.286C179.451 224.918 179.709 225.519 180.155 225.966C180.602 226.412 181.203 226.67 181.835 226.686C182.47 226.681 183.078 226.427 183.527 225.978C183.976 225.529 184.23 224.921 184.235 224.286C183.007 207.745 180.327 191.344 176.227 175.273C175.427 171.902 174.404 168.588 173.164 165.352C171.687 161.782 169.596 158.499 166.985 155.652C164.574 153.191 161.849 151.059 158.879 149.312C156.071 147.561 153.125 146.041 150.071 144.766C142.546 141.585 134.571 139.718 126.626 137.914C123.618 137.231 122.334 141.858 125.35 142.543V142.54Z" fill="#211715"/>
<path d="M143.254 239.549C140.561 243.783 138.88 248.037 136.854 253.913H260.944C257.756 246.474 253.457 239.562 248.194 233.413C243.717 228.113 234.846 223.39 225.705 220.04C222.385 225.357 212.599 230.09 202.653 230.692C197.047 231.053 191.418 230.67 185.913 229.552C179.989 228.32 174.189 225.647 170.347 220.919C162.005 224.199 151.799 228.869 147.876 233.413C146.187 235.342 144.642 237.393 143.254 239.549Z" fill="#FEBE69"/>
<path d="M233.394 165.939C233.983 165.429 234.674 165.051 235.422 164.833C236.169 164.614 236.955 164.559 237.726 164.672C238.482 164.779 239.205 165.054 239.841 165.477C240.477 165.9 241.01 166.46 241.401 167.116C241.854 168.021 242.112 169.012 242.158 170.023C242.488 173.98 241.724 177.952 239.949 181.504C239.113 183.299 237.899 184.893 236.39 186.176C235.768 186.778 234.976 187.173 234.121 187.307C233.267 187.442 232.391 187.309 231.615 186.927C231.228 188.449 230.715 189.78 230.487 190.427C229.256 193.547 222.36 204.615 213.687 208.67C213.735 209.062 213.81 209.509 213.897 210.017C214.356 212.687 215.097 215.704 218.652 217.666C218.888 217.74 223.52 219.938 223.88 220.1L225.256 220.716L224.943 221.108C221.054 225.975 211.922 230.126 202.649 230.687C197.043 231.048 191.414 230.665 185.909 229.547C180.422 228.406 175.041 226.029 171.223 221.927L170.343 220.982L172.443 220.1C172.828 219.938 177.435 217.74 177.696 217.666C181.222 215.704 181.98 212.687 182.439 210.017C182.477 209.855 182.501 209.706 182.526 209.546C177.858 207.478 173.709 204.396 170.381 200.524C166.954 196.683 164.322 192.201 162.638 187.336C161.912 187.59 161.13 187.637 160.379 187.471C159.627 187.305 158.937 186.933 158.386 186.397C156.877 185.114 155.663 183.52 154.826 181.725C153.051 178.173 152.288 174.201 152.618 170.244C152.663 169.233 152.921 168.242 153.374 167.337C153.765 166.681 154.299 166.121 154.935 165.698C155.571 165.275 156.294 165 157.05 164.893C157.821 164.78 158.607 164.835 159.354 165.054C160.102 165.272 160.794 165.65 161.382 166.16C161.382 166.16 154.746 137.126 195.416 137.126C236.086 137.126 233.394 165.939 233.394 165.939Z" fill="white"/>
<path d="M252.09 142.079C249.111 139.018 248.113 136.235 247.151 131.864C246.484 128.595 245.522 125.393 244.276 122.298C243.355 120.139 241.979 118.205 240.241 116.628C235.441 112.35 231.208 110.773 225.214 111.62C220.553 112.281 216.263 114.205 214.338 118.333V118.34C213.338 117.89 212.319 117.482 211.281 117.116C206.666 115.525 201.814 114.729 196.933 114.763C188.242 114.615 179.73 117.235 172.626 122.244C165.042 127.684 156.453 137.374 155.766 153.059C155.719 157.047 156.061 161.031 156.786 164.953C156.873 164.925 156.962 164.905 157.053 164.894C157.824 164.781 158.61 164.836 159.357 165.055C160.105 165.273 160.796 165.651 161.385 166.161L162.606 167.261C163.189 164.879 164.296 162.657 165.847 160.757C167.397 158.857 169.351 157.326 171.567 156.276C171.695 156.217 171.823 156.159 171.952 156.103C178.521 156.103 195.419 156.103 195.419 156.103C197.537 155.725 199.608 155.121 201.598 154.303C204.92 152.458 207.789 149.896 209.998 146.803C212.857 147.144 215.617 148.062 218.109 149.503C220.602 150.944 222.776 152.877 224.498 155.184C226.955 158.4 228.753 162.071 229.786 165.984C231.724 165.965 233.386 165.937 233.386 165.937C233.927 165.467 234.557 165.109 235.238 164.885C235.919 164.66 236.638 164.573 237.353 164.629C238.023 160.81 238.274 156.93 238.101 153.057C237.934 149.129 237.217 145.243 235.969 141.514L237.775 142.25C242.142 144.073 246.768 143.748 252.09 142.079Z" fill="#85807F"/>
<path d="M180.134 209.546C180.134 209.58 180.26 208.846 180.181 209.146C180.155 209.246 180.141 209.346 180.123 209.446C180.099 209.568 180.08 209.69 180.057 209.812C180.003 210.102 179.946 210.392 179.881 210.68C179.756 211.253 179.594 211.817 179.395 212.368C179.361 212.46 179.154 212.977 179.319 212.576C179.475 212.195 179.287 212.632 179.245 212.719C179.104 213.008 178.948 213.289 178.776 213.56C178.688 213.699 178.592 213.833 178.499 213.969C178.259 214.322 178.806 213.615 178.519 213.94C178.288 214.207 178.044 214.462 177.787 214.703C177.65 214.829 177.506 214.946 177.365 215.066C177.165 215.235 177.517 214.941 177.524 214.941C177.481 214.941 177.355 215.062 177.318 215.088C177.151 215.202 176.965 215.296 176.806 215.418C176.472 215.673 177.006 215.373 177.024 215.373C176.613 215.482 176.219 215.651 175.856 215.873C175.02 216.256 174.19 216.649 173.356 217.04C172.656 217.371 171.956 217.722 171.238 218.028C170.698 218.345 170.304 218.86 170.138 219.463C169.972 220.087 170.059 220.752 170.38 221.312C170.698 221.85 171.212 222.244 171.814 222.412C172.44 222.544 173.093 222.458 173.664 222.17C175.199 221.513 176.691 220.744 178.209 220.047L178.638 219.853C179.086 219.653 178.047 220.14 178.338 219.98C178.819 219.753 179.288 219.501 179.743 219.224C180.205 218.908 180.647 218.564 181.068 218.195C182.303 217.053 183.257 215.642 183.856 214.07C184.119 213.421 184.329 212.753 184.484 212.07C184.725 211.245 184.877 210.397 184.937 209.54C184.937 208.903 184.684 208.293 184.234 207.843C183.784 207.393 183.174 207.14 182.537 207.14C181.901 207.14 181.29 207.393 180.84 207.843C180.39 208.293 180.137 208.903 180.137 209.54L180.134 209.546Z" fill="#211715"/>
<path d="M211.29 208.664C211.712 211.884 212.369 215.056 214.619 217.541C215.245 218.209 215.95 218.799 216.719 219.296C217.125 219.583 217.568 219.815 218.035 219.986C218.198 220.041 217.308 219.664 217.588 219.797C217.651 219.827 217.717 219.855 217.781 219.884C218.639 220.271 219.489 220.676 220.341 221.077C221.119 221.442 221.893 221.819 222.676 222.177C223.229 222.483 223.879 222.564 224.49 222.403C225.102 222.243 225.628 221.854 225.96 221.316C226.274 220.765 226.359 220.112 226.198 219.499C226.038 218.885 225.643 218.358 225.099 218.032C223.608 217.358 222.139 216.632 220.655 215.95C220.418 215.84 220.181 215.731 219.942 215.627C219.739 215.522 219.528 215.433 219.311 215.361C219.358 215.373 219.832 215.643 219.618 215.454C219.54 215.399 219.459 215.35 219.375 215.306C219.219 215.206 219.069 215.106 218.916 215.006C218.871 214.975 218.625 214.791 218.876 214.981C219.127 215.171 218.83 214.939 218.782 214.898C218.511 214.667 218.255 214.42 218.016 214.156C217.923 214.03 217.821 213.91 217.711 213.798C217.711 213.798 217.986 214.198 217.854 213.979C217.802 213.893 217.737 213.814 217.681 213.731C217.503 213.465 217.341 213.189 217.194 212.905C217.128 212.777 217.069 212.646 217.005 212.516C216.831 212.162 217.181 212.999 217.005 212.498C216.777 211.868 216.591 211.224 216.448 210.569C216.381 210.263 216.322 209.956 216.267 209.648C216.227 209.422 216.188 209.194 216.151 208.967C216.124 208.807 216.01 208.012 216.097 208.673C216.074 208.041 215.826 207.438 215.397 206.973C214.943 206.527 214.333 206.276 213.697 206.273C212.536 206.325 211.121 207.34 211.297 208.673L211.29 208.664Z" fill="#211715"/>
<path d="M216.411 119.544C217.851 116.593 220.577 115.094 223.68 114.344C226.876 113.455 230.273 113.625 233.364 114.829C236.571 116.227 239.291 118.544 241.18 121.489C243.243 124.861 244.062 129.098 244.927 132.906C245.698 136.969 247.591 140.734 250.393 143.775L251.452 139.763C247.096 141.102 242.746 141.678 238.421 139.937C237.807 139.772 237.153 139.855 236.601 140.169C236.048 140.483 235.641 141.002 235.468 141.613C235.314 142.226 235.403 142.876 235.715 143.425C236.027 143.975 236.539 144.384 237.145 144.566C242.19 146.596 247.645 145.953 252.728 144.392C253.128 144.274 253.491 144.054 253.781 143.755C254.072 143.456 254.28 143.087 254.387 142.684C254.493 142.281 254.494 141.857 254.389 141.453C254.284 141.05 254.077 140.68 253.787 140.38C251.036 137.502 250.13 134.126 249.267 130.334C248.304 126.102 247.115 121.421 244.522 117.873C241.99 114.446 238.56 111.785 234.611 110.185C230.805 108.817 226.676 108.625 222.76 109.633C218.413 110.603 214.275 113.005 212.266 117.121C211.961 117.674 211.88 118.323 212.041 118.935C212.201 119.546 212.59 120.072 213.127 120.404C213.678 120.72 214.331 120.806 214.945 120.645C215.559 120.484 216.086 120.089 216.411 119.544Z" fill="#211715"/>
<path d="M235.091 167.636C235.408 167.384 235.773 167.202 236.164 167.099C236.556 166.997 236.964 166.978 237.363 167.043C237.762 167.108 238.143 167.256 238.482 167.477C238.82 167.698 239.109 167.988 239.329 168.327C239.728 169.299 239.899 170.349 239.829 171.397C239.865 172.624 239.777 173.852 239.566 175.062C239.147 177.482 238.27 179.801 236.982 181.892C236.082 183.317 234.611 185.301 232.864 184.835C229.876 184.035 228.602 188.667 231.588 189.463C235.51 190.509 238.581 187.979 240.719 184.929C242.791 181.817 244.076 178.248 244.462 174.529C244.883 171.082 244.885 166.701 242.092 164.193C240.649 162.936 238.798 162.247 236.884 162.255C234.97 162.263 233.125 162.968 231.692 164.237C231.246 164.689 230.997 165.299 230.997 165.934C230.997 166.569 231.246 167.179 231.692 167.631C232.149 168.069 232.757 168.314 233.389 168.314C234.022 168.314 234.63 168.069 235.086 167.631L235.091 167.636Z" fill="#211715"/>
<path d="M163.087 164.464C161.654 163.196 159.809 162.492 157.895 162.484C155.982 162.475 154.131 163.164 152.687 164.42C149.895 166.926 149.896 171.311 150.317 174.756C150.703 178.475 151.987 182.044 154.059 185.156C156.199 188.208 159.259 190.737 163.19 189.69C166.172 188.89 164.907 184.264 161.914 185.062C160.17 185.527 158.694 183.543 157.796 182.119C156.507 180.028 155.63 177.709 155.212 175.289C155.011 174.144 154.922 172.982 154.946 171.82C154.857 170.707 155.03 169.588 155.452 168.554C155.672 168.215 155.961 167.925 156.299 167.704C156.638 167.483 157.019 167.335 157.418 167.27C157.817 167.205 158.225 167.224 158.617 167.326C159.008 167.428 159.374 167.611 159.69 167.863C160.148 168.297 160.756 168.54 161.387 168.54C162.018 168.54 162.626 168.297 163.084 167.863C163.529 167.41 163.779 166.801 163.779 166.166C163.779 165.531 163.529 164.922 163.084 164.469L163.087 164.464Z" fill="#211715"/>
<path d="M229.68 184.335C229.35 186.197 228.845 188.023 228.173 189.79C228.041 190.171 228.457 189.258 228.222 189.67C228.122 189.839 228.052 190.03 227.965 190.206C227.778 190.584 227.577 190.955 227.371 191.323C226.214 193.379 224.896 195.341 223.431 197.19C219.863 201.69 215.254 206.311 209.447 207.58C206.431 208.239 207.708 212.867 210.723 212.208C217.318 210.767 222.745 205.708 226.823 200.584C230.351 196.149 233.461 191.329 234.306 185.611C234.455 184.998 234.364 184.351 234.053 183.803C233.741 183.254 233.232 182.845 232.63 182.658C232.016 182.494 231.362 182.577 230.81 182.891C230.257 183.205 229.85 183.724 229.677 184.335H229.68Z" fill="#211715"/>
<path d="M159.384 184.823C161.168 191.699 164.668 198.009 169.557 203.162C174.437 208.304 180.748 212.492 187.881 213.499C188.494 213.647 189.14 213.556 189.689 213.244C190.237 212.933 190.646 212.424 190.833 211.822C190.998 211.208 190.914 210.555 190.6 210.002C190.287 209.45 189.768 209.043 189.157 208.87C176.563 207.093 167.051 195.302 164.013 183.547C163.24 180.559 158.613 181.826 159.384 184.823Z" fill="#211715"/>
<path d="M239.721 165C241.549 153.815 240.43 141.942 234.221 132.209C228.279 123.057 219.111 116.477 208.539 113.775C197.695 110.994 186.212 112.224 176.203 117.238C168.779 121.106 162.636 127.043 158.518 134.331C155.885 139.142 154.223 144.423 153.629 149.875C153.163 154.926 153.401 160.018 154.336 165.004C154.509 165.615 154.916 166.134 155.468 166.447C156.021 166.761 156.674 166.844 157.288 166.68C157.894 166.498 158.406 166.09 158.718 165.54C159.03 164.99 159.118 164.341 158.964 163.728C157.681 155.84 157.826 147.05 161.336 139.378C164.387 132.853 169.197 127.309 175.226 123.368C183.448 118.179 193.258 116.11 202.876 117.535C212.645 118.902 221.546 123.885 227.817 131.5C235.174 140.454 236.917 152.557 235.092 163.732C234.942 164.345 235.032 164.992 235.344 165.541C235.655 166.09 236.165 166.499 236.768 166.684C237.383 166.848 238.037 166.763 238.59 166.448C239.143 166.133 239.549 165.613 239.721 165Z" fill="#211715"/>
<path d="M262.743 252.043C259.482 244.419 254.993 237.382 249.454 231.212C243.94 225.092 235.772 221.391 228.249 218.442C227.635 218.278 226.981 218.361 226.429 218.675C225.876 218.988 225.469 219.507 225.296 220.118C225.142 220.731 225.23 221.381 225.542 221.93C225.855 222.48 226.367 222.889 226.973 223.07C233.833 225.76 241.331 229.207 246.282 234.855C251.393 240.703 255.55 247.321 258.599 254.465C258.923 255.012 259.449 255.409 260.063 255.57C260.678 255.731 261.332 255.644 261.882 255.326C262.419 254.994 262.808 254.467 262.968 253.856C263.128 253.245 263.048 252.596 262.743 252.043Z" fill="#211715"/>
<path d="M139.164 254.551C141.277 248.451 143.683 242.568 147.664 237.42C149.306 235.209 151.305 233.287 153.58 231.735C156.407 229.906 159.365 228.287 162.43 226.892C165.919 225.25 169.487 223.792 173.088 222.415C173.692 222.231 174.202 221.822 174.514 221.273C174.826 220.724 174.916 220.076 174.765 219.463C174.591 218.852 174.184 218.333 173.632 218.02C173.079 217.706 172.426 217.622 171.812 217.786C164.994 220.386 158.065 223.186 151.887 227.116C146.287 230.678 142.163 236.016 139.153 241.883C137.348 245.567 135.805 249.374 134.535 253.275C133.522 256.2 138.157 257.457 139.163 254.551H139.164Z" fill="#211715"/>
<path d="M213.724 150.064C217.293 151.403 220.41 153.726 222.714 156.764C224.458 159.069 225.829 161.634 226.777 164.364C226.962 164.893 227.135 165.426 227.294 165.964C227.358 166.179 227.419 166.394 227.479 166.61C227.524 166.772 227.567 166.934 227.61 167.097C227.727 167.622 227.783 167.304 227.779 166.143L228.64 165.282L228.52 165.362L229.731 165.035L229.577 165.021C228.942 165.026 228.334 165.28 227.885 165.729C227.436 166.178 227.182 166.786 227.177 167.421C227.19 168.054 227.447 168.657 227.894 169.104C228.341 169.551 228.944 169.808 229.577 169.821C231.577 169.998 232.615 167.873 232.308 166.176C232.041 164.905 231.663 163.661 231.178 162.456C230.254 159.89 229.011 157.45 227.478 155.194C224.448 150.71 220.082 147.295 215 145.435C214.386 145.272 213.733 145.356 213.181 145.669C212.629 145.983 212.222 146.5 212.048 147.111C211.891 147.724 211.979 148.375 212.291 148.925C212.604 149.476 213.117 149.884 213.724 150.064Z" fill="#211715"/>
<path d="M210.807 138.513C210.161 142.459 208.178 146.062 205.191 148.719C203.727 150.067 202.117 151.247 200.391 152.237C200.253 152.321 199.891 152.424 200.479 152.218C200.297 152.282 200.118 152.357 199.936 152.418C199.458 152.589 198.973 152.74 198.487 152.884C197.268 153.245 196.032 153.545 194.787 153.793C194.177 153.968 193.659 154.375 193.346 154.927C193.032 155.479 192.948 156.131 193.11 156.745C193.29 157.352 193.698 157.866 194.249 158.178C194.799 158.491 195.45 158.578 196.063 158.422C198.398 158.059 200.671 157.371 202.815 156.377C204.923 155.221 206.864 153.786 208.586 152.109C212.16 148.864 214.568 144.534 215.436 139.785C215.585 139.172 215.495 138.525 215.184 137.976C214.872 137.427 214.363 137.018 213.76 136.832C213.146 136.668 212.493 136.752 211.94 137.065C211.388 137.379 210.981 137.898 210.808 138.509L210.807 138.513Z" fill="#211715"/>
<path d="M191.88 138.568C190.18 142.189 187.855 145.482 185.013 148.296C182.183 150.965 178.465 151.601 174.844 152.596C171.163 153.478 167.792 155.346 165.093 158.001C162.557 160.614 160.829 163.903 160.115 167.474C159.963 168.087 160.052 168.736 160.364 169.285C160.676 169.834 161.187 170.243 161.792 170.426C162.406 170.589 163.059 170.505 163.611 170.192C164.163 169.878 164.57 169.361 164.744 168.75C165.346 165.491 167.046 162.536 169.561 160.378C172.237 158.078 175.625 157.366 178.942 156.487C182.73 155.66 186.213 153.795 189 151.1C191.853 148.115 194.223 144.703 196.024 140.987C196.33 140.434 196.41 139.784 196.25 139.173C196.09 138.562 195.701 138.035 195.163 137.703C194.612 137.388 193.959 137.302 193.345 137.463C192.731 137.624 192.205 138.019 191.879 138.564L191.88 138.568Z" fill="#211715"/>
<path d="M169.53 223.625C175.302 229.704 183.521 231.967 191.607 232.843C200.251 233.779 209.007 233.09 217.03 229.585C220.719 228.106 224.012 225.784 226.644 222.806C227.078 222.347 227.319 221.74 227.319 221.109C227.319 220.478 227.078 219.871 226.644 219.412C226.192 218.966 225.582 218.716 224.947 218.716C224.312 218.716 223.702 218.966 223.25 219.412C219.141 224.435 212.167 226.884 205.966 227.922C202.005 228.499 197.99 228.612 194.003 228.257C190.088 228.039 186.215 227.327 182.478 226.138C178.857 224.982 175.576 222.953 172.924 220.231C170.792 217.987 167.402 221.385 169.53 223.625Z" fill="#211715"/>
<path d="M341.8 112.562C341.118 115.45 340.177 118.27 338.988 120.988C339.288 120.246 338.843 121.288 338.739 121.507C338.539 121.93 338.321 122.348 338.101 122.763C337.593 123.719 337.049 124.656 336.483 125.578C333.573 130.487 329.857 134.871 325.492 138.547C323.148 140.539 320.376 141.963 317.392 142.709C314.381 143.396 315.655 148.025 318.668 147.338C324.945 145.906 330.193 141.361 334.311 136.613C337.841 132.674 340.795 128.255 343.086 123.488C343.209 123.218 343.325 122.945 343.44 122.672C343.452 122.645 343.811 121.797 343.647 122.172C343.499 122.511 343.661 122.156 343.686 122.102C343.801 121.851 343.905 121.593 344.012 121.338C344.212 120.861 344.412 120.383 344.591 119.899C345.358 117.928 345.971 115.901 346.424 113.836C347.058 110.823 342.432 109.536 341.795 112.56L341.8 112.562Z" fill="#211715"/>
<path d="M332.321 33.18C329.497 31.2233 326.477 29.5651 323.311 28.232C317.082 25.5687 310.332 24.3463 303.564 24.656C280.951 23.325 259.307 40.256 254.859 61.678C253.65 67.458 254.115 76.401 254.768 81.095C255.156 83.877 256.006 87.667 257.312 89.701C257.512 89.6759 257.712 89.663 257.928 89.656C258.775 89.6218 259.62 89.7558 260.414 90.0502C261.209 90.3446 261.937 90.7935 262.557 91.371L267.257 84.413C270.257 82.387 273.818 80.849 278.508 78.913C279.681 78.4886 280.808 77.9451 281.87 77.291C281.849 77.676 281.836 77.931 281.836 77.931C281.736 78.3586 281.772 78.8065 281.937 79.2132C282.103 79.6199 282.39 79.9653 282.76 80.202C283.774 80.5538 284.847 80.699 285.918 80.629C289.797 80.7936 293.644 79.8679 297.023 77.957C297.465 77.694 297.876 77.43 298.26 77.157H315.974C318.56 75.1346 320.727 72.6279 322.355 69.777C324.092 66.7425 325.288 63.4291 325.89 59.985H329.7C330.415 65.772 332.747 71.227 335.244 76.497C336.744 79.666 338.589 83.062 341.854 84.34L344.582 91.688C345.207 91.1155 345.938 90.6724 346.735 90.3842C347.532 90.0961 348.378 89.9685 349.224 90.009C350.085 90.0304 350.935 90.2037 351.735 90.521C355.016 82.274 353.335 68.832 351.966 62.054C351.269 58.5983 350.14 55.2441 348.606 52.07C346.211 46.8369 342.76 42.1553 338.47 38.319L332.321 33.18Z" fill="#FEBE69"/>
<path d="M260.427 113.376C262.267 121.63 266.098 129.308 271.588 135.74C276.895 141.948 283.747 146.887 291.967 148.14C292.58 148.289 293.227 148.198 293.776 147.887C294.325 147.575 294.734 147.066 294.92 146.463C295.084 145.849 295 145.196 294.686 144.643C294.373 144.091 293.854 143.684 293.243 143.511C285.743 142.365 279.828 138.011 274.982 132.344C270.072 126.506 266.664 119.555 265.055 112.098C264.383 109.084 259.755 110.36 260.427 113.374V113.376Z" fill="#211715"/>
<path d="M333.532 31.107C325.155 25.2615 315.174 22.1525 304.959 22.207C300.804 22.1246 296.648 22.3855 292.536 22.987C288.589 23.735 284.748 24.9586 281.096 26.631C266.933 33.007 254.88 46.572 252.334 62.179C251.654 66.8471 251.506 71.5775 251.894 76.2789C252.201 80.924 252.761 85.695 254.72 89.966C255.045 90.5117 255.571 90.9079 256.186 91.0689C256.8 91.23 257.453 91.1431 258.004 90.827C258.543 90.4955 258.933 89.9692 259.093 89.3576C259.253 88.7459 259.172 88.096 258.865 87.543C258.097 85.6943 257.568 83.7554 257.29 81.773C257.038 80.329 256.89 78.853 256.756 77.151C256.424 73.2632 256.412 69.3546 256.722 65.4649C257.351 58.3939 260.437 51.6099 264.592 45.9259C273.081 34.3149 287.301 26.758 301.752 26.987C304.208 27.026 306.668 26.942 309.12 27.135C311.731 27.3521 314.315 27.8161 316.838 28.521C321.937 29.9539 326.761 32.2286 331.11 35.2509C333.664 37.0009 336.068 32.845 333.532 31.107Z" fill="#211715"/>
<path d="M353.859 91.6181C356.668 84.9311 356.332 76.9341 355.564 69.8681C355.239 66.5722 354.712 63.2993 353.986 60.0681C352.898 55.6233 351.177 51.358 348.876 47.4031C346.545 43.3824 343.607 39.7453 340.167 36.6201C337.896 34.5311 334.493 37.9201 336.773 40.0141C342.605 45.3352 346.826 52.1859 348.958 59.7871C350.656 66.1783 351.416 72.7822 351.217 79.3921C351.246 83.1336 350.572 86.8473 349.23 90.3401C349.064 90.9539 349.148 91.6083 349.462 92.1611C349.776 92.7139 350.295 93.1207 350.907 93.2931C351.52 93.4458 352.169 93.357 352.718 93.0448C353.268 92.7326 353.676 92.2211 353.859 91.6161V91.6181Z" fill="#211715"/>
<path d="M327.3 59.987C328.176 65.5821 329.899 71.0111 332.41 76.087C334.41 80.427 336.58 84.719 341.216 86.66C341.83 86.8255 342.484 86.7423 343.036 86.4285C343.589 86.1148 343.996 85.5957 344.168 84.984C344.321 84.3709 344.233 83.7223 343.921 83.1726C343.609 82.623 343.097 82.2146 342.492 82.032C339.251 80.675 337.701 76.177 336.367 73.255C334.297 69.0677 332.859 64.5963 332.1 59.987C332.08 59.3569 331.821 58.758 331.375 58.3122C330.929 57.8663 330.33 57.6071 329.7 57.587C329.065 57.5905 328.456 57.8444 328.007 58.2938C327.557 58.7431 327.303 59.3516 327.3 59.987Z" fill="#211715"/>
<path d="M264.254 89.674C262.89 88.4437 261.193 87.6423 259.377 87.3697C257.56 87.0971 255.703 87.3653 254.038 88.141C252.84 88.7548 251.796 89.6293 250.981 90.7002C250.166 91.7711 249.601 93.0111 249.329 94.329C248.63 97.4173 248.571 100.616 249.156 103.728C249.741 106.84 250.957 109.799 252.729 112.423C255.043 115.862 258.675 118.952 263.099 118.384C263.729 118.364 264.328 118.105 264.774 117.659C265.22 117.213 265.479 116.614 265.499 115.984C265.496 115.349 265.242 114.74 264.792 114.291C264.343 113.841 263.734 113.587 263.099 113.584C259.699 114.021 257.412 111.184 255.949 108.46C254.689 106.193 253.897 103.696 253.621 101.117C253.409 98.587 253.432 95.543 254.93 93.371C254.63 93.812 255.08 93.21 255.168 93.12C255.238 93.049 255.732 92.651 255.56 92.77C255.995 92.4751 256.486 92.271 257.002 92.17C257.671 92.0018 258.37 91.9957 259.041 92.1523C259.712 92.3088 260.337 92.6235 260.862 93.07C263.148 95.137 266.553 91.753 264.256 89.676L264.254 89.674Z" fill="#211715"/>
<path d="M324.8 153.309C326.857 156.543 330.386 158.625 333.72 160.329C337.645 162.335 341.765 163.929 345.835 165.614C346.449 165.779 347.103 165.696 347.655 165.382C348.208 165.069 348.615 164.55 348.787 163.938C348.94 163.325 348.852 162.676 348.54 162.127C348.228 161.577 347.716 161.168 347.111 160.986C343.511 159.498 339.894 158.078 336.411 156.32C334.761 155.51 333.173 154.58 331.661 153.536C331.086 153.145 330.551 152.7 330.061 152.207C329.821 151.974 329.595 151.73 329.373 151.481C329.247 151.34 329.085 151.109 329.286 151.389C329.168 151.225 329.056 151.057 328.947 150.889C328.626 150.339 328.099 149.94 327.483 149.778C326.867 149.617 326.213 149.707 325.663 150.028C325.113 150.349 324.714 150.876 324.552 151.492C324.391 152.108 324.481 152.762 324.802 153.312L324.8 153.309Z" fill="#211715"/>
<path d="M269.453 160.982C273.64 159.769 277.729 158.24 281.684 156.408C283.484 155.5 285.584 154.428 286.19 152.368C286.451 151.274 286.655 150.168 286.799 149.053L287.456 145.368C287.608 144.755 287.518 144.107 287.206 143.558C286.895 143.009 286.384 142.6 285.78 142.416C285.166 142.252 284.513 142.336 283.961 142.65C283.409 142.963 283.002 143.481 282.828 144.092C282.445 146.241 282.088 148.392 281.678 150.54C281.649 150.726 281.61 150.91 281.562 151.092C281.556 151.092 281.734 150.768 281.751 150.811C281.751 150.821 280.899 151.34 280.803 151.4C280.175 151.79 279.526 152.145 278.859 152.462C277.371 153.161 275.845 153.776 274.288 154.302C272.264 155.024 270.219 155.687 268.177 156.353C267.571 156.534 267.058 156.942 266.746 157.492C266.434 158.042 266.346 158.692 266.501 159.305C266.676 159.915 267.083 160.433 267.635 160.746C268.186 161.06 268.839 161.144 269.453 160.982Z" fill="#211715"/>
<path d="M268.505 168.529C273.597 171.019 278.896 173.06 284.343 174.629C289.433 175.98 294.655 176.769 299.917 176.983C305.732 177.252 311.559 177.087 317.349 176.492C321.444 176.144 325.492 175.367 329.424 174.172C332.513 173.125 335.495 171.785 338.33 170.172C341.037 168.683 338.618 164.536 335.907 166.028C334.782 166.647 333.651 167.255 332.494 167.812C331.95 168.073 331.401 168.325 330.846 168.563C331.323 168.358 330.397 168.742 330.252 168.798C329.877 168.944 329.501 169.084 329.122 169.218C325.768 170.369 322.297 171.147 318.772 171.538C308.538 172.762 297.678 172.912 287.602 170.51C281.848 169.049 276.26 166.998 270.928 164.388C270.374 164.084 269.725 164.004 269.114 164.164C268.503 164.324 267.977 164.712 267.644 165.249C267.328 165.8 267.242 166.453 267.403 167.067C267.564 167.681 267.96 168.207 268.505 168.532V168.529Z" fill="#211715"/>
<path d="M317.185 79.232C320.992 76.3456 323.977 72.5124 325.843 68.114C327.776 63.5967 328.799 58.743 328.856 53.83C328.98 50.741 324.18 50.746 324.056 53.83C324.007 56.1471 323.759 58.4557 323.313 60.73C322.939 62.4321 322.399 64.0932 321.699 65.689C320.099 69.211 317.963 72.782 314.763 75.089C314.227 75.4223 313.838 75.9486 313.678 76.5595C313.518 77.1703 313.598 77.8194 313.902 78.373C314.226 78.9189 314.753 79.3152 315.367 79.4763C315.981 79.6374 316.634 79.5504 317.185 79.234V79.232Z" fill="#211715"/>
<path d="M279.436 77.933C279.32 78.8875 279.521 79.8536 280.008 80.683C280.494 81.5124 281.239 82.1591 282.129 82.524C283.766 83.0146 285.483 83.1843 287.185 83.024C290.583 82.9342 293.923 82.1243 296.985 80.648C300.121 79.0752 302.837 76.7786 304.909 73.948C307.089 71.2268 308.814 68.1715 310.02 64.9C311.186 61.2399 311.931 57.4588 312.24 53.63C312.236 52.9946 311.982 52.3863 311.533 51.937C311.084 51.4877 310.475 51.2337 309.84 51.23C309.208 51.2445 308.606 51.502 308.159 51.949C307.712 52.396 307.454 52.998 307.44 53.63C307.137 57.0856 306.43 60.4939 305.334 63.785C304.129 66.9121 302.358 69.7903 300.11 72.275C298.494 74.1186 296.508 75.6017 294.281 76.628C292.054 77.6543 289.637 78.2007 287.185 78.232C286.416 78.248 285.634 78.26 284.865 78.212C284.565 78.2193 284.265 78.1931 283.971 78.134C284.25 78.249 284.19 78.529 284.236 77.934C284.23 77.2992 283.976 76.6919 283.527 76.243C283.078 75.7941 282.471 75.5395 281.836 75.534C281.203 75.5458 280.599 75.8024 280.152 76.25C279.704 76.6975 279.448 77.3001 279.436 77.933Z" fill="#211715"/>
<path d="M268.468 86.4859C273.793 82.9319 280.295 81.6319 285.391 77.7619C290.542 73.8499 293.07 67.8899 294.57 61.7689C295.306 58.7689 290.678 57.4899 289.942 60.4929C288.632 65.8339 286.593 71.0929 281.935 74.3739C279.455 76.1189 276.646 77.0819 273.881 78.2739C271.152 79.3895 268.53 80.7501 266.046 82.3389C263.488 84.0459 265.889 88.2049 268.468 86.4839V86.4859Z" fill="#211715"/>
<path d="M61.6881 139.669C75.4341 151.802 95.7511 156.032 113.425 151.755C118.703 150.483 123.744 148.377 128.359 145.518C130.976 143.889 128.569 139.735 125.936 141.374C111.302 150.483 91.9311 150.711 76.4361 143.55C72.3184 141.687 68.4928 139.237 65.0791 136.275C62.7711 134.238 59.3641 137.62 61.6851 139.669H61.6881Z" fill="#211715"/>
<path d="M53.6221 37.967C57.1309 27.0693 64.1814 17.657 73.6531 11.226C82.6842 5.02623 93.4974 1.95502 104.439 2.48203C114.57 2.67025 124.409 5.90772 132.672 11.772L139.155 17.088C147.184 24.825 154.28 36.713 154.455 53.918C154.476 59.6087 153.606 65.2677 151.876 70.689C151.262 70.504 150.628 70.391 149.988 70.352C149.108 70.2848 148.223 70.3927 147.384 70.6693C146.546 70.946 145.771 71.3861 145.103 71.964L138.503 66.377C136.491 60.801 131.746 54.558 126.735 49.958C124.492 47.8142 121.901 46.0664 119.073 44.789L110.617 43.473C104.817 45.702 96.5761 50.509 91.9641 52.881C91.7024 53.0009 91.4125 53.0457 91.1269 53.0103C90.8412 52.9749 90.571 52.8608 90.3465 52.6806C90.122 52.5005 89.952 52.2615 89.8555 51.9903C89.759 51.7192 89.7398 51.4265 89.8001 51.145C89.95 50.1523 89.9161 49.1405 89.7001 48.16C89.4381 46.907 88.5001 46.348 87.7421 46.714C81.2891 49.84 71.9671 58.157 66.6581 63.7L59.6451 69.216C59.0155 68.5973 58.2695 68.1093 57.4503 67.7805C56.6311 67.4516 55.7548 67.2883 54.8721 67.3C54.1656 67.296 53.4616 67.3844 52.7781 67.563C51.4063 62.0197 50.884 56.3002 51.2291 50.6C51.5325 46.3103 52.3356 42.0706 53.6221 37.967Z" fill="#85807F"/>
<path d="M61.342 67.521C59.9374 66.1997 58.1689 65.3298 56.2649 65.0239C54.3608 64.718 52.4088 64.9901 50.661 65.805C49.4567 66.4331 48.4029 67.3148 47.572 68.3892C46.7411 69.4637 46.153 70.7054 45.848 72.029C44.086 78.168 45.469 85.276 48.777 90.668C51.064 94.398 54.813 97.747 59.483 97.281C60.1141 97.2638 60.7147 97.0055 61.1611 96.5591C61.6075 96.1126 61.8659 95.5121 61.883 94.881C61.8788 94.2458 61.6246 93.6378 61.1754 93.1886C60.7263 92.7394 60.1182 92.4852 59.483 92.481C55.839 92.844 53.492 89.596 52.054 86.663C50.8385 84.2464 50.1191 81.611 49.938 78.912C49.806 76.312 49.938 73.155 51.571 70.987C51.231 71.44 51.821 70.749 51.899 70.675C52.213 70.375 51.778 70.709 52.199 70.425C52.7186 70.0734 53.3111 69.8443 53.932 69.755C54.6453 69.6207 55.3801 69.6557 56.0773 69.8574C56.7745 70.0591 57.4146 70.4217 57.946 70.916C60.178 73.051 63.577 69.662 61.34 67.521H61.342Z" fill="#211715"/>
<path d="M146.8 73.662C147.378 73.222 148.052 72.9248 148.767 72.7945C149.482 72.6642 150.218 72.7044 150.914 72.912C151.752 73.0739 152.5 73.5402 153.014 74.221C154.538 76.451 154.49 79.711 154.178 82.292C153.798 85.0123 152.88 87.6297 151.478 89.9919C150.078 92.4279 147.478 95.804 144.256 95.271C143.643 95.1209 142.996 95.2109 142.447 95.5225C141.898 95.8341 141.489 96.3437 141.304 96.947C141.14 97.5605 141.223 98.2141 141.537 98.7665C141.851 99.3189 142.369 99.7257 142.98 99.899C150.861 101.199 155.657 93.636 157.949 87.1989C159.858 81.837 160.149 73.299 155.008 69.582C153.266 68.4124 151.188 67.846 149.093 67.9695C146.998 68.0931 145.001 68.8997 143.408 70.266C142.961 70.7188 142.71 71.3296 142.71 71.966C142.71 72.6023 142.961 73.2131 143.408 73.666C143.865 74.1037 144.473 74.3481 145.105 74.3481C145.738 74.3481 146.346 74.1037 146.802 73.666L146.8 73.662Z" fill="#211715"/>
<path d="M141.666 93.726C141.227 95.4991 140.671 97.241 140 98.94C139.762 99.556 139.516 100.166 139.239 100.765C139.125 101.013 138.994 101.254 138.881 101.502C138.141 103.13 139.052 101.209 138.681 101.957C137.802 103.743 136.814 105.474 135.722 107.138C132.597 112.115 128.652 116.527 124.055 120.187C121.479 122.262 118.46 123.718 115.232 124.441C114.928 124.525 114.644 124.668 114.395 124.861C114.146 125.055 113.938 125.296 113.783 125.57C113.627 125.844 113.527 126.146 113.488 126.459C113.449 126.772 113.472 127.089 113.556 127.393C113.64 127.697 113.783 127.981 113.976 128.23C114.17 128.479 114.411 128.687 114.685 128.842C114.959 128.998 115.261 129.098 115.574 129.137C115.887 129.176 116.204 129.153 116.508 129.069C123.081 127.769 128.678 123.132 133.092 118.314C136.872 114.315 140.066 109.801 142.578 104.905C142.673 104.711 142.765 104.517 142.853 104.32C142.971 104.086 143.076 103.845 143.168 103.599C142.988 103.954 143.23 103.499 143.268 103.421C143.368 103.221 143.458 103.012 143.549 102.806C143.761 102.329 143.963 101.847 144.163 101.365C145.039 99.3022 145.751 97.1741 146.295 95C147.015 92 142.387 90.717 141.666 93.724V93.726Z" fill="#211715"/>
<path d="M56.8941 92.126C58.1351 98.5839 60.5507 104.759 64.0211 110.345C67.7211 116.261 72.6591 121.817 78.7021 125.411C81.7896 127.246 85.1802 128.516 88.7141 129.159C89.3273 129.311 89.9752 129.221 90.5244 128.909C91.0736 128.597 91.4822 128.086 91.6661 127.482C91.8296 126.868 91.7456 126.215 91.4321 125.663C91.1186 125.111 90.6007 124.704 89.9901 124.53C82.2521 123.13 76.2421 118.43 71.3741 112.43C66.3708 106.153 62.9875 98.7422 61.5221 90.85C61.3479 90.2395 60.9409 89.7218 60.3888 89.4083C59.8367 89.0949 59.1836 89.0107 58.5701 89.174C57.9633 89.354 57.4498 89.7619 57.1373 90.3123C56.8248 90.8627 56.7376 91.5127 56.8941 92.126Z" fill="#211715"/>
<path d="M133.883 9.70001C126.378 4.56028 117.722 1.34869 108.681 0.349126C99.6399 -0.650434 90.4916 0.592827 82.0451 3.96901C75.1536 6.84754 68.9291 11.1151 63.7598 16.5057C58.5905 21.8962 54.5874 28.294 52.0001 35.3C48.3779 45.6256 47.7832 56.7716 50.2861 67.424C50.9551 70.438 55.5861 69.162 54.9141 66.147C51.4041 50.336 54.9261 33.407 65.8871 21.236C74.0506 12.2423 85.2113 6.53111 97.281 5.17093C109.351 3.81074 121.503 6.89477 131.463 13.846C132.014 14.1618 132.667 14.2486 133.281 14.0875C133.895 13.9265 134.421 13.5305 134.746 12.985C135.055 12.4326 135.137 11.7821 134.977 11.1701C134.816 10.558 134.425 10.0319 133.885 9.70201L133.883 9.70001Z" fill="#211715"/>
<path d="M154.391 70.618C155.655 66.316 156.454 61.8906 156.774 57.418C157.002 52.9787 156.746 48.5278 156.009 44.144C154.878 36.9439 152.195 30.0756 148.147 24.015C146.138 21.0577 143.831 18.3144 141.262 15.828C139.042 13.678 135.644 17.068 137.868 19.222C142.158 23.3454 145.607 28.2624 148.024 33.7C150.919 40.5846 152.291 48.0136 152.047 55.478C151.879 60.1781 151.111 64.8375 149.762 69.343C148.931 72.323 153.562 73.595 154.391 70.619V70.618Z" fill="#211715"/>
<path d="M117.856 46.8609C121.953 48.9087 125.597 51.7564 128.575 55.2359C131.827 58.6506 134.408 62.6464 136.183 67.0149C136.366 67.6196 136.775 68.1308 137.324 68.4427C137.874 68.7547 138.522 68.8435 139.135 68.6909C139.746 68.5174 140.264 68.1106 140.578 67.5583C140.891 67.006 140.975 66.3525 140.811 65.7389C138.821 60.7056 135.908 56.0884 132.222 52.1249C128.913 48.218 124.851 45.0179 120.278 42.7159C119.725 42.4118 119.076 42.3316 118.465 42.4918C117.854 42.652 117.328 43.0404 116.995 43.5769C116.679 44.1279 116.592 44.7809 116.753 45.3952C116.915 46.0095 117.311 46.5359 117.856 46.8609Z" fill="#211715"/>
<path d="M68.3551 65.4C73.5577 59.773 79.4173 54.7914 85.8081 50.562C86.4921 50.131 87.1881 49.715 87.8991 49.33C88.0819 49.2454 88.2602 49.1513 88.4331 49.048C88.7651 48.812 88.6701 49.096 88.4541 48.959C88.3541 48.897 86.8471 49.518 87.4091 48.703C87.3261 48.823 87.4571 49.103 87.4691 49.239C87.5451 50.104 87.3501 50.956 87.4281 51.811C87.4768 52.38 87.6481 52.9317 87.9303 53.4282C88.2126 53.9247 88.599 54.3541 89.0631 54.687C91.0121 56.078 92.8631 55.128 94.7101 54.144C96.3101 53.294 97.8931 52.425 99.4841 51.567C103.283 49.4005 107.212 47.4702 111.249 45.787C111.853 45.6021 112.363 45.1933 112.674 44.6444C112.986 44.0954 113.076 43.448 112.925 42.835C112.752 42.2238 112.345 41.7052 111.793 41.3916C111.24 41.0779 110.587 40.9944 109.973 41.159C106.193 42.6933 102.506 44.4497 98.9331 46.419C97.1911 47.346 95.4581 48.293 93.7211 49.23C93.0224 49.6073 92.3224 49.9817 91.6211 50.353C91.0671 50.645 90.7551 50.564 91.5011 50.801C92.2471 51.038 92.2081 51.434 92.2741 50.486C92.4221 48.348 91.9371 45.745 89.8971 44.632C87.9681 43.579 86.0371 44.832 84.3791 45.81C80.9354 47.9309 77.6715 50.3306 74.6201 52.985C71.2432 55.8187 68.0193 58.83 64.9621 62.006C62.8221 64.235 66.2111 67.634 68.3551 65.4Z" fill="#211715"/>
<path d="M64.434 139.6C66.58 138.78 68.7257 137.958 70.871 137.134C72.2201 136.686 73.54 136.155 74.823 135.543C79.337 133.119 80.077 127.343 80.638 122.774C80.638 122.459 80.5759 122.147 80.4553 121.856C80.3347 121.564 80.1579 121.3 79.935 121.077C79.7122 120.854 79.4476 120.677 79.1564 120.557C78.8652 120.436 78.5532 120.374 78.238 120.374C77.6073 120.392 77.0074 120.651 76.5613 121.097C76.1151 121.543 75.8563 122.143 75.838 122.774C75.8 123.079 75.7933 123.136 75.818 122.947C75.7933 123.126 75.7666 123.305 75.738 123.482C75.697 123.748 75.652 124.013 75.605 124.282C75.494 124.908 75.369 125.532 75.235 126.154C75.0577 127.062 74.8205 127.958 74.525 128.835C74.482 128.954 74.437 129.072 74.391 129.19C74.513 128.907 74.519 128.888 74.409 129.135C74.324 129.302 74.246 129.471 74.156 129.635C74.051 129.826 73.93 130.006 73.817 130.192C73.509 130.7 74.001 130.05 73.682 130.375C73.549 130.51 73.427 130.655 73.289 130.786C73.196 130.875 73.101 130.96 73.002 131.043C73.234 130.873 73.238 130.867 73.017 131.027C72.842 131.136 72.674 131.251 72.493 131.352C72.3218 131.426 72.1549 131.51 71.993 131.603C72.193 131.529 71.9 131.629 71.854 131.646C71.643 131.72 71.436 131.804 71.227 131.883C70.5296 132.15 69.833 132.416 69.137 132.683C67.1443 133.447 65.1513 134.21 63.158 134.973C62.5521 135.155 62.0397 135.563 61.7273 136.113C61.4149 136.663 61.3267 137.312 61.481 137.925C61.6563 138.535 62.0636 139.052 62.6155 139.366C63.1675 139.679 63.8202 139.764 64.434 139.602V139.6Z" fill="#211715"/>
<path d="M60.4279 135.658C52.6994 138.035 45.153 140.968 37.8479 144.435C31.0699 147.635 24.2969 151.292 18.5769 156.193C12.5969 161.317 8.67693 168.602 6.09393 175.937C3.16493 184.246 1.90893 193.071 0.968928 201.8C-0.227232 211.544 -0.30373 221.393 0.740928 231.154C1.76693 239.54 3.56393 248.58 8.46393 255.654C10.6503 258.968 13.6521 261.664 17.1809 263.483C21.1564 265.372 25.5856 266.097 29.9559 265.574C38.9859 264.555 46.5299 259.46 52.7369 253.074C58.4365 247.19 63.5289 240.746 67.9369 233.841C71.7298 227.693 75.0169 221.248 77.7659 214.568C78.6419 212.529 79.5036 210.485 80.3509 208.434C80.5167 207.82 80.4337 207.166 80.1199 206.613C79.8061 206.06 79.2868 205.653 78.6749 205.481C78.0617 205.328 77.4132 205.417 76.8636 205.729C76.3141 206.041 75.9057 206.553 75.7229 207.158C73.0732 213.838 70.0346 220.358 66.6229 226.683C63.1061 232.826 59.0176 238.624 54.4119 244C49.2709 250.11 43.4379 256.471 35.7589 259.313C28.5829 261.969 20.3479 261.541 14.7719 255.842C9.47193 250.421 7.44093 242.429 6.15493 235.188C4.68674 226.027 4.37965 216.718 5.24093 207.48C5.75675 199.048 7.04855 190.68 9.09993 182.485C11.0749 175.102 14.1929 167.659 19.4529 161.985C23.8599 157.232 29.8259 153.899 35.5149 150.937C42.3386 147.411 49.4143 144.396 56.6839 141.917C58.3506 141.344 60.0243 140.8 61.7049 140.286C64.6509 139.386 63.3949 134.75 60.4289 135.657L60.4279 135.658Z" fill="#211715"/>
<path d="M201.809 189.918C201.717 190.008 201.353 190.299 201.746 189.996C202.139 189.693 201.68 190.031 201.563 190.103C201.415 190.194 201.263 190.278 201.108 190.356C201.008 190.407 200.888 190.447 200.792 190.505C200.403 190.714 200.112 191.067 199.979 191.488C199.847 191.909 199.884 192.365 200.083 192.759C200.281 193.153 200.626 193.453 201.044 193.597C201.461 193.74 201.918 193.715 202.317 193.527C202.716 193.338 203.026 193.002 203.18 192.588C203.334 192.175 203.321 191.718 203.144 191.314C202.966 190.91 202.637 190.591 202.228 190.426C201.819 190.261 201.361 190.262 200.953 190.429C200.459 190.605 199.952 190.743 199.437 190.844C199.31 190.868 198.763 191.021 199.383 190.865C199.229 190.893 199.073 190.909 198.916 190.913C198.545 190.944 198.173 190.958 197.801 190.959C197.461 190.959 197.121 190.947 196.783 190.921C196.597 190.888 196.409 190.869 196.221 190.865C196.314 190.789 196.721 190.944 196.251 190.859C195.728 190.768 195.213 190.632 194.713 190.453C194.518 190.382 194.213 190.173 194.813 190.505C194.728 190.458 194.634 190.424 194.547 190.381C194.374 190.296 194.205 190.204 194.041 190.103C193.916 190.026 193.801 189.93 193.675 189.856C194.358 190.256 193.994 190.114 193.793 189.918C193.342 189.474 192.733 189.226 192.1 189.229C191.467 189.231 190.86 189.484 190.413 189.932C189.965 190.379 189.712 190.986 189.71 191.619C189.707 192.252 189.955 192.861 190.399 193.312C192.299 195.169 195.245 195.76 197.799 195.759C200.353 195.758 203.299 195.171 205.199 193.312C205.643 192.861 205.891 192.252 205.888 191.619C205.885 190.986 205.633 190.379 205.185 189.932C204.737 189.484 204.131 189.231 203.498 189.229C202.865 189.226 202.256 189.474 201.805 189.918H201.809Z" fill="#211715"/>
<path d="M196.675 177.588C197 178.759 197.259 179.948 197.453 181.148L197.367 180.51C197.39 180.673 197.395 180.837 197.381 181.001L197.466 180.363C197.456 180.438 197.438 180.512 197.412 180.584L197.654 180.011C197.633 180.061 197.607 180.108 197.576 180.153L197.952 179.667C197.917 179.709 197.878 179.748 197.835 179.782L198.321 179.406C198.231 179.462 198.136 179.513 198.039 179.556L198.612 179.314C198.46 179.379 198.3 179.425 198.137 179.452L198.775 179.367C198.627 179.384 198.477 179.384 198.329 179.367L198.967 179.453C198.799 179.429 198.634 179.388 198.467 179.366C198.158 179.266 197.827 179.251 197.51 179.323C197.192 179.336 196.884 179.434 196.617 179.607C196.345 179.766 196.107 179.977 195.916 180.228C195.725 180.479 195.586 180.766 195.506 181.071C195.426 181.376 195.407 181.693 195.45 182.006C195.493 182.318 195.597 182.619 195.756 182.891C195.909 183.162 196.114 183.399 196.361 183.588C196.608 183.777 196.89 183.914 197.191 183.991C197.624 184.05 198.045 184.158 198.491 184.178C199.179 184.18 199.857 184.016 200.467 183.698C200.862 183.512 201.212 183.241 201.49 182.904C201.769 182.568 201.97 182.174 202.079 181.751C202.224 181.08 202.219 180.386 202.062 179.718C201.869 178.571 201.604 177.435 201.309 176.31C201.136 175.71 200.744 175.198 200.209 174.876C199.937 174.717 199.636 174.613 199.324 174.57C199.011 174.527 198.694 174.546 198.389 174.626C198.084 174.706 197.797 174.845 197.546 175.036C197.295 175.227 197.084 175.465 196.925 175.737C196.611 176.3 196.525 176.961 196.683 177.586L196.675 177.588Z" fill="#211715"/>
<path d="M178.619 168.079C178.038 169.968 178.419 174.312 181.995 174.679C186.724 174.651 186.975 169.398 185.384 166.929C184.08 164.91 180.248 164.069 178.619 168.079Z" fill="#211715"/>
<path d="M216.332 168.079C216.914 169.968 216.532 174.312 212.957 174.679C208.228 174.651 207.976 169.398 209.568 166.928C210.871 164.909 214.7 164.069 216.332 168.079Z" fill="#211715"/>
<path d="M309.867 211.42L308.342 206.266C308.342 206.266 308.142 205.575 307.786 204.387C307.156 204.829 306.496 205.238 305.786 205.66C303.422 207.448 301.426 209.677 299.908 212.224C299.899 212.24 299.892 212.256 299.885 212.273C294.098 209.78 286.349 206.335 281.24 203.111C282.18 200.209 282.969 197.261 283.604 194.278C284.577 190.633 285.02 188.288 286.079 185.405C288.285 179.399 292.33 172.232 294.493 167.056C296.843 161.292 304.993 142.594 306.932 138.489C307.347 137.466 308.106 136.619 309.079 136.096C310.052 135.573 311.176 135.407 312.259 135.625C313.959 135.972 315.459 138.267 315.876 139.592L316.476 141.483C317.288 141.284 318.141 141.341 318.919 141.645C320.929 142.409 321.247 144.171 321.196 146.056C320.89 148.943 320.388 151.806 319.696 154.625L323.226 151.671C324.314 151.154 325.553 151.05 326.712 151.381C327.561 151.518 328.351 151.902 328.983 152.485C329.615 153.068 330.062 153.824 330.267 154.659C330.689 157.525 330.682 160.438 330.248 163.302C328.832 171.879 327.813 179.314 326.5 187.645C325.563 192.214 326.807 195.614 328.322 198.635L333.608 208.851L333.908 209.426C326.853 212.47 318.492 216.054 312.037 218.758C312.002 218.626 311.98 218.558 311.98 218.558L309.867 211.42Z" fill="white"/>
<path d="M318.188 138.954C317.156 135.987 314.813 133.249 311.488 133.137C310.054 133.128 308.648 133.542 307.447 134.326C306.246 135.11 305.302 136.23 304.733 137.547C302.908 141.39 301.248 145.32 299.545 149.219C297.459 153.993 295.387 158.772 293.364 163.572C291.082 168.983 288.364 174.172 285.948 179.521C284.32 183.096 283.02 186.811 282.063 190.621C281.063 194.599 280.205 198.621 278.911 202.515C277.936 205.453 282.57 206.715 283.54 203.791C285.596 197.599 286.418 191.032 288.809 184.949C291.169 178.949 294.462 173.36 296.926 167.401C298.366 163.92 299.964 160.219 301.626 156.388C303.513 152.034 305.419 147.689 307.346 143.353C307.982 141.928 308.562 139.864 309.625 138.695C309.918 138.338 310.323 138.092 310.774 137.995C311.474 137.804 310.443 137.965 311.134 137.934C311.324 137.926 312.08 138.096 311.623 137.934C312.537 138.424 313.231 139.243 313.564 140.225C313.746 140.83 314.155 141.342 314.704 141.654C315.254 141.967 315.903 142.055 316.516 141.901C317.127 141.727 317.644 141.32 317.958 140.768C318.271 140.216 318.355 139.563 318.192 138.949L318.188 138.954Z" fill="#211715"/>
<path d="M315.179 173.465C316.469 169.084 318.159 164.83 320.226 160.757C320.405 160.427 320.602 160.107 320.814 159.797C320.277 160.569 320.956 159.631 320.845 159.678C321.78 159.278 321.491 161.43 321.438 161.857C321.069 164.264 320.552 166.645 319.889 168.988C318.589 174.127 317.046 179.206 315.838 184.367C314.554 189.857 312.838 195.59 309.098 199.961C307.359 201.99 305.15 202.969 303.125 204.672C300.981 206.437 299.187 208.588 297.834 211.013C296.404 213.748 300.545 216.177 301.978 213.436C303.154 211.302 304.753 209.43 306.678 207.936C307.422 207.392 308.723 206.681 309.621 206.003C310.763 205.158 311.801 204.181 312.714 203.092C317.014 197.88 319.037 191.562 320.591 185.111C321.981 179.344 323.736 173.671 325.091 167.895C325.78 164.967 326.81 161.556 325.963 158.578C325.705 157.717 325.225 156.94 324.572 156.324C323.918 155.707 323.114 155.273 322.24 155.066C321.365 154.859 320.452 154.886 319.591 155.143C318.731 155.4 317.953 155.88 317.336 156.533C315.565 158.449 314.65 161.267 313.69 163.633C312.545 166.449 311.497 169.303 310.544 172.196C309.574 175.137 314.208 176.396 315.172 173.472L315.179 173.465Z" fill="#211715"/>
<path d="M305.894 170.272C308.31 164.178 310.699 158.072 313.136 151.987C313.684 150.618 314.236 149.251 314.793 147.887C315.005 147.367 315.219 146.848 315.434 146.329C315.47 146.242 315.77 145.529 315.644 145.829C315.518 146.129 315.791 145.486 315.844 145.37C316.193 144.57 316.515 143.712 317.544 143.759C318.995 143.826 318.857 145.29 318.781 146.425C318.605 148.09 318.326 149.744 317.948 151.375C317.481 153.669 316.964 155.952 316.395 158.224C315.65 161.224 320.278 162.501 321.024 159.5C322.206 155.282 323.055 150.978 323.564 146.628C323.713 145.611 323.65 144.574 323.378 143.583C323.107 142.591 322.634 141.667 321.988 140.867C321.054 139.927 319.851 139.301 318.546 139.074C317.24 138.847 315.897 139.031 314.7 139.6C311.91 140.912 311.052 144.429 309.979 147.065C308.568 150.534 307.189 154.015 305.811 157.496C304.295 161.328 302.781 165.161 301.268 168.996C301.103 169.61 301.187 170.264 301.501 170.816C301.815 171.369 302.334 171.775 302.945 171.948C303.558 172.102 304.207 172.014 304.757 171.702C305.307 171.39 305.715 170.878 305.897 170.272H305.894Z" fill="#211715"/>
<path d="M324.439 153.744C324.739 153.614 325.069 153.569 325.392 153.616C325.855 153.626 326.312 153.716 326.744 153.884C327.081 154.019 327.377 154.242 327.598 154.529C327.82 154.817 327.961 155.159 328.005 155.52C328.122 156.299 328.18 157.085 328.179 157.872C328.198 159.022 328.16 160.172 328.073 161.321C327.89 163.714 327.298 166.575 326.883 169.259C326.441 172.121 326.014 174.985 325.583 177.849C325.137 180.823 324.72 183.805 324.221 186.771C323.642 189.582 323.704 192.487 324.401 195.271C325.295 197.97 326.466 200.569 327.894 203.027L331.534 210.061C332.954 212.806 337.098 210.381 335.679 207.639L332.308 201.124C331 198.595 329.475 196.071 328.846 193.267C328.209 190.435 328.924 187.602 329.355 184.793C329.828 181.706 330.286 178.616 330.75 175.528C331.235 172.304 331.727 169.081 332.25 165.863C332.686 163.453 332.931 161.012 332.984 158.563C332.994 155.935 332.872 152.979 330.904 150.995C328.835 148.908 324.604 147.902 322.017 149.595C319.43 151.288 321.845 155.439 324.44 153.74L324.439 153.744Z" fill="#211715"/>
<path d="M306.028 206.9L309.202 217.629L309.664 219.188C309.748 219.492 309.891 219.776 310.084 220.025C310.278 220.274 310.519 220.482 310.793 220.638C311.067 220.793 311.369 220.894 311.682 220.933C311.995 220.971 312.313 220.948 312.616 220.865C312.92 220.781 313.205 220.638 313.454 220.444C313.702 220.25 313.911 220.01 314.066 219.736C314.222 219.461 314.322 219.159 314.361 218.846C314.4 218.533 314.377 218.216 314.293 217.912L311.118 207.184L310.656 205.624C310.487 205.01 310.081 204.489 309.527 204.175C308.973 203.86 308.318 203.779 307.704 203.948C307.09 204.117 306.569 204.523 306.255 205.077C305.94 205.631 305.859 206.286 306.028 206.9Z" fill="#211715"/>
<path d="M278.231 203.98C281.569 206.244 285.094 208.217 288.768 209.88C292.538 211.692 296.375 213.361 300.219 215.009C300.773 215.31 301.421 215.388 302.031 215.229C302.642 215.069 303.168 214.682 303.503 214.148C303.82 213.597 303.907 212.944 303.746 212.33C303.585 211.715 303.188 211.189 302.642 210.865C298.798 209.217 294.961 207.547 291.19 205.736C287.516 204.072 283.991 202.099 280.653 199.836C280.102 199.52 279.449 199.433 278.835 199.594C278.221 199.755 277.695 200.151 277.37 200.697C277.062 201.25 276.979 201.9 277.14 202.512C277.3 203.124 277.691 203.65 278.231 203.98Z" fill="#211715"/>
<path d="M59.5411 172.456C59.2291 172.256 58.9291 172.058 58.6411 171.861L58.9271 170.671C60.4355 161.42 62.5782 152.285 65.3401 143.328C66.9691 138.214 68.6771 132.061 72.0311 128.778C74.4219 126.17 77.2514 124 80.3911 122.369C86.8975 119.187 93.7519 116.774 100.816 115.176C102.748 114.778 104.756 114.977 106.572 115.746C107.179 116.092 107.665 116.617 107.964 117.249C108.262 117.881 108.359 118.589 108.24 119.278C108.023 120.878 105.245 122.684 102.953 123.611C97.4931 125.821 92.6401 128.291 87.4401 130.718L87.0281 130.91C91.3971 131.41 96.7951 132.177 100.11 132.6C101.591 132.788 104.773 134.127 104.456 137.738C104.226 140.351 102.707 142.461 98.5311 142.217C99.6521 142.746 100.425 143.117 100.425 143.117C101.381 143.523 102.16 144.256 102.624 145.185C103.087 146.114 103.204 147.178 102.953 148.185C102.553 150.485 99.9801 151.167 98.3601 151.045L98.1921 151.033L99.1521 152.011C99.8537 152.971 100.198 154.147 100.124 155.334C100.098 157.1 98.7241 158.577 96.5111 159.034C94.6611 159.416 92.8701 159.734 90.1111 160.152C90.0061 163.952 89.7891 166.762 88.7001 169.486C87.2291 173.163 85.3341 175.356 82.3001 176.165C82.3001 176.165 80.4401 179.87 78.6621 183.42C73.3001 180.676 64.9391 175.969 59.5411 172.456Z" fill="white"/>
<path d="M83.7391 132.973C86.6241 133.226 89.4971 133.597 92.3681 133.973C93.8614 134.168 95.3544 134.368 96.8471 134.573L98.7721 134.83C99.0621 134.868 99.3521 134.907 99.6431 134.944C100.154 135.009 99.3271 134.827 99.8851 134.992C100.068 135.047 100.254 135.092 100.438 135.15C100.938 135.293 100.284 135.009 100.638 135.229C100.838 135.354 101.048 135.457 101.246 135.583C101.47 135.726 101.211 135.543 101.179 135.518C101.32 135.632 101.442 135.759 101.573 135.882C101.945 136.233 101.602 135.869 101.807 136.187C101.838 136.235 102.022 136.587 101.873 136.247C101.918 136.361 101.957 136.478 101.988 136.597C102.07 136.767 102.101 136.958 102.077 137.145C102.077 137.369 101.952 138.231 102.062 137.713C102.014 137.941 101.952 138.165 101.902 138.392C101.792 138.899 102.022 138.31 101.826 138.63C101.761 138.736 101.453 139.239 101.607 139.03C101.813 138.754 101.115 139.496 101.361 139.292C101.533 139.15 101.045 139.485 100.918 139.552C100.838 139.595 100.518 139.699 100.881 139.571C100.771 139.614 100.657 139.649 100.542 139.676C99.9859 139.81 99.4134 139.863 98.8421 139.834C97.0741 139.783 95.2891 139.487 93.5301 139.309C91.6431 139.117 89.7561 138.928 87.8731 138.709C87.2376 138.712 86.6292 138.966 86.1798 139.416C85.7305 139.865 85.4765 140.474 85.4731 141.109C85.4876 141.741 85.7451 142.343 86.1921 142.79C86.6391 143.237 87.2412 143.495 87.8731 143.509C89.7561 143.726 91.6431 143.915 93.5301 144.109C95.3871 144.297 97.2881 144.637 99.1561 144.639C102.449 144.639 105.383 143.072 106.466 139.853C107.012 138.322 107.023 136.652 106.499 135.113C105.975 133.575 104.945 132.259 103.578 131.38C102.451 130.704 101.187 130.291 99.8781 130.172C98.3201 129.972 96.7621 129.765 95.2041 129.551C91.3911 129.041 87.5731 128.511 83.7391 128.175C83.1041 128.18 82.4966 128.434 82.0475 128.883C81.5985 129.332 81.3441 129.94 81.3391 130.575C81.3519 131.208 81.6089 131.811 82.0562 132.258C82.5036 132.705 83.1066 132.962 83.7391 132.975V132.973Z" fill="#211715"/>
<path d="M99.211 145.185C99.438 145.297 99.648 145.432 99.87 145.553C100.089 145.707 100.074 145.69 99.827 145.502C99.919 145.579 100.009 145.659 100.095 145.742C100.181 145.825 100.262 145.912 100.341 146.001C100.154 145.745 100.136 145.725 100.289 145.94C100.377 146.096 100.468 146.249 100.554 146.407C100.264 145.871 100.568 146.558 100.615 146.707C100.666 146.977 100.668 146.959 100.622 146.651C100.635 146.788 100.642 146.926 100.644 147.063C100.644 147.172 100.544 148.003 100.636 147.542C100.598 147.73 100.548 147.916 100.488 148.099C100.615 147.809 100.618 147.781 100.497 148.015C100.351 148.235 100.375 148.214 100.568 147.952C100.438 148.086 99.9 148.452 100.417 148.145C100.217 148.264 100.026 148.375 99.824 148.485C100.348 148.199 99.919 148.439 99.759 148.485C99.544 148.552 99.325 148.594 99.105 148.644C98.675 148.744 99.634 148.619 98.945 148.644C98.6446 148.651 98.3441 148.64 98.045 148.612C94.641 148.345 91.2383 148.059 87.837 147.754C87.2013 147.757 86.5924 148.01 86.1429 148.46C85.6934 148.909 85.4396 149.518 85.437 150.154C85.4532 150.785 85.7113 151.386 86.1579 151.833C86.6045 152.28 87.2056 152.538 87.837 152.554C91.027 152.843 94.2187 153.112 97.412 153.362C99.0301 153.561 100.672 153.319 102.164 152.662C103.198 152.151 104.059 151.348 104.641 150.353C105.223 149.357 105.501 148.213 105.44 147.062C105.428 145.803 105.065 144.572 104.392 143.508C103.718 142.444 102.762 141.588 101.629 141.038C101.079 140.717 100.425 140.627 99.8088 140.789C99.1931 140.95 98.6667 141.35 98.3455 141.899C98.0243 142.449 97.9347 143.104 98.0962 143.72C98.2578 144.335 98.6574 144.862 99.207 145.183L99.211 145.185Z" fill="#211715"/>
<path d="M87.6911 160.446C87.6641 161.372 87.6301 162.297 87.5651 163.222C87.5381 163.603 87.5071 163.985 87.4651 164.365C87.4441 164.565 87.4221 164.774 87.3961 164.978C87.4391 164.636 87.3861 165.032 87.3641 165.173C87.2504 165.898 87.0938 166.616 86.8951 167.323C86.7904 167.69 86.6728 168.053 86.5421 168.412C86.4741 168.596 86.4031 168.78 86.3281 168.962C86.1541 169.389 86.5581 168.487 86.2281 169.195C85.9257 169.859 85.582 170.504 85.1991 171.125C85.0991 171.276 85.0051 171.425 84.8991 171.572C84.8651 171.621 84.5191 172.072 84.7141 171.829C84.9091 171.586 84.5141 172.056 84.5141 172.052C84.4261 172.152 84.3361 172.252 84.2441 172.342C84.0174 172.573 83.778 172.79 83.5271 172.994C83.7781 172.789 83.6801 172.885 83.4751 173.015C83.3401 173.1 83.2091 173.188 83.0751 173.269C82.9651 173.333 82.8531 173.395 82.7401 173.453C82.7341 173.453 82.1911 173.711 82.5001 173.577C82.8091 173.443 82.3001 173.649 82.2371 173.67C82.0461 173.735 81.8521 173.792 81.6581 173.846C81.3542 173.93 81.0698 174.073 80.8211 174.266C80.5724 174.46 80.3643 174.701 80.2087 174.975C80.0531 175.249 79.953 175.551 79.9141 175.864C79.8752 176.177 79.8983 176.494 79.9821 176.798C80.0659 177.102 80.2087 177.386 80.4024 177.635C80.5961 177.884 80.8369 178.092 81.111 178.247C81.3851 178.403 81.6872 178.503 82 178.542C82.3128 178.581 82.6302 178.558 82.9341 178.474C84.5685 177.973 86.0728 177.119 87.3408 175.972C88.6088 174.826 89.6095 173.415 90.2721 171.839C91.9721 168.21 92.3721 164.413 92.4921 160.446C92.4869 159.811 92.2323 159.204 91.7834 158.755C91.3344 158.306 90.727 158.051 90.0921 158.046C89.4594 158.058 88.8561 158.315 88.4086 158.763C87.9612 159.21 87.7034 159.813 87.6911 160.446Z" fill="#211715"/>
<path d="M97.452 153.7C97.719 153.988 97.14 153.173 97.452 153.719L97.513 153.832C97.621 154.058 97.5937 153.986 97.431 153.615C97.473 153.904 97.62 154.2 97.676 154.492C97.715 154.692 97.701 155.101 97.666 154.342C97.666 154.455 97.69 154.57 97.699 154.683C97.714 154.896 97.724 155.112 97.719 155.326C97.712 155.602 97.587 155.742 97.763 155.173C97.722 155.305 97.709 155.448 97.67 155.581C97.654 155.639 97.636 155.696 97.616 155.752C97.528 155.983 97.563 155.902 97.721 155.51C97.6576 155.612 97.5999 155.718 97.548 155.826C97.506 155.895 97.461 155.963 97.414 156.026C97.6573 155.722 97.7197 155.641 97.601 155.783C97.494 155.883 97.406 156.001 97.301 156.101C97.085 156.301 96.959 156.243 97.39 156.055C97.2548 156.133 97.1243 156.219 96.999 156.312C96.899 156.37 96.631 156.449 96.569 156.537L96.88 156.408C96.789 156.444 96.698 156.478 96.605 156.508C96.2774 156.614 95.9434 156.698 95.605 156.761C95.035 156.877 94.464 156.988 93.892 157.095C92.465 157.359 91.032 157.589 89.592 157.806C88.9889 157.972 88.4744 158.367 88.158 158.906C87.8368 159.456 87.7471 160.11 87.9086 160.726C88.0701 161.342 88.4695 161.868 89.019 162.189C89.5893 162.479 90.2422 162.565 90.868 162.431C92.484 162.187 94.097 161.931 95.701 161.619C97.4241 161.41 99.0611 160.749 100.445 159.701C101.1 159.142 101.625 158.446 101.982 157.662C102.339 156.877 102.52 156.025 102.512 155.163C102.579 153.39 101.982 151.656 100.837 150.3C100.385 149.854 99.7751 149.604 99.14 149.604C98.5049 149.604 97.8954 149.854 97.443 150.3C97.0053 150.757 96.7609 151.365 96.7609 151.997C96.7609 152.629 97.0053 153.237 97.443 153.694L97.452 153.7Z" fill="#211715"/>
<path d="M88.648 132.79C92.49 130.99 96.29 129.109 100.166 127.39C103.49 125.911 107.998 124.721 109.973 121.349C111.99 117.904 109.523 113.858 105.938 112.956C102.164 112.007 98.329 113.202 94.713 114.256C90.6672 115.458 86.7016 116.916 82.84 118.619C79.1661 120.118 75.7525 122.19 72.726 124.756C70.0317 127.032 67.8765 129.878 66.416 133.089C65.0201 136.446 63.8155 139.88 62.808 143.373C60.1943 152.124 58.1236 161.028 56.608 170.035C56.4567 170.648 56.5462 171.296 56.8582 171.846C57.1701 172.395 57.6808 172.804 58.285 172.988C58.8987 173.152 59.552 173.067 60.1042 172.754C60.6564 172.44 61.0632 171.922 61.237 171.311C62.537 164.203 63.904 157.105 65.82 150.134C66.73 146.824 67.757 143.545 68.82 140.281C69.6333 137.404 70.834 134.65 72.389 132.096C74.2842 129.493 76.6859 127.299 79.45 125.647C82.4577 123.882 85.6317 122.416 88.926 121.272C92.4153 119.926 95.9869 118.804 99.619 117.913C101.108 117.552 105.099 116.489 105.86 118.498C106.021 118.923 105.821 118.955 105.502 119.298C104.91 119.863 104.235 120.335 103.502 120.698C101.811 121.636 99.948 122.27 98.179 123.049C94.153 124.825 90.212 126.784 86.227 128.649C85.6813 128.974 85.2852 129.5 85.1241 130.114C84.963 130.728 85.0499 131.381 85.366 131.932C85.6967 132.471 86.2228 132.862 86.8346 133.022C87.4463 133.182 88.0963 133.1 88.649 132.793L88.648 132.79Z" fill="#211715"/>
<path d="M54.0501 171.485C58.0569 174.496 62.28 177.209 66.6851 179.6C71.0661 182.126 75.4981 184.623 80.0741 186.783C80.6278 187.087 81.2767 187.167 81.8876 187.007C82.4984 186.846 83.0246 186.458 83.3581 185.922C83.674 185.371 83.7607 184.718 83.5997 184.104C83.4386 183.49 83.0427 182.963 82.4971 182.638C78.0231 180.527 73.6881 178.09 69.4021 175.624C67.0481 174.27 64.7111 172.886 62.4111 171.442C61.3951 170.804 60.3851 170.155 59.3931 169.481C59.0018 169.214 58.6141 168.945 58.2301 168.672C58.0571 168.548 57.8861 168.421 57.7131 168.295C57.1791 167.906 57.7131 168.306 57.4441 168.095C56.9848 167.663 56.3778 167.422 55.7471 167.422C55.1164 167.422 54.5094 167.663 54.0501 168.095C53.6039 168.547 53.3538 169.157 53.3538 169.792C53.3538 170.427 53.6039 171.037 54.0501 171.489V171.485Z" fill="#211715"/>
<path d="M352.12 223.259C350.147 218.541 348.169 213.825 346.241 209.088C345.259 206.676 344.211 202.774 340.716 203.888C338.843 204.488 337.016 205.488 335.208 206.267C327.239 209.711 319.266 213.147 311.258 216.5C309.624 217.184 307.988 217.862 306.349 218.535C305.245 218.823 304.266 219.464 303.56 220.36C302.828 221.525 303.087 222.76 303.374 224.015C304.451 228.715 305.597 233.394 306.913 238.03C309.863 248.421 313.342 259.238 320.077 267.847C323.129 271.94 327.219 275.144 331.923 277.128C336.733 278.942 342.021 279.048 346.9 277.428C351.827 275.879 356.314 273.181 359.992 269.555C363.427 265.994 366.311 261.94 368.549 257.528C378.909 238.527 383.946 217.081 383.127 195.455C383.019 190.941 382.052 186.489 380.276 182.338C378.676 178.704 376.466 175.37 373.741 172.481C368.041 166.381 360.357 162.39 352.42 160.037C350.292 159.406 348.132 158.899 345.952 158.483C345.338 158.331 344.69 158.42 344.14 158.733C343.591 159.046 343.183 159.558 343 160.163C342.836 160.777 342.92 161.43 343.234 161.982C343.547 162.535 344.065 162.942 344.676 163.116C357.989 165.655 371.813 172.574 376.646 186.116C377.213 187.708 377.658 189.341 377.978 191C378.294 193.134 378.432 195.29 378.389 197.447C378.497 202.123 378.33 206.801 377.889 211.457C376.541 225.198 372.706 238.579 366.569 250.947C364.674 255.007 362.41 258.885 359.806 262.531C354.924 269.022 346.951 274.206 338.57 273.778C329.821 273.331 323.551 265.668 319.69 258.563C315.273 250.434 312.652 241.188 310.323 232.278C309.794 230.257 309.29 228.229 308.809 226.196C308.601 225.323 308.396 224.449 308.195 223.575C308.15 223.121 308.048 222.675 307.89 222.247C307.39 221.462 307.343 223.83 306.945 223.44C307.176 223.359 307.403 223.267 307.625 223.163C310.697 221.908 313.755 220.62 316.812 219.328C323.919 216.324 331.011 213.286 338.088 210.214L340.423 209.203L341.523 208.728C341.655 208.671 341.792 208.619 341.923 208.555C342.654 208.197 342.088 208.755 341.673 208.584L340.614 207.967C340.582 207.78 340.607 207.816 340.689 208.073L340.95 208.719L341.371 209.757C341.663 210.476 341.956 211.195 342.25 211.913C342.796 213.246 343.345 214.58 343.898 215.913C345.091 218.79 346.291 221.664 347.498 224.534C347.685 225.137 348.094 225.645 348.643 225.957C349.191 226.268 349.838 226.359 350.451 226.211C351.063 226.038 351.582 225.631 351.895 225.079C352.209 224.526 352.292 223.872 352.127 223.258L352.12 223.259Z" fill="#211715"/>
<path d="M294.2 123.985C296.728 125.305 299.548 125.97 302.4 125.917C305.378 126.049 308.316 125.183 310.747 123.457C311.197 123.007 311.45 122.397 311.45 121.76C311.45 121.124 311.197 120.513 310.747 120.063C310.287 119.631 309.681 119.39 309.05 119.39C308.419 119.39 307.812 119.631 307.353 120.063C308.1 119.486 307.584 119.88 307.393 120.002C307.232 120.102 307.065 120.202 306.893 120.288C306.647 120.416 306.137 120.501 306.783 120.36C306.553 120.41 306.321 120.535 306.095 120.606C305.466 120.801 304.823 120.945 304.172 121.037C304.531 120.984 304.295 121.018 304.072 121.037C303.884 121.055 303.695 121.07 303.506 121.082C303.051 121.109 302.596 121.119 302.14 121.115C301.732 121.11 301.325 121.095 300.918 121.066C300.731 121.052 300.545 121.033 300.358 121.017C299.658 120.957 300.828 121.106 300.17 120.996C299.564 120.899 298.965 120.764 298.377 120.59C298.126 120.514 297.877 120.423 297.633 120.337C297.049 120.137 298.061 120.55 297.533 120.297C297.226 120.15 296.923 119.997 296.623 119.838C296.351 119.679 296.05 119.575 295.738 119.532C295.425 119.489 295.107 119.508 294.803 119.588C294.498 119.668 294.211 119.808 293.96 119.998C293.709 120.189 293.498 120.427 293.339 120.699C293.18 120.971 293.076 121.272 293.033 121.584C292.99 121.897 293.009 122.214 293.089 122.519C293.169 122.824 293.308 123.111 293.499 123.362C293.69 123.613 293.928 123.824 294.2 123.983V123.985Z" fill="#211715"/>
<path d="M301.111 104.87C301.477 106.21 301.768 107.569 301.984 108.941L301.898 108.303C301.924 108.489 301.929 108.677 301.911 108.864L301.997 108.226C301.985 108.312 301.964 108.396 301.934 108.478L302.176 107.905C302.152 107.962 302.122 108.016 302.087 108.067L302.462 107.581C302.423 107.629 302.378 107.673 302.329 107.712L302.814 107.336C302.711 107.4 302.603 107.457 302.492 107.506L303.065 107.264C302.891 107.337 302.708 107.39 302.521 107.42L303.159 107.334C302.99 107.354 302.819 107.354 302.65 107.334L303.288 107.42C303.096 107.392 302.907 107.345 302.715 107.32C302.406 107.221 302.075 107.206 301.758 107.277C301.441 107.291 301.133 107.39 300.866 107.562C300.594 107.721 300.356 107.932 300.165 108.183C299.974 108.434 299.835 108.721 299.755 109.026C299.675 109.331 299.656 109.648 299.699 109.961C299.742 110.273 299.846 110.574 300.005 110.846C300.157 111.117 300.363 111.354 300.61 111.543C300.856 111.732 301.138 111.869 301.439 111.946C301.904 112.01 302.355 112.127 302.829 112.146C303.554 112.15 304.27 111.979 304.914 111.646C305.327 111.455 305.693 111.176 305.985 110.827C306.277 110.478 306.488 110.068 306.602 109.628C306.753 108.922 306.747 108.191 306.586 107.487C306.369 106.176 306.072 104.877 305.74 103.587C305.567 102.987 305.174 102.475 304.64 102.153C304.228 101.912 303.753 101.799 303.277 101.829C302.8 101.859 302.344 102.03 301.965 102.321C301.586 102.612 301.303 103.009 301.152 103.462C301 103.915 300.987 104.403 301.114 104.863L301.111 104.87Z" fill="#211715"/>
<path d="M279.954 93.1781C279.266 95.3781 279.689 100.461 283.869 100.909C289.395 100.898 289.713 94.761 287.864 91.868C286.35 89.5 281.875 88.5001 279.954 93.1781Z" fill="#211715"/>
<path d="M324.207 93.351C324.878 95.56 324.416 100.635 320.233 101.051C314.707 100.996 314.433 94.857 316.308 91.978C317.84 89.621 322.322 88.656 324.207 93.351Z" fill="#211715"/>
<path d="M94.483 104.358C97.029 105.766 99.8839 106.522 102.793 106.558C105.559 106.648 108.808 106.284 111.12 104.599C111.658 104.267 112.048 103.741 112.209 103.13C112.369 102.518 112.287 101.868 111.981 101.315C111.655 100.771 111.129 100.376 110.515 100.215C109.901 100.054 109.249 100.14 108.698 100.454C108.414 100.66 108.112 100.842 107.798 100.999C107.709 101.044 107.614 101.081 107.526 101.129C107.281 101.264 108.07 100.929 107.676 101.066C107.418 101.159 107.162 101.253 106.898 101.33C106.598 101.42 106.289 101.495 105.98 101.559C105.824 101.591 105.668 101.619 105.512 101.645C105.278 101.685 105.112 101.693 105.443 101.66C104.562 101.751 103.676 101.784 102.79 101.76C102.36 101.747 101.931 101.72 101.503 101.68C101.47 101.68 100.703 101.58 101.216 101.656C101.039 101.63 100.861 101.601 100.685 101.569C100.047 101.456 99.4167 101.3 98.8 101.1C98.537 101.014 98.281 100.911 98.022 100.815C97.737 100.715 98.527 101.058 98.166 100.873C98.058 100.818 97.945 100.773 97.837 100.717C97.519 100.561 97.209 100.388 96.902 100.217C96.6299 100.058 96.3291 99.9539 96.0168 99.9111C95.7046 99.8682 95.3869 99.8873 95.082 99.9672C94.7771 100.047 94.4909 100.186 94.2398 100.377C93.9887 100.567 93.7776 100.805 93.6185 101.077C93.4594 101.35 93.3554 101.65 93.3126 101.963C93.2697 102.275 93.2888 102.593 93.3687 102.897C93.4486 103.202 93.5878 103.489 93.7783 103.74C93.9688 103.991 94.2069 104.202 94.479 104.361L94.483 104.358Z" fill="#211715"/>
<path d="M102.252 84.738C102.539 85.994 102.805 87.264 102.98 88.538L102.894 87.9C102.937 88.219 102.978 88.538 103.024 88.856L102.939 88.218C102.976 88.4599 102.981 88.7057 102.954 88.949L103.039 88.311C103.024 88.3998 103 88.4869 102.967 88.571L103.208 87.998C103.18 88.0564 103.147 88.1119 103.108 88.164L103.483 87.679C103.456 87.7125 103.427 87.7433 103.394 87.771L103.879 87.396C103.756 87.4803 103.624 87.5494 103.485 87.602L104.058 87.36C103.896 87.4227 103.729 87.469 103.558 87.498L104.196 87.412C104.015 87.435 103.832 87.435 103.651 87.412L104.289 87.498C104.069 87.465 103.855 87.403 103.635 87.366C103.01 87.2157 102.351 87.3019 101.786 87.608C101.514 87.767 101.276 87.9781 101.085 88.2293C100.894 88.4804 100.755 88.7666 100.675 89.0716C100.595 89.3766 100.576 89.6943 100.619 90.0066C100.662 90.319 100.766 90.6198 100.925 90.892C101.079 91.1613 101.285 91.3974 101.531 91.5862C101.778 91.7751 102.059 91.913 102.359 91.992C102.837 92.072 103.285 92.185 103.777 92.223C104.55 92.2467 105.316 92.0703 106 91.711C106.41 91.5124 106.772 91.2253 107.058 90.8703C107.344 90.5153 107.547 90.1012 107.654 89.658C107.801 88.9258 107.793 88.1708 107.63 87.442L107.716 88.08C107.517 86.5274 107.237 84.986 106.88 83.462C106.707 82.851 106.3 82.3327 105.747 82.019C105.195 81.7052 104.542 81.6212 103.928 81.785C103.322 81.966 102.809 82.3743 102.496 82.9246C102.184 83.4748 102.097 84.1245 102.252 84.738Z" fill="#211715"/>
<path d="M80.4359 71.891C79.6539 74.168 79.9449 79.472 84.2869 80.062C90.0459 80.212 90.5569 73.827 88.7159 70.762C87.2079 68.245 82.5749 67.072 80.4359 71.891Z" fill="#211715"/>
<path d="M126.541 73.3731C127.175 75.6951 126.541 80.9731 122.173 81.279C116.417 81.0601 116.316 74.655 118.35 71.71C120.016 69.3 124.715 68.4261 126.541 73.3731Z" fill="#211715"/>
<path d="M346.278 93.3869C346.759 92.9833 347.323 92.6906 347.93 92.5297C348.536 92.3688 349.171 92.3436 349.789 92.4559C350.436 92.5426 351.053 92.7826 351.589 93.1559C351.449 93.0559 352.412 94.0239 352.089 93.6089C353.689 95.6909 353.666 98.8639 353.458 101.343C353.183 103.926 352.391 106.427 351.13 108.697C349.907 110.98 347.518 114.397 344.487 113.987C343.874 113.839 343.228 113.93 342.68 114.242C342.132 114.553 341.722 115.061 341.535 115.663C341.37 116.277 341.454 116.931 341.767 117.483C342.081 118.036 342.6 118.443 343.211 118.616C350.86 119.658 355.344 112.382 357.39 106.04C358.37 102.824 358.596 99.4248 358.051 96.1069C357.913 94.7297 357.493 93.3957 356.816 92.1883C356.139 90.9809 355.221 89.9262 354.118 89.0899C352.404 87.9918 350.377 87.4858 348.348 87.6494C346.319 87.813 344.4 88.6373 342.884 89.9959C340.572 92.0539 343.976 95.4389 346.278 93.3899V93.3869Z" fill="#211715"/>
</g>
<defs>
<clipPath id="clip0_523_3703">
<rect width="383.217" height="278.57" fill="white"/>
</clipPath>
</defs>
</svg>
