<svg width="435" height="391" viewBox="0 0 435 391" fill="none" xmlns="http://www.w3.org/2000/svg">
<g clip-path="url(#clip0_523_987)">
<path d="M217.188 0C110.759 0 37.1943 69.421 37.1943 150.655C37.1943 241.544 112.341 304.136 217.194 304.136C326.094 304.136 397.194 240.96 397.194 150.655C397.194 68.868 323.242 0 217.188 0Z" fill="#3F88C9"/>
<path d="M262.754 300.137C247.719 302.848 232.47 304.187 217.194 304.137C154.687 304.137 102.742 281.889 70.9756 244.666H114.528V232.894H156.017V242.165H203.837V262.338H232.522V246.229H253.727L257.717 255.291H280.429V269.912H280.666H288.777C288.777 269.912 289.136 269.912 289.777 269.912V225.3H312.494V233.5H372.794C349.86 267.368 311.752 291.131 262.754 300.137Z" fill="#0066A5"/>
<path d="M191.057 62.738C191.019 62.8975 190.93 63.0399 190.802 63.1425C190.674 63.2451 190.516 63.3019 190.352 63.304C190.188 63.3061 190.029 63.2532 189.898 63.1539C189.768 63.0546 189.675 62.9145 189.634 62.756C188.834 59.656 187.581 55.949 185.684 53.741C183.37 51.046 180.026 49.903 176.927 49.241C176.763 49.2053 176.617 49.1148 176.512 48.9845C176.408 48.8543 176.351 48.6922 176.351 48.525C176.351 48.3579 176.408 48.1958 176.512 48.0656C176.617 47.9353 176.763 47.8448 176.927 47.809C179.996 47.159 183.38 46.009 185.627 43.585C187.769 41.274 188.978 36.622 189.655 33.465C189.69 33.3026 189.779 33.1569 189.908 33.0518C190.037 32.9467 190.198 32.8885 190.364 32.8866C190.53 32.8848 190.692 32.9394 190.823 33.0416C190.954 33.1437 191.047 33.2874 191.086 33.449C191.839 36.605 193.186 41.269 195.327 43.585C197.555 45.985 200.775 47.136 203.75 47.785C203.913 47.8212 204.06 47.9124 204.164 48.0436C204.269 48.1747 204.325 48.3378 204.324 48.5055C204.323 48.6732 204.264 48.8354 204.157 48.9649C204.051 49.0945 203.903 49.1835 203.739 49.217C200.562 49.854 197.079 50.945 194.766 53.638C192.876 55.846 191.786 59.609 191.057 62.738Z" fill="#FFDA71"/>
<path d="M189.128 62.206L189.028 62.452L189.543 61.569L189.824 61.376H190.887C191.441 62.0154 191.6 62.0464 191.364 61.469C191.293 61.211 191.22 60.9537 191.145 60.697C191.029 60.3037 190.907 59.9124 190.781 59.523C190.47 58.57 190.114 57.635 189.72 56.713C189.033 54.9948 188.056 53.4079 186.83 52.022C185.537 50.6653 183.983 49.5839 182.262 48.843C180.624 48.117 178.882 47.852 177.234 47.221L178.116 47.735V49.306L177.234 49.821C178.142 49.476 179.151 49.349 180.082 49.054C181.129 48.7239 182.15 48.3164 183.137 47.835C184.949 46.9752 186.534 45.7009 187.763 44.115C188.819 42.6079 189.637 40.9471 190.188 39.191C190.801 37.426 191 35.459 191.688 33.742L191.174 34.624L190.898 34.81H189.835C189.289 34.1307 189.115 34.0624 189.313 34.605C189.368 34.8264 189.424 35.0464 189.482 35.265C189.602 35.7317 189.73 36.195 189.865 36.655C190.113 37.506 190.384 38.355 190.692 39.181C191.31 41.0193 192.208 42.7514 193.354 44.316C194.582 45.8374 196.138 47.0626 197.905 47.901C199.705 48.782 201.615 49.091 203.45 49.801L202.567 49.287L202.558 47.718L203.44 47.203C201.681 47.849 199.84 48.091 198.095 48.853C196.407 49.5625 194.883 50.6096 193.616 51.93C191.04 54.704 189.973 58.61 189.125 62.204C188.535 64.704 192.391 65.776 192.983 63.267C193.722 60.132 194.534 56.483 196.995 54.211C198.174 53.189 199.555 52.4271 201.049 51.975C202.501 51.493 204.704 51.458 205.716 50.204C205.983 49.8652 206.167 49.4679 206.251 49.0445C206.336 48.621 206.319 48.1837 206.202 47.7681C206.085 47.3525 205.871 46.9705 205.578 46.6535C205.285 46.3365 204.921 46.0933 204.516 45.944C203.058 45.417 201.516 45.199 200.1 44.529C198.641 43.9075 197.358 42.9354 196.365 41.699C195.464 40.3782 194.768 38.9288 194.3 37.4C193.8 35.929 193.518 34.386 193.025 32.918C192.901 32.4898 192.675 32.0978 192.367 31.7757C192.058 31.4535 191.677 31.2106 191.254 31.0678C190.832 30.925 190.381 30.8864 189.941 30.9554C189.5 31.0244 189.083 31.1989 188.725 31.464C187.476 32.424 187.4 34.543 187.007 35.964C186.61 37.5463 186.04 39.0799 185.307 40.537C183.723 43.507 180.653 44.837 177.519 45.621C175.819 46.046 174.119 46.797 174.399 48.892C174.662 50.844 176.443 51.126 178.025 51.561C179.82 51.9917 181.509 52.785 182.987 53.892C184.414 55.1378 185.505 56.7223 186.16 58.5C186.544 59.4409 186.88 60.4004 187.168 61.375C187.343 62.3698 187.681 63.329 188.168 64.214C188.475 64.6247 188.894 64.9392 189.374 65.1206C189.854 65.3019 190.376 65.3427 190.879 65.238C191.37 65.1233 191.823 64.8814 192.192 64.5365C192.56 64.1917 192.832 63.7559 192.979 63.273C193.116 62.7613 193.046 62.2158 192.784 61.7552C192.522 61.2946 192.089 60.956 191.579 60.813C191.069 60.6884 190.532 60.7633 190.076 61.0223C189.62 61.2813 189.281 61.7048 189.128 62.206Z" fill="#211715"/>
<path d="M85.7671 168.891C85.7408 169.026 85.6687 169.149 85.5628 169.237C85.4569 169.326 85.3237 169.375 85.1857 169.377C85.0477 169.379 84.9133 169.333 84.8052 169.247C84.697 169.161 84.6218 169.041 84.5921 168.906C83.9271 166.344 82.8921 163.283 81.3291 161.459C79.4171 159.234 76.6551 158.289 74.0951 157.739C73.9598 157.71 73.8386 157.635 73.7516 157.528C73.6646 157.42 73.6172 157.286 73.6172 157.147C73.6172 157.009 73.6646 156.875 73.7516 156.767C73.8386 156.66 73.9598 156.585 74.0951 156.556C76.6301 156.019 79.4251 155.072 81.2841 153.067C83.0531 151.158 84.0521 147.315 84.6111 144.708C84.6399 144.574 84.7135 144.453 84.8198 144.366C84.9262 144.279 85.059 144.23 85.1965 144.229C85.334 144.227 85.4679 144.272 85.5763 144.357C85.6847 144.441 85.7612 144.56 85.7931 144.694C86.4151 147.301 87.5241 151.154 89.2931 153.067C91.2088 154.9 93.6344 156.111 96.2511 156.54C96.3906 156.565 96.5168 156.638 96.6074 156.747C96.698 156.856 96.7471 156.994 96.746 157.135C96.745 157.277 96.6938 157.414 96.6015 157.521C96.5093 157.629 96.382 157.7 96.2421 157.723C93.6171 158.249 90.7421 159.15 88.8301 161.375C87.2691 163.2 86.3691 166.306 85.7671 168.891Z" fill="#FFDA71"/>
<path d="M84.0398 167.882L84.0848 167.857L84.9668 167.342L85.4008 167.35L86.2828 167.865C86.6768 168.209 86.2828 167.503 86.2278 167.303C86.1208 166.934 86.0098 166.567 85.8908 166.203C85.6508 165.463 85.3778 164.737 85.0778 164.019C84.5145 162.579 83.7263 161.238 82.7428 160.046C81.6917 158.86 80.405 157.907 78.9648 157.246C78.3006 156.933 77.6184 156.659 76.9218 156.427C76.5708 156.31 76.2218 156.205 75.8598 156.109C75.6598 156.056 74.7598 155.66 75.1208 156.056L75.6348 156.939V157.36L75.1198 158.242C74.7508 158.642 75.6538 158.249 75.8518 158.196C76.2678 158.086 76.6808 157.966 77.0878 157.829C77.8386 157.576 78.5733 157.277 79.2878 156.935C80.8271 156.221 82.1778 155.156 83.2318 153.826C84.1422 152.563 84.8488 151.164 85.3258 149.682C85.5848 148.953 85.8078 148.211 86.0068 147.463C86.0948 147.134 86.1785 146.803 86.2578 146.471C86.3208 146.209 86.7308 145.322 86.2898 145.735L85.4068 146.25L84.9818 146.242L84.0988 145.728C83.6728 145.348 84.0558 146.022 84.1288 146.298C84.2288 146.684 84.3345 147.068 84.4458 147.451C84.6458 148.143 84.8688 148.829 85.1178 149.505C85.6076 150.969 86.3028 152.355 87.1828 153.623C88.2021 154.968 89.5147 156.062 91.0208 156.823C91.7362 157.187 92.4748 157.503 93.2318 157.769C93.5838 157.894 93.9408 158.007 94.2998 158.11C94.4998 158.167 95.5738 158.61 95.2258 158.227L94.7118 157.344L94.7068 156.925L95.2208 156.042L95.0628 156.21L95.9458 155.695C94.5838 156.265 93.0458 156.423 91.6658 157.01C90.1618 157.612 88.7996 158.52 87.6658 159.677C85.4658 162.02 84.5488 165.309 83.8278 168.358C83.2368 170.858 87.0928 171.93 87.6858 169.422C88.3048 166.8 88.9858 163.655 91.1758 161.863C92.2213 161.067 93.4144 160.487 94.6858 160.156C96.0858 159.743 97.7588 159.725 98.4588 158.227C98.6153 157.882 98.6955 157.508 98.6938 157.129C98.6921 156.75 98.6085 156.376 98.4489 156.033C98.2892 155.689 98.0573 155.385 97.7688 155.139C97.4804 154.894 97.1423 154.714 96.7778 154.611C95.377 154.269 94.0121 153.793 92.7018 153.191C90.3018 151.853 89.2968 149.591 88.5018 147.066C88.2772 145.823 87.9081 144.61 87.4018 143.453C87.1854 143.119 86.8964 142.839 86.5564 142.632C86.2164 142.426 85.8342 142.299 85.4383 142.262C85.0424 142.224 84.643 142.276 84.2701 142.414C83.8972 142.552 83.5604 142.773 83.2848 143.06C82.4308 143.974 82.3698 145.578 82.0488 146.736C81.7215 148.055 81.2399 149.33 80.6138 150.536C79.3088 152.884 76.7378 153.875 74.2478 154.474C72.8188 154.818 71.5478 155.569 71.6138 157.262C71.6908 159.241 73.4138 159.583 74.9588 160.015C76.4457 160.356 77.8233 161.064 78.9658 162.075C80.1083 163.086 80.9792 164.367 81.4988 165.801C81.7828 166.522 82.0258 167.261 82.2478 168.001C82.3871 168.917 82.7369 169.787 83.2698 170.545C83.5597 170.845 83.9172 171.07 84.3124 171.204C84.7075 171.337 85.1288 171.373 85.541 171.31C85.9531 171.247 86.3441 171.086 86.6813 170.841C87.0184 170.595 87.2919 170.273 87.4788 169.9C87.7305 169.438 87.7964 168.898 87.6629 168.389C87.5294 167.881 87.2067 167.442 86.7608 167.164C86.3032 166.905 85.7626 166.835 85.2542 166.969C84.7458 167.103 84.31 167.431 84.0398 167.882Z" fill="#211715"/>
<path d="M244.328 210.153C244.296 210.29 244.22 210.412 244.111 210.5C244.002 210.587 243.866 210.636 243.726 210.638C243.586 210.64 243.449 210.595 243.338 210.51C243.226 210.425 243.147 210.305 243.112 210.169C242.425 207.519 241.358 204.353 239.737 202.469C237.76 200.169 234.903 199.19 232.255 198.621C232.115 198.59 231.99 198.513 231.901 198.402C231.811 198.291 231.763 198.152 231.763 198.01C231.763 197.867 231.811 197.728 231.901 197.617C231.99 197.506 232.115 197.429 232.255 197.398C234.877 196.842 237.768 195.863 239.69 193.789C241.521 191.814 242.554 187.839 243.132 185.143C243.161 185.004 243.237 184.878 243.347 184.788C243.457 184.698 243.594 184.647 243.737 184.646C243.879 184.644 244.018 184.691 244.13 184.778C244.242 184.866 244.321 184.989 244.354 185.128C244.998 187.828 246.145 191.81 247.978 193.789C249.96 195.686 252.47 196.938 255.178 197.381C255.317 197.412 255.442 197.49 255.531 197.603C255.62 197.715 255.668 197.854 255.667 197.997C255.666 198.14 255.616 198.279 255.525 198.389C255.434 198.5 255.308 198.576 255.168 198.605C252.453 199.149 249.478 200.081 247.502 202.382C245.882 204.265 244.951 207.48 244.328 210.153Z" fill="#FFDA71"/>
<path d="M242.6 209.144L242.635 209.132L243.518 208.618L243.93 208.626L244.812 209.14C245.175 209.458 244.788 208.705 244.737 208.529C244.627 208.147 244.512 207.768 244.389 207.39C244.14 206.625 243.86 205.873 243.548 205.132C242.949 203.591 242.094 202.162 241.019 200.906C239.959 199.752 238.68 198.82 237.256 198.167C236.541 197.831 235.806 197.538 235.056 197.291C234.709 197.178 234.356 197.076 234.005 196.982C233.817 196.932 232.922 196.549 233.266 196.924L233.78 197.807V198.207L233.266 199.089C232.93 199.452 233.877 199.071 234.053 199.024C234.483 198.91 234.91 198.786 235.331 198.644C236.103 198.385 236.859 198.079 237.594 197.727C239.179 196.992 240.569 195.896 241.655 194.527C242.591 193.228 243.318 191.79 243.809 190.265C244.076 189.51 244.309 188.743 244.509 187.965C244.6 187.625 244.686 187.282 244.768 186.939C244.825 186.705 245.231 185.762 244.819 186.148L243.936 186.662L243.536 186.654L242.653 186.14C242.253 185.783 242.636 186.512 242.701 186.761C242.801 187.161 242.914 187.561 243.03 187.953C243.239 188.668 243.467 189.378 243.73 190.077C244.234 191.585 244.951 193.014 245.859 194.32C246.907 195.702 248.256 196.827 249.804 197.609C250.538 197.982 251.296 198.307 252.074 198.58C252.438 198.71 252.808 198.826 253.174 198.933C253.35 198.984 254.474 199.409 254.162 199.071L253.648 198.189V197.789L254.162 196.907L253.999 197.08L254.881 196.566C253.475 197.154 251.891 197.316 250.462 197.922C248.916 198.542 247.517 199.477 246.352 200.666C244.087 203.08 243.143 206.473 242.4 209.616C241.808 212.116 245.664 213.187 246.257 210.679C246.912 207.908 247.638 204.537 250.032 202.706C251.092 201.944 252.282 201.381 253.545 201.047C255.032 200.608 256.919 200.583 257.505 198.853C257.619 198.511 257.663 198.15 257.634 197.791C257.604 197.431 257.502 197.082 257.334 196.763C257.166 196.445 256.935 196.163 256.655 195.937C256.375 195.71 256.051 195.542 255.705 195.444C254.25 195.088 252.833 194.594 251.473 193.969C248.981 192.581 247.922 190.211 247.1 187.592C246.867 186.313 246.488 185.065 245.971 183.872C245.753 183.535 245.461 183.252 245.118 183.044C244.776 182.836 244.39 182.709 243.991 182.671C243.591 182.633 243.189 182.686 242.813 182.826C242.437 182.966 242.098 183.189 241.821 183.479C240.953 184.408 240.891 186.058 240.56 187.25C240.218 188.618 239.717 189.941 239.068 191.193C237.683 193.693 234.912 194.723 232.262 195.34C230.696 195.705 229.404 196.888 229.84 198.647C230.276 200.406 232.005 200.547 233.465 200.979C234.957 201.359 236.333 202.101 237.471 203.139C238.609 204.177 239.474 205.479 239.99 206.93C240.29 207.675 240.536 208.44 240.766 209.209C240.917 210.055 241.216 210.867 241.649 211.609C241.921 211.956 242.277 212.229 242.684 212.401C243.09 212.573 243.533 212.64 243.972 212.595C244.412 212.55 244.832 212.395 245.195 212.144C245.558 211.893 245.852 211.554 246.049 211.159C246.301 210.697 246.367 210.157 246.233 209.648C246.1 209.139 245.777 208.701 245.331 208.422C244.872 208.16 244.328 208.089 243.817 208.224C243.307 208.359 242.869 208.69 242.6 209.144Z" fill="#211715"/>
<path d="M168.19 185.394V217.222C168.19 219.796 172.19 219.8 172.19 217.222V185.394C172.19 182.82 168.19 182.816 168.19 185.394Z" fill="#FFDA71"/>
<path d="M168.19 149.783V161.5C168.19 162.03 168.401 162.539 168.776 162.914C169.151 163.289 169.66 163.5 170.19 163.5C170.721 163.5 171.23 163.289 171.605 162.914C171.98 162.539 172.19 162.03 172.19 161.5V149.783C172.19 149.253 171.98 148.744 171.605 148.369C171.23 147.994 170.721 147.783 170.19 147.783C169.66 147.783 169.151 147.994 168.776 148.369C168.401 148.744 168.19 149.253 168.19 149.783Z" fill="#95CBEB"/>
<path d="M168.19 97.38V109.093C168.19 109.623 168.401 110.132 168.776 110.507C169.151 110.882 169.66 111.093 170.19 111.093C170.721 111.093 171.23 110.882 171.605 110.507C171.98 110.132 172.19 109.623 172.19 109.093V97.38C172.19 96.8496 171.98 96.3409 171.605 95.9658C171.23 95.5907 170.721 95.38 170.19 95.38C169.66 95.38 169.151 95.5907 168.776 95.9658C168.401 96.3409 168.19 96.8496 168.19 97.38Z" fill="#95CBEB"/>
<path d="M149.845 127.438H138.131C137.6 127.438 137.092 127.649 136.717 128.024C136.342 128.399 136.131 128.908 136.131 129.438C136.131 129.968 136.342 130.477 136.717 130.852C137.092 131.227 137.6 131.438 138.131 131.438H149.845C150.375 131.438 150.884 131.227 151.259 130.852C151.634 130.477 151.845 129.968 151.845 129.438C151.845 128.908 151.634 128.399 151.259 128.024C150.884 127.649 150.375 127.438 149.845 127.438Z" fill="#95CBEB"/>
<path d="M202.248 127.438H190.534C190.004 127.438 189.495 127.649 189.12 128.024C188.745 128.399 188.534 128.908 188.534 129.438C188.534 129.968 188.745 130.477 189.12 130.852C189.495 131.227 190.004 131.438 190.534 131.438H202.248C202.779 131.438 203.287 131.227 203.662 130.852C204.037 130.477 204.248 129.968 204.248 129.438C204.248 128.908 204.037 128.399 203.662 128.024C203.287 127.649 202.779 127.438 202.248 127.438Z" fill="#95CBEB"/>
<path d="M178.635 148.067L184.492 158.211C184.759 158.669 185.198 159.002 185.711 159.137C186.225 159.271 186.77 159.196 187.228 158.929C187.686 158.661 188.019 158.222 188.154 157.709C188.288 157.196 188.213 156.65 187.946 156.192L182.089 146.048C181.821 145.59 181.382 145.257 180.869 145.123C180.356 144.988 179.81 145.063 179.352 145.331C178.894 145.598 178.561 146.037 178.427 146.55C178.292 147.063 178.367 147.609 178.635 148.067Z" fill="#95CBEB"/>
<path d="M152.434 102.684L158.29 112.828C158.558 113.286 158.997 113.619 159.51 113.754C160.023 113.888 160.569 113.813 161.027 113.546C161.485 113.278 161.818 112.839 161.952 112.326C162.087 111.813 162.012 111.267 161.744 110.809L155.887 100.665C155.618 100.21 155.18 99.8802 154.668 99.7475C154.156 99.6148 153.613 99.6901 153.156 99.957C152.7 100.224 152.368 100.66 152.233 101.171C152.097 101.682 152.17 102.226 152.434 102.684Z" fill="#95CBEB"/>
<path d="M151.561 137.883L141.417 143.74C141.19 143.873 140.991 144.049 140.833 144.258C140.674 144.467 140.558 144.706 140.491 144.96C140.425 145.214 140.409 145.479 140.444 145.739C140.48 145.999 140.567 146.25 140.699 146.477C140.832 146.703 141.008 146.902 141.217 147.061C141.426 147.219 141.665 147.335 141.919 147.402C142.173 147.469 142.438 147.485 142.698 147.449C142.958 147.413 143.209 147.327 143.436 147.194L153.58 141.337C153.806 141.204 154.005 141.029 154.164 140.819C154.323 140.61 154.439 140.371 154.505 140.117C154.572 139.863 154.588 139.599 154.552 139.338C154.516 139.078 154.43 138.827 154.297 138.601C154.165 138.374 153.989 138.175 153.779 138.016C153.57 137.858 153.332 137.742 153.078 137.675C152.564 137.54 152.019 137.615 151.561 137.883Z" fill="#95CBEB"/>
<path d="M196.943 111.682L186.8 117.539C186.341 117.807 186.009 118.245 185.874 118.759C185.739 119.272 185.814 119.817 186.082 120.275C186.35 120.734 186.788 121.066 187.302 121.201C187.815 121.336 188.36 121.261 188.819 120.993L198.963 115.136C199.189 115.003 199.388 114.827 199.547 114.618C199.705 114.409 199.821 114.17 199.888 113.916C199.955 113.662 199.971 113.397 199.935 113.137C199.899 112.877 199.813 112.626 199.68 112.399C199.547 112.173 199.371 111.974 199.162 111.815C198.953 111.657 198.714 111.541 198.46 111.474C198.206 111.407 197.942 111.391 197.681 111.427C197.421 111.463 197.17 111.549 196.944 111.682H196.943Z" fill="#95CBEB"/>
<path d="M158.29 146.048L152.434 156.192C152.3 156.419 152.212 156.67 152.175 156.931C152.138 157.192 152.153 157.457 152.219 157.712C152.285 157.968 152.401 158.207 152.56 158.417C152.719 158.627 152.918 158.804 153.146 158.937C153.373 159.07 153.625 159.157 153.886 159.192C154.147 159.228 154.413 159.211 154.667 159.144C154.922 159.076 155.161 158.959 155.37 158.799C155.58 158.639 155.755 158.439 155.887 158.211L161.744 148.067C162.012 147.609 162.087 147.063 161.952 146.55C161.817 146.037 161.485 145.598 161.027 145.331C160.568 145.063 160.023 144.988 159.51 145.123C158.996 145.257 158.558 145.59 158.29 146.048Z" fill="#95CBEB"/>
<path d="M184.492 100.665L178.635 110.809C178.502 111.036 178.416 111.286 178.38 111.547C178.344 111.807 178.36 112.072 178.427 112.326C178.561 112.839 178.894 113.278 179.352 113.545C179.81 113.813 180.356 113.888 180.869 113.753C181.382 113.619 181.821 113.286 182.089 112.828L187.946 102.684C188.213 102.226 188.288 101.68 188.154 101.167C188.019 100.654 187.686 100.215 187.228 99.9475C186.77 99.6797 186.225 99.6049 185.711 99.7395C185.198 99.874 184.759 100.207 184.492 100.665Z" fill="#95CBEB"/>
<path d="M186.8 141.337L196.944 147.194C197.402 147.462 197.947 147.537 198.46 147.402C198.714 147.335 198.953 147.219 199.162 147.061C199.371 146.902 199.547 146.703 199.68 146.477C199.813 146.25 199.899 145.999 199.935 145.739C199.971 145.479 199.955 145.214 199.888 144.96C199.821 144.706 199.705 144.467 199.547 144.258C199.388 144.049 199.189 143.873 198.963 143.74L188.819 137.883C188.36 137.615 187.815 137.54 187.302 137.675C186.788 137.81 186.35 138.142 186.082 138.601C185.814 139.059 185.739 139.604 185.874 140.117C186.009 140.631 186.341 141.069 186.8 141.337Z" fill="#95CBEB"/>
<path d="M141.417 115.136L151.561 120.993C151.787 121.126 152.038 121.212 152.298 121.248C152.559 121.284 152.823 121.268 153.078 121.201C153.332 121.134 153.57 121.018 153.779 120.86C153.989 120.701 154.165 120.502 154.297 120.275C154.43 120.049 154.516 119.798 154.552 119.538C154.588 119.277 154.572 119.013 154.505 118.759C154.439 118.505 154.323 118.266 154.164 118.057C154.005 117.847 153.806 117.672 153.58 117.539L143.436 111.682C143.209 111.549 142.958 111.463 142.698 111.427C142.438 111.391 142.173 111.407 141.919 111.474C141.665 111.541 141.426 111.657 141.217 111.815C141.008 111.974 140.832 112.173 140.699 112.399C140.567 112.626 140.48 112.877 140.444 113.137C140.409 113.397 140.425 113.662 140.491 113.916C140.558 114.17 140.674 114.409 140.833 114.618C140.991 114.827 141.19 115.003 141.417 115.136Z" fill="#95CBEB"/>
<path d="M172.977 171.135C173.023 170.753 172.992 170.366 172.884 169.997C172.776 169.628 172.594 169.285 172.35 168.988C172.067 168.663 171.711 168.409 171.311 168.248C170.912 168.086 170.48 168.022 170.05 168.059C169.443 168.091 168.863 168.318 168.395 168.707C167.927 169.095 167.597 169.623 167.453 170.213C167.309 170.804 167.359 171.425 167.595 171.985C167.832 172.545 168.242 173.014 168.766 173.322C169.136 173.522 169.544 173.641 169.963 173.67C170.383 173.699 170.804 173.637 171.197 173.489C171.681 173.297 172.103 172.977 172.417 172.561C172.731 172.146 172.925 171.653 172.977 171.135Z" fill="#FFDA71"/>
<path d="M172.977 88.284C173.023 87.9024 172.992 87.5153 172.884 87.1462C172.776 86.7772 172.594 86.4338 172.35 86.137C172.067 85.8119 171.711 85.5583 171.311 85.3968C170.912 85.2354 170.48 85.1707 170.05 85.208C169.443 85.2405 168.863 85.4675 168.395 85.8556C167.927 86.2436 167.597 86.772 167.453 87.3625C167.309 87.953 167.359 88.5742 167.595 89.1341C167.832 89.6939 168.242 90.1627 168.766 90.471C169.136 90.6717 169.544 90.7904 169.963 90.8192C170.383 90.8481 170.804 90.7863 171.197 90.638C171.681 90.4464 172.103 90.1256 172.417 89.7104C172.731 89.2953 172.925 88.8019 172.977 88.284Z" fill="#FFDA71"/>
<path d="M213.009 126.65C212.627 126.604 212.24 126.636 211.871 126.744C211.502 126.852 211.159 127.034 210.862 127.278C210.537 127.561 210.283 127.917 210.122 128.317C209.96 128.716 209.896 129.149 209.933 129.578C209.966 130.185 210.193 130.765 210.581 131.233C210.969 131.701 211.497 132.031 212.088 132.175C212.678 132.319 213.299 132.269 213.859 132.033C214.419 131.796 214.888 131.386 215.196 130.862C215.397 130.492 215.516 130.084 215.544 129.664C215.573 129.245 215.511 128.824 215.363 128.43C215.172 127.946 214.851 127.524 214.436 127.21C214.021 126.896 213.527 126.702 213.009 126.65Z" fill="#FFDA71"/>
<path d="M127.913 126.65C127.531 126.604 127.144 126.636 126.775 126.744C126.406 126.852 126.062 127.034 125.766 127.278C125.44 127.561 125.187 127.917 125.025 128.317C124.864 128.716 124.799 129.149 124.837 129.578C124.869 130.185 125.096 130.765 125.484 131.233C125.872 131.701 126.401 132.031 126.991 132.175C127.581 132.319 128.203 132.27 128.763 132.033C129.322 131.796 129.791 131.386 130.1 130.862C130.3 130.492 130.419 130.084 130.447 129.664C130.476 129.245 130.415 128.824 130.267 128.43C130.075 127.946 129.754 127.524 129.339 127.21C128.924 126.896 128.43 126.703 127.913 126.65Z" fill="#FFDA71"/>
<path d="M193.452 164.154C193.301 163.8 193.08 163.481 192.802 163.216C192.524 162.95 192.195 162.744 191.835 162.609C191.427 162.469 190.992 162.427 190.565 162.488C190.138 162.548 189.732 162.708 189.379 162.955C188.869 163.286 188.48 163.773 188.269 164.343C188.058 164.913 188.036 165.536 188.206 166.119C188.377 166.703 188.73 167.216 189.215 167.582C189.7 167.949 190.29 168.15 190.898 168.155C191.318 168.144 191.731 168.042 192.109 167.857C192.487 167.672 192.821 167.408 193.088 167.083C193.411 166.675 193.616 166.186 193.68 165.669C193.744 165.153 193.665 164.629 193.452 164.154Z" fill="#FFDA71"/>
<path d="M152.027 92.3999C151.876 92.0465 151.654 91.7274 151.377 91.4619C151.099 91.1963 150.77 90.9899 150.41 90.8549C150.002 90.715 149.567 90.6734 149.14 90.7335C148.713 90.7937 148.306 90.9538 147.953 91.2009C147.443 91.5325 147.054 92.0194 146.843 92.5894C146.632 93.1594 146.61 93.7823 146.781 94.3658C146.951 94.9492 147.305 95.4622 147.79 95.8288C148.275 96.1954 148.865 96.396 149.473 96.4009C149.893 96.3897 150.306 96.2882 150.684 96.1032C151.062 95.9182 151.395 95.6542 151.662 95.3289C151.985 94.9211 152.191 94.4322 152.255 93.9156C152.319 93.399 152.24 92.8747 152.027 92.3999Z" fill="#FFDA71"/>
<path d="M205.878 105.614C205.525 105.765 205.205 105.986 204.94 106.264C204.674 106.542 204.468 106.871 204.333 107.231C204.193 107.639 204.151 108.074 204.211 108.501C204.271 108.928 204.432 109.335 204.679 109.688C205.011 110.198 205.497 110.587 206.068 110.798C206.638 111.009 207.26 111.031 207.844 110.86C208.427 110.69 208.94 110.336 209.307 109.851C209.673 109.366 209.874 108.776 209.879 108.168C209.868 107.748 209.767 107.335 209.582 106.957C209.397 106.579 209.133 106.246 208.808 105.979C208.4 105.655 207.911 105.45 207.394 105.386C206.877 105.321 206.353 105.4 205.878 105.614Z" fill="#FFDA71"/>
<path d="M132.183 148.162C131.83 148.313 131.51 148.534 131.245 148.812C130.979 149.09 130.772 149.419 130.637 149.779C130.497 150.187 130.456 150.622 130.516 151.049C130.576 151.476 130.736 151.883 130.983 152.236C131.315 152.745 131.802 153.135 132.372 153.346C132.942 153.557 133.565 153.579 134.148 153.408C134.732 153.238 135.245 152.884 135.611 152.399C135.978 151.914 136.178 151.324 136.183 150.716C136.172 150.296 136.071 149.882 135.886 149.505C135.701 149.127 135.437 148.794 135.111 148.527C134.704 148.204 134.215 147.998 133.699 147.934C133.182 147.87 132.658 147.949 132.183 148.162Z" fill="#FFDA71"/>
<path d="M146.912 164.154C147.063 163.8 147.284 163.481 147.562 163.216C147.84 162.95 148.169 162.744 148.529 162.609C148.937 162.469 149.372 162.427 149.799 162.488C150.226 162.548 150.633 162.708 150.986 162.955C151.495 163.287 151.885 163.773 152.096 164.343C152.307 164.913 152.329 165.536 152.158 166.12C151.988 166.703 151.634 167.216 151.149 167.583C150.664 167.949 150.074 168.15 149.466 168.155C149.046 168.144 148.632 168.042 148.255 167.857C147.877 167.672 147.544 167.408 147.277 167.083C146.953 166.675 146.748 166.186 146.684 165.67C146.62 165.153 146.698 164.629 146.912 164.154Z" fill="#FFDA71"/>
<path d="M188.338 92.3999C188.489 92.0467 188.71 91.7276 188.988 91.4621C189.266 91.1966 189.594 90.9901 189.954 90.8549C190.362 90.715 190.797 90.6734 191.224 90.7335C191.651 90.7937 192.058 90.9538 192.411 91.2009C192.921 91.5325 193.31 92.0194 193.521 92.5894C193.732 93.1594 193.754 93.7823 193.583 94.3658C193.413 94.9492 193.059 95.4622 192.574 95.8288C192.089 96.1954 191.499 96.396 190.891 96.4009C190.471 96.3895 190.058 96.2879 189.68 96.1029C189.302 95.918 188.969 95.654 188.702 95.3289C188.379 94.921 188.174 94.432 188.11 93.9155C188.045 93.3989 188.124 92.8746 188.338 92.3999Z" fill="#FFDA71"/>
<path d="M134.486 105.614C134.84 105.765 135.159 105.986 135.425 106.264C135.69 106.542 135.897 106.871 136.031 107.231C136.172 107.639 136.214 108.074 136.154 108.501C136.094 108.928 135.934 109.335 135.686 109.688C135.355 110.197 134.868 110.587 134.298 110.798C133.728 111.009 133.105 111.031 132.522 110.86C131.938 110.69 131.425 110.336 131.058 109.851C130.692 109.366 130.491 108.776 130.486 108.168C130.498 107.748 130.599 107.335 130.784 106.957C130.969 106.579 131.233 106.246 131.558 105.979C131.966 105.656 132.455 105.45 132.971 105.386C133.488 105.322 134.012 105.401 134.486 105.614Z" fill="#FFDA71"/>
<path d="M208.182 148.162C208.535 148.313 208.854 148.534 209.12 148.812C209.386 149.09 209.592 149.419 209.727 149.779C209.867 150.187 209.908 150.622 209.848 151.049C209.788 151.476 209.628 151.883 209.381 152.236C209.049 152.745 208.562 153.135 207.992 153.346C207.422 153.557 206.799 153.579 206.216 153.408C205.632 153.238 205.119 152.884 204.753 152.399C204.386 151.914 204.186 151.324 204.181 150.716C204.192 150.296 204.293 149.882 204.478 149.505C204.663 149.127 204.927 148.794 205.253 148.527C205.66 148.203 206.149 147.998 206.666 147.934C207.183 147.87 207.707 147.948 208.182 148.162Z" fill="#FFDA71"/>
<path d="M172.28 140.977C172.112 141.401 171.822 141.765 171.447 142.024C171.072 142.284 170.629 142.426 170.173 142.434C169.717 142.442 169.269 142.315 168.885 142.069C168.502 141.823 168.199 141.47 168.016 141.052C167.293 139.005 166.213 137.102 164.826 135.431C163.249 133.766 161.298 132.501 159.135 131.741C158.711 131.601 158.343 131.33 158.084 130.967C157.824 130.604 157.686 130.169 157.69 129.723C157.693 129.276 157.838 128.843 158.104 128.485C158.37 128.126 158.742 127.861 159.168 127.728C161.264 127.024 163.176 125.863 164.768 124.328C166.337 122.471 167.49 120.299 168.148 117.958C168.308 117.517 168.599 117.136 168.982 116.864C169.365 116.593 169.821 116.445 170.29 116.44C170.759 116.435 171.219 116.574 171.607 116.837C171.996 117.1 172.295 117.476 172.464 117.913C173.188 120.268 174.384 122.45 175.978 124.328C177.497 125.811 179.318 126.95 181.316 127.668C181.733 127.82 182.091 128.099 182.339 128.467C182.587 128.834 182.713 129.271 182.698 129.714C182.682 130.157 182.527 130.584 182.254 130.934C181.982 131.283 181.605 131.538 181.179 131.66C178.956 132.375 176.945 133.633 175.329 135.319C173.957 136.991 172.922 138.912 172.28 140.977Z" fill="#FFDA71"/>
<path d="M276.644 154.355V204.889C276.644 207.463 280.644 207.467 280.644 204.889V154.355C280.644 151.781 276.644 151.777 276.644 154.355Z" fill="#FFDA71"/>
<path d="M277.614 111.836V126.378C277.614 126.908 277.825 127.417 278.2 127.792C278.575 128.167 279.084 128.378 279.614 128.378C280.145 128.378 280.653 128.167 281.028 127.792C281.404 127.417 281.614 126.908 281.614 126.378V111.836C281.614 111.306 281.404 110.797 281.028 110.422C280.653 110.047 280.145 109.836 279.614 109.836C279.084 109.836 278.575 110.047 278.2 110.422C277.825 110.797 277.614 111.306 277.614 111.836Z" fill="#FEBE69"/>
<path d="M277.614 46.776V61.318C277.614 61.8484 277.825 62.3571 278.2 62.7322C278.575 63.1073 279.084 63.318 279.614 63.318C280.145 63.318 280.653 63.1073 281.028 62.7322C281.404 62.3571 281.614 61.8484 281.614 61.318V46.776C281.614 46.2456 281.404 45.7369 281.028 45.3618C280.653 44.9867 280.145 44.776 279.614 44.776C279.084 44.776 278.575 44.9867 278.2 45.3618C277.825 45.7369 277.614 46.2456 277.614 46.776Z" fill="#FEBE69"/>
<path d="M254.356 84.577H239.813C239.283 84.577 238.774 84.7877 238.399 85.1628C238.024 85.5379 237.813 86.0466 237.813 86.577C237.813 87.1075 238.024 87.6162 238.399 87.9912C238.774 88.3663 239.283 88.577 239.813 88.577H254.356C254.887 88.577 255.396 88.3663 255.771 87.9912C256.146 87.6162 256.356 87.1075 256.356 86.577C256.356 86.0466 256.146 85.5379 255.771 85.1628C255.396 84.7877 254.887 84.577 254.356 84.577Z" fill="#FEBE69"/>
<path d="M317.475 84.577H303.287C302.757 84.577 302.248 84.7877 301.873 85.1628C301.498 85.5379 301.287 86.0466 301.287 86.577C301.287 87.1075 301.498 87.6162 301.873 87.9912C302.248 88.3663 302.757 88.577 303.287 88.577H317.475C318.006 88.577 318.514 88.3663 318.889 87.9912C319.264 87.6162 319.475 87.1075 319.475 86.577C319.475 86.0466 319.264 85.5379 318.889 85.1628C318.514 84.7877 318.006 84.577 317.475 84.577Z" fill="#FEBE69"/>
<path d="M290.517 109.461L297.788 122.055C297.92 122.282 298.096 122.48 298.305 122.639C298.515 122.798 298.753 122.914 299.007 122.98C299.261 123.047 299.526 123.063 299.786 123.027C300.047 122.992 300.297 122.905 300.524 122.772C300.751 122.64 300.949 122.464 301.108 122.255C301.267 122.045 301.383 121.807 301.45 121.553C301.516 121.299 301.532 121.034 301.496 120.774C301.461 120.513 301.374 120.263 301.242 120.036L293.971 107.442C293.838 107.215 293.662 107.017 293.453 106.858C293.244 106.699 293.005 106.583 292.751 106.516C292.497 106.45 292.232 106.434 291.972 106.47C291.712 106.505 291.461 106.592 291.234 106.724C291.007 106.857 290.809 107.033 290.65 107.242C290.491 107.452 290.375 107.69 290.309 107.944C290.242 108.198 290.226 108.463 290.262 108.723C290.297 108.983 290.384 109.234 290.517 109.461Z" fill="#FEBE69"/>
<path d="M257.987 53.118L265.258 65.712C265.391 65.9388 265.567 66.1373 265.776 66.2961C265.985 66.4549 266.224 66.5709 266.478 66.6375C266.732 66.7042 266.997 66.7201 267.257 66.6844C267.517 66.6487 267.768 66.5621 267.995 66.4295C268.222 66.297 268.42 66.121 268.579 65.9118C268.738 65.7025 268.854 65.464 268.92 65.2099C268.987 64.9558 269.003 64.691 268.967 64.4308C268.931 64.1705 268.845 63.9198 268.712 63.693L261.441 51.1C261.309 50.8732 261.133 50.6748 260.923 50.516C260.714 50.3572 260.476 50.2412 260.222 50.1745C259.968 50.1079 259.703 50.092 259.443 50.1277C259.182 50.1634 258.932 50.25 258.705 50.3825C258.478 50.5151 258.28 50.691 258.121 50.9003C257.962 51.1096 257.846 51.3481 257.779 51.6022C257.713 51.8563 257.697 52.121 257.732 52.3813C257.768 52.6416 257.855 52.8912 257.987 53.118Z" fill="#FEBE69"/>
<path d="M256.73 97.479L244.136 104.751C243.678 105.019 243.345 105.457 243.211 105.971C243.076 106.484 243.151 107.029 243.419 107.487C243.687 107.946 244.125 108.278 244.639 108.413C245.152 108.548 245.697 108.473 246.155 108.205L258.749 100.933C258.976 100.8 259.175 100.624 259.333 100.415C259.492 100.206 259.608 99.9674 259.675 99.7133C259.742 99.4592 259.757 99.1945 259.722 98.9342C259.686 98.6739 259.599 98.4233 259.467 98.1965C259.334 97.9697 259.158 97.7712 258.949 97.6124C258.74 97.4536 258.501 97.3376 258.247 97.271C257.993 97.2043 257.728 97.1884 257.468 97.2241C257.208 97.2598 256.957 97.3464 256.73 97.479Z" fill="#FEBE69"/>
<path d="M311.263 65.435L298.976 72.529C298.749 72.6619 298.551 72.8382 298.392 73.0478C298.233 73.2573 298.118 73.4961 298.051 73.7504C297.985 74.0048 297.969 74.2697 298.005 74.5301C298.041 74.7905 298.128 75.0412 298.261 75.268C298.394 75.4948 298.57 75.6932 298.78 75.8519C298.989 76.0106 299.228 76.1264 299.482 76.1928C299.737 76.2592 300.002 76.2748 300.262 76.2388C300.522 76.2029 300.773 76.1159 301 75.983L313.287 68.889C313.745 68.6213 314.078 68.1826 314.212 67.6694C314.347 67.1562 314.272 66.6106 314.004 66.1525C313.737 65.6945 313.298 65.3616 312.785 65.227C312.272 65.0925 311.726 65.1673 311.268 65.435H311.263Z" fill="#FEBE69"/>
<path d="M265.258 107.442L257.987 120.036C257.855 120.263 257.768 120.513 257.732 120.774C257.697 121.034 257.713 121.299 257.779 121.553C257.846 121.807 257.962 122.045 258.121 122.255C258.28 122.464 258.478 122.64 258.705 122.772C258.932 122.905 259.182 122.992 259.443 123.027C259.703 123.063 259.968 123.047 260.222 122.98C260.476 122.914 260.714 122.798 260.923 122.639C261.133 122.48 261.309 122.282 261.441 122.055L268.712 109.461C268.845 109.234 268.931 108.983 268.967 108.723C269.003 108.463 268.987 108.198 268.92 107.944C268.854 107.69 268.738 107.452 268.579 107.242C268.42 107.033 268.222 106.857 267.995 106.724C267.768 106.592 267.517 106.505 267.257 106.47C266.997 106.434 266.732 106.45 266.478 106.516C266.224 106.583 265.985 106.699 265.776 106.858C265.567 107.017 265.391 107.215 265.258 107.442Z" fill="#FEBE69"/>
<path d="M296.333 51.939L289.239 64.226C289.105 64.4527 289.016 64.7038 288.98 64.9647C288.943 65.2257 288.958 65.4913 289.024 65.7464C289.09 66.0015 289.206 66.241 289.365 66.4511C289.524 66.6613 289.723 66.8379 289.95 66.9709C290.178 67.1039 290.429 67.1907 290.691 67.2262C290.952 67.2617 291.217 67.2452 291.472 67.1778C291.727 67.1103 291.966 66.9932 292.175 66.8331C292.384 66.673 292.56 66.4731 292.692 66.245L299.786 53.958C300.05 53.5002 300.123 52.9564 299.987 52.4454C299.852 51.9344 299.52 51.4977 299.063 51.2309C298.607 50.964 298.064 50.8887 297.552 51.0214C297.04 51.1541 296.602 51.484 296.333 51.939Z" fill="#FEBE69"/>
<path d="M300.48 100.933L313.074 108.205C313.532 108.473 314.078 108.548 314.591 108.413C315.104 108.278 315.543 107.946 315.811 107.487C316.078 107.029 316.153 106.484 316.019 105.971C315.884 105.457 315.551 105.019 315.093 104.751L302.5 97.479C302.042 97.2112 301.496 97.1364 300.983 97.271C300.47 97.4055 300.031 97.7385 299.764 98.1965C299.496 98.6545 299.421 99.2001 299.556 99.7133C299.69 100.227 300.022 100.665 300.48 100.933Z" fill="#FEBE69"/>
<path d="M244.136 68.4L256.73 75.671C256.957 75.8036 257.208 75.8902 257.468 75.9259C257.728 75.9616 257.993 75.9457 258.247 75.879C258.501 75.8124 258.74 75.6964 258.949 75.5376C259.158 75.3788 259.334 75.1803 259.467 74.9535C259.599 74.7268 259.686 74.4761 259.722 74.2158C259.757 73.9555 259.742 73.6908 259.675 73.4367C259.608 73.1826 259.492 72.9441 259.333 72.7348C259.175 72.5256 258.976 72.3496 258.749 72.217L246.155 64.95C245.697 64.6823 245.152 64.6075 244.639 64.742C244.125 64.8766 243.687 65.2095 243.419 65.6675C243.151 66.1256 243.076 66.6712 243.211 67.1844C243.345 67.6976 243.678 68.1363 244.136 68.404V68.4Z" fill="#FEBE69"/>
<path d="M282.021 137.082C282.077 136.62 282.038 136.151 281.908 135.704C281.777 135.257 281.557 134.842 281.261 134.482C280.918 134.088 280.487 133.781 280.003 133.585C279.518 133.39 278.995 133.312 278.474 133.357C277.739 133.397 277.037 133.672 276.47 134.142C275.904 134.612 275.503 135.252 275.329 135.967C275.155 136.682 275.215 137.434 275.502 138.113C275.788 138.791 276.285 139.358 276.919 139.732C277.367 139.974 277.862 140.118 278.371 140.152C278.879 140.187 279.389 140.112 279.865 139.932C280.451 139.7 280.962 139.312 281.343 138.809C281.723 138.306 281.958 137.709 282.021 137.082Z" fill="#FFDA71"/>
<path d="M282.021 36.728C282.077 36.2657 282.038 35.797 281.908 35.3502C281.777 34.9033 281.557 34.4876 281.261 34.128C280.919 33.7336 280.487 33.4258 280.003 33.2297C279.519 33.0337 278.995 32.955 278.474 33C277.739 33.0395 277.037 33.3147 276.47 33.7848C275.904 34.2548 275.503 34.8948 275.329 35.6099C275.155 36.3251 275.215 37.0774 275.502 37.7555C275.788 38.4336 276.285 39.0014 276.919 39.375C277.367 39.6174 277.862 39.7607 278.371 39.7952C278.879 39.8297 279.389 39.7546 279.865 39.575C280.451 39.3433 280.962 38.9553 281.342 38.4533C281.722 37.9512 281.957 37.3545 282.021 36.728Z" fill="#FFDA71"/>
<path d="M335.509 83.2C335.047 83.144 334.578 83.1825 334.131 83.3129C333.684 83.4434 333.269 83.6632 332.909 83.959C332.515 84.302 332.208 84.7333 332.012 85.2176C331.817 85.702 331.739 86.2257 331.784 86.746C331.824 87.481 332.099 88.1838 332.569 88.7503C333.039 89.3168 333.679 89.7169 334.394 89.8913C335.109 90.0657 335.861 90.0053 336.54 89.7188C337.218 89.4324 337.785 88.9353 338.159 88.301C338.401 87.8529 338.545 87.358 338.579 86.8497C338.614 86.3415 338.539 85.8317 338.359 85.355C338.127 84.769 337.739 84.258 337.236 83.8779C336.734 83.4978 336.136 83.2633 335.509 83.2Z" fill="#FFDA71"/>
<path d="M227.436 83.2C226.974 83.1446 226.505 83.1834 226.058 83.314C225.611 83.4447 225.195 83.6644 224.836 83.96C224.442 84.3031 224.135 84.7343 223.939 85.2187C223.744 85.703 223.665 86.2267 223.711 86.747C223.75 87.4821 224.025 88.1849 224.496 88.7514C224.966 89.3178 225.606 89.7179 226.321 89.8923C227.036 90.0668 227.788 90.0063 228.466 89.7199C229.144 89.4335 229.712 88.9363 230.086 88.302C230.328 87.854 230.472 87.3591 230.506 86.8508C230.541 86.3425 230.465 85.8328 230.286 85.356C230.054 84.77 229.665 84.259 229.163 83.8788C228.66 83.4986 228.063 83.2638 227.436 83.2Z" fill="#FFDA71"/>
<path d="M306.821 128.628C306.638 128.2 306.37 127.813 306.034 127.491C305.697 127.17 305.299 126.919 304.863 126.756C304.369 126.586 303.842 126.535 303.325 126.608C302.808 126.681 302.315 126.875 301.887 127.175C301.27 127.576 300.798 128.166 300.542 128.857C300.286 129.548 300.259 130.302 300.466 131.009C300.672 131.716 301.101 132.338 301.689 132.782C302.276 133.226 302.992 133.469 303.728 133.475C304.238 133.461 304.738 133.338 305.196 133.114C305.653 132.89 306.057 132.569 306.38 132.175C306.772 131.681 307.02 131.089 307.098 130.463C307.176 129.838 307.08 129.203 306.821 128.628Z" fill="#FFDA71"/>
<path d="M256.644 41.719C256.462 41.2908 256.194 40.904 255.857 40.5823C255.521 40.2605 255.122 40.0104 254.686 39.847C254.192 39.6771 253.665 39.6264 253.148 39.6991C252.631 39.7717 252.138 39.9656 251.71 40.265C251.093 40.6665 250.621 41.2563 250.365 41.947C250.109 42.6376 250.082 43.3924 250.289 44.0994C250.496 44.8064 250.924 45.428 251.512 45.8721C252.1 46.3163 252.815 46.5592 253.551 46.565C254.061 46.5514 254.561 46.4282 255.019 46.2039C255.477 45.9796 255.88 45.6594 256.203 45.265C256.595 44.7712 256.843 44.1792 256.921 43.5538C256.999 42.9285 256.903 42.2937 256.644 41.719Z" fill="#FFDA71"/>
<path d="M321.872 57.72C321.444 57.9029 321.057 58.1708 320.736 58.5075C320.414 58.8443 320.164 59.2428 320 59.679C319.831 60.1727 319.78 60.6996 319.853 61.2166C319.925 61.7337 320.119 62.2262 320.418 62.654C320.82 63.2715 321.41 63.7432 322.1 63.9993C322.791 64.2553 323.546 64.282 324.253 64.0754C324.96 63.8688 325.581 63.4399 326.026 62.8522C326.47 62.2646 326.713 61.5495 326.718 60.813C326.704 60.3038 326.581 59.8036 326.357 59.3462C326.132 58.8889 325.812 58.485 325.418 58.162C324.925 57.7705 324.333 57.5222 323.707 57.4443C323.082 57.3663 322.447 57.4617 321.872 57.72Z" fill="#FFDA71"/>
<path d="M232.608 109.257C232.18 109.44 231.794 109.708 231.472 110.044C231.15 110.381 230.9 110.779 230.736 111.215C230.567 111.709 230.516 112.236 230.589 112.753C230.662 113.27 230.856 113.763 231.155 114.191C231.557 114.809 232.146 115.282 232.837 115.538C233.528 115.795 234.283 115.821 234.991 115.615C235.698 115.408 236.32 114.979 236.764 114.391C237.208 113.803 237.45 113.087 237.455 112.35C237.442 111.841 237.318 111.34 237.094 110.882C236.87 110.425 236.55 110.021 236.155 109.698C235.661 109.307 235.069 109.058 234.444 108.981C233.818 108.903 233.183 108.998 232.608 109.257Z" fill="#FFDA71"/>
<path d="M250.449 128.628C250.632 128.2 250.9 127.813 251.237 127.491C251.573 127.169 251.972 126.919 252.408 126.756C252.902 126.586 253.429 126.535 253.946 126.608C254.463 126.681 254.955 126.875 255.383 127.175C256.001 127.576 256.474 128.166 256.73 128.857C256.987 129.548 257.014 130.303 256.807 131.01C256.6 131.717 256.171 132.339 255.583 132.783C254.995 133.227 254.279 133.47 253.542 133.475C253.033 133.461 252.532 133.338 252.075 133.114C251.618 132.889 251.214 132.569 250.891 132.175C250.499 131.681 250.251 131.089 250.173 130.463C250.095 129.838 250.19 129.203 250.449 128.628Z" fill="#FFDA71"/>
<path d="M300.626 41.719C300.808 41.2906 301.076 40.9038 301.413 40.582C301.75 40.2602 302.148 40.0102 302.585 39.847C303.078 39.6771 303.605 39.6264 304.122 39.6991C304.639 39.7717 305.132 39.9656 305.56 40.265C306.177 40.6665 306.649 41.2563 306.905 41.947C307.161 42.6376 307.188 43.3924 306.981 44.0994C306.774 44.8064 306.345 45.428 305.758 45.8721C305.17 46.3162 304.455 46.5592 303.719 46.565C303.209 46.5512 302.709 46.428 302.251 46.2037C301.794 45.9794 301.39 45.6592 301.068 45.265C300.676 44.7712 300.428 44.1793 300.35 43.554C300.272 42.9286 300.367 42.2938 300.626 41.719Z" fill="#FFDA71"/>
<path d="M235.4 57.72C235.828 57.9029 236.215 58.1709 236.537 58.5076C236.858 58.8443 237.108 59.2428 237.272 59.679C237.441 60.1728 237.492 60.6997 237.419 61.2167C237.346 61.7337 237.152 62.2262 236.853 62.654C236.452 63.2722 235.862 63.7446 235.171 64.0011C234.48 64.2576 233.725 64.2844 233.018 64.0777C232.31 63.871 231.689 63.4418 231.244 62.8537C230.8 62.2655 230.558 61.5499 230.553 60.813C230.567 60.3037 230.69 59.8034 230.914 59.3459C231.138 58.8885 231.459 58.4847 231.853 58.162C232.347 57.7701 232.939 57.5216 233.564 57.4436C234.19 57.3657 234.825 57.4613 235.4 57.72Z" fill="#FFDA71"/>
<path d="M324.662 109.257C325.091 109.44 325.477 109.708 325.799 110.044C326.121 110.381 326.371 110.779 326.534 111.215C326.704 111.709 326.755 112.236 326.682 112.753C326.61 113.27 326.416 113.763 326.116 114.191C325.715 114.809 325.125 115.28 324.434 115.536C323.744 115.792 322.989 115.819 322.282 115.612C321.575 115.406 320.953 114.977 320.509 114.389C320.065 113.802 319.822 113.087 319.816 112.35C319.83 111.841 319.953 111.34 320.178 110.883C320.402 110.425 320.722 110.021 321.116 109.698C321.61 109.307 322.202 109.059 322.828 108.981C323.453 108.903 324.088 108.999 324.662 109.257Z" fill="#FFDA71"/>
<path d="M281.176 100.554C280.972 101.067 280.621 101.507 280.167 101.821C279.713 102.135 279.176 102.307 278.624 102.317C278.073 102.327 277.53 102.173 277.066 101.876C276.601 101.578 276.234 101.15 276.012 100.645C275.136 98.1648 273.828 95.8595 272.147 93.836C270.238 91.8191 267.875 90.287 265.254 89.367C264.741 89.1971 264.295 88.8688 263.98 88.4294C263.666 87.9899 263.499 87.4619 263.503 86.9214C263.507 86.3809 263.683 85.8558 264.005 85.4216C264.327 84.9874 264.778 84.6664 265.294 84.505C267.832 83.6521 270.148 82.2459 272.076 80.388C273.867 78.56 275.191 75.628 276.17 72.672C276.364 72.1382 276.717 71.6762 277.18 71.3479C277.644 71.0196 278.197 70.8405 278.765 70.8345C279.333 70.8285 279.889 70.996 280.359 71.3145C280.83 71.633 281.192 72.0874 281.397 72.617C282.455 75.591 283.852 78.549 285.654 80.388C287.495 82.1841 289.7 83.5635 292.12 84.433C292.622 84.6191 293.053 84.9586 293.352 85.4035C293.65 85.8484 293.801 86.3759 293.782 86.9113C293.764 87.4466 293.577 87.9626 293.249 88.3858C292.92 88.809 292.467 89.1181 291.953 89.269C289.26 90.1356 286.826 91.6587 284.868 93.701C283.207 95.7257 281.953 98.0528 281.176 100.554Z" fill="white"/>
<path d="M98.7489 52.108C104.254 52.181 108.549 56.222 108.406 61.816C108.408 62.3458 108.619 62.8533 108.994 63.2279C109.369 63.6025 109.876 63.8139 110.406 63.816C111.795 63.6069 113.213 63.6866 114.57 64.0502C115.927 64.4138 117.194 65.0534 118.293 65.929C119.29 66.7864 120.1 67.8389 120.674 69.0218C121.248 70.2046 121.573 71.4925 121.63 72.806C121.854 78.147 118.33 82.752 112.83 83.087C109.659 83.28 106.43 83.114 103.256 83.114H71.6289C69.0559 83.114 69.0509 87.114 71.6289 87.114H104.029C107.729 87.114 111.842 87.549 115.472 86.714C118.552 85.9417 121.26 84.1057 123.117 81.5304C124.975 78.9552 125.862 75.8062 125.623 72.64C125.523 70.778 125.043 68.9561 124.211 67.287C123.38 65.6178 122.215 64.1367 120.79 62.935C119.364 61.7333 117.707 60.8366 115.921 60.3002C114.135 59.7637 112.258 59.599 110.406 59.816L112.406 61.816C112.606 54.031 106.377 48.209 98.7489 48.108C96.1749 48.074 96.1729 52.074 98.7489 52.108Z" fill="white"/>
<path d="M154.017 232.894V258.07C154.017 260.643 158.017 260.648 158.017 258.07V232.894C158.017 230.321 154.017 230.316 154.017 232.894Z" fill="#211715"/>
<path d="M114.528 234.894H156.017C158.591 234.894 158.595 230.894 156.017 230.894H114.528C111.954 230.894 111.95 234.894 114.528 234.894Z" fill="#211715"/>
<path d="M116.528 252.28V232.894C116.528 230.321 112.528 230.316 112.528 232.894V252.28C112.528 254.854 116.528 254.858 116.528 252.28Z" fill="#211715"/>
<path d="M100.916 246.665H114.528C115.058 246.665 115.567 246.454 115.942 246.079C116.317 245.704 116.528 245.195 116.528 244.665C116.528 244.135 116.317 243.626 115.942 243.251C115.567 242.876 115.058 242.665 114.528 242.665H100.916C100.386 242.665 99.8769 242.876 99.5018 243.251C99.1267 243.626 98.916 244.135 98.916 244.665C98.916 245.195 99.1267 245.704 99.5018 246.079C99.8769 246.454 100.386 246.665 100.916 246.665Z" fill="#211715"/>
<path d="M172.194 264.338H232.522C235.095 264.338 235.1 260.338 232.522 260.338H172.194C169.62 260.338 169.616 264.338 172.194 264.338Z" fill="#211715"/>
<path d="M280.429 271.912H299.111C301.685 271.912 301.689 267.912 299.111 267.912H280.429C277.855 267.912 277.851 271.912 280.429 271.912Z" fill="#211715"/>
<path d="M234.522 262.338V246.229L232.522 248.229H253.727L252 247.238L255.99 256.3C256.164 256.604 256.415 256.857 256.719 257.031C257.023 257.205 257.367 257.295 257.717 257.291H280.429L278.429 255.291V269.91C278.429 272.484 282.429 272.488 282.429 269.91V255.291C282.422 254.763 282.209 254.259 281.835 253.885C281.462 253.512 280.958 253.299 280.429 253.291H257.717L259.444 254.281L255.454 245.219C255.281 244.915 255.029 244.663 254.726 244.489C254.422 244.315 254.077 244.225 253.727 244.229H232.522C231.994 244.237 231.49 244.45 231.117 244.823C230.743 245.197 230.53 245.701 230.522 246.229V262.338C230.522 264.912 234.522 264.917 234.522 262.338Z" fill="#211715"/>
<path d="M205.837 262.338V242.222C205.837 239.648 201.837 239.644 201.837 242.222V262.338C201.837 264.912 205.837 264.917 205.837 262.338Z" fill="#211715"/>
<path d="M203.206 240.222H156.017C153.443 240.222 153.439 244.222 156.017 244.222H203.206C205.78 244.222 205.784 240.222 203.206 240.222Z" fill="#211715"/>
<path d="M312.494 235.5H340.278C342.851 235.5 342.856 231.5 340.278 231.5H312.494C309.92 231.5 309.916 235.5 312.494 235.5Z" fill="#211715"/>
<path d="M291.777 269.915V225.3L289.777 227.3H312.494L310.494 225.3C310.494 228.04 310.494 230.78 310.494 233.52H314.494V232.893C314.494 230.32 310.494 230.315 310.494 232.893V233.52C310.494 236.094 314.494 236.098 314.494 233.52C314.494 230.78 314.494 228.04 314.494 225.3C314.487 224.772 314.274 224.268 313.9 223.894C313.527 223.521 313.022 223.308 312.494 223.3H289.777C289.249 223.308 288.745 223.521 288.371 223.894C287.998 224.268 287.785 224.772 287.777 225.3V269.914C287.777 272.488 291.777 272.492 291.777 269.914V269.915Z" fill="#211715"/>
<path d="M278.694 231.5H208.738C206.164 231.5 206.16 235.5 208.738 235.5H278.694C281.268 235.5 281.272 231.5 278.694 231.5Z" fill="#211715"/>
<path d="M146.592 279.923H191.259C193.833 279.923 193.837 275.923 191.259 275.923H146.592C144.019 275.923 144.014 279.923 146.592 279.923Z" fill="#211715"/>
<path d="M377.155 158.415C375.916 155.658 373.999 153.259 371.583 151.443C369.167 149.626 366.331 148.45 363.338 148.024C360.229 147.55 357.051 147.839 354.078 148.867C351.105 149.895 348.427 151.63 346.274 153.924C344.574 155.843 347.389 158.682 349.103 156.753C350.804 154.912 352.925 153.512 355.286 152.673C357.647 151.833 360.177 151.58 362.657 151.934C365.005 152.282 367.235 153.191 369.157 154.582C371.171 156.088 372.74 158.11 373.699 160.434C373.97 160.889 374.408 161.219 374.92 161.353C375.432 161.487 375.976 161.415 376.435 161.151C376.884 160.875 377.21 160.437 377.343 159.927C377.477 159.417 377.409 158.876 377.153 158.415H377.155Z" fill="white"/>
<path d="M353.515 165.973C349.642 160.212 341.695 158.473 335.467 161.173C332.154 162.532 329.397 164.971 327.643 168.093C325.843 171.416 325.097 175.209 325.504 178.966C325.706 180.823 326.285 182.62 327.206 184.245C328.127 185.871 329.37 187.292 330.859 188.42C333.665 190.384 337.006 191.439 340.432 191.442C346.061 191.7 351.754 191.486 357.389 191.491C364.989 191.497 372.59 191.502 380.194 191.505C382.768 191.505 382.772 187.505 380.194 187.505C369.036 187.505 357.879 187.498 346.723 187.483C341.442 187.483 335.07 188.188 331.416 183.471C327.716 178.696 329.216 170.594 333.721 166.857C334.94 165.809 336.356 165.014 337.886 164.519C339.415 164.023 341.028 163.837 342.631 163.97C344.089 164.051 345.512 164.454 346.796 165.149C348.081 165.845 349.196 166.816 350.061 167.993C351.49 170.118 354.961 168.118 353.515 165.973Z" fill="white"/>
<path d="M91.2539 243.481C89.9581 238.558 87.5229 234.009 84.1449 230.2C82.6149 228.338 74.3109 220.293 59.8879 218.7C52.7003 217.805 45.403 218.583 38.5659 220.974C31.4659 223.56 20.2349 228.946 13.2839 246.81C10.2791 254.764 9.50653 263.389 11.0499 271.75C14.1759 287.326 24.3499 296.704 30.8929 301.206C34.2429 303.506 39.5339 306.222 42.4289 309.699C43.3856 308.97 44.5701 308.605 45.7709 308.669C48.6709 308.759 57.8539 310.51 64.5379 312.348C69.8554 313.964 74.8948 316.382 79.4819 319.52C79.9819 317.353 80.6819 314.311 80.6819 314.311C81.0967 311.933 81.6734 309.587 82.4079 307.288C82.4859 306.809 82.7357 306.374 83.1108 306.065C83.4858 305.756 83.9604 305.594 84.4459 305.61C88.6229 305.77 94.5639 303.795 98.6299 301.151C101.107 299.503 102.848 296.957 103.486 294.051C103.946 292.052 104.151 290.002 104.094 287.951C104.068 285.029 103.817 282.113 103.344 279.229C103.379 277.731 103.778 276.265 104.508 274.956C105.68 272.917 107.894 271.03 105.939 268.407C105.159 267.443 104.081 266.765 102.875 266.478C96.8449 264.806 94.7549 256.724 93.2329 250.901C92.6703 247.686 91.7568 244.542 90.5089 241.526" fill="white"/>
<path d="M14.2786 283.307C19.5996 293.983 28.2786 300.083 32.2196 302.692C35.5916 304.926 40.5276 307.028 42.7086 310.749C44.4686 310.111 45.7736 309.636 45.7736 309.636C49.6596 308.222 55.8416 304.947 57.8876 301.925C59.9156 298.493 61.0968 294.628 61.3336 290.649C61.3336 290.649 61.3806 288.986 61.4486 286.339C59.6942 284.575 58.3907 282.414 57.6486 280.039C56.8626 277.682 56.9266 274.534 58.4426 272.614C58.9912 271.967 59.6766 271.449 60.4494 271.099C61.2222 270.748 62.0632 270.574 62.9116 270.588C63.857 270.559 64.7972 270.738 65.6656 271.113C66.0556 264.405 66.4926 260.59 69.8856 255.141C71.3756 252.749 75.6926 249.171 78.9466 247.222L83.6466 243.74C85.043 241.294 87.2412 239.405 89.8696 238.393C88.5466 235.497 86.7714 232.831 84.6106 230.493C80.5798 225.939 75.426 222.521 69.6626 220.579C59.6626 217.513 50.9976 216.96 40.9366 220.067C31.3456 223.028 21.5536 230.342 16.6166 240.152L13.3846 246.452C9.0626 255.619 8.6896 266.341 11.4896 276.144C12.1965 278.613 13.1302 281.01 14.2786 283.307Z" fill="#B3B3B3"/>
<path d="M59.3335 290.649C59.2113 292.727 58.799 294.778 58.1085 296.742C57.6082 298.505 56.7545 300.147 55.5995 301.57C54.1669 302.971 52.539 304.157 50.7665 305.091C48.9992 306.113 47.1506 306.988 45.2395 307.707C44.7352 307.859 44.3087 308.2 44.0481 308.657C43.7876 309.115 43.7129 309.656 43.8395 310.167C43.9832 310.677 44.3219 311.11 44.7823 311.372C45.2427 311.634 45.7878 311.704 46.2995 311.567C48.5399 310.741 50.7083 309.731 52.7825 308.548C54.9258 307.418 56.8821 305.964 58.5825 304.238C60.1174 302.394 61.253 300.251 61.9175 297.946C62.7332 295.594 63.2093 293.138 63.3315 290.652C63.4315 288.077 59.4265 288.081 59.3315 290.652L59.3335 290.649Z" fill="#211715"/>
<path d="M68.117 270.144C66.7777 269.25 65.2245 268.728 63.6168 268.632C62.0092 268.536 60.405 268.87 58.969 269.599C56.237 271.084 55.079 274.216 55.157 277.193C55.292 282.347 58.647 287.432 63.008 290.042C65.6353 291.513 68.5431 292.415 71.542 292.687C72.0715 292.684 72.5783 292.472 72.9527 292.098C73.3271 291.723 73.5389 291.217 73.542 290.687C73.5298 290.16 73.3152 289.659 72.9427 289.286C72.5702 288.914 72.0686 288.699 71.542 288.687C66.766 288.107 62.642 285.881 60.43 281.555C59.375 279.494 58.56 276.782 59.591 274.547C60.791 271.936 64.063 272.347 66.099 273.598C68.299 274.95 70.309 271.492 68.117 270.144Z" fill="#211715"/>
<path d="M91.7887 259.4C92.8417 260.936 93.7997 264.945 90.8547 266.269C86.8087 267.555 85.0437 262.905 85.6747 260.244C86.1907 258.068 89.2147 256.25 91.7887 259.4Z" fill="#211715"/>
<path d="M82.6128 314.843C82.9089 313.105 83.2988 311.384 83.7808 309.688C83.8735 308.976 84.0759 308.282 84.3808 307.632C84.4078 307.602 85.2468 307.618 85.5808 307.603C86.46 307.555 87.3358 307.458 88.2038 307.31C89.7896 307.047 91.3493 306.646 92.8648 306.11C95.9444 305.159 98.8139 303.627 101.319 301.599C103.632 299.431 105.162 296.557 105.67 293.427C106.247 289.574 106.26 285.658 105.708 281.801C105.516 280.143 105.2 278.801 105.702 277.182C106.146 275.746 107.214 274.663 107.902 273.355C109.72 269.916 107.915 266.342 104.453 264.923C103.298 264.583 102.198 264.078 101.188 263.423C100.249 262.644 99.4593 261.702 98.8558 260.642C95.2558 254.676 95.0698 247.342 92.4338 240.992C92.2788 240.489 91.9381 240.065 91.481 239.805C91.024 239.545 90.485 239.469 89.9738 239.592C89.4635 239.735 89.0302 240.074 88.7681 240.534C88.506 240.995 88.4361 241.54 88.5738 242.052C90.9948 247.888 91.5528 254.252 94.0808 260.062C95.0753 262.584 96.6832 264.818 98.7588 266.562C99.831 267.385 101.043 268.007 102.337 268.399C103.357 268.725 104.882 269.44 104.67 270.749C104.465 272.02 103.15 273.178 102.57 274.309C101.711 275.895 101.296 277.684 101.37 279.487C101.864 283.065 102.082 286.676 102.024 290.287C101.845 293.264 101.024 296.34 98.8128 298.465C96.7528 300.444 93.7128 301.647 91.0378 302.503C89.3777 303.069 87.6551 303.431 85.9078 303.583C84.0968 303.703 82.4338 303.583 81.2078 305.191C80.641 306.117 80.2438 307.136 80.0348 308.201C79.4967 310.033 79.066 311.895 78.7448 313.778C78.6194 314.289 78.6946 314.829 78.955 315.287C79.2154 315.745 79.6411 316.085 80.1448 316.239C80.6565 316.376 81.2015 316.305 81.6618 316.043C82.1221 315.781 82.4609 315.349 82.6048 314.839L82.6128 314.843Z" fill="#211715"/>
<path d="M100.911 276.955C98.317 277.907 95.688 279.937 95.199 282.826C94.899 284.467 95.1478 286.161 95.907 287.647C96.6723 289.03 97.8357 290.15 99.246 290.863C99.704 291.131 100.25 291.205 100.763 291.071C101.276 290.936 101.714 290.603 101.982 290.145C102.25 289.687 102.324 289.141 102.19 288.628C102.055 288.115 101.722 287.677 101.264 287.409C101.011 287.273 100.764 287.131 100.523 286.971C100.429 286.908 100.336 286.842 100.245 286.771C100.467 286.936 100.329 286.831 100.198 286.712C100.02 286.549 99.8526 286.374 99.698 286.188C99.875 286.398 99.698 286.188 99.63 286.076C99.562 285.964 99.505 285.876 99.448 285.776C99.378 285.652 99.313 285.525 99.253 285.396C99.37 285.646 99.304 285.514 99.246 285.332C99.148 285.107 99.0898 284.867 99.074 284.623C99.05 284.878 99.098 284.839 99.083 284.593C99.076 284.478 99.073 284.363 99.072 284.247C99.072 284.098 99.081 283.947 99.083 283.802C99.083 283.43 99.026 283.919 99.092 283.702C99.112 283.639 99.213 283.057 99.273 283.058C99.273 283.058 99.073 283.458 99.231 283.165C99.285 283.065 99.336 282.965 99.394 282.865C99.415 282.829 99.76 282.354 99.748 282.332C99.5987 282.524 99.571 282.563 99.665 282.45C99.697 282.412 99.73 282.375 99.765 282.338C99.849 282.245 99.935 282.153 100.024 282.065C100.189 281.901 100.367 281.754 100.541 281.6C100.715 281.446 100.263 281.784 100.577 281.578C100.666 281.519 100.753 281.457 100.843 281.399C101.07 281.254 101.303 281.121 101.543 280.999C101.643 280.95 101.743 280.907 101.843 280.857C101.437 281.063 101.907 280.837 101.979 280.811C102.232 280.741 102.469 280.622 102.677 280.461C102.884 280.299 103.057 280.099 103.187 279.87C103.317 279.642 103.4 279.39 103.433 279.129C103.465 278.869 103.446 278.604 103.376 278.351C103.306 278.098 103.187 277.861 103.026 277.653C102.864 277.446 102.664 277.273 102.435 277.143C102.207 277.013 101.955 276.93 101.694 276.897C101.434 276.865 101.169 276.884 100.916 276.954L100.911 276.955Z" fill="#211715"/>
<path d="M11.6624 245.435C5.7164 258.246 6.6214 273.793 13.4854 286.084C18.2085 294.193 24.9756 300.923 33.1114 305.6C35.6764 307.12 38.6364 308.568 40.4804 311C42.1474 313.2 42.0414 316.316 42.0024 318.948C41.9644 321.523 45.9644 321.524 46.0024 318.948C46.0394 316.448 46.0554 313.495 45.1024 311.148C43.8998 308.546 41.9582 306.355 39.5194 304.848C36.1364 302.498 32.2874 300.534 29.1404 298.055C20.3184 291.102 14.1404 281.668 12.2614 270.499C10.8866 262.706 11.8793 254.681 15.1114 247.458C15.3641 246.997 15.4305 246.456 15.297 245.947C15.1634 245.438 14.8401 245 14.3934 244.722C13.9345 244.459 13.3904 244.386 12.8786 244.52C12.3667 244.654 11.9281 244.984 11.6574 245.439L11.6624 245.435Z" fill="#211715"/>
<path d="M93.6646 242.975C92.0379 237.315 89.0451 232.142 84.9496 227.911C80.5025 223.331 74.935 219.993 68.7996 218.228C61.8355 216.114 54.4958 215.536 47.2866 216.534C40.8087 217.51 34.6224 219.89 29.1616 223.509C23.1522 227.417 18.2406 232.795 14.8926 239.134C13.7236 241.422 17.1736 243.449 18.3466 241.153C23.6956 230.681 34.0466 223.453 45.4126 220.941C51.883 219.582 58.579 219.724 64.9856 221.358C68.1134 222.028 71.1394 223.106 73.9856 224.566C76.4746 225.924 78.7841 227.587 80.8606 229.517C85.105 233.455 88.1967 238.475 89.8036 244.038C90.5516 246.494 94.4136 245.447 93.6606 242.975H93.6646Z" fill="#211715"/>
<path d="M85.3777 244.745C85.6756 244.245 86.0014 243.762 86.3537 243.299L86.0407 243.704C86.636 242.933 87.3242 242.238 88.0897 241.635L87.6847 241.948C88.5716 241.276 89.5337 240.709 90.5517 240.26C91.0022 239.997 91.332 239.568 91.4707 239.065C91.6098 238.545 91.5379 237.991 91.2708 237.524C91.0062 237.075 90.5779 236.745 90.0757 236.605C89.5541 236.49 89.0088 236.561 88.5337 236.805C87.1108 237.441 85.7952 238.294 84.6338 239.333C83.5693 240.324 82.6568 241.467 81.9258 242.725C81.7932 242.952 81.7066 243.202 81.6709 243.463C81.6352 243.723 81.6511 243.988 81.7177 244.242C81.8523 244.755 82.1852 245.194 82.6432 245.461C83.1013 245.729 83.6469 245.804 84.1601 245.669C84.6733 245.535 85.112 245.202 85.3797 244.744L85.3777 244.745Z" fill="#211715"/>
<path d="M77.9382 245.491C73.6382 248.104 69.4952 251.478 67.0922 255.971C64.5702 260.686 63.9852 265.736 63.6732 270.997C63.5212 273.569 67.5212 273.56 67.6732 270.997C67.9422 266.467 68.3732 262.057 70.5462 257.99C72.6342 254.084 76.2152 251.217 79.9572 248.945C82.1572 247.61 80.1472 244.145 77.9382 245.491Z" fill="#211715"/>
<path d="M139.859 329.755C138.529 332.178 136.434 334.093 133.9 335.2C132.927 337.543 131.751 340.136 130.472 342.739C125.799 339.011 119.537 334.174 115.25 331.199L114.362 328.957C112.837 325.107 111.126 321.587 110.962 317.449C110.925 316.497 111.17 315.107 111.057 314.161C110.943 313.36 110.776 312.567 110.557 311.787L108.443 303.496C107.93 301.486 107.507 299.085 108.916 297.563C110.364 295.999 113.1 296.37 114.663 297.819C116.122 299.409 117.139 301.354 117.612 303.459C117.657 303.605 117.702 303.759 117.747 303.91L118.231 303.051C119.078 301.551 126.486 285.314 127.271 283.899C127.993 282.599 129.348 280.725 132.16 281.447C134.788 282.121 135.373 284.587 134.494 287.173C133.867 289.015 131.784 294.505 129.948 299.411C131.788 299.192 133.652 299.525 135.301 300.369C135.945 300.759 136.467 301.322 136.808 301.994C137.149 302.665 137.295 303.419 137.229 304.169C137.839 304.165 138.442 304.294 138.997 304.547C139.551 304.801 140.043 305.173 140.438 305.637C141.291 306.505 141.953 307.549 142.838 308.384C143.484 308.993 144.238 309.484 144.829 310.148C146.658 312.214 146.398 315.467 145.162 317.934C143.926 320.401 142.925 323.372 141.728 326.088C141.185 327.35 140.561 328.575 139.859 329.755Z" fill="white"/>
<path d="M131.551 335.636C129.185 341.232 126.37 346.627 123.134 351.769C122.866 352.227 122.791 352.773 122.926 353.286C123.06 353.799 123.393 354.238 123.851 354.506C124.309 354.773 124.855 354.848 125.368 354.714C125.881 354.579 126.32 354.246 126.588 353.788C129.823 348.646 132.638 343.251 135.005 337.655C135.255 337.193 135.321 336.653 135.187 336.145C135.054 335.637 134.732 335.198 134.287 334.919C133.828 334.655 133.284 334.582 132.772 334.716C132.26 334.851 131.821 335.181 131.551 335.636Z" fill="#211715"/>
<path d="M116.286 328.422C114.817 324.739 112.809 320.822 112.971 316.756C113.057 315.892 113.086 315.024 113.056 314.156C112.915 313.018 112.687 311.893 112.372 310.79C111.844 308.717 111.315 306.644 110.786 304.571C110.409 303.093 109.642 301.177 110.036 299.628C110.374 298.295 111.836 298.352 112.836 298.939C114.291 299.788 114.953 301.704 115.445 303.217C116.056 305.102 116.569 307.017 116.984 308.955C117.524 311.47 121.384 310.406 120.841 307.891C120.094 304.411 119.241 300.362 117.034 297.491C115.023 294.873 111.107 293.454 108.202 295.562C104.957 297.917 106.034 302.141 106.868 305.409L108.395 311.397C108.678 312.32 108.899 313.261 109.057 314.213C109.094 315.063 109.065 315.914 108.969 316.759C108.777 321.223 110.815 325.449 112.427 329.488C112.581 329.991 112.921 330.417 113.379 330.677C113.836 330.937 114.376 331.013 114.887 330.888C115.397 330.745 115.83 330.406 116.092 329.945C116.354 329.485 116.424 328.94 116.287 328.428L116.286 328.422Z" fill="#211715"/>
<path d="M119.961 304.057C121.217 301.788 122.222 299.352 123.316 297.003C124.839 293.733 126.348 290.456 127.889 287.195C128.25 286.43 128.589 285.648 129.001 284.906C129.27 284.27 129.739 283.74 130.338 283.398C130.731 283.248 131.16 283.222 131.568 283.324C131.975 283.426 132.342 283.651 132.617 283.968C133.44 285.138 132.43 287.054 131.999 288.234C131.357 289.997 130.699 291.753 130.037 293.509C128.447 297.752 126.794 301.979 125.337 306.268C124.505 308.711 128.368 309.759 129.194 307.332C130.623 303.139 132.236 299.006 133.794 294.859C134.523 292.914 135.257 290.971 135.965 289.019C136.673 287.067 137.286 284.972 136.53 282.926C135.964 281.557 134.906 280.451 133.565 279.824C132.223 279.197 130.695 279.096 129.282 279.541C128.401 279.876 127.596 280.385 126.916 281.038C126.235 281.691 125.693 282.474 125.322 283.341C123.822 286.331 122.467 289.397 121.057 292.43C119.572 295.625 118.222 298.953 116.514 302.038C115.267 304.292 118.72 306.312 119.968 304.057H119.961Z" fill="#211715"/>
<path d="M130.4 301.351C132.3 301.077 135.429 301.751 135.236 304.162C135.24 304.691 135.453 305.197 135.827 305.571C136.201 305.945 136.707 306.158 137.236 306.162C138.883 306.128 139.901 308.133 140.869 309.208C141.811 310.253 143.326 310.982 143.879 312.325C144.298 313.601 144.246 314.985 143.731 316.225C143.16 317.835 142.315 319.376 141.675 320.967C139.562 326.219 137.575 332.241 131.534 333.886C129.054 334.561 130.107 338.421 132.598 337.743C135.98 336.833 138.923 334.74 140.891 331.843C143.227 328.525 144.432 324.575 146.006 320.877C146.818 318.968 147.797 317.249 148.058 315.159C148.346 313.272 147.969 311.344 146.993 309.704C145.938 308.049 144.162 306.972 142.92 305.452C141.453 303.652 139.691 302.119 137.236 302.17L139.236 304.17C139.664 298.808 133.636 296.882 129.336 297.502C128.826 297.645 128.393 297.984 128.131 298.444C127.869 298.905 127.799 299.45 127.936 299.962C128.088 300.466 128.428 300.893 128.886 301.154C129.344 301.414 129.885 301.489 130.396 301.362L130.4 301.351Z" fill="#211715"/>
<path d="M2 387.438L2.191 383.768C2.191 383.091 3.38 366.147 3.998 360.294C4.53218 354.538 5.73701 348.864 7.588 343.387C11.383 332.629 19.171 323.735 28.621 319.395L38.484 314.53C41.317 309.892 43.241 308.59 45.768 308.669C48.668 308.759 57.851 310.51 64.535 312.348C70.624 314.022 77.964 318.148 80.582 320.371C81.989 321.571 83.396 325.259 84.182 327.124L86.013 331.487C88.6907 333.143 91.1207 335.169 93.231 337.505C95.477 336.35 110.722 328.505 110.722 328.505C113.746 329.246 134.5 345.805 136.638 347.83C137.538 348.678 137.773 350.467 137.361 352.019C134.574 362.519 130.754 377.55 127.053 387.506H2.194" fill="#7A7473"/>
<path d="M83.7728 332.465C88.1531 334.961 91.8794 338.459 94.6458 342.674C97.9058 347.774 99.7928 353.626 101.522 359.383C102.26 361.843 106.122 360.795 105.379 358.32C103.522 352.136 101.456 345.791 97.8988 340.345C94.7934 335.682 90.6492 331.803 85.7918 329.012C83.5708 327.698 81.5568 331.154 83.7728 332.465Z" fill="#211715"/>
<path d="M35.8271 318.41C43.3148 319.079 50.7425 320.303 58.0491 322.071C64.1399 323.669 70.0758 325.808 75.7862 328.462C76.2477 328.714 76.7882 328.78 77.2969 328.647C77.8056 328.513 78.2439 328.19 78.5222 327.744C78.7855 327.285 78.8579 326.741 78.7235 326.229C78.5892 325.717 78.259 325.279 77.8041 325.008C71.7883 322.191 65.5328 319.917 59.1121 318.214C51.4551 316.374 43.6721 315.103 35.8271 314.414C35.2978 314.417 34.791 314.629 34.4167 315.004C34.0424 315.378 33.8306 315.885 33.8271 316.414C33.8386 316.941 34.053 317.443 34.4256 317.816C34.7982 318.188 35.3003 318.403 35.8271 318.414V318.41Z" fill="#211715"/>
<path d="M40.2145 315.54C41.0524 313.938 42.1853 312.509 43.5535 311.328C43.8999 311.061 44.2962 310.867 44.719 310.755C45.1418 310.644 45.5826 310.618 46.0155 310.679C49.0067 310.931 51.9741 311.412 54.8915 312.119C58.7192 312.818 62.497 313.768 66.2005 314.962C69.8485 316.256 73.3418 317.95 76.6165 320.013C77.8503 320.622 78.9409 321.485 79.8165 322.546C80.7917 324.167 81.6072 325.878 82.2515 327.656C82.4065 328.159 82.7474 328.583 83.2046 328.844C83.6619 329.104 84.2011 329.18 84.7125 329.056C85.2229 328.913 85.6564 328.575 85.9185 328.114C86.1807 327.653 86.2504 327.108 86.1125 326.596C85.4154 324.762 84.6093 322.971 83.6985 321.233C82.8522 319.781 81.677 318.548 80.2675 317.633C76.7915 315.266 73.0533 313.309 69.1275 311.802C64.9724 310.281 60.6934 309.123 56.3385 308.341C52.9471 307.517 49.4961 306.962 46.0175 306.68C41.5655 306.48 38.8815 310.094 36.7625 313.522C35.4045 315.717 38.8625 317.728 40.2165 315.541L40.2145 315.54Z" fill="#211715"/>
<path d="M27.6144 317.668C15.6304 323.251 7.63036 334.768 4.29136 347.305C1.54536 357.615 1.23236 368.572 0.491362 379.172C0.300362 381.927 0.147362 384.68 0.000362016 387.438C-0.133638 390.01 3.86736 390.003 4.00036 387.438C4.34436 380.831 4.82136 374.238 5.34936 367.638C6.29236 355.868 7.76936 343.898 14.6494 333.93C18.4177 328.404 23.59 323.982 29.6344 321.119C30.089 320.848 30.419 320.41 30.5534 319.898C30.6877 319.386 30.6155 318.842 30.3524 318.383C30.0765 317.934 29.6379 317.608 29.128 317.475C28.6181 317.341 28.0762 317.409 27.6154 317.665L27.6144 317.668Z" fill="#211715"/>
<path d="M110.19 330.429C110.66 330.554 110.118 330.363 110.208 330.412C110.415 330.524 110.629 330.621 110.835 330.734C111.408 331.05 111.961 331.402 112.509 331.759C114.05 332.759 115.546 333.835 117.031 334.919C120.646 337.557 124.187 340.295 127.696 343.071C130.117 344.988 132.703 346.841 134.939 348.979C135.203 349.24 135.396 349.565 135.499 349.922C135.602 350.279 135.613 350.656 135.529 351.018C135.249 352.48 134.877 353.923 134.414 355.338C133.546 358.626 132.678 361.915 131.787 365.197C129.798 372.515 127.757 379.85 125.126 386.968C124.233 389.386 128.097 390.43 128.983 388.032C131.398 381.499 133.305 374.781 135.149 368.07C136.115 364.554 137.049 361.03 137.98 357.505C138.78 354.461 140.443 350.745 138.943 347.685C138.244 346.55 137.312 345.576 136.209 344.829C134.815 343.672 133.404 342.536 131.988 341.407C128.202 338.385 124.377 335.407 120.488 332.523C118.68 331.182 116.86 329.852 114.988 328.606C113.859 327.736 112.6 327.049 111.257 326.571C108.767 325.905 107.705 329.762 110.193 330.429H110.19Z" fill="#211715"/>
<path d="M40.8253 331.256C35.1396 341.214 31.1861 352.066 29.1333 363.348C29.0069 363.859 29.0817 364.4 29.3422 364.857C29.6027 365.315 30.0291 365.655 30.5333 365.808C31.045 365.944 31.5897 365.873 32.0499 365.612C32.5101 365.35 32.8489 364.917 32.9933 364.408C34.9631 353.464 38.7805 342.935 44.2823 333.271C45.5593 331.032 42.1043 329.014 40.8283 331.253L40.8253 331.256Z" fill="#211715"/>
<path d="M126.055 385.5H2.19372C-0.380281 385.5 -0.384281 389.5 2.19372 389.5H126.055C128.629 389.5 128.633 385.5 126.055 385.5Z" fill="#211715"/>
<path d="M88.039 284.5C87.4598 286.164 87.3902 287.962 87.839 289.666C87.9825 290.168 88.3109 290.597 88.758 290.866C89.1015 291.067 89.4971 291.161 89.8942 291.136C90.2913 291.111 90.672 290.968 90.9874 290.725C91.3029 290.483 91.5388 290.152 91.6651 289.774C91.7913 289.397 91.8021 288.991 91.696 288.607C91.63 288.347 91.578 288.084 91.54 287.818L91.611 288.349C91.533 287.744 91.533 287.131 91.611 286.525L91.539 287.056C91.6074 286.548 91.7308 286.049 91.907 285.567C92.0128 285.184 92.0018 284.777 91.8755 284.4C91.7491 284.023 91.5132 283.692 91.1978 283.449C90.8824 283.207 90.5018 283.064 90.1048 283.039C89.7078 283.014 89.3124 283.108 88.969 283.309C88.5343 283.59 88.2094 284.012 88.049 284.504L88.039 284.5Z" fill="#211715"/>
<path d="M336.863 307.331L329.416 302.231C328.387 299.938 326.594 297.573 324.416 297.381C323.654 297.269 322.877 297.334 322.144 297.57C321.412 297.806 320.743 298.207 320.191 298.743C316.318 303.143 317.749 312.43 319.465 318.034C321.062 323.699 323.238 329.185 325.958 334.405L328.992 339.244C332.951 336.551 337.383 333.306 341.792 330.713L341.835 330.663C345.149 326.84 346.828 320.263 348.799 315.498L336.863 307.331Z" fill="white"/>
<path d="M407.052 304.813C414.158 298.436 419.056 289.967 421.04 280.627C423.023 271.287 421.99 261.559 418.088 252.844C410.25 235.35 398.758 230.535 391.543 228.308C384.594 226.263 377.267 225.852 370.133 227.108C355.808 229.417 347.918 237.868 346.483 239.808C343.362 243.703 341.183 248.267 340.117 253.143C339.335 255.69 338.774 258.3 338.441 260.943C337.213 266.834 335.532 275.012 329.593 276.984C328.402 277.33 327.36 278.062 326.629 279.064C324.809 281.782 327.114 283.556 328.387 285.533C329.181 286.803 329.654 288.248 329.764 289.742C329.437 292.646 329.332 295.571 329.452 298.491C329.498 300.543 329.806 302.581 330.366 304.556C331.148 307.427 333.015 309.882 335.572 311.404C339.765 313.841 345.798 315.515 349.961 315.146C350.445 315.106 350.927 315.244 351.318 315.533C351.708 315.823 351.979 316.245 352.081 316.72C352.93 318.979 353.624 321.294 354.158 323.648L356.31 330.148C356.514 329.854 356.753 329.585 357.021 329.348C359.639 327.124 366.978 322.999 373.068 321.325C379.702 319.501 388.796 317.761 391.763 317.645C394.357 313.792 399.846 310.652 403.23 308.065C404.409 307.151 405.707 306.073 407.052 304.813Z" fill="white"/>
<path d="M418.722 300.87C421.643 299.906 424.161 298 425.883 295.451C429.331 290.912 428.068 279.96 421.918 274.351C422.342 266.981 421.03 259.615 418.088 252.845C410.25 235.351 398.758 230.536 391.543 228.309C384.594 226.264 377.267 225.853 370.133 227.109C355.808 229.418 347.918 237.869 346.483 239.809C344.445 242.394 342.793 245.26 341.576 248.319C343.186 256.37 347.477 263.638 353.75 268.935H361.111C363.647 273.099 366.995 276.711 370.954 279.556C371.811 279.129 372.752 278.898 373.709 278.879C374.556 278.822 375.404 278.954 376.194 279.266C376.983 279.577 377.693 280.06 378.273 280.679C379.885 282.52 380.106 285.661 379.44 288.055C378.629 291.348 376.704 294.26 373.991 296.296C370.484 294.469 372.863 305.557 376.304 310.13C378.504 313.046 384.837 316.007 388.789 317.223L391.525 318.013C393.164 315.344 396.232 313.019 399.125 310.971C399.293 311.093 399.448 311.198 399.551 311.257C403.281 313.401 407.668 314.377 412.42 310.604C413.964 309.305 415.1 307.589 415.692 305.66L418.722 300.87Z" fill="#B3B3B3"/>
<path d="M392.254 326.92C392.178 325.498 392.183 324.073 392.269 322.651C392.288 322.311 392.311 321.971 392.341 321.632C392.357 321.453 392.377 321.274 392.395 321.095C392.381 321.236 392.339 321.395 392.387 321.165C392.481 320.616 392.661 320.086 392.918 319.592C394.457 316.671 397.465 314.592 400.134 312.697C400.581 312.419 400.905 311.981 401.038 311.472C401.172 310.963 401.105 310.422 400.851 309.961C400.581 309.506 400.142 309.176 399.63 309.042C399.119 308.907 398.574 308.98 398.115 309.243C394.915 311.511 391.34 314.012 389.464 317.573C387.998 320.357 388.072 323.851 388.254 326.92C388.266 327.447 388.481 327.949 388.853 328.321C389.226 328.694 389.728 328.908 390.254 328.92C390.783 328.915 391.289 328.703 391.663 328.329C392.037 327.955 392.25 327.449 392.254 326.92Z" fill="#211715"/>
<path d="M370.593 282.1C372.545 280.76 375.839 280.052 377.193 282.621C378.351 284.821 377.708 287.549 376.757 289.691C374.685 294.355 370.439 296.618 365.567 297.459C365.057 297.603 364.625 297.942 364.363 298.402C364.101 298.862 364.03 299.407 364.167 299.919C364.317 300.425 364.657 300.853 365.116 301.113C365.574 301.374 366.116 301.448 366.628 301.319C371.659 300.45 376.308 298.048 379.135 293.679C382.018 289.224 383.521 281.715 378.427 278.185C375.443 276.116 371.427 276.69 368.571 278.649C368.123 278.926 367.798 279.365 367.665 279.874C367.531 280.384 367.599 280.925 367.854 281.386C368.124 281.84 368.563 282.17 369.075 282.304C369.587 282.439 370.131 282.366 370.59 282.103L370.593 282.1Z" fill="#211715"/>
<path d="M340.314 269.355C339.339 270.942 338.583 274.994 341.591 276.169C345.696 277.25 347.226 272.518 346.462 269.892C345.838 267.742 342.726 266.078 340.314 269.355Z" fill="#211715"/>
<path d="M356.086 323.107C355.528 320.646 354.802 318.226 353.914 315.864C353.626 315.052 353.088 314.351 352.379 313.861C351.669 313.372 350.823 313.118 349.961 313.137C348.565 313.192 347.166 313.125 345.781 312.937C342.606 312.413 339.547 311.339 336.741 309.763C335.565 309.054 334.544 308.112 333.743 306.997C332.941 305.881 332.375 304.614 332.078 303.272C331.149 299.703 331.293 295.772 331.543 292.126C331.775 290.493 331.702 288.832 331.325 287.226C330.827 285.708 330.055 284.294 329.047 283.054C328.347 282.109 327.52 281.183 328.356 280.067C329.171 278.979 330.712 278.773 331.848 278.167C334.209 276.775 336.072 274.676 337.175 272.167C340.255 265.781 340.26 258.567 342.62 251.967C343.488 249.539 339.62 248.494 338.763 250.904C336.625 256.888 336.539 263.404 334.106 269.293C333.212 271.458 331.877 273.717 329.698 274.784C328.315 275.462 326.946 275.827 325.806 276.942C325.165 277.54 324.67 278.277 324.36 279.096C324.049 279.916 323.931 280.796 324.014 281.668C324.414 284.744 327.714 286.527 327.764 289.735C327.791 291.367 327.464 293.057 327.422 294.698C327.353 296.741 327.422 298.786 327.63 300.819C327.867 304.302 329.141 307.635 331.287 310.389C333.236 312.721 336.063 314.054 338.84 315.137C342.277 316.506 345.946 317.194 349.645 317.163C350.206 317.155 350.007 317.04 350.185 317.344C350.364 317.727 350.508 318.126 350.615 318.535C351.264 320.38 351.803 322.263 352.229 324.172C352.786 326.684 356.643 325.621 356.086 323.109V323.107Z" fill="#211715"/>
<path d="M339.623 248.718C341.315 257.149 345.793 264.765 352.337 270.344C352.718 270.706 353.224 270.908 353.751 270.908C354.277 270.908 354.783 270.706 355.165 270.344C355.536 269.967 355.744 269.459 355.744 268.93C355.744 268.4 355.536 267.892 355.165 267.515C349.13 262.412 345.01 255.409 343.481 247.655C343.336 247.146 342.997 246.714 342.536 246.452C342.076 246.19 341.531 246.119 341.02 246.255C340.513 246.405 340.085 246.744 339.824 247.203C339.563 247.662 339.49 248.204 339.619 248.715L339.623 248.718Z" fill="#211715"/>
<path d="M353.53 259.374C357.308 266.797 361.319 274.48 367.941 279.787C368.324 280.148 368.83 280.349 369.355 280.349C369.881 280.349 370.387 280.148 370.769 279.787C371.141 279.41 371.349 278.902 371.349 278.373C371.349 277.844 371.141 277.336 370.769 276.959C364.393 271.849 360.621 264.501 356.984 257.359C355.816 255.059 352.363 257.086 353.53 259.378V259.374Z" fill="#211715"/>
<path d="M370.3 299.036C370.529 301.452 371.096 303.824 371.984 306.083C372.749 308.407 373.989 310.548 375.625 312.368C377.364 313.992 379.344 315.337 381.494 316.356C383.667 317.476 385.93 318.409 388.261 319.147C390.723 319.916 391.777 316.056 389.324 315.29C387.367 314.674 385.465 313.896 383.637 312.965C381.811 312.122 380.117 311.019 378.607 309.69C378 309.122 377.496 308.453 377.12 307.712C376.626 306.849 376.198 305.949 375.842 305.02C375.07 303.101 374.552 301.089 374.3 299.036C374.287 298.51 374.072 298.009 373.699 297.636C373.327 297.264 372.826 297.049 372.3 297.036C371.771 297.04 371.264 297.252 370.89 297.626C370.515 298 370.303 298.507 370.3 299.036Z" fill="#211715"/>
<path d="M331.077 291.237C331.208 291.279 331.34 291.322 331.47 291.369C331.562 291.403 331.905 291.569 331.526 291.384C331.746 291.492 331.966 291.594 332.179 291.715C332.392 291.836 332.586 291.967 332.788 292.097C333.103 292.302 332.644 291.96 332.82 292.114C332.897 292.182 332.977 292.245 333.054 292.314C333.24 292.48 333.417 292.657 333.584 292.843C333.619 292.882 333.842 293.128 333.66 292.92C333.478 292.712 333.719 293.008 333.755 293.062C333.868 293.234 333.948 293.429 334.061 293.598C334.19 293.788 333.951 293.206 334.039 293.547C334.073 293.678 334.121 293.805 334.153 293.937C334.163 293.976 334.244 294.351 334.201 294.117C334.154 293.856 334.217 294.331 334.22 294.385C334.232 294.638 334.204 294.891 334.213 295.142C334.222 295.393 334.295 294.792 334.213 295.171C334.19 295.277 334.17 295.383 334.143 295.489C334.11 295.619 334.052 295.751 334.025 295.883C333.981 296.095 334.171 295.622 334.001 295.952C333.878 296.189 333.722 296.409 333.601 296.644C333.489 296.858 333.788 296.455 333.551 296.716C333.477 296.796 333.406 296.878 333.33 296.955C333.23 297.055 333.13 297.149 333.03 297.24C332.965 297.298 332.653 297.528 332.974 297.3C332.739 297.467 332.501 297.624 332.253 297.771C332.026 297.904 331.827 298.079 331.669 298.289C331.51 298.498 331.394 298.736 331.327 298.991C331.261 299.245 331.245 299.509 331.28 299.77C331.316 300.03 331.403 300.281 331.535 300.507C331.668 300.734 331.844 300.933 332.053 301.091C332.262 301.25 332.501 301.366 332.755 301.433C333.009 301.5 333.274 301.515 333.534 301.48C333.794 301.444 334.045 301.358 334.272 301.225C335.629 300.474 336.736 299.343 337.459 297.971C338.199 296.443 338.41 294.713 338.059 293.052C337.481 290.2 334.774 288.213 332.149 287.381C331.637 287.245 331.092 287.315 330.632 287.577C330.172 287.839 329.833 288.271 329.689 288.781C329.559 289.292 329.632 289.834 329.893 290.293C330.154 290.751 330.583 291.091 331.089 291.241L331.077 291.237Z" fill="#211715"/>
<path d="M418.629 274.393C423.046 277.049 425.441 282.393 425.729 287.411C426.083 289.921 425.513 292.474 424.125 294.595C422.737 296.715 420.626 298.26 418.185 298.941C415.76 299.763 416.801 303.628 419.248 302.798C422.933 301.574 426.061 299.078 428.073 295.757C429.379 293.281 429.958 290.485 429.744 287.694C429.457 281.159 426.385 274.394 420.644 270.939C418.432 269.61 416.419 273.067 418.625 274.393H418.629Z" fill="#211715"/>
<path d="M420.183 340.658C415.764 333.883 409.356 328.643 401.838 325.658L399.119 323.492C396.286 318.854 394.362 317.553 391.835 317.631C388.935 317.721 379.751 319.472 373.068 321.31C366.978 322.984 359.639 327.11 357.021 329.333C356.899 329.438 356.785 329.551 356.678 329.672C352.049 328.972 346.648 328.156 346.648 328.156C338.875 331.656 330.434 338.702 324.203 342.307C323.613 342.68 323.146 343.22 322.861 343.859C322.576 344.497 322.487 345.205 322.603 345.894C323.36 349.575 324.751 353.097 326.715 356.301L329.473 363.419L329.582 363.694C327.315 370.918 324.145 382.621 323.487 388.666H432.976C431.025 375.466 428.309 360.61 424.996 350.535C423.842 347.042 422.223 343.72 420.183 340.658Z" fill="#FEBE69"/>
<path d="M352.414 336.419C347.721 338.597 343.131 340.895 339.159 344.262C335.72 347.236 332.895 350.854 330.843 354.912C329.51 357.638 328.418 360.475 327.579 363.391C326.365 367.277 325.253 371.193 324.242 375.14C323.058 379.457 322.151 383.845 321.528 388.278C321.531 388.808 321.743 389.315 322.117 389.689C322.492 390.063 322.999 390.275 323.528 390.278C324.055 390.265 324.556 390.051 324.928 389.678C325.301 389.306 325.516 388.804 325.528 388.278C326.428 381.064 328.766 373.232 330.944 366.051C331.41 364.515 331.89 362.983 332.404 361.462C332.586 360.925 332.771 360.389 332.966 359.856C333.052 359.623 333.145 359.393 333.23 359.156C333.42 358.637 333.09 359.442 333.293 359.003C335.057 354.956 337.588 351.288 340.745 348.203C344.687 344.49 349.569 342.132 354.433 339.875C354.888 339.604 355.218 339.166 355.353 338.654C355.487 338.141 355.415 337.597 355.151 337.138C354.875 336.689 354.437 336.364 353.927 336.23C353.417 336.097 352.875 336.165 352.414 336.421V336.419Z" fill="#211715"/>
<path d="M394.878 325.6C388.54 326.156 382.253 327.189 376.07 328.688C370.867 330.088 365.8 331.951 360.93 334.255C360.475 334.526 360.145 334.964 360.01 335.476C359.876 335.988 359.948 336.532 360.212 336.991C360.488 337.44 360.927 337.765 361.436 337.899C361.946 338.032 362.488 337.964 362.949 337.709C367.513 335.568 372.26 333.84 377.133 332.545C382.965 331.119 388.897 330.134 394.878 329.6C395.404 329.585 395.904 329.37 396.276 328.998C396.648 328.626 396.863 328.126 396.878 327.6C396.874 327.071 396.663 326.564 396.288 326.19C395.914 325.815 395.407 325.603 394.878 325.6Z" fill="#211715"/>
<path d="M402.949 328.272C410.705 331.952 417.011 338.116 420.865 345.787C422.689 349.65 424.088 353.7 425.038 357.865C426.253 362.539 427.257 367.265 428.163 372.011C429.253 377.717 430.191 383.452 431.043 389.198C431.187 389.708 431.525 390.141 431.986 390.403C432.447 390.666 432.992 390.735 433.504 390.598C434.009 390.446 434.436 390.106 434.696 389.648C434.957 389.19 435.031 388.649 434.904 388.138C433.488 377.859 431.55 367.66 429.097 357.578C428.081 353.132 426.625 348.799 424.751 344.641C422.76 340.521 420.127 336.742 416.951 333.447C413.523 329.86 409.462 326.936 404.973 324.821C404.512 324.568 403.971 324.502 403.462 324.635C402.953 324.768 402.514 325.091 402.236 325.538C401.973 325.997 401.9 326.542 402.035 327.054C402.169 327.566 402.499 328.004 402.954 328.275L402.949 328.272Z" fill="#211715"/>
<path d="M327.682 333.4C325.797 329.826 324.205 326.104 322.924 322.271C321.561 318.631 320.569 314.864 319.962 311.025C319.562 307.925 319.35 304.179 320.853 301.325C321.108 300.668 321.579 300.116 322.187 299.76C322.796 299.404 323.507 299.264 324.205 299.363C325.952 299.6 327.039 301.852 327.689 303.25C327.96 303.705 328.398 304.035 328.91 304.169C329.422 304.303 329.966 304.231 330.425 303.967C330.874 303.691 331.199 303.253 331.333 302.743C331.467 302.233 331.399 301.692 331.143 301.231C329.493 297.682 326.619 294.831 322.451 295.484C318.88 296.04 316.958 299.255 316.216 302.536C314.644 309.49 316.834 316.792 319.067 323.336C320.457 327.498 322.183 331.539 324.228 335.421C325.443 337.692 328.897 335.674 327.682 333.402V333.4Z" fill="#211715"/>
<path d="M346.869 314.968C345.825 317.508 344.984 320.124 343.979 322.679C343.517 323.878 342.989 325.051 342.397 326.191C342.097 326.756 341.785 327.31 341.442 327.848C341.266 328.124 341.082 328.393 340.893 328.66C340.745 328.865 340.588 329.062 340.42 329.251C340.058 329.633 339.855 330.139 339.855 330.665C339.855 331.191 340.058 331.698 340.42 332.079C340.797 332.45 341.305 332.658 341.835 332.658C342.364 332.658 342.872 332.45 343.249 332.079C347.14 327.516 348.495 321.461 350.726 316.032C350.864 315.52 350.794 314.975 350.532 314.514C350.27 314.053 349.836 313.714 349.326 313.571C348.815 313.444 348.274 313.518 347.816 313.779C347.358 314.039 347.018 314.466 346.866 314.971L346.869 314.968Z" fill="#211715"/>
<path d="M345.638 326.432C338.513 329.69 332.39 334.687 325.859 338.932C324.485 339.825 322.831 340.532 321.793 341.832C321.208 342.602 320.819 343.502 320.659 344.456C320.499 345.409 320.572 346.387 320.873 347.306C321.75 350.824 323.135 354.195 324.984 357.313C326.274 359.539 329.732 357.527 328.438 355.294C326.87 352.664 325.675 349.828 324.887 346.869C324.487 345.325 324.339 344.563 325.787 343.699C327.144 342.888 328.464 342.014 329.772 341.127C335.59 337.182 341.234 332.822 347.659 329.885C348.114 329.614 348.444 329.176 348.579 328.664C348.713 328.152 348.64 327.607 348.377 327.148C348.101 326.699 347.662 326.374 347.152 326.241C346.642 326.107 346.101 326.175 345.64 326.431L345.638 326.432Z" fill="#211715"/>
<path d="M398.708 345.738C399.913 349.2 400.82 352.759 401.419 356.376C401.56 356.887 401.899 357.321 402.36 357.583C402.821 357.846 403.367 357.915 403.879 357.776C404.382 357.623 404.808 357.282 405.069 356.825C405.329 356.367 405.404 355.827 405.279 355.316C404.68 351.699 403.773 348.14 402.568 344.678C402.427 344.167 402.088 343.732 401.627 343.47C401.166 343.208 400.619 343.14 400.108 343.281C399.596 343.422 399.162 343.76 398.9 344.222C398.638 344.683 398.57 345.23 398.711 345.741L398.708 345.738Z" fill="#211715"/>
<path d="M432.972 386.667H323.528C320.954 386.667 320.95 390.667 323.528 390.667H432.972C435.546 390.667 435.55 386.667 432.972 386.667Z" fill="#211715"/>
<path d="M400.846 322.486C398.916 319.364 396.499 315.925 392.51 315.648C391.145 315.625 389.781 315.745 388.441 316.007C386.541 316.28 384.66 316.626 382.781 316.998C378.439 317.749 374.158 318.819 369.973 320.198C365.924 321.642 362.054 323.542 358.435 325.861C356.826 326.766 355.428 328.002 354.335 329.489C353.203 331.419 352.253 333.449 351.496 335.554C351.358 336.066 351.428 336.611 351.69 337.072C351.952 337.532 352.386 337.871 352.896 338.014C353.407 338.141 353.948 338.067 354.406 337.806C354.865 337.546 355.205 337.119 355.357 336.614C355.939 335.106 356.611 333.634 357.368 332.206C357.985 331.137 358.877 330.252 359.951 329.643C363.077 327.563 366.421 325.828 369.922 324.469C373.588 323.151 377.354 322.125 381.182 321.4C384.362 320.65 387.583 320.082 390.829 319.7C391.387 319.626 391.952 319.607 392.514 319.643C392.943 319.718 393.355 319.869 393.732 320.088C395.347 321.065 396.432 322.938 397.396 324.5C398.747 326.685 402.209 324.679 400.85 322.481L400.846 322.486Z" fill="#211715"/>
<path d="M340.911 295.026C341.087 295.508 341.21 296.007 341.278 296.515L341.207 295.984C341.283 296.59 341.281 297.203 341.201 297.808L341.272 297.277C341.234 297.543 341.182 297.806 341.116 298.066C340.982 298.586 341.054 299.138 341.316 299.607C341.515 299.947 341.809 300.221 342.162 300.395C342.516 300.568 342.913 300.633 343.303 300.582C343.693 300.531 344.06 300.366 344.357 300.108C344.654 299.849 344.868 299.509 344.972 299.129C345.42 297.425 345.348 295.626 344.767 293.963C344.616 293.465 344.29 293.039 343.848 292.763C343.381 292.496 342.827 292.424 342.307 292.563C341.804 292.703 341.373 293.032 341.107 293.482C340.972 293.712 340.884 293.967 340.849 294.232C340.815 294.497 340.835 294.766 340.907 295.023L340.911 295.026Z" fill="#211715"/>
<path d="M408.808 275.468C407.621 275.595 406.444 275.8 405.284 276.083C404.153 276.426 403.061 276.884 402.022 277.448C399.67 278.58 397.595 280.213 395.941 282.232C395.578 282.613 395.376 283.12 395.376 283.646C395.376 284.172 395.578 284.679 395.941 285.06C396.319 285.43 396.827 285.637 397.355 285.637C397.884 285.637 398.392 285.43 398.769 285.06C399.445 284.193 400.214 283.402 401.062 282.702C401.469 282.367 400.726 282.935 401.162 282.626C401.273 282.548 401.383 282.467 401.496 282.389C401.753 282.211 402.017 282.041 402.284 281.877C402.854 281.526 403.442 281.206 404.038 280.902C404.325 280.756 404.613 280.612 404.903 280.474L405.215 280.329L405.395 280.25C405.535 280.188 405.473 280.214 405.208 280.328C405.404 280.28 405.594 280.209 405.773 280.116C405.981 280.045 406.192 279.981 406.405 279.924C407.546 279.651 408.703 279.451 409.869 279.324C410.123 279.255 410.36 279.136 410.568 278.975C410.775 278.813 410.949 278.613 411.079 278.384C411.209 278.156 411.293 277.904 411.326 277.643C411.358 277.382 411.339 277.118 411.269 276.864C411.115 276.361 410.774 275.936 410.317 275.676C409.86 275.416 409.321 275.34 408.809 275.464L408.808 275.468Z" fill="#211715"/>
<path d="M396.463 294.658C397.331 296.289 398.38 297.818 399.591 299.214C400.189 299.889 400.87 300.486 401.617 300.991C402.502 301.569 403.517 301.918 404.57 302.009C405.1 302.009 405.609 301.798 405.984 301.423C406.17 301.237 406.317 301.017 406.418 300.774C406.518 300.531 406.57 300.271 406.57 300.009C406.57 299.746 406.518 299.486 406.418 299.243C406.317 299 406.17 298.78 405.984 298.594C405.594 298.243 405.094 298.036 404.57 298.009L404.47 297.998L405.002 298.069C404.672 298.023 404.35 297.938 404.041 297.814L404.519 298.014C404.086 297.827 403.679 297.586 403.306 297.298L403.706 297.611C402.949 296.997 402.271 296.291 401.688 295.511L402.001 295.911C401.224 294.874 400.526 293.78 399.913 292.638C399.642 292.184 399.203 291.854 398.691 291.72C398.18 291.586 397.636 291.658 397.177 291.921C396.727 292.196 396.401 292.634 396.267 293.144C396.133 293.654 396.202 294.197 396.459 294.657L396.463 294.658Z" fill="#211715"/>
<path d="M413.767 305.124C413.308 306.501 412.519 307.744 411.47 308.747C410.42 309.749 409.141 310.479 407.745 310.874C406.603 311.183 405.405 311.224 404.245 310.994C402.945 310.715 401.701 310.219 400.567 309.525C398.325 308.253 396.307 311.707 398.548 312.979C401.742 314.792 405.436 315.766 409.048 314.661C411.132 314.017 413.031 312.88 414.584 311.348C415.964 309.872 417.002 308.11 417.625 306.187C417.761 305.675 417.69 305.131 417.428 304.67C417.167 304.21 416.734 303.871 416.225 303.727C415.713 303.597 415.171 303.67 414.713 303.931C414.254 304.192 413.914 304.621 413.765 305.127L413.767 305.124Z" fill="#211715"/>
<path d="M341.978 253.959C342.86 250.003 344.473 246.247 346.733 242.882C347.033 242.439 347.344 242.001 347.659 241.566C347.739 241.455 348.409 240.557 348.149 240.889C347.889 241.221 348.207 240.821 348.259 240.76C348.389 240.609 348.517 240.46 348.649 240.309C349.294 239.592 349.978 238.911 350.697 238.267C356.163 233.484 362.858 230.324 370.025 229.143C384.798 226.543 400.141 230.89 409.686 242.668C416.52 251.157 420.166 261.771 419.991 272.668C419.944 275.243 423.944 275.243 423.991 272.668C424.317 255.168 414.817 236.418 398.536 228.847C382.897 221.574 363.105 223.185 349.5 234.055C343.707 238.888 339.701 245.523 338.121 252.9C337.526 255.4 341.382 256.471 341.978 253.963V253.959Z" fill="#211715"/>
</g>
<defs>
<clipPath id="clip0_523_987">
<rect width="434.933" height="390.667" fill="white"/>
</clipPath>
</defs>
</svg>
