<?xml version="1.0" encoding="UTF-8"?><svg id="b" xmlns="http://www.w3.org/2000/svg" width="257.081" height="250.66" viewBox="0 0 257.081 250.66"><defs><style>.d{fill:#fff;}.d,.e,.f{stroke-width:0px;}.e{fill:#febe69;}.f{fill:#211715;}</style></defs><g id="c"><path class="d" d="m209.904,86.827c1.71-1.543,4.245-2.29,6.615-1.935s4.528,1.784,5.613,3.732c.766,1.366,1.014,2.922,1.156,4.44.519,5.983-.66,12.08-3.372,17.532-1.321,2.656-3.042,5.199-5.436,7.134-1.838,1.466-3.685,2.299-6.355,1.486,0,0-.35-.106-.954-.289-.586,2.305-1.358,4.313-1.704,5.296-1.982,5.022-13.568,23.519-27.806,28.76.112.852.265,1.848.476,3.053.691,4.071,1.843,8.68,7.259,11.675.365.115,7.431,3.476,7.988,3.706l1.901.787c-.299.178-.598.356-.598.356-.568.338-.987.538-1.517.849-10.157,5.957-25.383,9.295-38.443,9.589-13.075-.298-28.384-3.646-38.53-9.63-.588-.347-.96-.561-1.51-.951,0,0-.42-.299-.841-.598l.994-.398c.576-.23,7.624-3.591,8.008-3.706,5.396-2.996,6.548-7.604,7.259-11.675.24-1.36.406-2.423.497-3.342-6.176-2.898-11.883-7.441-16.91-13.056-5.989-6.691-9.626-13.853-11.785-20.029-.891.241-1.41.381-1.41.381-3.019.813-5.325-.797-7.163-2.264-2.394-1.935-4.115-4.478-5.436-7.134-2.712-5.452-3.891-11.549-3.372-17.532.141-1.518.389-3.074,1.156-4.44,1.085-1.948,3.243-3.377,5.613-3.732,2.37-.354,4.905.392,6.615,1.935,0,0-3.669-53.134,55.997-53.134s55.997,53.134,55.997,53.134Z"/><path class="e" d="m233.324,55.74c-.86-1.76-1.86-4.7-2.18-6.32-1.69-8.79-.23-18.11-2.67-26.73-2.92-10.34-9.64-16.6-18.98-19.28-9.95-2.86-23.03.23-26.65,11.03l-.195.568c-2.117-1.032-4.287-1.953-6.505-2.736-7.039-2.483-14.474-3.593-21.91-3.593-14.679,0-27.143,4.269-37.118,11.423-10.793,7.741-22.917,21.118-25.368,42.285-.179,1.548-.307,3.138-.378,4.77-.347,7.922,1.896,21.364,1.516,17.668,1.758.078,3.484.723,4.787,1.806,3.782-.672,9.908-4.152,12.667-5.716,16.667-9.444,29.222-17.444,40.403-27.051-.989,2.696-2.68,5.698-4.094,8.598-1.107,2.269.826,4.794,3.314,4.365,9.913-1.708,17.928-8.099,25.002-15.884,3.208,9.292,9.437,16.544,17.434,23.677,7.052,6.291,13.716,9.55,18.128,11.704,1.523-1.093,3.508-1.645,5.436-1.496.044-.262.068-.406.068-.406.853-5.12,1.359-10.718,1.072-17.266-.186-4.256-.778-8.482-1.779-12.597,3.89,1.47,8.19,2.36,13.169,2.75,1.47.11,5.53-.16,4.83-1.57Z"/><path class="f" d="m185.158,15.078c1.964-5.675,7.219-8.874,12.892-9.926,5.878-1.09,12.143.266,17.292,3.348,5.654,3.384,9.263,8.983,10.941,15.275,2.351,8.815.513,18.157,2.708,26.988.233.937.532,1.859.855,2.769.191.539.394,1.073.61,1.602.133.325.369,1.373.659,1.531-.268-.146.857-2.599.313-1.109.563-.886.628-1.182.193-.887l.178-.078c-.283-.015-.681.19-.976.241-.366.063-1.197.112-1.838.1-4.388-.089-8.926-1.16-13.023-2.684-1.215-.452-2.63.504-2.952,1.676-.369,1.343.457,2.499,1.676,2.952,4.387,1.632,9.134,2.573,13.808,2.836,2.71.152,8.405-.52,7.144-4.608-.278-.902-.778-1.771-1.1-2.664-.366-1.017-.705-2.051-.958-3.103-.534-2.223-.703-4.543-.838-6.819-.307-5.17-.219-10.352-.939-15.491-1.161-8.291-4.982-16.054-11.759-21.134-5.776-4.329-13.423-6.492-20.608-5.744-8.404.875-16.048,5.396-18.907,13.656-1.013,2.925,3.623,4.182,4.629,1.276h0Z"/><path class="f" d="m218.346,85.061c2.743-16.667,1.027-34.369-8.149-48.899-8.741-13.841-23.122-23.944-38.987-27.869-15.94-3.944-33.608-2.261-48.213,5.37-10.888,5.69-20.343,14.767-26.325,25.506-3.515,6.309-5.869,13.258-6.946,20.397-1.102,7.303-.798,14.502.142,21.802.159,1.235.325,2.469.526,3.698.209,1.28,1.798,1.993,2.952,1.676,1.36-.374,1.886-1.668,1.676-2.952-.912-5.574-1.547-11.827-1.195-17.722.415-6.954,1.988-13.924,4.873-20.281,4.643-10.23,12.46-18.967,21.646-24.998,12.586-8.264,28.137-11.129,42.977-9.137,8.275,1.111,16.13,3.954,23.285,8.233,2.829,1.692,5.706,3.477,8.165,5.689,2.761,2.484,5.393,5.149,7.733,8.034,10.246,12.63,13.457,29.134,11.895,45.036-.169,1.722-.403,3.434-.684,5.141-.21,1.277.334,2.583,1.676,2.952,1.147.315,2.741-.39,2.952-1.676h0Z"/><path class="d" d="m54.674,248.26c1.75-19.54,4-40.37,16.42-55.55,4.29-5.24,9.66-9.58,15.68-12.66,4.62-2.37,9.57-4,14.51-5.61,3.83-1.255,7.707-2.514,11.643-3.38,1.863,1.496,2.228,1.694,3.268,2.307,10.147,5.985,25.456,9.333,38.53,9.63,13.06-.294,28.286-3.632,38.443-9.589,1.004-.589,1.612-.783,3.587-2.267,3.82.862,7.584,2.084,11.308,3.299,4.94,1.61,9.89,3.24,14.51,5.61,6.02,3.08,11.39,7.42,15.68,12.66,12.42,15.18,14.67,36.01,16.42,55.55"/><path class="f" d="m115.477,173.735c2.605-1.073,5.118-2.378,7.679-3.551.202-.092.406-.18.606-.274.361-.17-.589.242-.33.138s.514-.208.759-.337c1.197-.629,2.329-1.519,3.301-2.452,1.738-1.67,2.949-3.747,3.78-5.993.842-2.272,1.227-4.732,1.55-7.124.174-1.283-.309-2.576-1.676-2.952-1.118-.307-2.777.383-2.952,1.676-.271,2.001-.596,4.031-1.169,5.971-.125.424-.268.842-.421,1.257-.038.105-.08.209-.121.312.017-.042.137-.309.022-.056-.11.242-.222.482-.344.718-.232.448-.489.883-.771,1.301-.347.513-.292.443-.756.948-.784.854-1.408,1.361-2.346,1.942-.095.059-.566.433-.243.19.06-.045.195-.073.112-.03-.21.109-.444.184-.661.278-.166.072-.332.146-.497.221-1.275.578-2.54,1.179-3.807,1.774-.73.343-1.46.686-2.19,1.027-.285.133-.57.266-.855.397-.247.113-.977.415.056-.01-1.198.493-2.05,1.593-1.676,2.952.311,1.133,1.746,2.173,2.952,1.676h0Z"/><path class="f" d="m175.341,153.601c.618,4.557,1.46,9.099,4.515,12.714.838.992,1.841,1.826,2.899,2.574.628.444,1.282.857,2.001,1.136.256.099-.489-.219-.43-.184.087.051.19.083.281.125,1.287.59,2.568,1.191,3.85,1.793,1.234.579,2.458,1.198,3.713,1.731,1.192.506,2.571.357,3.284-.861.589-1.007.339-2.775-.861-3.284-2.342-.993-4.615-2.166-6.925-3.231-.487-.225-1.117-.406-1.563-.688.023.015.346.173-.046-.102-.247-.174-.514-.321-.763-.494-.444-.308-.72-.544-1.151-.956-.853-.816-1.182-1.241-1.735-2.181-.241-.41-.452-.833-.654-1.263-.183-.39.026.119-.115-.285-.088-.253-.184-.503-.267-.757-.745-2.275-1.085-4.698-1.406-7.062-.174-1.286-1.822-1.987-2.952-1.676-1.387.381-1.851,1.663-1.676,2.952h0Z"/><path class="f" d="m211.601,88.524c2.409-2.058,6.484-1.674,8.278,1.007,1,1.494,1.057,3.55,1.111,5.285.062,1.977-.038,3.973-.374,5.924-.675,3.924-2.033,7.754-4.165,11.128-1.623,2.568-4.29,5.973-7.689,5.032-2.982-.825-4.254,3.805-1.276,4.629,8.542,2.364,14.171-7.705,16.451-14.39,1.341-3.933,1.984-8.169,1.853-12.323-.133-4.225-1.056-8.258-4.773-10.728-3.99-2.651-9.257-1.994-12.81,1.041-.986.842-.866,2.528,0,3.394.977.977,2.405.844,3.394,0h0Z"/><path class="f" d="m99.606,85.13c-3.268-2.792-7.755-3.514-11.678-1.671-3.971,1.865-5.48,5.683-5.82,9.823-.678,8.271,1.789,17.41,7.171,23.816,2.919,3.475,7.164,6.309,11.856,5.21,3.006-.704,1.734-5.334-1.276-4.629-3.245.76-6.42-2.745-8.048-5.126-2.321-3.395-3.789-7.349-4.537-11.379-.362-1.95-.496-3.936-.462-5.918.032-1.853.051-4.123,1.122-5.724,1.794-2.683,5.869-3.065,8.278-1.007.985.841,2.427.967,3.394,0,.862-.862.99-2.549,0-3.394h0Z"/><path class="f" d="m205.512,114.063c-.082,2.299-.675,4.535-1.381,6.714-.254.784-.532,1.559-.81,2.335-.082.229-.176.455-.256.685.207-.593.053-.133-.081.152-1.043,2.228-2.351,4.342-3.708,6.39-3.924,5.919-8.702,11.619-14.441,15.889-3.359,2.499-7.044,4.522-11.161,5.406-3.019.648-1.741,5.277,1.276,4.629,8.076-1.734,14.957-7.301,20.442-13.236,4.474-4.84,8.679-10.364,11.575-16.316,1.879-3.862,3.193-8.358,3.346-12.647.11-3.089-4.69-3.085-4.8,0h0Z"/><path class="f" d="m97.49,112.617c3.427,16.818,14.433,32.721,29.609,40.99,4.242,2.311,8.849,3.964,13.641,4.625,1.282.177,2.577-.311,2.952-1.676.308-1.121-.384-2.774-1.676-2.952-8.146-1.125-15.46-5.137-21.543-10.568-6.488-5.793-11.716-12.929-15.074-20.968-1.442-3.453-2.533-7.062-3.28-10.727-.259-1.271-1.763-2.003-2.952-1.676-1.321.363-1.936,1.678-1.676,2.952h0Z"/><path class="f" d="m154.105,106.3c.469,1.789.919,3.605,1.188,5.436l-.086-.638c.032.251.046.498.02.75l.086-.638c-.018.117-.043.226-.083.337l.242-.573c-.035.079-.071.146-.119.217l.375-.486c-.056.068-.109.12-.178.175l.486-.375c-.137.088-.282.16-.43.228l.573-.242c-.237.099-.472.171-.726.212l.638-.086c-.229.027-.452.025-.681-.001l.638.086c-.257-.036-.509-.098-.766-.133-.67-.09-1.239-.115-1.849.242-.498.291-.973.862-1.103,1.434-.14.614-.11,1.304.242,1.849.312.484.835,1.022,1.434,1.103.55.074,1.084.215,1.644.24.84.037,1.626-.217,2.378-.559.92-.419,1.636-1.225,1.881-2.217.207-.838.116-1.593-.026-2.432-.296-1.751-.701-3.487-1.151-5.205-.318-1.214-1.729-2.072-2.952-1.676-1.25.404-2.018,1.651-1.676,2.952h0Z"/><path class="f" d="m125.314,92.117c-.888,2.884-.309,9.518,5.155,10.083,7.221-.043,7.605-8.064,5.175-11.835-1.99-3.088-7.843-4.372-10.329,1.753Z"/><path class="f" d="m182.903,92.117c.888,2.884.309,9.518-5.154,10.083-7.221-.043-7.606-8.064-5.175-11.836,1.99-3.088,7.842-4.372,10.329,1.753Z"/><path class="f" d="m210.663,83.732c-7.305-3.612-13.822-8.056-19.709-13.712-5.831-5.602-10.97-12.002-13.674-19.715-.564-1.609-2.715-2.479-4.011-1.059-4.831,5.294-10.264,10.242-16.891,13.168-1.525.674-3.124,1.2-4.74,1.608-.831.21-2.485.886-2.847.051-.114-.263-.068-.36.134-.815.441-.994.987-1.951,1.479-2.921.968-1.908,1.898-3.832,2.654-5.835.37-.981-.247-2.21-1.103-2.71-.967-.566-2.093-.324-2.908.375-12.575,10.778-26.875,19.396-41.294,27.452-3.295,1.841-6.756,3.848-10.481,4.652-3.018.652-1.741,5.28,1.276,4.629,3.6-.778,7.023-2.625,10.236-4.369,3.724-2.022,7.387-4.164,11.037-6.316,7.486-4.413,14.859-9.042,21.88-14.169,3.685-2.691,7.275-5.515,10.74-8.485l-4.011-2.335c-.636,1.686-1.46,3.293-2.276,4.897-.837,1.645-2.034,3.396-2.194,5.273-.283,3.341,2.694,6.185,6.004,5.831,6.733-.72,13.094-4.467,18.293-8.591,3.036-2.408,5.797-5.137,8.406-7.996l-4.011-1.059c2.262,6.45,5.934,12.153,10.465,17.241,4.844,5.439,10.421,10.373,16.56,14.301,2.754,1.763,5.634,3.305,8.564,4.753,1.161.574,2.598.312,3.284-.861.62-1.06.306-2.707-.861-3.284h0Z"/><path class="f" d="m57.074,248.26c1.212-13.515,2.574-27.324,7.686-40.022,2.467-6.127,5.981-11.901,10.556-16.681,5.026-5.252,11.152-9.142,17.909-11.779,4.178-1.63,8.473-2.993,12.752-4.331s8.674-2.55,13.168-2.968c1.291-.12,2.4-1.017,2.4-2.4,0-1.205-1.102-2.521-2.4-2.4-8.35.776-16.459,3.61-24.32,6.402-7.545,2.679-14.531,6.296-20.482,11.718-10.835,9.873-16.269,23.849-18.978,37.959-1.553,8.09-2.355,16.304-3.09,24.501-.116,1.293,1.186,2.4,2.4,2.4,1.395,0,2.284-1.104,2.4-2.4h0Z"/><path class="f" d="m189.664,172.43c7.911.64,15.698,3.512,23.139,6.123,7.036,2.469,13.618,5.824,19.12,10.927,10.118,9.386,14.944,22.48,17.47,35.755,1.448,7.607,2.19,15.32,2.881,23.025.116,1.291,1.02,2.4,2.4,2.4,1.208,0,2.516-1.101,2.4-2.4-1.288-14.357-2.707-29.089-8.355-42.503-2.807-6.667-6.649-12.871-11.734-18.049-5.602-5.705-12.382-9.771-19.805-12.644-4.335-1.678-8.79-3.093-13.233-4.458-4.667-1.434-9.405-2.582-14.283-2.976-1.294-.105-2.4,1.178-2.4,2.4,0,1.386,1.103,2.295,2.4,2.4h0Z"/><path class="f" d="m193.474,170.487c-9.152,5.271-19.331,8.223-29.8,9.468-5.448.648-10.798.737-16.257.18-5.353-.547-10.67-1.565-15.846-3.033-5.413-1.535-11.011-3.533-15.674-6.759-1.066-.738-2.665-.197-3.284.861-.697,1.192-.208,2.544.861,3.284,4.313,2.985,9.482,4.962,14.453,6.533,5.605,1.772,11.381,2.922,17.208,3.653,5.584.701,11.077.842,16.679.283,5.765-.575,11.5-1.59,17.08-3.157,5.979-1.678,11.625-4.073,17.003-7.17,2.676-1.541.261-5.691-2.423-4.145h0Z"/><path class="f" d="m165.014,129.022c-2.655-2.599-6.843-3.368-10.409-3.366s-7.755.766-10.411,3.366c-.926.907-.91,2.485,0,3.394.928.928,2.465.909,3.394,0,.101-.098.57-.456.225-.219-.352.242.282-.184.409-.262.226-.139.458-.267.695-.386.159-.08.321-.154.484-.227-.308.139-.182.072.057-.013,1.851-.656,3.234-.852,5.147-.853,1.869-.001,3.255.164,5.055.818.08.029.693.294.151.048.136.062.272.123.405.189.263.129.522.27.772.424.057.035.568.321.558.378-.007.036-.482-.422-.135-.092.069.066.141.129.209.195.926.907,2.471.923,3.394,0,.912-.912.929-2.484,0-3.394h0Z"/><path class="d" d="m49.595,127.732c-1.714,1.071-3.32,1.49-4.77,1.245-.857-.144-1.64-.444-2.328-.892-2.451-1.594-4.995-5.436-7.163-10.819-2.788-6.924-1.244-11.673.544-17.173.418-1.287.851-2.617,1.233-4.004.817-2.852.38-5.692-1.231-7.99-1.511-2.154-3.937-3.545-6.49-3.721-2.256-.267-4.655.295-6.72,1.585s-3.638,3.226-4.313,5.31c-1.318,3.442-1.179,7.006-.868,10.034.079.769.062,2.272-.943,3.706-.545.778-1.338,1.514-2.234,2.074-.986.616-2.062,1.007-3.11,1.129-2.811.327-4.977-.984-6.62-4.008-1.73-3.185-2.479-7.07-2.108-10.939.727-7.587,5.918-15.439,13.224-20.004,4.151-2.594,10.838-5.271,19.122-3.295,5.84,1.393,11.205,5.362,14.352,10.617,2.871,4.796,3.703,10.276,2.344,15.43-.858,3.253-1.662,5.628-2.371,7.722-.419,1.237-.78,2.305-1.092,3.375-.758,2.597-.422,5.641.878,7.944l.55.968c.893,1.566,1.665,2.919,2.336,4.505.372.88.613,2.382.312,3.755-.302,1.374-1.224,2.631-2.531,3.448Z"/><path class="d" d="m61.612,147.957c-2.093,1.308-4.617,1.541-6.75.621-3.344-1.628-4.603-5.178-4.101-7.837.326-1.722,1.436-3.251,3.21-4.421l.13-.084c.83-.519,3.768-2.11,6.734-.818,3.149,1.373,4.931,5.335,3.89,8.653-.488,1.555-1.594,2.935-3.113,3.885Z"/><path class="f" d="m48.384,125.66c-1.315.787-2.664,1.328-4.141.658-.645-.293-.766-.427-1.281-.91-.452-.424-.881-.886-1.268-1.371-2.265-2.842-4.01-6.573-4.941-10.068-.865-3.248-.563-6.446.327-9.649,1.025-3.691,2.98-7.506,2.821-11.405s-2.271-7.541-5.667-9.488c-3.332-1.911-7.495-1.927-10.983-.445-3.689,1.567-6.21,4.563-7.446,8.329-.654,1.992-.911,4.145-.925,6.236-.011,1.577.448,3.326.204,4.879-.414,2.638-4.316,4.275-6.418,2.968-2.698-1.677-3.681-6.087-3.851-9.011-.394-6.783,3.072-13.205,7.889-17.78,4.616-4.384,10.749-7.116,17.173-6.905,6.874.225,13.38,3.918,17.023,9.773,1.99,3.198,3.022,6.863,2.826,10.634-.181,3.48-1.533,6.954-2.638,10.233-1.264,3.755-2.474,7.341-1.321,11.312.371,1.278.988,2.436,1.641,3.585.852,1.499,2.091,3.199,2.399,4.929.254,1.428-.217,2.689-1.422,3.495-2.555,1.709-.154,5.869,2.423,4.145,3.88-2.596,4.679-7,2.8-11.122-1.437-3.153-3.896-5.877-3.521-9.557.191-1.873,1.032-3.737,1.63-5.511.602-1.79,1.177-3.588,1.689-5.406,1.189-4.22,1.534-8.447.416-12.732-2.043-7.826-8.198-14.121-15.667-16.985-7.359-2.821-15.764-1.777-22.555,2.04-6.621,3.721-11.941,9.985-14.371,17.194-1.313,3.896-1.582,8.09-.758,12.119.756,3.698,2.631,8.1,6.175,9.916,3.667,1.879,8.289.605,11.017-2.339,1.423-1.536,2.283-3.516,2.256-5.628-.026-2.02-.339-3.984-.159-6.016.339-3.823,2.185-7.424,6.038-8.654,3.336-1.065,7.027.012,8.656,3.255,1.785,3.553-.52,7.796-1.581,11.242-1.145,3.722-1.771,7.468-1.207,11.352.611,4.209,2.584,8.463,4.871,12.024,1.984,3.089,4.596,6,8.459,6.401,2.061.214,4.071-.552,5.813-1.595,2.648-1.585.237-5.737-2.423-4.145Z"/><path class="f" d="m60.401,145.885c-.203.123-.414.23-.619.35-.054.031-.419.196-.065.047-.35.148-.726.259-1.096.345-.148.034-.296.063-.446.09.52-.092-.196.008-.259.011-.371.017-.748.01-1.117-.036.54.068-.179-.056-.239-.07-.144-.035-.288-.076-.43-.121.006.002-.622-.275-.333-.118.295.16-.287-.178-.272-.169-.116-.069-.231-.141-.343-.215-.004-.003-.511-.395-.237-.163s-.2-.187-.202-.189c-.14-.129-.274-.264-.404-.404-.106-.115-.204-.236-.307-.354-.237-.273.285.469-.011-.032-.154-.261-.323-.508-.462-.779-.054-.106-.103-.215-.156-.321.248.496.057.15.009.002-.097-.303-.197-.601-.267-.912-.03-.135-.041-.283-.081-.416-.099-.331.031.6.013.059-.009-.272-.03-.54-.02-.812.004-.106.015-.211.019-.317.018-.509-.143.38-.016.098.133-.294.174-.695.274-1.012-.151.476-.032.078.035-.054.075-.148.156-.293.243-.434.071-.115.148-.225.222-.337-.291.442.084-.098.14-.161.216-.241.448-.468.692-.681.077-.067.458-.355.131-.118.147-.107.296-.21.448-.308.305-.195.625-.356.947-.521.169-.087.371-.287-.053.013.078-.055.237-.093.333-.127.369-.132.747-.242,1.13-.321.136-.028.276-.056.414-.075-.564.078.164.009.234.007.152-.004.302.005.454.004.68-.007-.218-.082.178.006.364.08.725.161,1.073.298-.438-.173.116.074.17.104.164.09.317.194.477.29.363.219.036.013-.036-.045.145.117.286.239.421.367.205.193.382.409.574.613.251.267-.302-.464.022.036.068.105.14.208.206.314.1.16.193.323.281.49.062.118.288.645.076.111.128.322.238.649.325.985.039.152.068.307.104.46.14.596-.021-.502.018.108.022.345.035.687.015,1.033-.009.155-.09.57.016.016-.035.186-.067.37-.113.554-.039.156-.084.309-.134.461-.031.097-.065.193-.103.288.112-.258.11-.262-.007-.011-.173.301-.338.599-.533.887.29-.429-.103.117-.152.172-.143.159-.294.312-.45.458-.106.099-.215.193-.325.287.359-.308-.328.22-.408.272-1.054.679-1.584,2.162-.861,3.284.68,1.054,2.155,1.588,3.284.861,3.553-2.288,5.376-6.349,4.255-10.497-1.05-3.888-4.479-6.971-8.6-7.007-3.528-.031-7.167,2.009-9.009,5.008s-1.491,7.056.513,9.894c1.32,1.87,3.242,3.389,5.518,3.87,2.525.534,5.117.065,7.322-1.268,1.074-.649,1.571-2.183.861-3.284-.696-1.079-2.134-1.556-3.284-.861Z"/><path class="d" d="m131.952,145.618c9.017-3.519,22.063-2.887,28.079,5.542.932,1.307,1.643,2.938,1.488,4.683-.183,2.059-1.814,4.435-3.782,4.446l-1.717.009c.762.423,1.523.846,1.523.846,1.155.642,2.129,1.247,3.026,2.218,2.152,2.332,2.546,5.019.92,7.561-.406.635-.91,1.228-1.564,1.601-1.51.861-2.947.675-4.314.071,1.203,1.58,2.225,2.922,2.225,2.922,1.585,2.082,1.376,4.694-.047,6.441-1.354,1.661-3.965,1.835-6.124,1.194,1.464,3.676-.855,8.115-4.39,9.598-3.016,1.265-5.953-1.181-8.868-.03-2.2.869-2.879,3.441-4.632,4.832-1.569,1.245-3.777,1.757-5.736,1.817-4.236.132-8.833-1.776-11.812-4.775-5.338-5.374-5.07-13.411-4.354-20.421,1.357-13.273,7.518-23.893,20.395-28.675"/><path class="f" d="m131.63,143.184c-6.63,2.501-12.321,6.685-16.218,12.657-3.822,5.858-5.441,12.728-6.063,19.612-.676,7.491-.236,15.966,5.739,21.372,5.681,5.139,16.693,7.712,21.961.653.937-1.256,1.599-2.731,3.366-2.669,2.178.077,4.145.968,6.37.569,4.575-.819,7.773-5.685,7.722-10.129-.035-3.087-4.835-3.095-4.8,0,.03,2.601-1.997,5.686-4.867,5.455-1.671-.135-3.273-.782-4.974-.694-1.804.093-3.467.806-4.73,2.107-1.01,1.04-1.622,2.452-2.7,3.421-1.016.913-2.505,1.302-3.841,1.401-3.331.247-6.734-.881-9.385-2.895-5.343-4.058-5.621-11.17-5.169-17.294.431-5.842,1.603-11.692,4.513-16.839,3.199-5.658,8.286-9.811,14.351-12.099,1.212-.457,2.042-1.62,1.676-2.952-.32-1.163-1.733-2.136-2.952-1.676h0Z"/><path class="f" d="m157.737,162.688c3.79-.258,6.398-4.051,6.19-7.708-.201-3.541-2.633-6.643-5.319-8.777-4.855-3.859-11.204-5.283-17.319-4.959-3.401.18-6.793.838-9.976,2.059-1.21.464-2.044,1.615-1.676,2.952.318,1.157,1.736,2.143,2.952,1.676,5.494-2.107,11.748-2.652,17.419-.916,2.693.824,5.172,2.241,7.09,4.321,1.007,1.092,2.082,2.513,2.041,4.072-.02.749-.609,2.425-1.403,2.48-1.293.088-2.4,1.04-2.4,2.4,0,1.231,1.1,2.489,2.4,2.4h0Z"/><path class="f" d="m143.793,158.64c2.845.572,5.842,1.387,8.405,2.507,1.272.556,2.512,1.183,3.73,1.848,1.187.648,2.365,1.294,3.22,2.368.754.948,1.082,1.99.889,2.924-.207.999-.846,2.011-1.557,2.289-.156.061-.36.116-.53.142.057-.009.264-.036-.016-.013-.048.004-.575-.014-.325.01.216.02-.193-.038-.191-.038-.684-.147-.878-.26-1.521-.626-1.117-.636-2.129-1.434-3.212-2.123-2.979-1.896-6.613-2.846-10.073-3.368-1.28-.193-2.58.322-2.952,1.676-.312,1.134.387,2.758,1.676,2.952,3.318.5,6.671,1.347,9.478,3.248,2.724,1.844,5.769,3.969,9.21,2.667,3.723-1.409,5.773-6.066,4.465-9.808s-4.621-5.74-8-7.419c-3.632-1.805-7.445-3.066-11.418-3.865-1.27-.255-2.592.365-2.952,1.676-.325,1.183.399,2.696,1.676,2.952h0Z"/><path class="f" d="m155.764,176.728c.555.77.779,1.335.777,2.004,0,.108-.046.585.004.267-.039.25-.113.51-.196.748.111-.316-.433.748-.257.513-.409.548-.718.676-1.562.818-.168.031-.166.03.006-.003l-.258.015c-.217-.005-.434.006-.651-.004-.399-.019-.494-.029-1.045-.172-1.903-.492-3.565-1.679-5.352-2.495-2.351-1.074-4.799-1.825-7.405-1.834-3.089-.01-3.093,4.79,0,4.8,5.277.018,9.147,4.733,14.453,4.504,2.651-.114,5.08-1.36,6.266-3.816,1.211-2.507,1.004-5.498-.635-7.77-.757-1.05-2.089-1.56-3.284-.861-1.037.606-1.624,2.227-.861,3.284h0Z"/><path class="f" d="m217.855,216.977c-.2,10.437-.755,20.861-1.43,31.277-.084,1.295,1.163,2.4,2.4,2.4,1.369,0,2.316-1.101,2.4-2.4.675-10.416,1.23-20.84,1.43-31.277.059-3.09-4.741-3.09-4.8,0h0Z"/></g></svg>