<svg xmlns="http://www.w3.org/2000/svg" width="295.394" height="232.485" viewBox="0 0 295.394 232.485"><defs><style>.a{fill:#74c66d;}.b{fill:#211715;}</style></defs><path class="a" d="M101.253,159.385V135.448a8.116,8.116,0,0,0-8.116-8.115H55.969a8.115,8.115,0,0,0-8.115,8.115v21.994a8.282,8.282,0,0,0,2.6,5.994q4.812,4.581,9.366,9.423a8.149,8.149,0,0,1,2.194,5.588q0,6.2,0,12.4a8.116,8.116,0,0,0,8.116,8.116H93.137a8.116,8.116,0,0,0,8.116-8.115Z"/><path class="a" d="M122.294,166.793v14.041a8.11,8.11,0,0,0,8.115,8.109h33.623a8.115,8.115,0,0,0,8.115-8.115V166.787a8.115,8.115,0,0,0-8.115-8.115H130.409A8.12,8.12,0,0,0,122.294,166.793Z"/><rect class="a" x="2.401" y="216.084" width="32.84" height="13.959" rx="6.979"/><path class="a" d="M116.812,134.385V123.247a8.116,8.116,0,0,1,8.116-8.115h83.691a8.121,8.121,0,0,0,8.116-8.121c0-7.213,0-12.275,0-19.488a8.119,8.119,0,0,1,8.115-8.12h43.1a8.109,8.109,0,0,1,8.116,8.107v91.882a8.1,8.1,0,0,1-8.109,8.108c-18.094,0-55.439,0-71.911,0a8.11,8.11,0,0,1-8.109-8.115V150.615a8.115,8.115,0,0,0-8.115-8.115h-54.9A8.116,8.116,0,0,1,116.812,134.385Z"/><path class="a" d="M284.874,2.4H234.349a8.115,8.115,0,0,0-8.115,8.115V55.51a8.115,8.115,0,0,0,8.115,8.115h50.524a8.116,8.116,0,0,0,8.116-8.115c0-14.485,0-34.109,0-45A8.11,8.11,0,0,0,284.874,2.4Z"/><path class="b" d="M103.653,159.385V139.377c0-3.274.257-6.6-1.6-9.51a10.711,10.711,0,0,0-8.229-4.9c-.636-.051-1.282-.029-1.92-.029H58.957c-2.785,0-5.446-.092-8.014,1.279a10.5,10.5,0,0,0-5.34,7.58,22.271,22.271,0,0,0-.149,3.356v11.777c0,2.829-.054,5.664,0,8.493a11.334,11.334,0,0,0,1.011,4.5,15.136,15.136,0,0,0,3.657,4.533q2.3,2.227,4.545,4.515a29.18,29.18,0,0,1,4.019,4.326,8.053,8.053,0,0,1,.923,4.647q0,3.346,0,6.694c0,3.615-.288,7.25,1.97,10.322a10.727,10.727,0,0,0,8.546,4.409c.73.014,1.461,0,2.191,0,6.9,0,13.814.095,20.716,0a10.676,10.676,0,0,0,10.622-10.532c.036-2.209,0-4.422,0-6.632V159.385c0-3.089-4.8-3.094-4.8,0v28.471c0,2.328.28,4.766-1.346,6.682-2.016,2.376-4.958,2.022-7.736,2.022H77.964c-2.6,0-5.2.04-7.8,0a5.78,5.78,0,0,1-4.98-2.831,6.778,6.778,0,0,1-.78-3.629v-6.446c0-3.772.473-7.83-1.79-11.108a34.981,34.981,0,0,0-3.894-4.3q-2.149-2.211-4.357-4.367c-1.982-1.936-4.068-3.539-4.113-6.53-.014-.963,0-1.926,0-2.889,0-6.387-.174-12.8,0-19.184a5.755,5.755,0,0,1,3.722-5.195,7.578,7.578,0,0,1,2.708-.349h31.37c1.692,0,3.386-.029,5.077,0a5.8,5.8,0,0,1,5.249,3.41,7.761,7.761,0,0,1,.469,3.227v23.015C98.853,162.473,103.653,162.478,103.653,159.385Z"/><path class="b" d="M119.894,166.793v7.8c0,2.238-.122,4.517.018,6.75a10.675,10.675,0,0,0,7.232,9.478,14.238,14.238,0,0,0,4.683.519h5.512c8.865,0,17.741.13,26.606,0a10.735,10.735,0,0,0,8.91-4.8c1.462-2.219,1.692-4.692,1.692-7.256,0-4.268.187-8.579-.007-12.843a10.665,10.665,0,0,0-7.09-9.6,14.045,14.045,0,0,0-4.782-.576H133.922c-1.141,0-2.284-.016-3.426,0a10.533,10.533,0,0,0-10.6,10.521c-.064,3.09,4.736,3.09,4.8,0a5.774,5.774,0,0,1,5.372-5.714c.822-.044,1.654-.007,2.476-.007h27.484c3.1,0,6.633-.5,8.684,2.423,1.1,1.566,1.037,3.278,1.037,5.083v7.308c0,1.639.028,3.28,0,4.919a5.8,5.8,0,0,1-5,5.713,22.619,22.619,0,0,1-2.591.025H141.459c-3.539,0-7.079.01-10.619,0a5.737,5.737,0,0,1-6.146-6.06c-.007-2.105,0-4.211,0-6.317v-7.373C124.694,163.7,119.894,163.7,119.894,166.793Z"/><path class="b" d="M0,223.063a9.484,9.484,0,0,0,8.687,9.346c1.666.142,3.376.034,5.045.034,4.827,0,9.664.1,14.49,0a9.381,9.381,0,0,0,2.692-18.378,21.183,21.183,0,0,0-5.985-.381H16.122c-2.223,0-4.451-.04-6.674,0A9.529,9.529,0,0,0,0,223.063c-.076,3.09,4.724,3.089,4.8,0a4.647,4.647,0,0,1,4.731-4.579c1.654-.025,3.311,0,4.966,0,4.476,0,8.953-.021,13.429,0a4.7,4.7,0,0,1,4.866,3.852,4.635,4.635,0,0,1-4.549,5.307c-4.037.081-8.084,0-12.122,0-2.123,0-4.246.007-6.369,0a4.671,4.671,0,0,1-4.952-4.58C4.8,219.975,0,219.969,0,223.063Z"/><path class="b" d="M119.212,134.385v-9.713a7.988,7.988,0,0,1,.7-4.169,5.792,5.792,0,0,1,5.026-2.971c3.244-.054,6.494,0,9.738,0h67.509c4.149,0,9,.628,12.539-1.972a10.709,10.709,0,0,0,4.4-8.206c.171-3.695.007-7.434.007-11.134V90.592a15.97,15.97,0,0,1,.3-4.9,5.731,5.731,0,0,1,5.245-3.884c5.059-.14,10.14,0,15.2,0h23.479c1.53,0,3.063-.028,4.593,0a5.816,5.816,0,0,1,5.257,3.413,9.655,9.655,0,0,1,.461,4.035v88.027c0,2.577-.033,5.007-2.286,6.7-1.923,1.444-4.35,1.123-6.61,1.123H197.293c-2.341,0-4.478-.358-5.919-2.423a6.384,6.384,0,0,1-1.035-3.791c-.013-7.059,0-14.118,0-21.177,0-2.343.035-4.69,0-7.033A10.672,10.672,0,0,0,179.814,140.1c-4.445-.075-8.9,0-13.344,0H141.541c-5.4,0-10.794.013-16.191,0a5.837,5.837,0,0,1-6.138-5.715c-.064-3.085-4.864-3.1-4.8,0A10.678,10.678,0,0,0,125.023,144.9c1.612.021,3.226,0,4.838,0H175.4c1.463,0,2.927-.024,4.389,0a5.775,5.775,0,0,1,4.966,2.83,6.713,6.713,0,0,1,.78,3.537v21.88c0,2.186-.091,4.393.007,6.578a10.7,10.7,0,0,0,4.527,8.3c2.437,1.732,5.175,1.876,8.049,1.876H266.85c3.171,0,6.075-.7,8.427-2.963,2.475-2.379,3.191-5.46,3.191-8.772V93.011c0-3.068.42-6.469-.756-9.371a10.629,10.629,0,0,0-6.806-6.217A22.772,22.772,0,0,0,264.5,77H229.855c-1.665,0-3.333-.029-5,0a10.637,10.637,0,0,0-7.772,3.431,10.819,10.819,0,0,0-2.374,4.294,20.283,20.283,0,0,0-.377,5.407V101.5c0,1.988.146,4.042-.017,6.022a5.722,5.722,0,0,1-1.224,3.061c-1.446,1.811-3.466,2.147-5.6,2.147H126.817a16.681,16.681,0,0,0-4.843.421,10.64,10.64,0,0,0-6.806,6.223,13.952,13.952,0,0,0-.756,5.385v9.624C114.412,137.473,119.212,137.478,119.212,134.385Z"/><path class="b" d="M284.874,0H241.965c-2.386,0-4.773-.006-7.16,0-5.163.013-9.953,3.4-10.8,8.693a40.555,40.555,0,0,0-.173,6.342V52.177c0,2.731-.145,5.365,1.065,7.924,1.947,4.122,6.079,5.924,10.419,5.924h45.973c2.137,0,4.467.194,6.536-.421a10.686,10.686,0,0,0,7.091-6.985,17.4,17.4,0,0,0,.471-5.357V14.091c0-3.284.188-6.587-1.782-9.425A10.766,10.766,0,0,0,284.874,0c-3.09-.064-3.09,4.736,0,4.8a5.767,5.767,0,0,1,5.509,4.191,15.09,15.09,0,0,1,.206,4v37.36c0,2.769.631,6.231-1.138,8.6-1.654,2.219-4.079,2.266-6.535,2.266H237.664c-1.727,0-3.825.254-5.457-.405a5.79,5.79,0,0,1-3.573-5.318c-.009-.5,0-.991,0-1.487V11.222a7.325,7.325,0,0,1,.405-2.846A5.79,5.79,0,0,1,234.356,4.8c1.551-.026,3.1,0,4.656,0h45.862C287.962,4.8,287.967,0,284.874,0Z"/></svg>