<svg width="44" height="44" viewBox="0 0 44 44" fill="none" xmlns="http://www.w3.org/2000/svg">
<path d="M21.9997 42.9957C33.595 42.9957 42.9949 33.5958 42.9949 22.0005C42.9949 10.4051 33.595 1.0052 21.9997 1.0052C10.4043 1.0052 1.00439 10.4051 1.00439 22.0005C1.00439 33.5958 10.4043 42.9957 21.9997 42.9957Z" fill="white"/>
<path d="M41.9929 22.0005C41.9823 26.168 40.6823 30.2302 38.2712 33.6296C35.9307 36.908 32.6537 39.4024 28.8704 40.7854C24.9791 42.2082 20.7419 42.3873 16.7445 41.2979C12.747 40.2085 9.18654 37.9045 6.55511 34.7042C3.92367 31.5039 2.35116 27.5653 2.05487 23.4326C1.75859 19.3 2.75315 15.1773 4.90113 11.6344C7.02844 8.12485 10.1839 5.35475 13.9394 3.69995C17.6949 2.04515 21.8686 1.58575 25.8941 2.38411C29.9196 3.18246 33.602 5.19991 36.4418 8.1627C39.2815 11.1255 41.1409 14.8902 41.7679 18.9459C41.9214 19.9568 41.9964 20.978 41.9929 22.0005C41.9975 23.2898 44.002 23.2923 43.9974 22.0005C43.9936 17.4308 42.5696 12.9752 39.9225 9.25033C37.9696 6.50207 35.4108 4.23976 32.4439 2.63836C29.4771 1.03695 26.1817 0.139355 22.8125 0.014969C19.4434 -0.109417 16.0907 0.542742 13.0139 1.92102C9.937 3.2993 7.21835 5.36676 5.06814 7.96355C2.9099 10.564 1.38012 13.627 0.597597 16.9146C-0.184926 20.2022 -0.199131 23.6259 0.556087 26.9198C1.3113 30.2138 2.81562 33.2894 4.95221 35.9077C7.08879 38.526 9.80015 40.6166 12.8757 42.0171C15.9602 43.4239 19.3282 44.0986 22.7165 43.9884C26.1049 43.8781 29.4219 42.986 32.4084 41.3816C35.3949 39.7772 37.97 37.5041 39.9326 34.7397C41.8952 31.9754 43.192 28.7947 43.7219 25.4462C43.8984 24.3059 43.9904 23.154 43.997 22C44.0016 20.7108 41.9975 20.7091 41.9929 22.0005Z" fill="#211715"/>
<path d="M32.4991 22.0005C32.5391 25.9965 31.8544 29.9667 30.4784 33.7185C29.9057 35.2419 29.1486 36.6894 28.2238 38.0285C27.4816 39.1146 26.5556 40.0629 25.4874 40.8305C25.2399 40.9981 24.9838 41.1526 24.72 41.2931C24.484 41.4266 24.2363 41.5384 23.9801 41.6271C23.7136 41.7237 23.4412 41.8036 23.1647 41.8663C23.0194 41.8992 22.873 41.927 22.7255 41.9499C22.6162 41.9534 22.5072 41.963 22.399 41.9787C21.858 42.0246 21.3131 41.9823 20.7857 41.8534C20.2587 41.7395 19.7511 41.5495 19.2789 41.2893C16.7942 39.9671 15.1133 37.3576 13.9526 34.764C12.455 31.2368 11.6345 27.4594 11.534 23.6288C11.3249 19.5508 11.8438 15.4682 13.0662 11.5721C14.0173 8.64494 15.4778 5.69768 17.8443 3.67857C18.7143 2.91799 19.7582 2.38328 20.8838 2.12165C21.1017 2.06209 21.326 2.02901 21.5519 2.02312C22.4118 1.95271 23.2764 2.08409 24.0766 2.40681C25.1633 2.87183 26.1408 3.55903 26.9462 4.42426C27.9696 5.51384 28.8277 6.74765 29.493 8.0863C31.1936 11.3688 32.0528 15.1043 32.363 18.7701C32.4541 19.8448 32.4958 20.9224 32.4983 22.0005C32.5017 23.2898 34.5057 23.2923 34.5024 22.0005C34.4924 17.7109 33.8527 13.3311 32.2478 9.33467C31.0199 6.27469 29.2221 3.23433 26.4101 1.38097C25.2402 0.593457 23.8806 0.133956 22.4729 0.0503177C21.0652 -0.0333201 19.6607 0.261964 18.4059 0.905423C15.5709 2.34252 13.6044 5.21086 12.3101 8.02576C10.5941 11.9216 9.64965 16.1131 9.52903 20.3684C9.30634 24.7313 9.88294 29.0982 11.2304 33.2538C12.316 36.4687 13.986 39.7892 16.6844 41.9524C18.8973 43.7251 21.7681 44.5547 24.5133 43.5615C27.5144 42.4759 29.6726 39.8548 31.1284 37.1104C33.0403 33.5072 33.9914 29.4473 34.3533 25.4062C34.4548 24.2734 34.5011 23.1374 34.5036 22.0005C34.507 20.7108 32.5029 20.7091 32.4991 22.0005Z" fill="#211715"/>
<path d="M3.93504 11.8231C6.16709 12.6928 8.5841 13.0568 10.9493 13.3574C13.4327 13.6727 15.9362 13.8409 18.4375 13.9328C23.0447 14.1153 27.6592 13.9553 32.2427 13.4539C34.8701 13.1583 37.5827 12.788 40.062 11.8256C40.314 11.7485 40.527 11.5778 40.6572 11.3486C40.7874 11.1194 40.825 10.8491 40.7621 10.5931C40.6898 10.3378 40.5199 10.1213 40.2892 9.99037C40.0584 9.85942 39.7854 9.82455 39.5292 9.89331C37.3714 10.6589 35.1279 11.1571 32.8489 11.3767C30.4319 11.6757 27.9966 11.836 25.5633 11.927C21.0197 12.1048 16.4693 11.9513 11.948 11.4678C9.43124 11.1918 6.83971 10.8106 4.46821 9.88704C4.21204 9.8183 3.93909 9.85318 3.70844 9.98414C3.47778 10.1151 3.30796 10.3316 3.2357 10.5868C3.17115 10.8428 3.20787 11.1139 3.33823 11.3435C3.4686 11.5731 3.68253 11.7435 3.93546 11.8193L3.93504 11.8231Z" fill="#211715"/>
<path d="M4.59294 34.3105C6.70731 33.5764 8.90072 33.0937 11.1279 32.8722C13.5675 32.567 16.0254 32.4046 18.4816 32.3165C22.9859 32.1401 27.4971 32.2908 31.9796 32.7674C34.4771 33.0417 37.0399 33.4195 39.403 34.3064C39.6592 34.3749 39.9321 34.3399 40.1628 34.209C40.3935 34.0781 40.5634 33.8617 40.6359 33.6066C40.7008 33.3505 40.6642 33.0793 40.5337 32.8496C40.4032 32.6199 40.1889 32.4495 39.9358 32.3741C37.7415 31.6273 35.4689 31.1347 33.1624 30.9057C30.6573 30.5804 28.1321 30.4088 25.6091 30.3153C21.0078 30.128 16.3989 30.285 11.821 30.785C9.21276 31.0827 6.52938 31.4464 4.06019 32.377C3.80796 32.4538 3.5948 32.6245 3.46462 32.8538C3.33444 33.0831 3.29715 33.3536 3.36043 33.6095C3.43278 33.8647 3.60262 34.0811 3.83325 34.212C4.06388 34.343 4.33677 34.3779 4.59294 34.3093V34.3105Z" fill="#211715"/>
<path d="M1.65776 23.0025H42.3415C43.6312 23.0025 43.6333 20.9984 42.3415 20.9984H41.65C40.3603 20.9984 40.3582 23.0025 41.65 23.0025H42.3415V20.9984H1.65776C0.368053 20.9984 0.365965 23.0025 1.65776 23.0025Z" fill="#211715"/>
<path d="M20.9976 1.65861V42.3423C20.9976 43.632 23.0016 43.6341 23.0016 42.3423V41.6509C23.0016 40.3612 20.9976 40.3591 20.9976 41.6509V42.3423H23.0016V1.65861C23.0016 0.3689 20.9976 0.366812 20.9976 1.65861Z" fill="#211715"/>
</svg>
