<svg width="117" height="86" viewBox="0 0 117 86" fill="none" xmlns="http://www.w3.org/2000/svg">
<path d="M2.13524 9.65909C2.12924 30.0071 2.12124 56.3731 2.11524 76.8791C2.11471 77.7701 2.28988 78.6524 2.63072 79.4756C2.97156 80.2988 3.47138 81.0467 4.10158 81.6766C4.73179 82.3064 5.48 82.8058 6.30341 83.1461C7.12682 83.4865 8.00926 83.6611 8.90024 83.6601C32.4732 83.6671 82.6682 83.6901 107.318 83.6941C108.209 83.6947 109.091 83.5198 109.914 83.1794C110.737 82.8389 111.484 82.3395 112.114 81.7098C112.744 81.0801 113.244 80.3324 113.584 79.5095C113.925 78.6866 114.1 77.8047 114.099 76.9141C114.099 56.4141 114.107 30.0511 114.119 9.69809C114.121 8.80755 113.946 7.9255 113.606 7.10241C113.266 6.27932 112.767 5.53136 112.138 4.90133C111.509 4.2713 110.761 3.77157 109.938 3.43075C109.116 3.08992 108.234 2.91469 107.343 2.91509C86.6702 2.90809 31.9552 2.88809 8.92224 2.88209C8.03139 2.88064 7.149 3.05487 6.32556 3.39481C5.50213 3.73476 4.7538 4.23374 4.12341 4.86319C3.49303 5.49265 2.99295 6.24024 2.65179 7.06318C2.31064 7.88611 2.1351 8.76824 2.13524 9.65909Z" fill="white"/>
<path d="M0.13511 9.65899C0.13111 24.9443 0.126443 40.229 0.12111 55.513V67.026C0.12111 70.501 -0.16389 74.113 0.15311 77.573C0.295737 79.2147 0.892629 80.7843 1.87693 82.1059C2.86122 83.4276 4.19405 84.4491 5.72611 85.056C8.09211 85.996 10.8851 85.661 13.3871 85.662L48.3361 85.674L87.0431 85.689H103.326C106.063 85.689 108.9 85.974 111.414 84.675C112.846 83.9011 114.039 82.7506 114.865 81.3479C115.69 79.9452 116.117 78.3435 116.098 76.716C116.225 61.394 116.098 46.065 116.107 30.743L116.113 19.488V14.001C116.189 12.2779 116.171 10.5521 116.059 8.83099C115.888 7.19324 115.265 5.63546 114.258 4.33255C113.251 3.02964 111.901 2.03316 110.359 1.45499C108.227 0.654988 105.785 0.909986 103.542 0.909986L72.3001 0.899988L35.5401 0.889986L19.1521 0.884985H12.2601C9.71411 0.884985 7.16011 0.684985 4.82111 1.89799C3.41754 2.65457 2.24249 3.77362 1.41833 5.1386C0.594171 6.50359 0.151048 8.06457 0.13511 9.65899C0.0701101 12.234 4.07011 12.233 4.13511 9.65899C4.14693 8.42481 4.63136 7.24211 5.48871 6.35426C6.34606 5.4664 7.5111 4.94094 8.74411 4.88599C10.7621 4.81599 12.7951 4.88599 14.8151 4.88599H29.4541L64.2361 4.89798L96.7191 4.90899H102.981C104.814 4.90899 107.067 4.57799 108.825 5.14399C109.955 5.51353 110.906 6.29217 111.491 7.32699C112.063 8.61638 112.279 10.0359 112.114 11.437C112.114 14.8837 112.112 18.3303 112.109 21.777C112.101 36.663 112.096 51.549 112.095 66.435C112.095 69.862 112.123 73.29 112.095 76.716C112.131 77.9826 111.668 79.2128 110.807 80.1421C109.945 81.0714 108.754 81.6257 107.488 81.686C102.688 81.848 97.8531 81.686 93.0491 81.686L56.7781 81.674L21.1851 81.66H13.9141H10.5771C9.46046 81.7589 8.33513 81.6614 7.25211 81.372C6.08311 80.9435 5.12665 80.0771 4.58511 78.956C4.10901 77.6011 3.9486 76.1553 4.11611 74.729V64.304C4.12011 49.4207 4.12444 34.538 4.12911 19.656V9.65598C4.13611 7.08498 0.13611 7.08099 0.13511 9.65899Z" fill="#211715"/>
<path d="M11.4292 17.772C22.9258 27.948 34.6161 37.9003 46.5001 47.629C47.9788 48.8376 49.4621 50.042 50.9501 51.242C52.2633 52.4482 53.6675 53.5514 55.1502 54.542C55.9016 54.9656 56.7387 55.2148 57.5995 55.2712C58.4603 55.3276 59.3228 55.1898 60.1231 54.868C61.7991 54.192 63.2302 52.726 64.6352 51.613C71.0945 46.5003 77.4612 41.2723 83.7352 35.929C90.8405 29.9063 97.8622 23.7903 104.8 17.581C106.726 15.864 103.889 13.044 101.972 14.752C90.1692 25.273 78.2001 35.614 65.8791 45.532C64.5258 46.6206 63.1688 47.704 61.8081 48.782C61.0721 49.365 60.3402 49.955 59.5942 50.526C59.1314 51.0042 58.5003 51.2829 57.8351 51.303C57.1822 51.1447 56.5908 50.7967 56.1351 50.303C55.4631 49.765 54.7915 49.2253 54.1201 48.684C52.7501 47.5806 51.3835 46.4733 50.0201 45.362C44.2441 40.654 38.5175 35.884 32.8402 31.052C26.5928 25.744 20.3985 20.3746 14.2572 14.944C12.3362 13.244 9.49715 16.062 11.4292 17.772Z" fill="#211715"/>
</svg>
