<?xml version="1.0" encoding="UTF-8"?><svg id="b" xmlns="http://www.w3.org/2000/svg" width="174.008" height="289.294" viewBox="0 0 174.008 289.294"><defs><style>.f{fill:#211715;}.f,.g,.h,.i{stroke-width:0px;}.g{fill:#fff;}.h{fill:#3d8dcc;}.i{fill:#b3b3b3;}</style></defs><g id="c"><g id="d"><path class="h" d="M162.898,39.438c-49.011.018-113.247.036-160.184.054,0,0-.244,0-.712,0v210.382c.455-.001.692-.001.692-.001,49.924-.019,119.383-.038,169.307-.058,0-44.515,0-165.912,0-210.38-2.968.001-6.006.002-9.104.003Z"/><path class="g" d="M2.002,268.081c0,10.609,8.6,19.209,19.209,19.209h131.581c10.609,0,19.209-8.6,19.209-19.209v-18.26c-52.867.015-117.262.03-170,.045v18.215Z"/><path class="g" d="M172.002,21.22c0-10.609-8.6-19.209-19.209-19.209H21.211C10.602,2.01,2.002,10.611,2.002,21.22v18.266c50.726-.015,131.237-.035,170-.045v-18.221Z"/><path class="f" d="M172.002,37.435c-4.607.002-9.214.003-13.821.005-10.647.003-21.295.007-31.942.01-13.984.005-27.969.009-41.953.014-14.294.005-28.589.01-42.883.015-11.918.004-23.836.008-35.754.013-1.216,0-2.431.002-3.647,0-2.574-.002-2.578,3.998,0,4,11.506.008,23.012-.008,34.518-.012,14.152-.005,28.303-.01,42.455-.015,14.186-.005,28.371-.01,42.557-.014,11.19-.004,22.38-.007,33.57-.011,5.488-.002,10.991.116,16.478-.005.141-.003.282,0,.423,0,2.574,0,2.578-4.001,0-4h0Z"/><path class="f" d="M2.002,251.874c21.668-.044,43.337-.016,65.005-.023,23.173-.008,46.345-.015,69.518-.023,11.826-.004,23.651-.008,35.477-.013,2.574,0,2.578-4.001,0-4-21.864.008-43.728.016-65.592.023-23.153.008-46.307.015-69.46.023-11.649.004-23.299-.01-34.948.013-2.574.005-2.578,4.005,0,4h0Z"/><path class="f" d="M152.792,285.291h-28.638c-9.256,0-18.513,0-27.769,0-9.783,0-19.567,0-29.35,0-8.599,0-17.198,0-25.797,0-5.538,0-11.077,0-16.615,0-1.084,0-2.169.006-3.253,0-4.832-.028-9.388-1.913-12.718-5.442-3.045-3.226-4.623-7.482-4.65-11.893-.004-.64,0-1.281,0-1.922v-10.005c0-5.689,0-11.379,0-17.068,0-7.479,0-14.958,0-22.438,0-8.828,0-17.655,0-26.483,0-9.582,0-19.164,0-28.745s0-19.83,0-29.744c0-9.688,0-19.376,0-29.064s0-17.811,0-26.717c0-7.696,0-15.392,0-23.087,0-5.902,0-11.805,0-17.707v-10.957c0-3.785.14-7.403,2.013-10.882,3.016-5.602,8.852-9.072,15.2-9.125.758-.006,1.517,0,2.275,0,5.089,0,10.179,0,15.268,0,8.297,0,16.593,0,24.89,0h29.336c9.373,0,18.746,0,28.119,0h21.757c3.268,0,6.537-.022,9.805,0,9.599.065,17.281,7.773,17.337,17.366.012,2.041,0,4.082,0,6.122v33.91c0,8.22,0,16.439,0,24.659v174.874c0,2.271.005,4.541,0,6.812-.022,9.58-7.55,17.438-17.209,17.537-2.572.026-2.579,4.026,0,4,11.722-.12,21.168-9.686,21.209-21.392.007-2.115,0-4.229,0-6.344v-118.045c0-9.934,0-19.867,0-29.801s0-18.766,0-28.15V26.922c0-1.88.014-3.76,0-5.64C173.917,9.6,164.416.097,152.733.01c-3.159-.023-6.318,0-9.477,0-7.261,0-14.521,0-21.782,0-9.497,0-18.994,0-28.49,0-9.823,0-19.647,0-29.47,0-8.386,0-16.771,0-25.157,0-5.036,0-10.071,0-15.107,0-.945,0-1.896-.022-2.841.016C13.485.311,7.075,4,3.324,9.823.606,14.043.002,18.743.002,23.597v10.616c0,5.893,0,11.786,0,17.68,0,7.718,0,15.435,0,23.153,0,9.012,0,18.023,0,27.035s0,19.551,0,29.327,0,20.019,0,30.028,0,19.337,0,29.005,0,17.782,0,26.674S.002,232.188.002,239.725c0,5.652,0,11.304,0,16.956v9.712c0,.548-.004,1.096,0,1.644.043,5.619,2.227,11.054,6.213,15.04s9.444,6.173,15.078,6.213c.997.007,1.994,0,2.992,0,5.511,0,11.022,0,16.532,0,8.649,0,17.297,0,25.946,0,9.921,0,19.843,0,29.764,0h27.988c6.848,0,13.696,0,20.544,0h7.734c2.574,0,2.578-4,0-4Z"/></g><g id="e"><path class="g" d="M71.524,157.161c-12.412,2.597-24.375,6.786-30.298,19.007-1.852,3.82-2.938,9.177.606,12.391,1.794,1.627,4.142,2.479,6.446,3.22,12.491,4.021,24.854,5.651,38.724,5.651,13.87,0,26.233-1.63,38.724-5.651,2.304-.742,4.652-1.594,6.446-3.22,3.543-3.214,2.457-8.571.606-12.391-5.923-12.221-17.886-16.411-30.298-19.007"/><path class="g" d="M115.009,108.777c.169.889.289,1.787.359,2.689,1.991.103,3.52.141,4.831.241.467.035.871.243,1.233.484.798.53,1.435,1.495,1.609,3.3.482,5.013.152,9.159-.963,13.684-.119.483-.377.99-.706,1.377-.546.641-1.433.929-2.289,1.079-1.435.253-2.43.385-4.365.563-1.568,6.311-5.599,12.25-11.006,15.8-5.143,3.377-10.6,3.992-16.711,3.992-5.823,0-11.568-.616-16.711-3.992-5.414-3.554-9.447-9.502-11.017-15.82-1.764-.169-2.734-.301-4.106-.543-.855-.151-1.743-.439-2.289-1.079-.329-.386-.587-.893-.706-1.377-1.116-4.525-1.445-8.671-.963-13.684.173-1.804.811-2.769,1.609-3.3.363-.241.766-.448,1.233-.484,1.254-.095,2.708-.134,4.582-.227.15-1.956.539-3.891,1.141-5.758.006-.018.011-.035.017-.053,1.297-3.996,3.568-7.68,6.61-10.581,5.401-5.15,12.782-7.33,20.599-7.214,7.817-.117,15.2,2.063,20.602,7.214,3.042,2.901,5.313,6.584,6.61,10.581.006.018.011.035.017.053.323,1.001.584,2.022.78,3.055Z"/><path class="i" d="M73.459,158.78l.077-8.084s.003-.351.007-.949c4.262,1.849,8.835,2.237,13.458,2.237,4.965,0,9.497-.406,13.781-2.369.029,3.148.059,6.3.089,9.452.009.957-.48,1.859-1.3,2.354-3.884,2.346-8.114,3.233-12.396,3.14-4.292.093-8.531-.797-12.422-3.156-.818-.496-1.306-1.396-1.297-2.352l.003-.273Z"/><path class="f" d="M71.537,150.696l-.052,5.391c-.022,2.296-.365,4.828,1.564,6.528,1.597,1.407,3.984,2.26,5.991,2.875,2.073.635,4.259.964,6.423,1.054,4.468.187,8.858-.383,12.949-2.251,2.259-1.032,4.29-2.34,4.45-5.048.167-2.824-.044-5.72-.071-8.549-.025-2.573-4.025-2.579-4,0,.02,2.134.041,4.268.061,6.402.006.635.244,1.729-.047,2.311-.301.602-1.439.967-2.014,1.244-3.362,1.621-7.006,1.975-10.688,1.91-1.753-.031-3.477-.248-5.174-.694-.892-.234-1.778-.521-2.628-.878-.763-.321-1.946-.722-2.539-1.312-.382-.381-.305-.813-.3-1.314l.024-2.515.049-5.153c.025-2.575-3.975-2.577-4,0h0Z"/><path class="f" d="M60.632,111.507c.429-5.026,2.525-9.943,5.909-13.693,3.254-3.606,7.525-5.942,12.224-7.081,4.646-1.126,9.836-1.237,14.542-.404,4.775.845,9.343,2.8,12.882,6.173,4.112,3.92,6.701,9.345,7.184,15.004.217,2.546,4.219,2.569,4,0-.507-5.941-2.785-11.532-6.677-16.064-3.63-4.227-8.641-7.097-14.013-8.472-5.486-1.405-11.486-1.484-17.049-.498-5.503.975-10.76,3.435-14.791,7.343-4.818,4.672-7.642,11.04-8.209,17.691-.219,2.565,3.783,2.55,4,0h0Z"/><path class="f" d="M57.02,131.197c2.019,10.507,10.021,19.681,20.635,21.944,5.481,1.169,11.472,1.17,17.001.328,5.316-.81,10.19-3.193,14.052-6.944,4.216-4.095,7.168-9.559,8.277-15.328.483-2.515-3.371-3.593-3.857-1.063-1.762,9.171-8.434,17.142-17.741,19.151-4.665,1.007-9.884.994-14.603.364-4.859-.649-9.292-2.632-12.796-6.087-3.688-3.636-6.135-8.352-7.11-13.427-.485-2.525-4.341-1.456-3.857,1.063h0Z"/><path class="f" d="M79.583,118.928c.516,1.677.18,5.535-2.997,5.863-4.199-.025-4.423-4.689-3.009-6.882,1.157-1.795,4.56-2.542,6.006,1.019Z"/><path class="f" d="M101.64,118.928c.516,1.677.18,5.535-2.997,5.863-4.199-.025-4.423-4.689-3.009-6.882,1.157-1.795,4.56-2.542,6.006,1.019Z"/><path class="f" d="M91.391,143.588c-.144-2.046,1.418-3.42,4.187-3.517,2.788-.098,4.201,1.013,4.285,2.622.085,1.622-1.207,3.584-3.997,3.767-2.519.165-4.359-1.035-4.475-2.871Z"/><path class="f" d="M115.283,129.763c-2.181,3.185-4.345,6.066-7.646,8.172-4.058,2.589-8.369,3.635-13.139,3.816-2.566.098-2.579,4.098,0,4,5.453-.208,10.514-1.4,15.158-4.363,1.776-1.133,3.486-2.485,4.917-4.037,1.571-1.703,2.859-3.664,4.164-5.57,1.458-2.129-2.007-4.132-3.454-2.019h0Z"/><path class="f" d="M93.391,143.588c-.009-.164-.003-.325-.001-.489.005-.375-.111.52-.024.161.014-.059.024-.119.04-.178.022-.087.052-.171.079-.257.051-.165.163-.167-.1.232.094-.143.185-.307.272-.454-.305.52-.133.17.047.003.361-.336-.389.246.04-.034.14-.091.287-.165.434-.244s.244-.023-.191.076c.103-.023.205-.077.307-.11.182-.058.367-.107.554-.146.094-.02.276-.019.357-.065-.035.02-.509.048-.156.024.499-.035.994-.057,1.494-.018.039.003.203.038.253.024l-.289-.039c.078.012.155.025.233.04.181.035.361.079.538.133.066.021.131.046.198.066.369.115-.442-.228-.113-.048.148.081.289.175.436.255.204.111-.386-.37-.166-.126.037.04.084.076.123.115.051.052.106.143.165.183-.387-.263-.249-.37-.17-.21.033.067.079.145.121.207.098.146-.047.239-.103-.26.014.125.085.345.13.466-.171-.457-.041-.464-.037-.243.001.068.007.135.007.203,0,.054-.005.108-.005.162,0,.267-.153.195.035-.204-.055.117-.059.287-.097.412-.017.055-.037.109-.054.164-.103.327.254-.484.046-.114-.067.118-.127.239-.202.353-.106.163-.293.273.094-.105-.044.043-.082.098-.123.144-.109.121-.23.228-.348.34-.276.26.413-.269.084-.066-.089.055-.174.115-.265.168-.078.045-.159.083-.237.127-.15.084-.365.092.121-.043-.189.052-.369.131-.56.18-.08.02-.16.039-.241.055-.191.039-.473-.019.021.009-.239-.013-.493.039-.734.038-.206,0-.497-.082-.694-.038l.291.039c-.078-.012-.156-.026-.234-.041-.113-.023-.226-.049-.337-.079-.09-.025-.179-.052-.268-.082-.052-.017-.104-.035-.155-.055-.195-.077-.135-.052.181.077-.137-.108-.34-.187-.493-.276-.172-.101-.185-.248.127.107-.062-.071-.147-.127-.214-.194-.063-.063-.122-.156-.191-.21.12.093.282.404.095.102-.04-.064-.069-.141-.113-.202-.07-.141-.035-.052.106.266-.023-.058-.044-.116-.063-.176-.019-.06-.036-.12-.051-.181-.122-.504.028.407,0,.056-.084-1.04-.86-2.051-2-2-1.012.045-2.09.883-2,2,.099,1.228.541,2.382,1.458,3.24.861.805,1.984,1.338,3.148,1.514,2.646.399,5.332-.295,6.943-2.544,1.282-1.789,1.223-4.301-.216-5.966-1.614-1.867-4.579-1.995-6.821-1.564-2.576.495-4.666,2.594-4.51,5.321.059,1.043.877,2.05,2,2,1.033-.046,2.064-.881,2-2Z"/><path class="f" d="M115.055,134.161c2.898-.28,6.742-.283,8.4-3.114.821-1.402,1.018-3.277,1.269-4.858.258-1.627.44-3.267.504-4.913.065-1.668.017-3.338-.117-5.001-.121-1.503-.293-3.029-1.154-4.313-1.872-2.792-5.424-2.34-8.375-2.484-2.573-.125-2.567,3.875,0,4,1.258.061,2.518.103,3.775.174.442.025.697.009,1.065.265-.227-.158.057.046.123.136.081.112.018-.019.141.214.49.926.445,2.137.502,3.159.072,1.282.088,2.566.038,3.849-.094,2.42-.427,4.842-1.035,7.188-.274,1.06-.937,1.114-1.946,1.29-1.059.185-2.122.304-3.192.407-1.075.104-2,.845-2,2,0,1.001.918,2.104,2,2h0Z"/><path class="f" d="M59.197,130.161c-1.069-.103-2.133-.223-3.192-.407-.876-.152-1.609-.198-1.903-1.112-.746-2.319-.984-4.945-1.078-7.366-.05-1.283-.033-2.567.038-3.849.056-1.011.051-2.111.446-3.053.024-.057.263-.445.126-.245.03-.044.454-.392.194-.212.359-.248.635-.241,1.065-.265,1.258-.072,2.517-.113,3.775-.174,2.562-.124,2.577-4.125,0-4-2.927.142-6.397-.301-8.311,2.393-.916,1.29-1.095,2.871-1.218,4.403-.134,1.663-.182,3.333-.117,5.001.064,1.646.246,3.286.504,4.913.246,1.553.455,3.313,1.196,4.717,1.567,2.969,5.547,2.972,8.472,3.255,1.077.104,2-.994,2-2,0-1.168-.92-1.896-2-2h0Z"/><path class="g" d="M118.974,133.195c-4.231,0-7.438-4.092-7.438-11.326s3.875-10.839,7.44-10.839c3.625,0,8.451,2.977,8.451,10.839,0,6.837-3.733,11.326-8.453,11.326Z"/><path class="f" d="M118.974,131.195c-1.247-.021-2.274-.478-3.223-1.519-1.061-1.165-1.634-2.905-1.944-4.508-.705-3.64-.397-8.443,2.492-11.048.872-.786,1.843-1.11,2.85-1.087.922.021,1.94.349,2.974,1.008,1.025.653,2.008,1.936,2.54,3.284.778,1.972.902,4.198.679,6.288-.391,3.675-2.594,7.519-6.369,7.582-2.571.043-2.579,4.043,0,4,10.995-.184,13.715-17.031,6.598-23.5-2.891-2.628-7.283-3.616-10.73-1.448-4.586,2.886-5.726,8.954-5.183,13.972.566,5.227,3.358,10.874,9.315,10.976,2.575.044,2.575-3.956,0-4Z"/><path class="f" d="M70.992,155.233c-11.773,2.478-23.881,6.845-30.325,17.748-2.936,4.968-5.201,12.455-.25,16.993,2.665,2.442,6.313,3.46,9.696,4.469,3.622,1.08,7.298,1.977,11.01,2.688,15.146,2.9,31.036,3.085,46.289.911,3.73-.532,7.435-1.241,11.094-2.138,3.502-.859,7.082-1.781,10.424-3.15,3.161-1.295,6.004-3.273,7.099-6.653.933-2.88.403-6.158-.657-8.927-2.202-5.749-6.324-10.593-11.376-14.051-4.964-3.398-10.785-5.429-16.581-6.884-1.461-.367-2.93-.696-4.404-1.006-2.511-.529-3.585,3.326-1.063,3.857,10.369,2.183,21.454,5.679,27.45,15.118,2.549,4.014,5.364,10.654.154,13.815-2.715,1.646-6.059,2.407-9.093,3.24-3.28.901-6.601,1.651-9.948,2.252-13.785,2.474-28.323,2.629-42.195.762-6.743-.908-13.427-2.423-19.89-4.551-2.455-.809-5.541-1.892-6.543-4.531-.897-2.362-.167-5.194.792-7.418,5.114-11.852,17.694-16.227,29.381-18.687,2.517-.53,1.452-4.387-1.063-3.857h0Z"/></g></g></svg>