<svg width="456" height="366" viewBox="0 0 456 366" fill="none" xmlns="http://www.w3.org/2000/svg">
<g clip-path="url(#clip0_523_1991)">
<path d="M340.753 132.806C349.267 135.669 359.522 133.772 365.082 126.315C369.96 119.773 368.765 112.324 367.64 104.805C367.062 100.937 366.209 97.174 365.903 93.074C365.452 87.049 364.601 79.521 362.325 74.302C360.62 70.4 356.997 64.333 351.148 61.358C348.937 59.976 347.441 59.041 347.441 59.041L346.635 58.537C342.152 56.482 337.458 55.052 330.699 54.749C319.628 54.265 310.25 58.93 305.686 62.919C300.569 67.916 298.322 73.033 295.592 82.744C294.038 88.316 292.442 93.88 291.249 99.544C290.059 105.196 289.31 111.249 290.937 116.901C292.531 122.439 296.338 125.894 301.646 127.794L340.753 132.805V132.806Z" fill="#645D5C"/>
<path d="M351.951 64.147C356.334 67.136 359.589 72.072 361.244 77.073C363.267 83.187 363.38 89.544 364.192 95.865C365.029 102.382 366.842 108.91 366.628 115.524C366.436 121.444 363.511 126.706 358.307 129.637C353.141 132.546 346.836 132.699 341.285 130.878C338.833 130.074 337.783 133.935 340.222 134.735C345.934 136.609 352.341 136.571 357.917 134.245C363.963 131.724 368.701 126.514 370.092 120.033C371.594 113.035 369.801 105.636 368.636 98.718C367.457 91.716 367.509 84.566 365.606 77.677C363.76 70.992 359.747 64.632 353.971 60.693C351.839 59.239 349.836 62.704 351.952 64.147H351.951Z" fill="#211715"/>
<path d="M360.619 105.717C360.344 104.936 359.611 103.549 357.331 102.995C356.283 102.74 354.982 102.798 353.894 103.441C353.894 103.441 353.25 103.548 352.401 103.552C351.595 103.574 350.41 103.652 349.207 103.583C349.009 103.134 348.886 102.854 348.886 102.854C344.985 94.0029 336.132 83.3089 330.359 78.4309C327.473 81.0299 324.616 83.6719 321.456 85.9399C318.428 88.1139 315.187 89.9899 311.795 91.5379C309.273 92.6889 306.667 93.6579 304.004 94.4309C301.296 95.2179 298.613 95.5759 295.82 95.8859C296.052 100.733 296.048 105.579 296.144 110.032C296.245 114.691 296.936 119.124 298.618 122.933C299.616 125.194 300.964 127.235 302.745 128.974C306.124 132.274 309.758 134.398 313.901 135.434V139.057C313.936 141.175 311.668 142.363 309.879 142.978C309.928 145.374 310.214 149.705 310.633 154.918C315.102 156.369 319.866 156.921 324.61 156.625C329.411 156.575 334.152 155.666 338.539 153.858C340.374 149.549 342.097 145.419 343.641 141.641C342.382 140.791 341.382 139.827 340.945 138.769C340.493 137.688 340.239 136.537 340.067 135.379C339.844 133.827 339.762 132.784 339.698 130.902V130.017L341.964 128.29C343.809 126.692 345.343 125.019 346.791 123.235C346.791 123.235 348.212 121.414 348.838 120.357C348.838 120.357 349.003 120.079 349.26 119.647C351.153 120.019 353.294 119.501 354.156 119.08C356.893 117.735 358.311 115.598 359.254 114.049C360.592 111.859 361.44 108.053 360.619 105.717Z" fill="white"/>
<path d="M311.901 139.057C311.888 139.274 311.891 139.31 311.912 139.164C311.938 139.022 311.93 139.052 311.888 139.256L311.839 139.426C311.925 139.248 311.936 139.224 311.872 139.352C311.803 139.482 311.731 139.606 311.648 139.728C311.808 139.494 311.673 139.693 311.562 139.8C311.453 139.905 311.345 140.01 311.23 140.109C311.517 139.862 311.068 140.215 311.036 140.236C310.772 140.407 310.496 140.559 310.215 140.698C310.174 140.718 309.725 140.924 309.945 140.829C310.163 140.734 309.72 140.916 309.677 140.932C309.402 141.035 309.144 141.133 308.869 141.252C308.522 141.402 309.081 141.169 308.838 141.266C308.236 141.507 307.631 141.737 307.021 141.956C304.327 142.923 301.573 143.727 298.908 144.775C297.903 145.17 297.203 146.115 297.511 147.235C297.774 148.192 298.96 149.029 299.971 148.632C302.937 147.465 306.015 146.604 308.997 145.478C309.326 145.354 309.653 145.226 309.978 145.092C310.212 144.996 310.44 144.886 310.677 144.798C310.808 144.741 310.774 144.759 310.575 144.851C310.659 144.821 310.742 144.79 310.825 144.758C311.592 144.481 312.37 144.136 313.056 143.691C314.696 142.627 315.868 141.073 315.901 139.058C315.919 137.977 314.969 137.058 313.901 137.058C312.802 137.058 311.919 137.973 311.901 139.057Z" fill="#211715"/>
<path d="M324.856 106.387C324.583 104.85 325.299 101.481 328.139 101.536C331.844 102.015 331.534 106.157 330.048 107.94C328.831 109.4 325.746 109.689 324.856 106.387Z" fill="#211715"/>
<path d="M302.76 104.369C302.522 102.831 303.205 99.447 305.808 99.48C309.2 99.93 308.883 104.085 307.507 105.884C306.38 107.357 303.55 107.671 302.761 104.369H302.76Z" fill="#211715"/>
<path d="M313.41 108.694C312.861 109.456 312.328 110.234 311.849 111.042C311.635 111.403 311.422 111.793 311.354 112.21C311.28 112.671 311.245 113.09 311.393 113.543C311.536 113.982 311.787 114.36 312.114 114.684C312.53 115.095 312.996 115.361 313.546 115.546C313.723 115.605 313.909 115.622 314.089 115.665C314.605 115.788 315.167 115.735 315.63 115.463C316.045 115.22 316.441 114.745 316.549 114.268C316.666 113.756 316.64 113.181 316.347 112.727C316.07 112.297 315.662 111.93 315.152 111.808C314.94 111.757 314.726 111.737 314.522 111.656L315 111.858C314.884 111.808 314.781 111.746 314.68 111.67L315.085 111.983C314.978 111.895 314.884 111.799 314.795 111.694L315.108 112.099C315.084 112.07 315.064 112.038 315.048 112.003L315.25 112.481C315.229 112.427 315.217 112.381 315.209 112.323L315.28 112.855C315.277 112.818 315.277 112.78 315.281 112.743L315.21 113.275C315.224 113.174 315.251 113.081 315.287 112.986L315.085 113.464C315.307 112.95 315.66 112.47 315.97 112.006C316.26 111.571 316.556 111.14 316.862 110.715C317.149 110.317 317.189 109.627 317.064 109.174C316.936 108.71 316.578 108.207 316.145 107.979C315.681 107.734 315.119 107.611 314.604 107.777L314.126 107.979C313.825 108.157 313.586 108.396 313.408 108.697L313.41 108.694Z" fill="#211715"/>
<path d="M347.112 119.348C346.535 120.309 345.846 121.202 345.168 122.093C345.733 121.35 345.196 122.044 345.059 122.211C344.81 122.513 344.557 122.812 344.3 123.107C343.728 123.766 343.136 124.409 342.522 125.029C342.219 125.335 341.911 125.636 341.597 125.931C341.427 126.091 341.255 126.249 341.082 126.405C340.995 126.484 340.907 126.562 340.818 126.64C340.599 126.826 340.643 126.8 340.952 126.564C340.721 126.672 340.504 126.856 340.292 126.995L338.487 128.172C337.612 128.743 337.164 129.97 337.769 130.908C338.332 131.782 339.568 132.237 340.505 131.626L342.38 130.403C343.48 129.686 344.427 128.789 345.35 127.857C347.275 125.911 349.15 123.722 350.565 121.366C351.104 120.468 350.795 119.13 349.847 118.63C348.879 118.118 347.686 118.389 347.111 119.348H347.112Z" fill="#211715"/>
<path d="M332.133 131.857C324.833 134.449 316.572 135.479 309.515 131.595C306.205 129.773 303.186 127.143 301.306 123.838C299.426 120.533 298.593 116.699 298.289 112.94C297.847 107.467 298.078 101.933 297.848 96.4469C297.74 93.8819 293.74 93.8689 293.848 96.4469C294.07 101.731 293.889 107.046 294.244 112.323C294.543 116.77 295.423 121.222 297.496 125.203C301.404 132.708 309.662 137.431 317.941 138.094C323.15 138.511 328.304 137.451 333.196 135.714C335.605 134.859 334.567 130.993 332.133 131.857Z" fill="#211715"/>
<path d="M354.903 105.167C355.842 104.655 356.912 104.814 357.711 105.244C357.834 105.311 357.954 105.384 358.071 105.462C357.934 105.341 357.95 105.354 358.121 105.501C358.201 105.573 358.653 106.115 358.367 105.714C358.478 105.869 358.565 106.034 358.664 106.196C358.94 106.647 358.651 106.009 358.691 106.248C358.735 106.51 358.848 106.767 358.896 107.031C358.939 107.273 358.944 107.309 358.911 107.138C358.924 107.286 358.933 107.434 358.938 107.583C358.949 107.891 358.942 108.199 358.924 108.507C358.914 108.665 358.901 108.823 358.885 108.981C358.861 109.237 358.853 109.299 358.86 109.167C358.687 110.305 358.326 111.518 357.884 112.396C356.914 114.323 355.732 115.865 353.862 116.969C353.595 117.127 353.321 117.271 353.04 117.405C353.581 117.147 352.947 117.417 352.823 117.454C352.588 117.524 352.35 117.584 352.111 117.634C352.038 117.65 351.325 117.757 351.615 117.725C351.027 117.79 350.405 117.815 349.817 117.733C349.972 117.75 349.925 117.737 349.674 117.696C349.527 117.664 349.381 117.626 349.237 117.582C348.998 117.508 349.008 117.511 348.696 117.332C346.459 116.05 344.442 119.504 346.677 120.786C348.855 122.035 351.697 122.027 354.046 121.262C356.501 120.463 358.469 118.632 359.971 116.592C361.358 114.708 362.334 112.547 362.717 110.231C363.085 108.01 363.12 105.471 361.727 103.573C359.734 100.857 355.805 100.123 352.885 101.715C350.624 102.948 352.641 106.403 354.904 105.169L354.903 105.167Z" fill="#211715"/>
<path d="M313.065 123.564C314.534 124.465 316.32 124.843 318.021 124.94C318.876 124.989 319.735 124.917 320.577 124.759C321.424 124.601 322.192 124.205 322.993 123.906C323.97 123.541 324.743 122.537 324.39 121.446C324.081 120.49 322.979 119.657 321.93 120.049C321.199 120.322 320.495 120.685 319.73 120.858C319.585 120.891 319.434 120.904 319.291 120.94C319.358 120.923 319.76 120.888 319.479 120.912C319.381 120.92 319.283 120.93 319.184 120.937C318.838 120.96 318.491 120.962 318.145 120.946C317.978 120.939 317.812 120.927 317.646 120.911C317.564 120.903 317.478 120.884 317.396 120.885C317.482 120.885 317.83 120.953 317.554 120.906C317.207 120.847 316.863 120.783 316.523 120.694C316.198 120.609 315.882 120.503 315.568 120.385C315.309 120.288 315.686 120.417 315.736 120.456C315.67 120.404 315.566 120.377 315.491 120.339C315.352 120.268 315.217 120.191 315.084 120.11C314.191 119.562 312.845 119.887 312.348 120.828C311.832 121.804 312.112 122.98 313.066 123.564H313.065Z" fill="#211715"/>
<path d="M350.339 119.775C348.584 119.775 347.372 121.009 347.372 122.453C347.372 124.069 348.611 125.181 350.339 125.181C352.134 125.181 353.306 124.058 353.306 122.453C353.306 120.999 352.088 119.775 350.339 119.775Z" fill="white"/>
<path d="M350.339 117.775C349.366 117.787 348.319 118.028 347.509 118.588C346.599 119.216 345.969 120.019 345.593 121.061C345.286 121.914 345.3 122.995 345.575 123.854C345.907 124.892 346.537 125.705 347.42 126.331C348.988 127.444 351.263 127.416 352.927 126.552C354.769 125.595 355.545 123.483 355.203 121.515C355.039 120.573 354.465 119.612 353.724 119.009C352.744 118.212 351.611 117.79 350.34 117.775C349.294 117.762 348.292 118.704 348.34 119.775C348.389 120.869 349.219 121.761 350.34 121.775C350.488 121.777 350.633 121.785 350.78 121.802L350.248 121.731C350.55 121.772 350.838 121.847 351.12 121.963L350.642 121.761C350.878 121.865 351.096 121.994 351.3 122.151L350.895 121.838C351.068 121.979 351.222 122.134 351.36 122.308L351.047 121.903C351.178 122.078 351.287 122.264 351.376 122.464L351.174 121.986C351.257 122.19 351.316 122.397 351.351 122.614L351.28 122.082C351.313 122.334 351.311 122.584 351.283 122.837L351.354 122.305C351.321 122.547 351.262 122.78 351.173 123.008L351.375 122.53C351.283 122.745 351.169 122.943 351.027 123.129L351.34 122.724C351.208 122.887 351.061 123.031 350.895 123.161L351.3 122.848C351.105 122.993 350.897 123.11 350.674 123.205L351.152 123.003C350.882 123.11 350.606 123.179 350.319 123.219L350.851 123.148C350.512 123.188 350.175 123.188 349.837 123.148L350.369 123.219C350.082 123.177 349.807 123.106 349.538 122.998L350.016 123.2C349.79 123.102 349.58 122.982 349.383 122.834L349.788 123.147C349.62 123.013 349.47 122.865 349.335 122.697L349.648 123.102C349.518 122.93 349.41 122.748 349.322 122.552L349.524 123.03C349.428 122.799 349.365 122.563 349.329 122.315L349.4 122.847C349.37 122.592 349.368 122.34 349.401 122.086L349.33 122.618C349.365 122.401 349.423 122.194 349.506 121.992L349.304 122.47C349.393 122.27 349.501 122.085 349.632 121.91L349.319 122.315C349.457 122.14 349.611 121.984 349.784 121.844L349.379 122.157C349.583 121.999 349.801 121.87 350.037 121.766L349.559 121.968C349.841 121.851 350.13 121.776 350.432 121.735L349.9 121.806C350.047 121.79 350.193 121.781 350.341 121.779C351.387 121.766 352.39 120.868 352.341 119.779C352.293 118.706 351.462 117.765 350.341 117.779L350.339 117.775Z" fill="#211715"/>
<path d="M302.177 125.866C299.316 124.818 296.603 123.114 294.843 120.575C292.633 117.386 291.982 113.42 292.001 109.609C292.023 105.185 292.95 100.833 293.971 96.5489C295.05 92.0209 296.317 87.5369 297.582 83.0579C299.332 76.8569 301.339 70.5529 305.773 65.7039C310.106 60.9649 316.79 58.3609 322.985 57.2459C327.443 56.4429 332.118 56.5619 336.566 57.3869C339.902 58.0059 343.531 58.9569 346.432 60.7699C348.621 62.1379 350.631 58.6789 348.451 57.3159C345.643 55.5609 342.172 54.5119 338.956 53.7999C334.541 52.8219 329.895 52.4529 325.391 52.9049C317.972 53.6489 310.277 56.3459 304.561 61.2609C299.175 65.8909 296.454 72.8649 294.461 79.4759C293.028 84.2279 291.715 89.0319 290.516 93.8479C289.343 98.5559 288.258 103.362 288.039 108.225C287.82 113.088 288.538 118.343 291.3 122.458C293.67 125.99 297.171 128.279 301.117 129.724C303.538 130.611 304.582 126.747 302.18 125.867L302.177 125.866Z" fill="#211715"/>
<path d="M329.016 76.951C324.252 81.244 319.496 85.315 313.794 88.329C308.155 91.31 302.2 93.167 295.867 93.88C294.794 94.001 293.867 94.713 293.867 95.88C293.867 96.867 294.787 98.002 295.867 97.88C299.261 97.498 302.599 96.992 305.862 95.956C309.149 94.912 312.356 93.578 315.417 91.991C321.571 88.799 326.725 84.393 331.845 79.78C333.761 78.053 330.925 75.232 329.017 76.952L329.016 76.951Z" fill="#211715"/>
<path d="M329.016 79.905C332.664 83.029 335.885 86.688 338.833 90.469C342.059 94.606 345.016 99.062 347.158 103.864C347.598 104.851 349.035 105.084 349.894 104.582C350.91 103.988 351.053 102.836 350.612 101.846C348.378 96.839 345.253 92.268 341.902 87.951C338.882 84.06 335.593 80.288 331.844 77.079C329.898 75.413 327.056 78.23 329.016 79.907V79.905Z" fill="#211715"/>
<path d="M337.698 130.902C337.775 133.118 337.925 135.378 338.449 137.54C338.719 138.652 339.095 139.821 339.786 140.746C340.581 141.81 341.549 142.629 342.644 143.377C343.51 143.969 344.9 143.569 345.38 142.659C345.916 141.644 345.587 140.554 344.662 139.923C344.558 139.852 344.455 139.779 344.351 139.708C344.231 139.625 344.147 139.562 344.312 139.689C344.124 139.545 343.943 139.39 343.769 139.23C343.602 139.078 343.441 138.92 343.288 138.753C343.215 138.673 343.148 138.587 343.074 138.508C343.182 138.623 343.222 138.722 343.101 138.538C342.99 138.37 342.889 138.2 342.792 138.023C342.696 137.849 342.745 137.913 342.799 138.056C342.754 137.934 342.706 137.813 342.663 137.691C342.479 137.17 342.336 136.636 342.219 136.096C342.112 135.599 342.031 135.097 341.959 134.594C341.915 134.288 341.999 134.935 341.966 134.64C341.954 134.536 341.94 134.432 341.928 134.329C341.904 134.127 341.882 133.924 341.863 133.721C341.772 132.784 341.73 131.843 341.697 130.903C341.661 129.859 340.803 128.853 339.697 128.903C338.645 128.95 337.658 129.783 337.697 130.903L337.698 130.902Z" fill="#211715"/>
<path d="M340.181 149.979C341.427 147.019 342.607 144.174 343.699 141.504C356.491 147.396 372.16 151.803 379.099 165.31C383.292 173.471 383.61 184.29 383.419 193.584C383.002 213.817 380.262 233.994 375.245 253.516C341.109 253.516 284.382 253.516 284.382 253.516C284.099 244.1 283.782 234.685 283.429 225.27C282.761 225.66 282.41 225.867 282.41 225.867C275.71 229.807 267.57 229.747 262.73 227.847C257.16 225.667 250.52 218.777 246.92 213.997C240.46 205.407 236.09 198.497 230.96 190.167C236.22 185.607 246.25 177.467 250.16 174.607C252.72 177.647 261.42 187.537 263.63 189.927C263.63 189.927 264.095 190.43 264.56 190.933L265.83 188.637C270.497 180.201 274.017 170.466 278.963 161.978C285.944 149.999 297.275 146.879 309.873 142.497C309.926 150.563 313.548 187.978 314.965 196.099H318.874C325.84 182.955 333.863 164.987 340.18 149.98L340.181 149.979Z" fill="white"/>
<path d="M323.324 187.36C328.48 176.879 333.878 164.792 338.539 153.858C334.152 155.666 329.411 156.575 324.609 156.626C319.925 156.918 315.22 156.384 310.798 154.974L310.632 154.925C311.785 169.256 313.945 190.257 314.965 196.099H318.874C320.32 193.371 321.811 190.435 323.323 187.361L323.324 187.36Z" fill="#3D8DCC"/>
<path d="M341.597 141.397C335.723 155.724 329.548 169.948 322.8 183.886C320.977 187.651 319.105 191.391 317.149 195.088L318.875 194.097H314.966L316.895 195.565C316.438 192.923 316.249 191.139 315.915 188.328C315.468 184.562 315.064 180.79 314.676 177.017C313.828 168.761 313.048 160.495 312.422 152.218C312.189 149.143 311.946 146.06 311.879 142.976C311.823 140.406 307.823 140.397 307.879 142.976C308.023 149.584 308.714 156.203 309.305 162.782C310.046 171.029 310.856 179.272 311.817 187.496C312.173 190.543 312.514 193.603 313.037 196.627C313.185 197.48 314.15 198.095 314.966 198.095H318.875C319.556 198.095 320.277 197.72 320.602 197.104C327.968 183.182 334.365 168.735 340.528 154.249C342.194 150.329 343.839 146.399 345.455 142.458C345.865 141.458 345.01 140.259 344.057 139.998C342.91 139.683 342.008 140.391 341.597 141.395L341.597 141.397Z" fill="#211715"/>
<path d="M299.057 150.08C297.633 151.931 294.783 154.693 296.214 157.177C297.237 158.953 298.869 160.414 299.787 162.247L299.514 161.238C299.479 160.963 300.168 160.387 299.554 161.093L298.814 161.942L296.77 164.29C296.404 164.711 296.023 165.123 295.669 165.554C294.587 166.874 294.925 168.169 295.28 169.682C296.751 175.949 298.219 182.217 299.687 188.486C300.274 190.991 304.131 189.931 303.544 187.423C302.612 183.443 301.68 179.464 300.747 175.484C300.336 173.733 299.926 171.981 299.515 170.23C299.358 169.559 299.2 168.888 299.043 168.217C299.003 168.048 298.964 167.879 298.924 167.71C298.843 167.157 298.703 167.378 298.506 168.373C298.573 168.344 298.636 168.21 298.689 168.163C300.13 166.865 301.369 165.136 302.619 163.65C305.304 160.456 300.786 157.583 299.517 154.831L299.79 155.84C299.778 155.52 300.81 154.398 301.022 154.1C301.504 153.422 302.003 152.758 302.51 152.099C303.169 151.242 302.641 149.859 301.792 149.363C300.76 148.759 299.717 149.222 299.056 150.081L299.057 150.08Z" fill="#211715"/>
<path d="M349.103 150.942C350.242 152.844 351.188 154.833 351.832 156.957C351.831 156.953 352.12 158.002 352.14 157.998C352.456 157.486 352.375 157.38 351.897 157.678C351.618 157.782 351.339 157.886 351.06 157.99C350.078 158.358 349.098 158.731 348.13 159.136C346.125 159.975 345.564 162.196 346.944 163.885C347.573 164.655 348.246 165.394 348.887 166.156C349.535 166.926 350.448 167.712 350.939 168.588L350.666 167.579C350.67 167.655 349.872 168.596 349.766 168.749C349.417 169.252 349.07 169.755 348.725 170.26C348.126 171.134 347.531 172.012 346.939 172.891C345.679 174.761 344.433 176.641 343.189 178.521C340.606 182.425 338.023 186.328 335.366 190.182C333.901 192.306 337.366 194.309 338.82 192.201C342.459 186.924 345.949 181.549 349.513 176.222C350.353 174.967 351.198 173.714 352.051 172.468C352.879 171.258 354.236 169.886 354.615 168.45C355.039 166.843 353.776 165.74 352.839 164.652C352.319 164.048 351.808 163.435 351.294 162.825C351.061 162.549 350.828 162.272 350.593 161.998L350.317 161.676C349.97 161.176 349.923 161.272 350.176 161.967L349.662 162.85C349.874 162.587 351.01 162.269 351.489 162.088C352.249 161.801 353.018 161.535 353.772 161.233C355.222 160.652 356.172 159.428 356.121 157.829C356.074 156.357 355.349 154.756 354.796 153.412C354.156 151.86 353.421 150.366 352.558 148.925C351.237 146.719 347.777 148.728 349.104 150.944L349.103 150.942Z" fill="#211715"/>
<path d="M310.267 156.902C315.032 158.387 319.878 158.788 324.842 158.622C329.73 158.458 334.505 157.631 339.053 155.794C340.054 155.39 340.76 154.461 340.45 153.334C340.189 152.384 338.997 151.53 337.99 151.937C333.757 153.646 329.393 154.469 324.842 154.622C320.204 154.777 315.784 154.433 311.331 153.045C308.868 152.277 307.814 156.137 310.268 156.902H310.267Z" fill="#211715"/>
<path d="M349.717 146.294C359.38 150.387 370.168 154.774 376.046 164.01C379.218 168.993 380.536 174.885 381.08 180.704C381.671 187.026 381.497 193.415 381.219 199.749C380.863 207.862 380.139 215.962 379.028 224.006C378.88 225.075 379.287 226.154 380.425 226.466C381.359 226.723 382.737 226.146 382.885 225.069C383.922 217.564 384.675 210.025 385.086 202.459C385.455 195.652 385.71 188.774 385.187 181.968C384.702 175.655 383.537 169.232 380.464 163.622C377.745 158.659 373.644 154.675 368.999 151.512C363.659 147.875 357.659 145.35 351.735 142.841C350.741 142.42 349.593 142.543 348.999 143.559C348.508 144.398 348.716 145.871 349.717 146.294Z" fill="#211715"/>
<path d="M280.012 191.479C280.969 212.151 281.759 232.831 282.381 253.516C282.458 256.084 286.459 256.095 286.381 253.516C285.759 232.831 284.969 212.151 284.012 191.479C283.893 188.916 279.893 188.901 280.012 191.479Z" fill="#211715"/>
<path d="M306.942 141.395C299.616 143.908 292.058 146.395 285.847 151.174C278.676 156.691 274.924 164.841 271.229 172.869C268.945 177.832 266.738 182.836 264.103 187.626C262.862 189.883 266.315 191.904 267.557 189.645C272.083 181.413 275.339 172.553 279.915 164.347C281.822 160.928 284.083 157.872 287.061 155.307C289.734 153.005 292.843 151.242 296.036 149.767C299.909 147.978 303.976 146.634 308.007 145.251C310.428 144.421 309.388 140.555 306.944 141.394L306.942 141.395Z" fill="#211715"/>
<path d="M265.044 188.512C260.439 183.519 255.954 178.384 251.574 173.192C251.056 172.578 249.814 172.392 249.15 172.879C242.386 177.844 235.887 183.262 229.545 188.752C228.894 189.315 228.793 190.462 229.232 191.176C234.661 199.989 240.174 208.909 246.715 216.954C249.594 220.494 252.851 223.753 256.498 226.5C259.909 229.069 263.589 230.599 267.848 231C273.213 231.505 278.753 230.275 283.418 227.593C285.649 226.31 283.637 222.852 281.399 224.139C277.609 226.318 273.27 227.291 268.91 227.076C265.155 226.891 261.988 225.582 258.97 223.383C251.682 218.072 246.448 210.304 241.473 202.93C238.427 198.415 235.542 193.794 232.686 189.157L232.373 191.581C238.457 186.315 244.679 181.097 251.168 176.334L248.744 176.021C253.124 181.213 257.609 186.348 262.214 191.341C263.963 193.237 266.786 190.403 265.042 188.513L265.044 188.512Z" fill="#211715"/>
<path d="M227.74 152.269C227.732 152.519 227.722 152.865 227.711 153.283C227.187 153.195 226.584 153.167 225.899 153.215C221.671 153.512 217.489 155.538 217.881 157.663C217.963 158.748 218.468 159.601 219.705 161.028C219.173 161.929 219.181 164.125 219.842 164.424L220.643 165.388C219.364 165.388 218.503 166.003 218.038 166.864C217.19 168.435 218.025 170.399 219.69 171.043L220.205 171.242C220.038 171.228 219.871 171.214 219.871 171.214C218.043 171.063 216.093 173.142 216.625 174.639C217.022 175.755 218.178 176.596 219.306 177.117C221.892 180.012 225.109 182.337 228.662 183.898C229.524 184.277 230.406 184.611 231.251 185.025C231.89 185.338 232.506 185.695 233.095 186.094C234.852 187.285 237.177 187.255 238.919 186.042C241.754 184.068 244.764 181.687 247.394 179.464C248.425 178.592 248.812 177.176 248.383 175.896C245.89 168.449 243.726 161.453 241.826 159.699C239.188 157.263 236.332 156.622 234.832 153.646C233.79 151.577 231.887 148.999 229.523 149.46C227.956 149.765 227.782 151.066 227.754 151.813C227.754 151.813 227.748 151.976 227.739 152.269H227.74Z" fill="white"/>
<path d="M223.763 174.808C223.835 174.868 224.083 175.147 223.846 174.858C223.561 174.51 223.936 175.149 223.771 174.738C223.634 174.396 223.774 174.778 223.798 174.873C223.81 174.921 223.814 174.978 223.831 175.024C223.903 175.223 223.809 174.589 223.803 174.805C223.797 175.018 223.778 175.288 223.799 175.499C223.757 175.082 223.871 175.096 223.825 175.278C223.813 175.327 223.804 175.378 223.792 175.427C223.768 175.523 223.608 175.957 223.756 175.601C223.907 175.237 223.729 175.576 223.714 175.637C223.683 175.765 223.857 175.439 223.883 175.423C223.831 175.456 223.769 175.549 223.72 175.596C223.676 175.638 223.626 175.676 223.584 175.72C223.443 175.865 223.73 175.604 223.741 175.602C223.599 175.636 223.428 175.805 223.296 175.875C223.237 175.906 223.176 175.932 223.117 175.963C222.918 176.07 223.288 175.876 223.288 175.891C223.288 175.931 222.907 176.013 222.845 176.028C222.799 176.039 222.691 176.044 222.653 176.071C222.656 176.069 223.082 176.038 222.867 176.045C222.695 176.05 222.526 176.047 222.355 176.048C222.124 176.051 222.479 176.075 222.496 176.076C222.397 176.071 222.281 176.04 222.186 176.021C222.031 175.989 221.878 175.952 221.726 175.91C221.367 175.811 221.02 175.682 220.673 175.549C220.581 175.514 220.318 175.447 220.709 175.567C220.635 175.544 220.561 175.503 220.49 175.471C220.365 175.415 220.24 175.358 220.117 175.297C219.812 175.146 219.515 174.976 219.234 174.784C219.177 174.745 219.123 174.703 219.066 174.665C218.885 174.543 219.198 174.761 219.201 174.769C219.168 174.676 218.92 174.52 218.852 174.453C218.794 174.395 218.534 174.069 218.701 174.311C218.861 174.543 218.73 174.352 218.701 174.306C218.643 174.216 218.585 174.128 218.534 174.034C218.508 173.987 218.484 173.904 218.447 173.865C218.43 173.846 218.617 174.238 218.538 174.063C218.499 173.977 218.486 173.746 218.521 174.094C218.558 174.456 218.532 174.234 218.536 174.168C218.539 174.127 218.545 174.062 218.538 174.021C218.509 173.857 218.503 174.291 218.495 174.306C218.535 174.229 218.605 174.001 218.605 173.91C218.605 173.933 218.399 174.281 218.51 174.143C218.562 174.079 218.599 173.973 218.641 173.903C218.668 173.859 218.714 173.81 218.732 173.763C218.804 173.578 218.475 174.033 218.624 173.896C218.737 173.793 218.829 173.665 218.942 173.559C218.985 173.519 219.029 173.481 219.072 173.442C219.273 173.259 219.015 173.514 218.945 173.538C219.077 173.492 219.217 173.36 219.344 173.292C219.395 173.265 219.451 173.243 219.501 173.214C219.701 173.098 219.068 173.343 219.399 173.267C219.494 173.245 219.927 173.165 219.576 173.201C219.211 173.238 219.771 173.208 219.871 173.214C220.917 173.275 221.917 172.251 221.871 171.214C221.82 170.078 220.992 169.279 219.871 169.214C217.977 169.104 216.096 170.33 215.16 171.931C214.628 172.841 214.437 173.856 214.626 174.89C214.801 175.843 215.468 176.776 216.169 177.419C216.87 178.062 217.675 178.572 218.544 178.954C219.502 179.376 220.47 179.786 221.512 179.941C222.742 180.124 223.812 179.991 224.955 179.496C225.839 179.113 226.694 178.456 227.192 177.62C228.145 176.02 228.117 173.244 226.591 171.979C225.787 171.312 224.54 171.132 223.763 171.979C223.086 172.716 222.903 174.095 223.763 174.808Z" fill="#211715"/>
<path d="M222.34 163.605C220.956 163.293 219.571 163.305 218.279 163.941C217.167 164.488 216.405 165.494 215.971 166.629C215.574 167.667 215.468 168.885 215.724 169.971C215.868 170.581 216.152 171.158 216.577 171.622C216.78 171.843 217.012 172.049 217.272 172.201C217.415 172.284 217.564 172.342 217.718 172.406C217.865 172.47 218.012 172.531 218.162 172.588C218.048 172.538 218.053 172.54 218.176 172.594C220.024 173.392 221.882 174.137 223.749 174.892C224.471 175.184 225.216 175.495 225.989 175.619C227.254 175.822 228.542 175.496 229.613 174.788C230.908 173.932 231.666 172.674 231.777 171.126C231.884 169.62 231.166 168.116 230.025 167.154C229.226 166.48 227.969 166.312 227.197 167.154C226.515 167.897 226.343 169.262 227.197 169.982C227.363 170.122 227.51 170.275 227.663 170.429C227.859 170.627 227.557 170.184 227.647 170.428C227.67 170.489 227.726 170.581 227.764 170.634C227.424 170.156 227.933 170.761 227.804 170.85C227.767 170.876 227.814 170.422 227.779 170.661C227.766 170.755 227.781 170.902 227.785 170.995C227.799 171.326 227.914 170.593 227.775 171.027C227.757 171.082 227.739 171.144 227.726 171.201C227.649 171.553 227.762 171.026 227.803 171.044C227.809 171.047 227.649 171.319 227.66 171.295C227.678 171.256 227.898 171.055 227.736 171.184C227.657 171.247 227.582 171.329 227.509 171.401C227.333 171.575 227.756 171.276 227.524 171.378C227.352 171.453 227.189 171.572 227.018 171.654C227.423 171.458 226.848 171.68 226.738 171.71C226.355 171.815 227.02 171.694 226.723 171.707C226.366 171.723 227.233 171.835 226.816 171.718C226.223 171.552 225.647 171.365 225.073 171.139C224.463 170.898 223.862 170.635 223.256 170.386C223.062 170.306 222.868 170.226 222.669 170.158C222.536 170.113 222.401 170.076 222.268 170.032C222.144 169.991 222.021 169.947 221.898 169.901C221.841 169.88 221.443 169.715 221.745 169.845C221.319 169.661 220.902 169.457 220.479 169.266C220.209 169.144 219.937 169.028 219.663 168.913C219.522 168.853 219.363 168.798 219.224 168.73C219.734 168.981 219.016 168.569 219.404 168.833C219.789 169.095 219.185 168.646 219.529 168.948C219.7 169.098 219.613 169.054 219.56 168.956C219.823 169.448 219.643 169.055 219.581 168.908C219.484 168.682 219.561 169.297 219.597 169.046C219.606 168.984 219.588 168.904 219.587 168.841C219.585 168.748 219.587 168.655 219.592 168.563C219.598 168.45 219.718 168.158 219.601 168.409C219.502 168.622 219.588 168.487 219.613 168.399C219.644 168.289 219.665 168.176 219.698 168.066C219.717 168.002 219.74 167.939 219.759 167.875C219.871 167.49 219.61 168.107 219.73 167.945C219.777 167.881 219.813 167.799 219.851 167.728C220.025 167.407 219.878 167.815 219.794 167.778C219.797 167.779 219.913 167.649 219.921 167.639C220.19 167.298 219.882 167.71 219.849 167.661C219.858 167.675 220.251 167.361 220.297 167.396C220.33 167.421 219.792 167.536 220.203 167.452C220.243 167.444 220.452 167.358 220.481 167.382C220.455 167.361 220.078 167.394 220.401 167.394C220.537 167.394 220.673 167.385 220.809 167.39C220.895 167.393 220.981 167.401 221.067 167.407C220.63 167.379 221.215 167.449 221.276 167.463C222.294 167.692 223.489 167.153 223.736 166.066C223.967 165.05 223.431 163.852 222.339 163.606L222.34 163.605Z" fill="#211715"/>
<path d="M228.013 166.123C226.111 165.251 224.241 164.315 222.357 163.404C221.988 163.226 221.618 163.05 221.247 162.877C221.166 162.84 221.072 162.785 220.985 162.756C220.602 162.631 221.133 162.956 221.235 163.059C221.492 163.32 221.233 162.944 221.351 163.258C221.479 163.599 221.374 163.258 221.347 163.18C221.214 162.794 221.349 163.542 221.347 163.266C221.347 163.174 221.333 163.081 221.329 162.989C221.326 162.906 221.273 162.409 221.348 162.342C221.346 162.344 221.246 162.844 221.335 162.45C221.355 162.361 221.371 162.271 221.394 162.182C221.389 162.203 221.471 161.936 221.468 161.933C221.505 161.966 221.237 162.389 221.487 161.948C221.668 161.629 221.523 161.926 221.465 161.976C221.544 161.909 221.616 161.827 221.694 161.757C221.383 162.033 221.639 161.814 221.747 161.753C221.806 161.72 222.115 161.593 221.871 161.682C221.581 161.787 222.659 161.556 222.042 161.614C222.151 161.604 222.259 161.596 222.368 161.594C222.492 161.592 222.962 161.664 222.486 161.575C223 161.672 223.511 161.817 224.011 161.971C224.276 162.053 224.539 162.141 224.799 162.237C224.912 162.278 225.024 162.321 225.136 162.365C225.219 162.397 225.302 162.431 225.384 162.465C225.205 162.39 225.181 162.381 225.312 162.438C226.237 162.898 227.145 163.359 227.998 163.948C228.094 164.014 228.188 164.082 228.282 164.15C227.959 163.916 228.256 164.132 228.335 164.199C228.5 164.34 228.659 164.487 228.811 164.642C228.986 164.821 229.152 165.009 229.308 165.205C229.019 164.841 229.597 165.545 229.56 165.623C229.552 165.641 229.406 165.136 229.504 165.538C229.611 165.978 229.527 165.11 229.518 165.573C229.516 165.669 229.514 165.772 229.517 165.867C229.528 166.26 229.642 165.522 229.504 165.927C229.473 166.017 229.445 166.127 229.423 166.217C229.333 166.593 229.619 165.945 229.391 166.289C229.34 166.366 229.283 166.462 229.241 166.542C229.376 166.287 229.354 166.384 229.192 166.581C229.124 166.663 228.917 166.776 229.251 166.546C228.938 166.761 229.428 166.47 229.217 166.552C228.915 166.669 229.705 166.438 229.202 166.531L229.042 166.521C229.279 166.556 229.323 166.559 229.174 166.529C228.924 166.442 228.653 166.371 228.399 166.293C228.097 166.2 228.82 166.489 228.383 166.29C228.26 166.234 228.136 166.178 228.013 166.122C227.064 165.687 225.815 165.82 225.277 166.84C224.812 167.719 224.979 169.111 225.995 169.576C227.402 170.221 228.945 170.856 230.506 170.342C232.018 169.845 233.084 168.367 233.392 166.843C233.55 166.06 233.571 165.252 233.361 164.474C233.134 163.634 232.623 162.972 232.083 162.31C231.203 161.23 230.004 160.423 228.805 159.735C227.576 159.03 226.251 158.461 224.893 158.058C223.21 157.559 221.565 157.386 219.942 158.188C218.634 158.834 217.696 160.089 217.456 161.525C217.22 162.934 217.245 164.565 218.249 165.69C218.694 166.189 219.421 166.416 220.011 166.698C220.551 166.956 221.087 167.22 221.624 167.484C223.073 168.197 224.527 168.901 225.995 169.574C226.944 170.009 228.193 169.876 228.731 168.856C229.196 167.976 229.029 166.585 228.013 166.12V166.123Z" fill="#211715"/>
<path d="M229.756 151.813C229.775 151.449 229.756 151.672 229.742 151.758C229.751 151.695 229.794 151.394 229.852 151.325C229.642 151.576 229.839 151.348 230.056 151.388C230.776 151.523 231.283 151.987 231.756 152.534C233.074 154.057 233.656 155.978 235.224 157.334C236.792 158.69 238.729 159.566 240.254 160.97C241.082 161.732 241.68 163.056 242.222 164.335C243.057 166.306 243.744 168.344 244.432 170.37C244.806 171.472 245.173 172.576 245.54 173.681C245.832 174.558 246.691 176.017 246.332 176.95C245.968 177.895 244.582 178.754 243.836 179.403C242.933 180.188 242.008 180.95 241.051 181.668C239.467 182.857 237.346 184.917 235.208 184.658C234.111 184.525 233.226 183.774 232.262 183.299C231.03 182.691 229.729 182.236 228.499 181.623C226.055 180.405 223.854 178.837 221.894 176.939C220.044 175.147 217.212 177.972 219.066 179.767C221.255 181.887 223.748 183.72 226.481 185.077C227.832 185.748 229.267 186.236 230.603 186.935C231.823 187.573 232.911 188.31 234.298 188.544C237.49 189.083 239.898 187.434 242.365 185.644C243.594 184.753 244.794 183.818 245.955 182.841C247.164 181.824 248.599 180.755 249.496 179.439C251.358 176.709 249.727 173.588 248.803 170.827C247.907 168.15 247.007 165.469 245.911 162.866C245.175 161.117 244.384 159.277 242.926 158.001C241.11 156.413 238.487 155.437 237.053 153.461C236.2 152.286 235.667 150.961 234.706 149.842C233.79 148.775 232.59 147.862 231.199 147.542C228.212 146.857 225.91 148.901 225.758 151.813C225.623 154.386 229.624 154.378 229.758 151.813H229.756Z" fill="#211715"/>
<path d="M226.609 159.263C227.434 161.4 228.721 163.213 229.931 165.138C230.994 166.831 231.366 168.353 231.283 170.365C231.24 171.412 232.234 172.412 233.283 172.365C234.404 172.315 235.237 171.486 235.283 170.365C235.38 168.03 234.862 165.68 233.703 163.643C233.153 162.676 232.495 161.771 231.899 160.832C231.601 160.363 231.312 159.889 231.046 159.401C230.914 159.159 230.788 158.915 230.669 158.666C230.61 158.542 230.553 158.418 230.498 158.292C230.567 158.454 230.557 158.423 230.467 158.2C230.092 157.227 229.106 156.448 228.007 156.803C227.06 157.11 226.207 158.218 226.61 159.263H226.609Z" fill="#211715"/>
<path d="M227.909 161.268C229.682 160.31 231.744 159.007 232.284 156.92C232.764 155.063 231.802 153.071 230.213 152.084C228.071 150.753 225.155 151.131 222.832 151.67C220.753 152.152 218.354 153.039 216.941 154.726C216.521 155.227 216.189 155.752 215.999 156.384C215.907 156.69 215.859 157.023 215.857 157.342C215.857 157.415 215.862 157.484 215.866 157.557C215.946 158.134 215.963 158.266 215.917 157.952C215.871 157.638 215.888 157.771 215.968 158.347C216.182 159.769 217.031 160.912 217.916 161.999C218.579 162.814 220.065 162.739 220.744 161.999C221.539 161.133 221.452 160.04 220.744 159.171C220.578 158.967 220.377 158.704 220.161 158.336C220.07 158.181 219.913 157.779 220.039 158.155C219.974 157.963 219.92 157.776 219.871 157.579C219.859 157.531 219.82 157.276 219.863 157.548C219.93 157.97 219.809 157.103 219.81 157.132C219.81 157.099 219.882 157.613 219.857 157.394C219.848 157.319 219.848 157.04 219.846 157.392C219.843 157.835 219.964 157.093 219.837 157.474C219.739 157.767 219.815 157.531 219.868 157.453C219.985 157.283 219.995 157.375 219.888 157.401C219.808 157.42 219.757 157.538 219.895 157.403C219.96 157.339 220.019 157.27 220.085 157.206C220.189 157.105 220.301 157.014 220.411 156.919C220.112 157.178 220.432 156.917 220.581 156.822C220.747 156.716 220.917 156.616 221.09 156.522C221.274 156.422 221.461 156.329 221.65 156.241C221.734 156.202 221.818 156.163 221.903 156.127C221.821 156.162 221.582 156.249 221.955 156.113C222.395 155.952 222.837 155.803 223.289 155.679C223.728 155.559 224.172 155.458 224.62 155.376C224.725 155.357 224.83 155.34 224.935 155.321C224.97 155.315 225.323 155.262 225.041 155.3C225.29 155.267 225.541 155.244 225.791 155.225C226.238 155.191 226.678 155.193 227.125 155.214C227.524 155.233 227.219 155.22 227.131 155.205C227.214 155.219 227.297 155.234 227.38 155.251C227.582 155.293 227.784 155.385 227.985 155.417C228.191 155.45 227.871 155.366 227.841 155.349C227.9 155.382 227.964 155.406 228.023 155.44C228.095 155.482 228.171 155.542 228.248 155.572C228.468 155.659 228.048 155.452 228.093 155.441C228.141 155.43 228.31 155.649 228.347 155.683C228.599 155.91 228.212 155.577 228.238 155.542C228.227 155.557 228.346 155.7 228.346 155.729C228.346 155.757 228.395 155.837 228.41 155.861C228.535 156.059 228.28 155.421 228.319 155.646C228.333 155.731 228.376 155.826 228.403 155.908C228.534 156.314 228.322 155.915 228.401 155.77C228.388 155.795 228.389 156.102 228.399 156.122C228.319 155.966 228.508 155.603 228.389 155.99C228.273 156.368 228.63 155.623 228.392 155.965C228.363 156.006 228.331 156.058 228.309 156.103C228.166 156.399 228.545 155.858 228.381 156.025C228.275 156.132 228.182 156.252 228.074 156.359C227.934 156.498 227.78 156.62 227.634 156.752C227.655 156.733 227.905 156.558 227.713 156.691C227.591 156.776 227.472 156.865 227.348 156.948C226.879 157.265 226.387 157.545 225.89 157.814C224.968 158.312 224.601 159.664 225.172 160.55C225.775 161.486 226.923 161.8 227.909 161.268Z" fill="#211715"/>
<path d="M217.402 144.822C219.275 147.537 221.114 150.277 223.046 152.952C223.359 153.386 223.708 153.724 224.241 153.871C224.72 154.003 225.357 153.943 225.782 153.669C226.621 153.128 227.155 151.84 226.5 150.933C224.568 148.259 222.729 145.518 220.856 142.803C220.263 141.944 219.075 141.47 218.12 142.085C217.265 142.636 216.767 143.9 217.402 144.821V144.822Z" fill="#211715"/>
<path d="M344.923 243.411C344.043 237.235 342.681 231.627 341.016 227.231C340.85 226.792 340.404 226.531 339.938 226.583C338.316 226.764 335.628 226.865 334.647 226.344C330.701 224.252 327.696 224.65 323.18 224.56C320.997 224.517 319.453 224.588 316.535 224.808C315.129 224.914 312.478 224.835 311.229 225.58C309.98 226.325 309.374 226.811 309.412 228.274C309.436 229.208 309.759 230.011 310.503 230.465C311.369 230.994 312.617 231.234 313.602 231.413C314.8 231.631 316.18 231.788 317.453 232.034C314.628 233.661 311.886 235.432 309.239 237.335C308.589 237.803 307.85 238.513 307.603 239.275C307.396 239.913 307.271 240.805 307.435 241.455C307.664 242.36 308.183 243.19 309.002 243.638C309.92 244.141 311.113 244.575 312.304 244.59C313.035 246.933 313.255 248.226 315.258 249.701C317.522 251.368 319.873 253.8 322.727 254.794C323.513 255.068 324.346 255.281 325.317 255.229C326.11 255.092 326.844 254.935 327.585 254.551C331.679 252.43 336.573 248.564 340.373 246.45C341.132 246.028 343.141 245.6 344.247 245.338C344.761 245.216 345.103 244.721 345.032 244.198C344.996 243.934 344.96 243.672 344.923 243.411Z" fill="white"/>
<path d="M350.571 192.884C349.312 190.198 348.204 187.845 347.453 186.274C347.042 185.419 346.047 185.029 345.168 185.37C335.973 188.96 312.632 198.996 304.869 202.289C303.952 202.68 303.529 203.738 303.914 204.656C303.914 204.656 308.315 214.982 312.632 225.111C313.933 224.866 315.544 224.883 316.534 224.809C319.453 224.589 320.996 224.518 323.179 224.561C327.695 224.65 330.7 224.253 334.646 226.345C335.628 226.865 338.316 226.764 339.937 226.584L340.236 224.955C343.142 224.038 359.955 215.804 360.951 214.834L360.568 214.066L359.117 211.154C357.125 206.924 353.452 199.034 350.57 192.885L350.571 192.884Z" fill="white"/>
<path d="M319.078 230.352C317.222 229.892 315.314 229.743 313.445 229.354C312.658 229.191 310.873 229.024 311.417 227.88C311.909 226.846 314.159 226.921 315.039 226.88C316.795 226.798 318.546 226.643 320.303 226.58C322.044 226.518 323.785 226.573 325.526 226.58C327.211 226.586 328.92 226.568 330.572 226.942C332.184 227.307 333.592 228.299 335.205 228.565C336.053 228.705 336.908 228.742 337.766 228.725C338.412 228.713 339.478 228.423 340.059 228.652L339.176 228.138C339.74 228.614 340.053 230.534 340.297 231.341C340.715 232.726 341.086 234.126 341.42 235.534C341.761 236.973 342.063 238.422 342.332 239.876C342.472 240.634 342.603 241.394 342.725 242.155C342.787 242.542 342.847 242.93 342.905 243.318L342.974 243.787C343.012 244.407 343.061 244.416 343.121 243.811L344.004 243.297C342.735 243.808 341.321 243.909 340.04 244.426C338.665 244.981 337.407 245.883 336.173 246.694C333.262 248.608 330.444 250.688 327.396 252.385C325.985 253.171 324.802 253.426 323.26 252.867C321.775 252.329 320.457 251.323 319.24 250.339C318.065 249.389 316.618 248.509 315.624 247.37C314.825 246.454 314.583 245.192 314.234 244.06C313.961 243.176 313.211 242.642 312.305 242.592C311.405 242.542 309.931 242.265 309.504 241.339C309.091 240.445 309.562 239.631 310.249 239.064C312.485 237.219 315.149 235.718 317.636 234.241C319.848 232.928 317.838 229.468 315.617 230.787C313.62 231.973 311.66 233.219 309.749 234.54C308.135 235.655 306.313 236.774 305.675 238.745C305.094 240.54 305.355 242.484 306.481 244C307.794 245.767 310.197 246.476 312.305 246.592L310.376 245.124C310.877 246.75 311.327 248.386 312.408 249.736C313.524 251.13 315.178 252.18 316.567 253.294C319.735 255.836 323.577 258.29 327.748 256.656C331.507 255.183 334.842 252.351 338.191 250.148C339.634 249.199 340.965 248.237 342.544 247.809C344.307 247.331 346.433 247.161 346.957 245.039C347.209 244.02 346.847 242.801 346.691 241.787C346.504 240.568 346.295 239.353 346.063 238.142C345.655 236.019 345.175 233.91 344.601 231.826C344.108 230.036 343.615 228.156 342.845 226.462C341.835 224.237 339.76 224.688 337.766 224.726C337.066 224.74 336.27 224.795 335.592 224.576C335.049 224.401 333.881 223.776 333.089 223.501C331.291 222.877 329.366 222.663 327.471 222.605C323.674 222.488 319.92 222.625 316.133 222.834C314.236 222.939 312.201 222.877 310.454 223.732C308.618 224.63 307.376 226.175 307.412 228.276C307.504 233.729 314.227 233.272 318.015 234.211C320.514 234.83 321.58 230.974 319.078 230.354V230.352Z" fill="#211715"/>
<path d="M314.116 223.532C312.254 219.164 310.392 214.795 308.53 210.427L305.843 204.124C305.779 203.973 305.705 203.824 305.649 203.67C305.658 203.695 305.836 204.079 305.747 204.055C305.928 204.103 306.511 203.748 306.687 203.673C308.019 203.107 309.351 202.538 310.683 201.97C318.278 198.73 325.871 195.487 333.488 192.298C336.892 190.873 340.298 189.454 343.723 188.081C344.212 187.885 345.181 187.261 345.699 187.298C345.975 187.318 345.58 187.171 345.809 187.456C346.048 187.753 346.197 188.271 346.361 188.618C347.14 190.262 347.913 191.908 348.686 193.555C352.175 200.994 355.561 208.486 359.225 215.841L359.538 213.417C359.93 213.06 359.817 213.231 359.504 213.414C359.262 213.555 359.023 213.702 358.78 213.84C358.047 214.256 357.301 214.649 356.554 215.039C354.486 216.119 352.398 217.159 350.302 218.184C348.117 219.253 345.922 220.305 343.711 221.319C342.828 221.724 341.943 222.123 341.051 222.507C340.523 222.734 341.413 222.361 340.922 222.561C340.748 222.632 340.574 222.704 340.398 222.772C340.169 222.861 339.939 222.947 339.705 223.023C337.266 223.813 338.31 227.677 340.768 226.88C344.746 225.591 348.575 223.469 352.32 221.637C354.479 220.581 356.631 219.51 358.76 218.394C359.964 217.763 361.349 217.171 362.366 216.244C363.052 215.619 363.064 214.594 362.679 213.82C359.257 206.95 356.085 199.957 352.83 193.006C351.966 191.162 351.102 189.319 350.232 187.478C349.296 185.497 348.427 183.287 345.838 183.244C344.214 183.217 342.329 184.351 340.852 184.952C339.011 185.7 337.175 186.459 335.34 187.222C327.04 190.673 318.771 194.202 310.503 197.729C308.924 198.403 307.344 199.077 305.765 199.75C303.899 200.545 301.912 201.337 301.787 203.719C301.693 205.515 303.094 207.789 303.777 209.393C306.072 214.778 308.367 220.163 310.663 225.548C311.087 226.542 312.551 226.762 313.399 226.266C314.427 225.665 314.542 224.527 314.117 223.53L314.116 223.532Z" fill="#211715"/>
<path d="M202.681 261.724C204.145 255.575 205.491 249.823 206.581 245.016C206.969 243.303 207.262 241.242 205.998 240.022C205.358 239.403 204.459 239.136 203.59 238.942C191.675 236.276 179.085 233.649 166.955 231.201C165.992 231.007 164.85 231.014 164.169 231.721C163.831 232.072 163.672 232.553 163.523 233.017C158.014 250.19 152.709 267.429 147.611 284.729H114.888C114.888 287.953 114.888 290.054 114.888 290.054V319.637C130.558 319.637 170.789 319.668 185.327 319.673C187.157 319.673 188.746 318.437 189.197 316.664C191.39 308.053 197.711 282.6 202.68 261.725L202.681 261.724Z" fill="white"/>
<path d="M297.781 296.398C296.517 294.315 295.131 291.963 293.718 289.528C291.37 290.391 288.15 291.501 287.656 295.84C287.479 297.392 289.267 298.617 289.228 300.179C289.208 300.989 288.714 301.702 288.467 302.474C287.947 304.1 288.666 306.037 290.121 306.93C289.156 309.044 289.129 311.567 290.048 313.702C290.967 315.837 292.819 317.55 295.018 318.301C295.814 318.573 296.645 318.723 297.472 318.872C301.417 319.583 305.362 320.293 309.307 321.004C310.358 316.65 312.637 311.43 314.852 307.21C314.165 305.002 313.197 302.881 311.979 300.916C310.272 297.943 307.482 293.109 305.911 290.67C304.48 288.45 302.072 286.648 300.105 287.825C298.638 288.703 298.912 290.738 299.053 291.882C299.38 294.521 299.628 296.513 300.147 300.188C299.432 299.086 298.634 297.803 297.781 296.398Z" fill="white"/>
<path d="M71.5954 254.241C74.0594 258.597 75.8464 264.792 77.4644 271.559C77.4644 270.337 77.4644 262.515 77.4644 262.507C77.4314 258.372 77.3984 254.22 77.3734 250.077C77.3574 248.471 77.3484 246.848 77.0524 245.266L72.5524 242.895C72.6944 241.406 72.7574 240.42 72.8194 239.54C72.9504 237.685 71.9834 235.917 70.3384 235.049C63.3514 231.365 49.5534 225.842 44.1094 223.957C44.1094 223.957 44.1094 227.069 44.1074 230.182C51.9834 235.075 60.6124 240.171 67.1424 247.49C68.0894 248.553 70.0744 251.549 71.5964 254.24" fill="white"/>
<path d="M83.4872 176.308C79.0092 184.073 71.3582 190.885 61.7442 195.533C60.9242 194.88 60.0382 194.411 58.8762 194.264C57.4022 194.079 56.0322 194.431 55.0612 195.337C53.6162 196.685 53.1822 199.191 53.5222 201.168C54.2572 205.442 56.5022 208.361 60.0592 210.142C58.6312 216.233 57.8942 218.824 58.2992 223.948C58.4152 225.419 59.1192 227.949 60.2862 230.368C63.8882 231.917 67.3512 233.498 69.9612 234.852C70.5152 233.108 70.9292 231.827 70.9292 231.827C71.8672 228.931 73.1252 226.556 73.1632 226.43C73.4152 225.66 74.2002 225.185 74.9952 225.339C78.3102 225.976 83.2942 225.123 86.8622 223.508C88.6822 222.684 90.3892 221.213 91.6042 218.431C92.1782 217.13 92.5712 215.4 92.8332 213.632C93.2292 210.948 93.3302 208.163 93.2972 206.577C93.5342 205.397 93.9632 204.289 94.7472 203.308C95.9312 201.823 97.9282 200.586 96.6882 198.254C96.2172 197.372 95.3922 196.752 94.4772 196.341C89.8662 194.271 89.1832 187.564 88.6782 182.73C88.5412 177.925 87.6302 173.906 86.1602 170.533C85.4662 172.502 84.5692 174.433 83.4872 176.308Z" fill="white"/>
<path d="M126.046 311.036C125.598 310.981 125.139 310.927 124.694 310.993C124.263 311.057 123.876 311.23 123.494 311.393C119.647 313.037 115.738 314.449 111.331 314.664C109.726 314.742 106.935 313.581 106.276 311.942C106.276 311.942 104.53 311.942 102.702 311.942C102.443 306.713 101.874 301.501 100.995 296.341C105.89 288.691 114.376 283.726 123.315 282.776C124.764 282.622 126.242 282.573 127.666 282.879C129.73 283.324 131.62 284.535 132.886 286.226C133.246 286.707 133.564 287.358 133.272 287.884C136.402 290.046 138.999 292.973 140.773 296.338C141.007 296.782 141.234 297.278 141.128 297.769C141.022 298.26 140.417 298.655 140.003 298.369L138.247 300.347C138.54 300.521 138.847 300.71 139.172 300.914C139.651 301.215 140.643 302.5 140.643 304.098V306.367C140.913 306.489 141.149 306.64 141.387 306.831C142.197 307.48 142.569 309.077 142.193 309.887C141.693 310.963 140.151 312.06 137.901 312.012C134.213 311.933 129.99 311.581 126.046 311.093" fill="white"/>
<path d="M350.058 301.175C346.359 285.11 342.646 269.048 338.938 252.985C338.742 252.135 337.86 251.517 337.009 251.517H204.819C202.245 251.517 202.241 255.517 204.819 255.517H337.009L335.08 254.049C338.788 270.112 342.501 286.174 346.2 302.239C346.777 304.747 350.635 303.685 350.057 301.176L350.058 301.175Z" fill="#211715"/>
<path d="M364.248 362.625C362.577 355.385 360.907 348.144 359.228 340.905C358.647 338.398 354.789 339.459 355.371 341.968C357.05 349.207 358.72 356.448 360.391 363.688C360.97 366.195 364.827 365.134 364.248 362.625Z" fill="#211715"/>
<path d="M157.059 251.516H150.314C148.35 251.516 146.377 251.46 144.413 251.516C143.162 251.552 142.539 252.116 141.575 252.869L138.827 255.016C131.695 260.588 124.564 266.16 117.432 271.732L105.262 281.24C104.41 281.906 104.564 283.37 105.262 284.068C106.103 284.909 107.236 284.735 108.09 284.068C120.521 274.355 132.953 264.643 145.384 254.93L143.97 255.516H157.057C159.631 255.516 159.635 251.516 157.057 251.516H157.059Z" fill="#211715"/>
<path d="M149.539 285.26C152.768 274.309 156.076 263.382 159.469 252.481C161.165 247.03 162.882 241.586 164.619 236.148C164.846 235.439 165.071 234.729 165.3 234.021C165.337 233.907 165.639 233.035 165.512 233.157C166.015 232.673 168.199 233.488 168.762 233.602C171.433 234.144 174.103 234.689 176.772 235.24C182.212 236.362 187.647 237.505 193.076 238.677C195.793 239.263 198.508 239.857 201.221 240.46C202.183 240.674 203.553 240.735 204.384 241.298C205.064 241.759 204.96 242.693 204.863 243.424C204.416 246.789 203.35 250.175 202.576 253.479C201.698 257.226 200.809 260.971 199.913 264.713C196.409 279.353 192.823 293.974 189.172 308.578C188.609 310.831 188.044 313.084 187.473 315.335C187.139 316.652 186.682 317.651 185.147 317.672C183.991 317.688 182.834 317.672 181.679 317.671C175.127 317.668 168.574 317.664 162.022 317.66C147.527 317.651 133.033 317.64 118.538 317.637C117.322 317.637 116.106 317.637 114.889 317.637C112.315 317.637 112.311 321.637 114.889 321.637C129.492 321.637 144.096 321.649 158.699 321.658C165.818 321.662 172.937 321.667 180.056 321.671C183.037 321.673 186.751 322.285 189.195 320.248C191.321 318.476 191.642 315.176 192.282 312.624C195.999 297.824 199.634 283.003 203.197 268.166C204.985 260.723 206.771 253.278 208.451 245.81C208.937 243.651 209.321 241.201 207.958 239.269C206.365 237.01 203.146 236.794 200.668 236.247C195.037 235.004 189.399 233.797 183.755 232.615C180.917 232.021 178.077 231.433 175.237 230.85C172.397 230.267 169.509 229.462 166.63 229.145C165.571 229.028 164.473 229.155 163.54 229.703C162.314 230.423 161.858 231.676 161.443 232.959C160.527 235.793 159.63 238.633 158.732 241.473C155.14 252.832 151.637 264.219 148.225 275.633C147.372 278.487 146.525 281.342 145.682 284.199C144.953 286.673 148.812 287.73 149.539 285.262V285.26Z" fill="#211715"/>
<path d="M153.432 293.428C160.019 297.544 166.475 301.869 173.079 305.958C175.274 307.317 177.285 303.858 175.098 302.504C168.494 298.415 162.038 294.09 155.451 289.974C153.262 288.606 151.251 292.065 153.432 293.428Z" fill="#211715"/>
<path d="M195.718 247.727C192.544 260.498 189.179 273.222 185.86 285.956C185.008 289.223 184.156 292.489 183.306 295.756C182.657 298.249 186.514 299.313 187.163 296.819C190.565 283.75 193.99 270.687 197.342 257.605C198.094 254.669 198.844 251.732 199.575 248.79C200.196 246.292 196.339 245.226 195.718 247.727Z" fill="#211715"/>
<path d="M299.234 298.755C294.069 290.529 285.742 275.383 282.549 270.165C290.474 264.605 309.633 251.478 320.105 244.471C325.266 252.582 343.982 281.165 349.909 290.67L331.216 306.558" fill="white"/>
<path d="M361.96 187.521C362.618 182.402 363.856 179.598 366.092 175.835C367.105 174.13 372.86 166.557 384.392 163.475C389.896 162.004 395.924 161.455 402.014 162.678C408.105 163.901 417.911 166.886 425.781 180.551C428.84 185.862 431.03 193.341 430.694 200.555C430.085 213.61 422.977 222.499 418.213 226.973C415.122 229.876 409.574 233.699 408.849 237.936C408.784 238.316 408.779 239.034 408.814 239.862C404.912 239.744 401.771 240.399 397.525 241.483C390.108 243.376 386.085 245.664 381.101 248.852C380.138 246.086 379.347 243.811 379.347 243.811C378.392 240.861 377.111 238.441 377.071 238.313C376.815 237.528 376.015 237.045 375.205 237.202C371.828 237.851 366.751 236.982 363.117 235.337C361.263 234.498 359.524 233 358.286 230.165C357.701 228.84 357.301 227.078 357.034 225.277C356.63 222.543 356.528 219.706 356.562 218.091C356.321 216.889 355.884 215.76 355.085 214.761C353.879 213.248 351.845 211.988 353.108 209.612C353.588 208.714 354.428 208.082 355.36 207.663C360.057 205.555 360.753 198.722 361.268 193.798C361.352 190.867 361.718 188.223 362.32 185.835L361.96 187.521Z" fill="white"/>
<path d="M386.634 162.935C385.878 163.097 385.13 163.278 384.392 163.475C383.817 163.629 383.256 163.794 382.709 163.968C372.297 167.297 367.054 174.215 366.091 175.834C364.208 179.002 363.033 181.49 362.316 185.252C371.838 186.231 379.292 193.137 383.644 198.861C385.647 201.725 385.972 203.633 387.653 207.782C388.82 206.641 389.935 205.76 391.624 205.548C393.126 205.359 394.521 205.718 395.51 206.641C396.982 208.014 397.424 210.567 397.078 212.581C396.522 215.813 395.119 218.285 392.95 220.085C393.008 220.366 393.043 220.526 393.043 220.526C393.971 224.781 398.646 231.864 402.924 235.175L408.808 239.73C408.804 239.558 408.799 239.386 408.799 239.386C408.784 238.762 408.797 238.24 408.849 237.935C409.574 233.698 415.122 229.875 418.213 226.972C422.977 222.498 430.085 213.609 430.694 200.554C431.03 193.34 428.84 185.862 425.781 180.55C417.911 166.885 408.104 163.9 402.014 162.677C396.74 161.618 391.514 161.889 386.634 162.935Z" fill="#645D5C"/>
<path d="M366.282 188.101C371.156 189.648 375.369 192.713 378.887 196.369C380.402 197.943 381.89 199.603 382.954 201.522C384.071 203.537 384.722 205.782 385.566 207.917C385.963 208.921 386.904 209.622 388.026 209.314C388.982 209.051 389.822 207.864 389.423 206.854C388.47 204.443 387.719 201.91 386.476 199.625C385.251 197.374 383.486 195.379 381.716 193.54C377.718 189.385 372.872 185.997 367.346 184.243C364.887 183.463 363.834 187.323 366.283 188.1L366.282 188.101Z" fill="#211715"/>
<path d="M389.788 208.529C391.179 207.35 393.515 206.981 394.521 208.561C395.582 210.227 395.235 212.309 394.64 214.14C394.094 215.823 393.174 217.239 391.785 218.46C390.447 219.636 388.463 220.511 386.572 221.039C384.096 221.731 385.148 225.591 387.635 224.896C391.796 223.733 395.673 221.333 397.625 217.346C398.606 215.343 399.308 212.994 399.175 210.745C399.025 208.215 397.981 205.485 395.595 204.271C392.628 202.761 389.385 203.646 386.959 205.702C386.134 206.401 386.24 207.811 386.959 208.53C387.776 209.347 388.961 209.23 389.787 208.53L389.788 208.529Z" fill="#211715"/>
<path d="M363.501 200.535C362.835 201.915 362.553 205.294 365.113 206.005C368.563 206.548 369.421 202.548 368.578 200.462C367.888 198.755 365.203 197.651 363.501 200.534V200.535Z" fill="#211715"/>
<path d="M381.276 243.279C380.827 241.927 380.303 240.606 379.73 239.301C379.536 238.861 379.335 238.424 379.127 237.99C379.053 237.835 378.987 237.656 378.895 237.51L378.846 237.409C379.067 237.941 379.051 237.906 378.799 237.304C377.393 234.37 374.32 235.522 371.755 235.394C369.214 235.268 366.557 234.687 364.226 233.654C362.154 232.735 360.725 231.054 359.938 228.936C358.901 226.147 358.676 223.013 358.58 220.064C358.538 218.792 358.599 217.61 358.178 216.383C357.686 214.949 356.901 213.755 355.882 212.643C355.448 212.17 354.639 211.564 354.742 210.858C354.896 209.804 356.431 209.425 357.173 208.96C359.199 207.691 360.491 205.705 361.373 203.529C363.586 198.068 362.866 192.006 364.249 186.367C364.862 183.867 361.006 182.801 360.392 185.304C359.117 190.503 359.597 195.968 358.003 201.099C357.409 203.012 356.464 204.842 354.629 205.804C352.222 207.066 349.973 209.414 350.92 212.384C351.655 214.687 354.279 215.866 354.558 218.371C354.695 219.599 354.598 220.88 354.691 222.118C354.816 223.801 355.013 225.488 355.333 227.145C355.874 229.95 356.946 232.692 358.941 234.792C360.684 236.627 363.054 237.607 365.439 238.314C368.344 239.175 371.549 239.669 374.574 239.303C374.356 239.329 375.408 239.22 375.426 239.185C375.675 239.182 375.601 239.123 375.203 239.006C375.097 238.72 375.149 238.837 375.36 239.359C375.492 239.65 375.639 239.935 375.775 240.224C376.408 241.565 376.951 242.935 377.419 244.343C378.226 246.774 382.091 245.731 381.276 243.279Z" fill="#211715"/>
<path d="M363.96 187.521C364.522 183.319 366.01 179.187 368.559 175.768C368.258 176.171 368.753 175.528 368.845 175.417C369.046 175.174 369.253 174.935 369.463 174.7C370.018 174.078 370.603 173.483 371.21 172.912C372.748 171.464 374.43 170.2 376.234 169.102C385.225 163.628 396.814 162.522 406.717 166.013C415.871 169.24 423.044 177.506 426.372 186.5C430.407 197.404 428.982 209.251 422.502 218.886C419.835 222.851 416.414 225.842 412.881 228.998C410.69 230.956 408.492 233.139 407.375 235.909C406.357 238.431 406.829 241.412 407.239 244.022C407.407 245.09 408.742 245.682 409.699 245.419C410.837 245.106 411.264 244.03 411.096 242.959C410.755 240.792 410.411 238.447 411.468 236.572C412.81 234.19 415.061 232.369 417.103 230.61C420.425 227.747 423.398 224.678 425.869 221.035C432.794 210.824 434.553 197.902 430.514 186.228C426.951 175.931 419.267 166.732 409.044 162.631C398.659 158.465 386.261 159.359 376.362 164.446C372.276 166.546 368.458 169.486 365.603 173.106C362.325 177.263 360.656 182.331 359.962 187.52C359.819 188.593 360.984 189.52 361.962 189.52C363.162 189.52 363.818 188.596 363.962 187.52L363.96 187.521Z" fill="#211715"/>
<path d="M362.015 218.367C361.14 218.644 360.249 218.865 359.34 218.993L359.872 218.922C359.036 219.032 358.196 219.057 357.357 218.956L357.889 219.027C357.685 219 357.482 218.965 357.28 218.924C356.75 218.816 356.217 218.846 355.739 219.126C355.324 219.369 354.928 219.844 354.82 220.321C354.593 221.319 355.121 222.557 356.217 222.781C358.521 223.252 360.857 222.927 363.079 222.225C363.57 222.07 364.011 221.756 364.274 221.306C364.525 220.877 364.631 220.245 364.476 219.765C364.153 218.765 363.084 218.03 362.016 218.368L362.015 218.367Z" fill="#211715"/>
<path d="M391.116 221.058C391.777 223.977 393.351 226.749 395.002 229.214C396.817 231.923 398.931 234.569 401.511 236.59C402.36 237.255 403.511 237.419 404.339 236.59C405.031 235.898 405.194 234.431 404.339 233.762C401.957 231.896 400.063 229.595 398.455 227.196C397.613 225.938 396.838 224.632 396.171 223.272C396.011 222.947 395.859 222.618 395.713 222.286C395.797 222.476 395.745 222.37 395.694 222.241C395.627 222.071 395.559 221.902 395.496 221.731C395.285 221.163 395.106 220.586 394.973 219.995C394.734 218.941 393.52 218.321 392.513 218.598C391.43 218.896 390.877 220.001 391.116 221.058Z" fill="#211715"/>
<path d="M327.126 305.929C333.125 307.363 339.815 309.029 340.662 309.285L345.598 310.776C349.402 297.699 351.269 288.28 356.954 274.292C358.669 270.072 360.841 266.029 363.902 262.656C364.275 262.245 364.64 261.85 364.999 261.47C367.432 258.889 369.57 256.98 372.047 255.2C372.232 255.067 372.42 254.934 372.609 254.802L375.346 252.925C376.019 251.321 377.229 248.146 378.44 247.117C380.691 245.204 387.004 241.657 392.241 240.217C397.99 238.636 405.884 237.13 408.382 237.052C410.556 236.985 413.908 240.183 416.345 244.173L421.978 244.986C429.869 250.548 435.734 258.644 439.782 267.409C444.7 278.057 447.088 289.723 449.128 301.212C447.774 300.722 446.25 300.632 444.761 301.065C433.36 304.379 416.855 309.196 405.523 312.465C401.707 313.566 399.338 317.061 399.061 321.023C398.52 328.753 397.874 333.706 397.387 340.608C384.984 340.608 361.769 340.608 361.769 340.608C357.212 342.06 349.911 342.323 336.796 336.61C326.839 332.273 312.99 325.156 309.188 321.521C310.471 315.747 314.075 308.272 316.837 303.649C317.414 303.755 317.849 303.83 317.849 303.83C319.189 304.062 322.994 304.94 327.127 305.929H327.126Z" fill="#3D8DCC"/>
<path d="M379.852 307.574C377.382 314.585 375.074 321.758 371.932 328.506C369.658 333.388 365.511 337.649 360.154 338.986C359.246 339.213 358.531 339.328 357.894 339.389C356.853 339.489 355.805 339.511 354.76 339.472C352.071 339.371 349.426 338.837 346.837 338.123C339.871 336.202 333.273 332.959 326.832 329.734C323.514 328.073 320.226 326.343 317.022 324.47C314.767 323.151 312.364 321.764 310.601 320.107L311.115 322.053C312.533 315.858 315.421 309.907 318.671 304.477C319.996 302.263 316.539 300.249 315.217 302.458C312.949 306.248 311.006 310.244 309.38 314.351C308.553 316.44 307.747 318.609 307.297 320.817C306.905 322.744 308.637 323.739 309.998 324.728C316.388 329.373 323.816 332.83 330.949 336.155C338.467 339.659 346.458 343.204 354.885 343.478C361.621 343.696 367.771 340.9 372.131 335.704C374.77 332.559 376.24 328.75 377.737 324.969C379.87 319.58 381.783 314.104 383.708 308.639C384.565 306.206 380.702 305.16 379.851 307.576L379.852 307.574Z" fill="#211715"/>
<path d="M399.046 346.374C399.448 338.055 400.413 329.785 401.027 321.481C401.269 318.21 402.945 315.313 406.218 314.345C409.969 313.236 413.733 312.171 417.489 311.08C425.499 308.754 433.506 306.42 441.515 304.09C444.52 303.216 448.012 301.665 450.52 304.45C451.664 305.72 451.666 307.116 451.543 308.733C451.373 310.966 451.21 313.201 451.055 315.435C450.535 322.972 450.162 330.518 449.646 338.056C449.47 340.625 453.471 340.614 453.646 338.056C454.135 330.902 454.493 323.74 454.976 316.586C455.132 314.283 455.297 311.981 455.47 309.679C455.637 307.469 455.732 305.457 454.661 303.435C452.764 299.851 448.433 298.151 444.56 299.046C440.52 299.98 436.533 301.372 432.552 302.531C428.161 303.809 423.769 305.088 419.377 306.364C415.252 307.563 411.126 308.761 406.999 309.953C404.989 310.534 403.064 311.076 401.391 312.39C399.946 313.524 398.832 315.002 398.101 316.685C397.071 319.057 397.029 321.567 396.825 324.107C396.633 326.499 396.411 328.889 396.185 331.278C395.71 336.304 395.287 341.329 395.043 346.372C394.919 348.945 398.919 348.939 399.043 346.372L399.046 346.374Z" fill="#211715"/>
<path d="M341.194 307.356C337.674 306.311 334.049 305.544 330.482 304.68C326.471 303.709 322.447 302.618 318.38 301.902C317.317 301.715 316.225 302.188 315.92 303.299C315.655 304.265 316.247 305.571 317.317 305.759C321.384 306.476 325.408 307.566 329.419 308.537C332.986 309.401 336.611 310.168 340.131 311.213C342.604 311.947 343.66 308.088 341.194 307.356Z" fill="#211715"/>
<path d="M371.599 253.074C367.863 255.702 364.41 258.831 361.515 262.372C358.498 266.063 356.421 270.264 354.659 274.667C351.32 283.01 348.801 291.594 346.449 300.258C345.053 305.399 343.632 310.532 342.053 315.621C341.288 318.085 345.149 319.139 345.91 316.684C348.492 308.362 350.566 299.9 353.042 291.548C354.272 287.399 355.631 283.289 357.154 279.238C358.775 274.928 360.497 270.644 363.126 266.834C365.877 262.847 369.665 259.308 373.617 256.528C375.707 255.058 373.71 251.589 371.598 253.074H371.599Z" fill="#211715"/>
<path d="M420.967 246.712C432.781 255.122 439.285 268.799 443.043 282.421C444.246 286.78 445.208 291.2 446.071 295.638C446.562 298.162 450.418 297.094 449.928 294.575C446.938 279.217 442.434 263.639 432.06 251.528C429.383 248.403 426.337 245.644 422.986 243.259C422.106 242.632 420.76 243.103 420.25 243.977C419.663 244.981 420.085 246.085 420.968 246.713L420.967 246.712Z" fill="#211715"/>
<path d="M410.605 243.558C403.387 244.301 396.159 245.268 389.115 247.05C382.931 248.614 376.968 250.872 371.234 253.66C368.919 254.785 370.945 258.236 373.253 257.114C385.033 251.387 397.651 248.892 410.605 247.559C411.679 247.448 412.605 246.719 412.605 245.559C412.605 244.563 411.686 243.448 410.605 243.559V243.558Z" fill="#211715"/>
<path d="M418.075 243.163C416.187 240.127 413.553 236.53 410.014 235.321C408.776 234.898 407.506 235.098 406.243 235.266C404.609 235.483 402.985 235.761 401.367 236.071C397.587 236.794 393.727 237.555 390.077 238.792C386.398 240.038 382.805 241.774 379.538 243.876C378.173 244.754 376.856 245.662 375.944 247.03C374.85 248.67 374.175 250.583 373.421 252.393C373.005 253.391 373.87 254.593 374.818 254.853C375.97 255.169 376.861 254.457 377.278 253.456C377.823 252.147 378.345 250.817 379.062 249.589C379.625 248.625 380.282 248.171 381.176 247.578C383.928 245.752 386.938 244.207 390.029 243.046C393.238 241.841 396.643 241.121 399.991 240.418C402.611 239.868 405.324 239.245 407.96 239.074C408.925 239.011 409.809 239.575 410.721 240.386C412.275 241.768 413.526 243.421 414.621 245.181C415.977 247.363 419.439 245.358 418.075 243.163Z" fill="#211715"/>
<path d="M300.961 297.745C295.101 288.39 290.024 278.574 284.276 269.155L283.558 271.891C293.337 265.033 303.21 258.306 313.096 251.603C315.764 249.794 318.435 247.99 321.114 246.197L318.378 245.479C326.394 258.072 334.635 270.523 342.709 283.079C344.547 285.937 346.384 288.795 348.182 291.678L348.495 289.254C343.055 293.878 337.616 298.501 332.176 303.125L329.802 305.142C327.838 306.812 330.679 309.629 332.63 307.97C338.07 303.346 343.509 298.723 348.949 294.099L351.323 292.082C351.975 291.528 352.076 290.364 351.636 289.658C343.59 276.764 335.175 264.096 326.912 251.341C325.213 248.718 323.511 246.095 321.833 243.458C321.28 242.589 320.024 242.12 319.097 242.74C308.753 249.664 298.482 256.7 288.242 263.777C286.004 265.323 283.769 266.873 281.542 268.435C280.671 269.046 280.223 270.186 280.824 271.171C286.572 280.591 291.648 290.407 297.509 299.761C298.872 301.938 302.335 299.932 300.963 297.742L300.961 297.745Z" fill="#211715"/>
<path d="M301.783 297.563C301.58 296.075 301.389 294.586 301.204 293.096C301.123 292.446 301.027 291.796 300.971 291.144C300.95 290.899 300.936 290.653 300.937 290.407C300.937 290.318 301.013 289.705 300.959 289.96C300.991 289.808 301.213 289.405 300.991 289.678C301.099 289.544 301.249 289.482 301.306 289.466C301.44 289.428 301.784 289.492 302.084 289.636C303.165 290.154 303.894 291.214 304.512 292.196C305.965 294.504 307.331 296.869 308.697 299.229C310.184 301.797 311.751 304.3 312.721 307.121C313.072 308.142 314.093 308.817 315.181 308.518C316.174 308.245 316.931 307.084 316.578 306.058C315.61 303.246 314.182 300.73 312.703 298.167C311.39 295.892 310.073 293.619 308.706 291.376C307.312 289.089 305.794 286.741 303.162 285.767C300.211 284.674 297.344 286.61 296.989 289.644C296.842 290.894 297.084 292.152 297.239 293.391C297.457 295.137 297.687 296.882 297.925 298.626C298.071 299.697 299.443 300.282 300.385 300.023C301.54 299.706 301.929 298.637 301.783 297.563Z" fill="#211715"/>
<path d="M292.518 287.846C290.808 288.498 289.126 289.271 287.86 290.638C286.394 292.221 285.282 294.797 285.753 296.976C285.978 298.016 286.711 298.755 287.072 299.713C287.401 300.586 286.653 301.395 286.451 302.27C285.872 304.784 287.037 307.237 289.112 308.655L288.394 305.919C286.302 310.834 287.781 316.555 292.514 319.336C294.849 320.708 297.686 320.933 300.3 321.404C303.339 321.952 306.378 322.499 309.417 323.047C310.479 323.238 311.573 322.758 311.877 321.65C312.143 320.681 311.549 319.382 310.48 319.19C308.081 318.758 305.682 318.326 303.282 317.893C300.919 317.467 298.47 317.184 296.153 316.552C292.505 315.557 290.326 311.512 291.847 307.938C292.295 306.886 292.117 305.877 291.129 305.202C289.653 304.193 290.628 302.763 291.004 301.493C291.587 299.525 290.689 298.259 289.87 296.577C289.36 295.529 290.033 294.169 290.785 293.359C291.529 292.557 292.578 292.085 293.581 291.703C294.59 291.318 295.284 290.356 294.978 289.243C294.713 288.277 293.532 287.459 292.518 287.846Z" fill="#211715"/>
<path d="M71.595 254.241C70.073 251.55 68.088 248.554 67.141 247.491C60.146 239.651 50.742 234.362 42.438 229.144C32.704 236.79 30.703 237.553 25.496 247.393C22.337 253.362 19.924 262.069 17.639 272.143C14.994 287.853 14.359 296.479 13.35 309.406C13.017 312.686 12.75 316.834 12.583 320.557C28.044 320.555 63.238 320.555 63.238 320.555C66.201 321.129 69.266 321.343 72.32 321.49C82.493 321.98 92.727 321.756 102.844 320.82C103.006 311.473 102.182 302.108 100.383 292.936C88.96 293.682 82.047 291.784 80.06 283.006C77.601 272.146 75.411 260.988 71.595 254.242" fill="#7ABEE6"/>
<path d="M35.7954 231.798C33.8224 233.347 31.8534 234.923 30.1474 236.77C28.3224 238.746 26.8104 240.989 25.4644 243.31C22.2144 248.913 20.0364 254.907 18.3104 261.135C17.2904 264.815 16.2164 268.573 15.5884 272.342C14.9734 276.033 14.4044 279.731 13.9034 283.439C13.0794 289.536 12.4584 295.653 11.9544 301.784C11.3354 309.307 10.6614 316.825 10.4434 324.374C10.3694 326.949 14.3694 326.947 14.4434 324.374C14.6344 317.747 15.2074 311.156 15.7314 304.551C16.2054 298.582 16.7344 292.618 17.4804 286.676C18.3814 279.5 19.5174 272.407 21.3164 265.398C22.8804 259.306 24.6454 253.181 27.6424 247.62C29.0334 245.039 30.5004 242.435 32.4294 240.211C34.2584 238.102 36.4364 236.346 38.6254 234.628C39.4754 233.96 39.3244 232.499 38.6254 231.8C37.7854 230.96 36.6494 231.131 35.7974 231.8L35.7954 231.798Z" fill="#211715"/>
<path d="M99.5561 298.465C100.552 305.879 100.992 313.352 100.873 320.831C100.832 323.406 104.832 323.407 104.873 320.831C104.992 313.352 104.552 305.879 103.556 298.465C103.412 297.395 102.74 296.465 101.556 296.465C100.587 296.465 99.4111 297.387 99.5561 298.465Z" fill="#211715"/>
<path d="M38.8472 298.498C39.9872 302.632 41.1442 306.804 43.3902 310.499C45.6892 314.28 48.8632 317.143 52.8102 319.14C62.1072 323.843 72.9742 323.759 83.1512 323.742C89.3862 323.732 95.6172 323.449 101.828 322.911C104.373 322.691 104.396 318.689 101.828 318.911C91.5432 319.802 81.1812 320.011 70.8732 319.414C62.7982 318.946 52.8002 317.097 47.8142 309.964C45.1562 306.162 43.9232 301.854 42.7042 297.435C42.0212 294.957 38.1602 296.009 38.8472 298.498Z" fill="#211715"/>
<path d="M74.5511 242.896C74.7231 241.047 75.0931 239.027 74.5271 237.213C73.9381 235.325 72.5941 233.966 70.8711 233.075C68.0251 231.603 65.0951 230.29 62.1581 229.014C56.3991 226.512 50.5731 224.093 44.6401 222.03C42.2041 221.183 41.1571 225.046 43.5771 225.887C48.8431 227.718 54.0241 229.838 59.1451 232.039C61.9391 233.24 64.7201 234.476 67.4481 235.822C68.5701 236.376 70.0631 236.863 70.6011 238.094C71.1921 239.448 70.6831 241.484 70.5521 242.897C70.4521 243.974 71.5431 244.897 72.5521 244.897C73.7171 244.897 74.4521 243.977 74.5521 242.897L74.5511 242.896Z" fill="#211715"/>
<path d="M69.8682 255.25C71.8362 258.782 73.0532 262.683 74.1242 266.565C75.4412 271.337 76.4862 276.18 77.5642 281.009C78.3142 284.369 79.0902 287.596 81.4372 290.235C83.3352 292.369 86.0262 293.671 88.7692 294.326C92.7922 295.287 97.0222 295.176 101.118 294.883C103.671 294.7 103.691 290.699 101.118 290.883C95.8132 291.263 88.4662 291.819 84.5092 287.671C82.3962 285.456 81.9242 282.199 81.2682 279.256C80.2732 274.796 79.2972 270.328 78.0962 265.918C76.9122 261.569 75.5252 257.184 73.3222 253.231C72.0692 250.982 68.6132 252.997 69.8682 255.25Z" fill="#211715"/>
<path d="M42.2871 231.406C47.6421 234.745 53.1091 237.968 58.0961 241.853C60.6051 243.808 62.9901 245.936 65.1511 248.271C67.0511 250.324 68.4881 252.832 69.8681 255.25C71.1441 257.486 74.6011 255.473 73.3221 253.231C71.8451 250.643 70.2761 247.978 68.2691 245.758C66.0291 243.281 63.5191 241.052 60.8901 238.998C55.6441 234.897 49.9471 231.47 44.3061 227.952C42.1151 226.586 40.1051 230.045 42.2871 231.406Z" fill="#211715"/>
<path d="M79.463 262.515C79.463 259.601 79.417 256.687 79.396 253.773C79.375 250.761 79.501 247.712 78.979 244.734C78.792 243.669 77.489 243.07 76.519 243.337C75.395 243.646 74.935 244.73 75.122 245.797C75.596 248.5 75.379 251.374 75.398 254.109C75.418 256.911 75.462 259.713 75.462 262.514C75.462 265.088 79.462 265.092 79.462 262.514L79.463 262.515Z" fill="#211715"/>
<path d="M14.6732 269.72C10.3382 269.72 6.17718 271.262 3.34518 274.657C1.15918 277.278 0.0221784 280.487 0.00617839 283.896C-0.00882161 287.137 0.00617839 290.379 0.00617839 293.62V339.713C0.00617839 342.287 4.00618 342.291 4.00618 339.713V284.979C4.00618 283.213 4.07118 281.505 4.77418 279.833C6.48318 275.765 10.4192 273.72 14.6732 273.72C17.2472 273.72 17.2512 269.72 14.6732 269.72Z" fill="#211715"/>
<path d="M86.4843 189.343C87.1383 190.698 87.4143 194.015 84.9013 194.713C81.5143 195.246 80.6723 191.319 81.5003 189.272C82.1783 187.596 84.8143 186.513 86.4843 189.343Z" fill="#211715"/>
<path d="M72.8572 232.359C73.2752 231.101 73.7512 229.869 74.3072 228.666C74.4632 228.329 74.6303 227.998 74.7863 227.661C74.8583 227.506 75.1052 227.035 75.0752 227.001L75.0282 227.129C74.6052 227.255 74.5222 227.319 74.7782 227.323C74.8392 227.474 76.4302 227.52 76.6582 227.531C77.2702 227.562 77.8842 227.556 78.4962 227.522C79.9212 227.443 81.3512 227.238 82.7462 226.936C85.1652 226.413 87.7312 225.617 89.7232 224.103C91.9772 222.39 93.4222 219.847 94.1582 217.14C94.9542 214.214 95.2212 211.089 95.2902 208.066C95.3162 206.915 95.3632 206.005 96.0002 204.989C96.6342 203.978 97.6213 203.239 98.2723 202.231C99.8753 199.746 98.7872 196.751 96.4622 195.167C95.6652 194.624 94.7473 194.342 94.0353 193.672C93.3093 192.989 92.7892 192.12 92.3912 191.211C91.4422 189.046 91.1032 186.591 90.8402 184.261C90.4642 180.938 90.3742 177.651 89.5722 174.381C88.9592 171.882 85.1012 172.94 85.7152 175.444C86.9402 180.439 86.5192 185.671 87.9652 190.633C88.5772 192.734 89.5282 194.837 91.1012 196.398C91.9052 197.197 92.8232 197.7 93.8052 198.231C94.4492 198.58 95.2752 199.161 94.9742 199.964C94.6522 200.823 93.5682 201.566 93.0192 202.298C92.1652 203.438 91.4932 204.883 91.3312 206.311C91.1972 207.492 91.2852 208.72 91.2122 209.911C91.1102 211.565 90.9372 213.217 90.5962 214.841C90.1062 217.175 89.2053 219.593 87.1893 221.031C85.2663 222.403 82.5932 222.985 80.3012 223.339C78.9392 223.549 77.5132 223.632 76.1392 223.494C74.6372 223.344 73.2242 223.202 72.0822 224.435C71.9392 224.589 71.6982 224.897 71.5742 225.109C71.4552 225.37 71.3422 225.633 71.2332 225.898C71.3982 225.517 71.4402 225.414 71.3572 225.587C71.1862 225.939 71.0162 226.291 70.8522 226.646C70.1522 228.161 69.5252 229.711 68.9982 231.295C68.1842 233.743 72.0463 234.793 72.8553 232.358L72.8572 232.359Z" fill="#211715"/>
<path d="M86.8902 210.671C89.0792 211.363 91.3782 211.681 93.6462 211.217C94.1182 211.12 94.6042 210.703 94.8412 210.298C95.0922 209.869 95.1982 209.237 95.0432 208.757C94.6912 207.669 93.6832 207.135 92.5832 207.36C92.3852 207.401 92.1862 207.434 91.9852 207.461L92.5172 207.39C91.6942 207.49 90.8692 207.465 90.0482 207.357L90.5802 207.428C89.6872 207.303 88.8132 207.085 87.9532 206.814C86.9552 206.499 85.7262 207.185 85.4932 208.211C85.2452 209.301 85.8212 210.334 86.8902 210.671Z" fill="#211715"/>
<path d="M44.485 152.256C45.962 151.796 47.335 151.48 48.559 151.234C54.664 150.008 60.706 150.559 66.223 152.033C77.782 155.122 83.551 162.713 84.566 164.422C85.445 165.901 86.17 167.231 86.766 168.612C83.699 179.499 74.43 189.399 61.743 195.535C60.925 194.88 60.039 194.41 58.876 194.264C57.402 194.079 56.032 194.431 55.061 195.337C53.616 196.685 53.182 199.191 53.522 201.168C54.257 205.442 56.501 208.361 60.059 210.142C58.631 216.234 57.894 218.825 58.299 223.949C58.545 227.064 61.427 234.931 65.755 236.421C61.566 239.631 56.322 242.138 51.296 243.023C41.799 244.695 32.586 242.376 28.196 239.548C24.623 237.246 22.149 235.459 20.591 231.444C19.765 229.316 20.212 225.87 20.521 223.881C21.65 216.617 23.683 212.717 21.249 200.678C20.797 198.601 20.286 194.574 19.812 189.202C19.475 181.971 21.67 174.475 24.736 169.151C31.044 158.199 38.592 154.091 44.485 152.258V152.256Z" fill="#645D5C"/>
<path d="M83.7584 171.272C79.5494 181.206 71.0854 188.563 61.6194 193.37C59.3234 194.536 61.3454 197.988 63.6384 196.824C73.6264 191.752 82.7714 183.775 87.2124 173.291C87.6334 172.297 87.5104 171.149 86.4944 170.555C85.6554 170.064 84.1814 170.271 83.7584 171.272Z" fill="#211715"/>
<path d="M57.8472 210.807C56.6032 216.08 55.3542 221.65 56.8742 227.009C58.1292 231.433 60.6432 236.637 65.2222 238.348C67.6362 239.25 68.6792 235.385 66.2852 234.491C64.7572 233.92 63.6322 232.261 62.8292 230.895C61.8292 229.194 61.0832 227.352 60.5952 225.441C60.4972 225.059 60.4132 224.675 60.3432 224.288C60.3302 224.218 60.2732 223.753 60.3142 224.125C60.2842 223.854 60.2702 223.582 60.2532 223.31C60.1752 222.057 60.1612 220.802 60.2492 219.549C60.4322 216.947 61.1072 214.398 61.7042 211.869C62.2952 209.366 58.4392 208.297 57.8472 210.806V210.807Z" fill="#211715"/>
<path d="M90.708 176.136C89.966 170.586 88.08 165.199 84.404 160.894C80.587 156.424 75.419 153.14 69.937 151.115C57.553 146.541 42.856 148.03 32.529 156.526C26.75 161.28 22.333 167.984 19.933 175.043C18.585 179.007 17.815 183.235 17.78 187.426C17.748 191.244 18.345 195.171 18.919 198.943C19.425 202.265 20.186 205.511 20.351 208.882C20.481 211.552 20.291 214.196 19.817 216.822C18.742 222.777 16.573 229.333 20.071 234.876C21.852 237.699 24.606 239.692 27.41 241.415C30.268 243.171 33.623 244.203 36.897 244.827C45.329 246.434 54.004 245.478 61.625 241.44C63.427 240.485 65.138 239.378 66.764 238.148C67.624 237.497 68.073 236.422 67.482 235.412C66.987 234.565 65.612 234.039 64.746 234.694C58.355 239.53 50.967 241.912 42.948 241.544C36.667 241.256 30.272 239.456 25.522 235.164C23.281 233.14 22.03 230.647 22.131 227.61C22.217 225.018 22.776 222.462 23.281 219.927C23.76 217.525 24.191 215.108 24.336 212.659C24.525 209.471 24.217 206.284 23.72 203.136C22.652 196.375 21.073 189.518 22.163 182.649C23.317 175.384 26.575 168.597 31.47 163.106C39.256 154.371 50.942 151.05 62.368 153.205C68.575 154.376 74.476 156.928 79.16 161.229C79.918 161.926 80.644 162.659 81.325 163.432C81.566 163.706 81.798 163.986 82.029 164.268C82.097 164.351 82.163 164.436 82.229 164.521C82.223 164.513 82.013 164.237 82.142 164.411C82.233 164.535 82.325 164.658 82.414 164.784C83.791 166.74 84.913 169.006 85.642 171.282C86.147 172.86 86.491 174.496 86.71 176.137C86.853 177.207 87.527 178.137 88.71 178.137C89.679 178.137 90.854 177.215 90.71 176.137L90.708 176.136Z" fill="#211715"/>
<path d="M63.4814 194.388C61.4134 192.636 58.6994 191.642 56.0074 192.536C53.4784 193.375 51.9454 195.647 51.5574 198.216C50.9154 202.472 52.8634 207.204 56.1554 209.946C58.0934 211.56 60.3614 212.617 62.7824 213.294C65.2654 213.988 66.3254 210.13 63.8454 209.437C62.7724 209.137 61.9224 208.848 61.0184 208.391C60.1714 207.963 59.2634 207.37 58.7444 206.914C58.0404 206.296 57.5424 205.732 57.1444 205.133C56.5544 204.245 56.2424 203.587 55.9514 202.689C55.3564 200.854 55.0464 198.883 56.0644 197.241C57.0024 195.729 59.2924 196.064 60.6534 197.217C61.4774 197.915 62.6734 198.025 63.4814 197.217C64.1974 196.501 64.3094 195.09 63.4814 194.389V194.388Z" fill="#211715"/>
<path d="M112.594 296.022C115.307 294.459 118.239 292.854 121.447 292.756C123.722 292.686 126.274 293.455 127.6 295.445C128.198 296.343 129.365 296.731 130.336 296.163C131.228 295.641 131.655 294.33 131.054 293.427C129.032 290.392 125.559 288.817 121.961 288.754C117.851 288.682 114.047 290.571 110.575 292.57C108.345 293.854 110.357 297.312 112.594 296.024V296.022Z" fill="#211715"/>
<path d="M128.029 296.931C128.221 296.873 128.413 296.833 128.607 296.787C128.881 296.722 128.516 296.82 128.438 296.804C128.527 296.822 128.657 296.782 128.748 296.776C129.135 296.75 129.525 296.76 129.911 296.796C130.339 296.836 129.88 296.741 129.846 296.78C129.872 296.751 130.147 296.829 130.183 296.836C130.388 296.873 130.591 296.917 130.793 296.966C131.23 297.072 131.66 297.204 132.082 297.357C132.172 297.39 132.261 297.423 132.351 297.458C132.611 297.559 132.517 297.572 132.338 297.446C132.504 297.563 132.74 297.625 132.924 297.714C133.326 297.909 133.719 298.122 134.1 298.354C134.444 298.564 134.759 298.838 135.107 299.035C134.705 298.808 134.945 298.905 135.058 299.001C135.137 299.069 135.219 299.135 135.298 299.204C135.45 299.337 135.596 299.475 135.739 299.617C136.482 300.355 137.835 300.415 138.567 299.617C139.299 298.819 139.36 297.576 138.567 296.789C137.053 295.286 135.139 294.222 133.145 293.5C131.213 292.8 128.966 292.468 126.965 293.074C125.965 293.377 125.23 294.488 125.568 295.534C125.895 296.544 126.956 297.256 128.028 296.931H128.029Z" fill="#211715"/>
<path d="M131.176 301.111C131.467 301.019 131.76 300.931 132.057 300.861C132.205 300.826 132.359 300.807 132.505 300.768C132.803 300.688 132.061 300.79 132.607 300.753C133.122 300.718 133.632 300.728 134.146 300.774C134.431 300.8 134.113 300.802 134.025 300.757C134.105 300.798 134.265 300.8 134.359 300.819C134.58 300.865 134.798 300.922 135.013 300.989C135.234 301.057 135.447 301.14 135.663 301.221C135.915 301.316 135.219 301.008 135.647 301.219C135.759 301.274 135.872 301.325 135.984 301.381C136.452 301.614 136.907 301.874 137.355 302.143C137.611 302.296 137.887 302.534 138.163 302.64C138.4 302.731 137.818 302.309 137.952 302.479C137.995 302.534 138.061 302.583 138.108 302.635C138.161 302.692 138.356 302.936 138.151 302.673C137.931 302.39 138.17 302.713 138.197 302.755C138.282 302.886 138.395 303.26 138.514 303.332C138.438 303.285 138.386 302.97 138.474 303.252C138.511 303.372 138.551 303.489 138.583 303.61C138.612 303.722 138.671 303.869 138.664 303.988L138.632 303.772C138.641 303.88 138.646 303.989 138.646 304.098C138.668 305.143 139.55 306.147 140.646 306.098C141.711 306.05 142.67 305.219 142.646 304.098C142.614 302.586 142.073 301.218 141.138 300.044C140.402 299.12 139.177 298.527 138.142 297.997C135.595 296.693 132.865 296.382 130.115 297.255C129.119 297.571 128.377 298.66 128.718 299.715C129.041 300.714 130.11 301.451 131.178 301.112L131.176 301.111Z" fill="#211715"/>
<path d="M104.549 312.951C105.28 314.545 106.943 315.536 108.517 316.14C110.381 316.856 112.271 316.648 114.204 316.364C116.289 316.057 118.323 315.499 120.306 314.794C121.289 314.445 122.26 314.061 123.223 313.66C124.262 313.227 124.915 312.905 126.046 313.036C127.121 313.161 128.046 312.027 128.046 311.036C128.046 309.851 127.124 309.161 126.046 309.036C124.068 308.806 122.495 309.693 120.708 310.39C118.921 311.087 117.099 311.696 115.228 312.119C114.362 312.315 113.487 312.478 112.603 312.568C111.885 312.641 111.127 312.716 110.667 312.614C109.56 312.368 108.416 311.831 108.004 310.932C107.554 309.95 106.134 309.708 105.268 310.214C104.26 310.804 104.098 311.965 104.55 312.95L104.549 312.951Z" fill="#211715"/>
<path d="M106.165 297.482C107.967 297.593 109.698 296.955 111.462 296.712L110.93 296.783C110.99 296.775 111.049 296.768 111.109 296.761C111.658 296.696 112.117 296.581 112.523 296.175C112.87 295.828 113.131 295.259 113.109 294.761C113.086 294.244 112.916 293.707 112.523 293.347C112.159 293.013 111.623 292.7 111.109 292.761C109.745 292.924 108.429 293.299 107.072 293.49L107.604 293.419C107.126 293.482 106.647 293.512 106.165 293.482C105.672 293.452 105.092 293.727 104.751 294.068C104.404 294.415 104.143 294.984 104.165 295.482C104.216 296.621 105.044 297.413 106.165 297.482Z" fill="#211715"/>
<path d="M108.199 291.203C111.668 288.341 115.799 286.341 120.175 285.324C122.256 284.841 124.568 284.423 126.705 284.725C127.732 284.87 128.695 285.255 129.564 285.813C129.949 286.06 130.286 286.339 130.612 286.66C130.788 286.834 130.942 287.033 131.12 287.205C131.352 287.429 131.255 287.623 131.343 287.352C131.053 288.247 131.554 289.112 132.262 289.611C133.791 290.687 135.167 291.962 136.384 293.381C136.982 294.078 137.521 294.816 138.018 295.588C138.392 296.169 139.169 297.071 139.128 297.769L139.401 296.76L139.737 296.535H140.8L140.535 296.441C138.105 295.577 137.059 299.44 139.472 300.298C141.19 300.909 143.013 299.539 143.128 297.769C143.235 296.122 142.126 294.543 141.249 293.229C139.383 290.433 137.025 288.088 134.282 286.157L135.201 288.416C136.121 285.582 132.864 282.896 130.609 281.817C127.718 280.435 124.651 280.542 121.552 281.004C115.576 281.895 110.014 284.545 105.371 288.375C103.384 290.014 106.228 292.83 108.199 291.203Z" fill="#211715"/>
<path d="M126.046 313.092C128.695 313.417 131.352 313.676 134.015 313.843C136.521 314 139.199 314.356 141.526 313.195C143.606 312.157 144.75 310.057 144.162 307.767C143.597 305.566 141.778 304.407 139.663 303.986C136.892 303.434 134.059 303.08 131.258 302.72C130.185 302.582 129.258 303.738 129.258 304.72C129.258 305.915 130.182 306.582 131.258 306.72C133.705 307.034 136.18 307.359 138.6 307.843C138.874 307.898 139.149 307.957 139.418 308.035C139.52 308.065 140.008 308.258 139.584 308.065C139.774 308.152 139.949 308.257 140.125 308.369C139.784 308.152 140.209 308.505 140.048 308.263C140.125 308.375 140.194 308.493 140.255 308.615C140.205 308.492 140.203 308.496 140.248 308.627C140.282 308.727 140.31 308.83 140.332 308.933C140.323 308.744 140.325 308.771 140.34 309.012C140.329 309.263 140.338 309.272 140.368 309.039C140.31 309.235 140.308 309.258 140.362 309.108C140.64 308.893 139.947 309.543 140.335 309.137C140.211 309.267 140.087 309.401 139.945 309.512C140.211 309.303 139.581 309.707 139.508 309.741C139.741 309.631 139.207 309.845 139.15 309.861C138.863 309.944 138.705 309.979 138.45 310C137.143 310.105 135.768 309.947 134.461 309.87C131.649 309.705 128.844 309.435 126.048 309.092C124.974 308.96 124.048 310.106 124.048 311.092C124.048 312.282 124.971 312.96 126.048 313.092H126.046Z" fill="#211715"/>
<path d="M263.83 44.64V130.079L265.83 128.079H87.8602C85.2862 128.079 85.2822 132.079 87.8602 132.079H265.83C266.911 132.079 267.83 131.163 267.83 130.079V44.64C267.83 42.066 263.83 42.062 263.83 44.64Z" fill="#D9D9D9"/>
<path d="M187.796 0.10798C178.23 5.26098 167.845 11.299 156.943 13.928C156.023 14.15 156.021 15.453 156.941 15.678L166.707 18.063C167.353 18.221 167.624 19 167.203 19.514C152.126 37.939 123.79 55.098 99.2771 64.994C98.0571 65.487 98.5721 67.311 99.8721 67.109C113.772 64.951 127.03 60.89 140.762 54.167C154.683 47.352 165.992 40.817 175.039 29.59C175.424 29.112 176.16 29.158 176.463 29.692C177.907 32.237 180.093 35.7 182.088 39.034C182.507 39.734 183.566 39.564 183.738 38.767C186.064 28.007 188.122 11.862 189.108 0.97998C189.172 0.26898 188.424 -0.23102 187.796 0.10698V0.10798Z" fill="#3D8DCC"/>
<path d="M239.509 107.387V108.615C234.768 108.623 228.084 108.615 220.237 108.607V28.6479H239.509V107.387Z" fill="#3D8DCC"/>
<path d="M190.918 107.916V53.043H210.19V108.607C204.075 108.599 197.57 108.599 190.918 108.599V107.916Z" fill="#78AFDB"/>
<path d="M180.872 107.387V108.582C174.359 108.582 167.853 108.574 161.6 108.566V77.438H180.872V107.387Z" fill="#B1D1EB"/>
<path d="M132.281 99.924C132.281 98.598 132.281 97.766 132.281 97.766H151.555V108.561C144.385 108.555 137.816 108.548 132.278 108.54C132.28 105.316 132.28 102.009 132.281 99.924Z" fill="#D8E8F5"/>
</g>
<defs>
<clipPath id="clip0_523_1991">
<rect width="455.574" height="365.12" fill="white"/>
</clipPath>
</defs>
</svg>
