<svg width="71" height="112" viewBox="0 0 71 112" fill="none" xmlns="http://www.w3.org/2000/svg">
<path d="M36.7071 0.292893C36.3166 -0.0976311 35.6834 -0.0976311 35.2929 0.292893L28.9289 6.65685C28.5384 7.04738 28.5384 7.68054 28.9289 8.07107C29.3195 8.46159 29.9526 8.46159 30.3431 8.07107L36 2.41421L41.6569 8.07107C42.0474 8.46159 42.6805 8.46159 43.0711 8.07107C43.4616 7.68054 43.4616 7.04738 43.0711 6.65685L36.7071 0.292893ZM37 71L37 1L35 1L35 71L37 71Z" fill="black"/>
<path d="M2.77416 106H1.13916C1.22916 105.43 1.25916 104.995 1.25916 104.245L1.25916 96.16C1.25916 95.5 1.22916 95.035 1.13916 94.39C1.67916 94.42 2.14416 94.435 2.84916 94.435H5.93916C8.35416 94.435 9.68916 95.65 9.68916 97.81C9.68916 100.09 8.29416 101.395 5.86416 101.395H2.65416L2.65416 104.23C2.65416 104.98 2.68416 105.46 2.77416 106ZM2.65416 100.165H5.86416C7.37916 100.165 8.23416 99.34 8.23416 97.87C8.23416 96.43 7.42416 95.665 5.86416 95.665H2.65416L2.65416 100.165ZM16.6309 106V104.995C16.0609 105.49 15.7909 105.67 15.2959 105.85C14.7859 106.045 14.2309 106.135 13.6459 106.135C11.9659 106.135 10.9309 105.25 10.9309 103.795C10.9309 102.64 11.6659 101.74 12.9559 101.32C13.8559 101.035 14.6809 100.93 16.6309 100.885V100.105C16.6309 99.085 16.0459 98.605 14.7709 98.605C13.9609 98.605 13.3609 98.815 12.9559 99.235C12.7609 99.445 12.6559 99.64 12.5209 100.045L11.1259 99.775C11.3959 99.025 11.6209 98.68 12.0559 98.335C12.7159 97.78 13.6309 97.51 14.7859 97.51C15.9259 97.51 16.7509 97.765 17.2909 98.29C17.7409 98.71 17.9359 99.28 17.9359 100.105V104.275C17.9359 105.01 17.9659 105.37 18.0559 106H16.6309ZM16.6309 102.805V101.905C14.9209 101.95 14.0809 102.055 13.4209 102.325C12.6709 102.625 12.2959 103.105 12.2959 103.795C12.2959 104.575 12.8809 105.07 13.8259 105.07C14.6509 105.07 15.5509 104.695 16.1359 104.095C16.4959 103.72 16.6309 103.36 16.6309 102.805ZM20.0028 107.59L21.1278 106.81C21.7578 107.635 22.5078 107.995 23.5578 107.995C24.8178 107.995 25.7328 107.47 26.1228 106.51C26.2878 106.09 26.3928 105.445 26.4228 104.455C26.1828 104.845 26.0328 105.025 25.7778 105.235C25.1928 105.685 24.3828 105.94 23.4978 105.94C21.1728 105.94 19.7028 104.335 19.7028 101.8C19.7028 99.25 21.2028 97.615 23.5728 97.615C24.8328 97.615 25.7928 98.095 26.4228 99.025C26.3928 98.785 26.3928 98.68 26.3928 98.515V97.75H27.8028C27.7278 98.365 27.6978 98.755 27.6978 99.49L27.6978 104.755C27.6978 106.345 27.4128 107.305 26.7378 108.01C26.0928 108.7 24.9078 109.105 23.5278 109.105C21.9828 109.105 20.9928 108.685 20.0028 107.59ZM21.0978 101.83C21.0978 103.675 22.0578 104.83 23.6028 104.83C25.2378 104.83 26.3628 103.57 26.3628 101.71C26.3628 99.925 25.2978 98.74 23.6928 98.74C22.0878 98.74 21.0978 99.925 21.0978 101.83ZM37.2126 102.13H30.8376C30.8976 103.105 31.0476 103.6 31.4376 104.125C31.9026 104.755 32.6076 105.085 33.4776 105.085C34.2726 105.085 34.9326 104.8 35.3976 104.26C35.6226 104.02 35.7276 103.825 35.8776 103.39L37.1376 103.855C36.8526 104.485 36.6576 104.785 36.2976 105.13C35.5776 105.85 34.6176 106.225 33.4626 106.225C31.0326 106.225 29.4876 104.545 29.4876 101.875C29.4876 99.25 31.0176 97.54 33.3576 97.54C35.3826 97.54 36.8076 98.815 37.1076 100.915C37.1376 101.065 37.1676 101.38 37.2126 102.13ZM30.8826 101.035H35.8026C35.7126 100.255 35.4876 99.745 35.0526 99.31C34.6026 98.875 34.0326 98.665 33.3276 98.665C32.4426 98.665 31.7076 99.1 31.2576 99.895C31.0476 100.255 30.9726 100.495 30.8826 101.035ZM48.5162 95.695V104.23C48.5162 104.98 48.5462 105.445 48.6362 106H46.9862C47.0612 105.55 47.1062 104.98 47.1062 104.23V95.695L44.8562 95.695C44.0612 95.695 43.5362 95.725 43.0412 95.8V94.33C43.6262 94.405 44.0162 94.435 44.8412 94.435L50.7062 94.435C51.6662 94.435 52.1162 94.405 52.6112 94.33V95.8C52.1012 95.725 51.6212 95.695 50.7062 95.695H48.5162ZM56.2745 106.21C53.7245 106.21 52.1195 104.53 52.1195 101.875C52.1195 99.235 53.7245 97.54 56.2445 97.54C58.7645 97.54 60.3695 99.22 60.3695 101.86C60.3695 104.5 58.7495 106.21 56.2745 106.21ZM56.2745 98.665C54.5645 98.665 53.4995 99.88 53.4995 101.86C53.4995 103.84 54.5495 105.07 56.2445 105.07C57.9545 105.07 58.9895 103.87 58.9895 101.89C58.9895 99.895 57.9545 98.665 56.2745 98.665ZM63.6049 109.075H62.0599C62.1349 108.475 62.1649 107.98 62.1649 107.305V99.55C62.1649 98.785 62.1349 98.32 62.0599 97.75H63.4849V98.515C63.4849 98.695 63.4849 98.785 63.4549 99.1C64.1749 98.08 65.1649 97.585 66.4999 97.585C68.8849 97.585 70.3249 99.19 70.3249 101.845C70.3249 104.455 68.8399 106.12 66.5299 106.12C65.2249 106.12 64.2199 105.64 63.4549 104.665C63.4849 105.07 63.4999 105.295 63.4999 105.7V107.29C63.4999 108.055 63.5299 108.52 63.6049 109.075ZM66.3499 104.965C67.9549 104.965 68.9299 103.795 68.9299 101.845C68.9299 99.88 67.9999 98.755 66.3649 98.755C64.6699 98.755 63.5149 100.03 63.5149 101.86C63.5149 102.775 63.8299 103.645 64.3549 104.17C64.8349 104.665 65.5999 104.965 66.3499 104.965Z" fill="black"/>
</svg>
