<svg width="65" height="65" viewBox="0 0 65 65" fill="none" xmlns="http://www.w3.org/2000/svg">
<g clip-path="url(#clip0_464_1089)">
<path d="M32.3329 0.846216C28.8486 0.835935 25.3839 1.36793 22.0628 2.42315C15.9071 4.39343 10.5347 8.26901 6.71929 13.4918C4.85824 16.0389 3.39256 18.8531 2.37195 21.8391C1.32461 24.9066 0.741815 28.1139 0.64294 31.3542C0.500655 35.4256 1.04653 39.4918 2.2575 43.3811C2.84105 45.2305 3.59273 47.0225 4.50309 48.7346C4.94412 49.5617 5.42382 50.3665 5.94219 51.1489C6.19825 51.535 6.53804 51.9083 6.75269 52.3169C6.94953 52.6913 6.61308 53.231 6.48371 53.592C6.10904 54.6376 5.73399 55.6832 5.35858 56.7287C5.15625 57.2935 4.95451 57.8583 4.75337 58.4231C4.65762 58.6916 4.56217 58.9601 4.46702 59.2286C4.36548 59.5154 4.18891 59.8438 4.18891 60.1537C4.19332 60.2875 4.23208 60.4179 4.30147 60.5323C4.37085 60.6467 4.46851 60.7413 4.58503 60.8069C4.8745 60.9694 5.16909 60.8656 5.45544 60.7641C6.01537 60.5654 6.57501 60.366 7.13434 60.1659C8.23996 59.7707 9.34498 59.3739 10.4494 58.9754C10.9446 58.797 11.44 58.6186 11.9355 58.4403C12.1257 58.3385 12.338 58.2853 12.5536 58.2853C12.7778 58.3248 12.9767 58.5346 13.1561 58.6644C13.9252 59.222 14.7207 59.7399 15.5425 60.2181C17.2295 61.1977 19.0058 62.0144 20.8473 62.6572C24.742 63.9894 28.8405 64.6247 32.9552 64.534C36.2651 64.5011 39.5548 64.0142 42.7325 63.0868C45.6436 62.2298 48.4084 60.9364 50.9327 59.2505C53.3632 57.6164 55.5232 55.6114 57.3343 53.3084C59.1924 50.9261 60.6827 48.278 61.7556 45.4527C62.8807 42.46 63.5924 39.3274 63.871 36.1418C64.1993 32.8221 64.0597 29.4726 63.4563 26.1917C62.8614 23.0597 61.799 20.0353 60.3047 17.22C58.833 14.4497 56.9469 11.9209 54.712 9.72123C52.4367 7.48646 49.8248 5.62357 46.9719 4.20074C43.9842 2.71754 40.782 1.71469 37.4827 1.22902C35.7777 0.976405 34.0565 0.848464 32.3329 0.846216C31.6451 0.846216 31.6439 1.91638 32.3329 1.91638C36.5723 1.89881 40.7737 2.71841 44.6964 4.32827C48.2798 5.82784 51.5314 8.02233 54.2642 10.7854C56.9627 13.5187 59.1084 16.7482 60.5835 20.2965C62.103 23.9773 62.9126 27.913 62.9696 31.8955C63.0531 35.9123 62.4666 39.9148 61.2341 43.7382C60.1036 47.2301 58.3184 50.474 55.9743 53.2964C53.654 56.0484 50.8161 58.3169 47.6218 59.9729C44.1859 61.7262 40.4574 62.832 36.6221 63.2353C31.8245 63.7704 26.9 63.427 22.2772 62.0026C19.9915 61.302 17.799 60.3266 15.7478 59.0975C15.2374 58.7908 14.7367 58.4684 14.2457 58.1304C13.7444 57.785 13.2541 57.2865 12.6251 57.221C12.0085 57.157 11.3592 57.5139 10.791 57.7184L8.87204 58.4095C8.19825 58.6518 7.52423 58.8936 6.85 59.135C6.50412 59.2587 6.1581 59.3821 5.81193 59.5053C5.48327 59.6514 5.14179 59.7666 4.79189 59.8496H5.07713L5.05954 59.8377L5.25125 60.0297L5.23945 60.0123V60.2968C5.34196 59.87 5.48358 59.4535 5.66252 59.0527C5.81096 58.6345 5.96 58.2164 6.10963 57.7984C6.385 57.0276 6.6611 56.2571 6.93795 55.4869C7.19595 54.7684 7.45372 54.0497 7.71127 53.3309C7.87651 52.9698 7.92245 52.5653 7.84242 52.1763C7.71605 51.8317 7.52944 51.5123 7.29132 51.2332C5.7302 49.0019 4.48371 46.5658 3.58704 43.9937C1.7648 38.7559 1.23492 33.1545 2.04262 27.6672C2.71892 23.1593 4.38247 18.857 6.91413 15.0683C9.43172 11.3269 12.7718 8.21267 16.6781 5.96451C20.8822 3.58071 25.584 2.21257 30.4093 1.969C31.0499 1.93377 31.6911 1.91623 32.3329 1.91638C33.0205 1.91638 33.0218 0.846216 32.3329 0.846216Z" fill="#211715"/>
<g clip-path="url(#clip1_464_1089)">
<path d="M34.8765 51.8527C34.8765 53.4715 33.5224 54.8079 31.8218 54.8079C30.1212 54.8079 28.7671 53.4715 28.7671 51.8527C28.7671 50.2339 30.1212 48.8976 31.8218 48.8976C33.5224 48.8976 34.8765 50.2339 34.8765 51.8527Z" fill="#F2D25F" stroke="black"/>
<path d="M32.3193 45.7513H31.002C29.5774 45.7513 28.4082 44.6979 28.2816 43.3487L25.4777 13.4566C25.3341 11.9253 26.5767 10.577 28.1981 10.577H35.7018C37.3438 10.577 38.5922 11.9578 38.4172 13.5052L35.0347 43.3974C34.8844 44.7258 33.7242 45.7513 32.3193 45.7513Z" fill="#F2D25F" stroke="black"/>
</g>
</g>
<defs>
<clipPath id="clip0_464_1089">
<rect width="63.4157" height="63.6925" fill="white" transform="translate(0.624023 0.846191)"/>
</clipPath>
<clipPath id="clip1_464_1089">
<rect width="14.7574" height="45.2309" fill="white" transform="translate(24.6047 10.077)"/>
</clipPath>
</defs>
</svg>
