<svg width="64" height="64" viewBox="0 0 64 64" fill="none" xmlns="http://www.w3.org/2000/svg">
<g clip-path="url(#clip0_464_2622)">
<path d="M0.0895757 35.6639C0.496907 39.1243 1.44026 42.5003 2.88586 45.671C5.57962 51.5463 10.0711 56.4155 15.7134 59.5776C18.4652 61.12 21.4348 62.2378 24.5215 62.8933C27.6925 63.5655 30.9464 63.7597 34.1753 63.4696C38.2344 63.1229 42.2059 62.0937 45.922 60.4254C47.6882 59.6244 49.3772 58.6634 50.9678 57.5545C51.7362 57.0175 52.4776 56.4448 53.1923 55.8364C53.545 55.5359 53.8748 55.1539 54.2548 54.8918C54.6028 54.6515 55.179 54.9208 55.5529 55.006C56.6359 55.2527 57.7189 55.4997 58.8018 55.7472C59.3868 55.8804 59.9717 56.013 60.5566 56.145C60.8345 56.2079 61.1126 56.2704 61.3906 56.3327C61.6874 56.3992 62.0346 56.5351 62.3423 56.498C62.4746 56.4776 62.5994 56.4235 62.7047 56.3409C62.81 56.2583 62.8922 56.15 62.9434 56.0264C63.07 55.7196 62.9316 55.4396 62.7966 55.1674C62.5322 54.6353 62.2671 54.1036 62.0015 53.5723C61.4766 52.522 60.9502 51.4725 60.4223 50.4238C60.1858 49.9535 59.9494 49.4831 59.7129 49.0125C59.5891 48.8359 59.5108 48.6315 59.485 48.4174C59.4973 48.1901 59.6818 47.9676 59.7891 47.7738C60.2506 46.9435 60.6695 46.0917 61.0457 45.2185C61.8161 43.4262 62.414 41.5649 62.8315 39.6596C63.6874 35.6334 63.827 31.4882 63.2438 27.414C62.8146 24.132 61.9369 20.9243 60.6354 17.8806C59.4357 15.0932 57.8203 12.5034 55.8441 10.1993C53.9305 7.98214 51.6811 6.07793 49.1777 4.55582C46.5899 2.99665 43.7823 1.83436 40.8488 1.10779C37.7427 0.349426 34.5475 0.0182612 31.3515 0.123475C28.0163 0.195326 24.7077 0.735276 21.5228 1.72746C18.4846 2.69344 15.6093 4.11066 12.9933 5.93151C10.4194 7.72465 8.13481 9.90012 6.21883 12.3826C4.27282 14.9093 2.73635 17.7256 1.66566 20.7284C0.551176 23.8723 -0.0607068 27.1717 -0.147507 30.5053C-0.193979 32.2284 -0.114742 33.9525 0.0895757 35.6639C0.172001 36.3468 1.23459 36.2197 1.15203 35.5357C0.626551 31.3289 0.936773 27.0596 2.06494 22.9722C3.1243 19.235 4.91331 15.7438 7.32897 12.6996C9.71921 9.69299 12.6683 7.1757 16.0142 5.28607C19.4865 3.33643 23.2968 2.061 27.2438 1.52719C31.2216 0.962941 35.2656 1.06561 39.2091 1.83098C42.8113 2.53496 46.2458 3.91851 49.3287 5.90751C52.339 7.88126 54.9312 10.4269 56.958 13.3997C59.1104 16.6007 60.6551 20.1699 61.5151 23.9292C62.6212 28.6281 62.8705 33.5583 62.0103 38.3184C61.5887 40.6717 60.883 42.9652 59.9086 45.149C59.6652 45.6924 59.4051 46.2281 59.1284 46.7562C58.8456 47.2952 58.4095 47.8417 58.4198 48.474C58.4301 49.0938 58.8623 49.6957 59.1334 50.2353L60.0495 52.0576C60.3708 52.6975 60.6916 53.3377 61.0121 53.9781C61.1763 54.3067 61.3403 54.6354 61.5041 54.9643C61.6885 55.2731 61.8438 55.5983 61.9681 55.9358L61.9339 55.6526L61.9243 55.6715L62.0919 55.4581L62.0761 55.4719L62.3585 55.4379C61.9225 55.3872 61.492 55.2965 61.0727 55.1669C60.6397 55.0697 60.2067 54.9718 59.7738 54.8733C58.9756 54.6923 58.1775 54.5105 57.3797 54.328C56.6354 54.158 55.8911 53.9882 55.1466 53.8186C54.7683 53.6978 54.3612 53.7007 53.9845 53.8268C53.6576 53.9935 53.3629 54.2171 53.1143 54.4869C51.0862 56.3042 48.817 57.8336 46.3709 59.032C41.3892 61.4688 35.8916 62.6661 30.3472 62.5218C25.7907 62.3906 21.32 61.2546 17.2552 59.1952C13.2391 57.1441 9.74705 54.2013 7.04698 50.5926C4.17656 46.7045 2.25483 42.2005 1.43478 37.4392C1.32303 36.8073 1.22878 36.1728 1.15203 35.5357C1.06963 34.8531 0.0070175 34.98 0.0895757 35.6639Z" fill="#211715"/>
<g clip-path="url(#clip1_464_2622)">
<path d="M34.2525 51.0064C34.2525 52.6252 32.8983 53.9615 31.1978 53.9615C29.4972 53.9615 28.1431 52.6252 28.1431 51.0064C28.1431 49.3876 29.4972 48.0513 31.1978 48.0513C32.8983 48.0513 34.2525 49.3876 34.2525 51.0064Z" fill="#F2D25F" stroke="black"/>
<path d="M31.6953 44.9049H30.378C28.9533 44.9049 27.7841 43.8516 27.6576 42.5024L24.8537 12.6102C24.7101 11.079 25.9527 9.73071 27.5741 9.73071H35.0778C36.7198 9.73071 37.9682 11.1115 37.7931 12.6589L34.4107 42.5511C34.2603 43.8795 33.1002 44.9049 31.6953 44.9049Z" fill="#F2D25F" stroke="black"/>
</g>
</g>
<defs>
<clipPath id="clip0_464_2622">
<rect width="63.4157" height="63.6925" fill="white"/>
</clipPath>
<clipPath id="clip1_464_2622">
<rect width="14.7574" height="45.2309" fill="white" transform="translate(23.9807 9.23071)"/>
</clipPath>
</defs>
</svg>
