<svg width="412" height="287" viewBox="0 0 412 287" fill="none" xmlns="http://www.w3.org/2000/svg">
<g clip-path="url(#clip0_523_924)">
<path d="M192.2 168.131C190.909 166.647 189.164 164.755 187.877 163.231C184.362 159.057 182.005 156.616 177.059 154.308C176.803 156.732 176.981 159.182 177.585 161.543C178.558 165.318 180.552 168.751 183.348 171.468C185.683 173.755 188.417 175.596 191.415 176.901" fill="#6DBF6B"/>
<path d="M193.829 172.427C195.607 170.649 196.762 169.651 198.199 168.205C201.469 164.647 205.583 161.971 210.161 160.424C210.364 163.01 210.023 165.61 209.161 168.057C207.638 172.078 206.569 173.538 202.197 176.924C199.531 178.956 196.672 180.722 193.662 182.198" fill="#6DBF6B"/>
<path d="M190.669 135.805C190.673 140.083 191.081 144.351 191.885 148.552C191.937 149.138 192.178 149.692 192.57 150.131C193.593 151.053 196.88 151.422 197.452 151.131C198.044 150.661 198.594 150.14 199.094 149.573C202.17 145.502 203.087 142.482 204.771 137.76" fill="#6DBF6B"/>
<path d="M190.669 135.805C187.941 132.495 182.69 126.531 179.186 124.056C178.007 123.365 176.99 122.427 176.206 121.307C174.971 119.161 175.854 116.29 177.618 114.553C179.382 112.816 181.818 111.969 184.193 111.27C186.615 110.734 188.93 109.799 191.045 108.504C192.379 107.555 193.482 106.276 194.937 105.526C197.074 104.426 199.623 104.626 202.014 104.874C204.215 104.94 206.369 105.522 208.303 106.574C209.827 107.561 210.942 109.11 212.53 109.988C214.065 110.837 215.888 110.977 217.514 111.633C219.999 112.815 222.039 114.764 223.332 117.193C224.545 119.202 225.517 121.544 225.075 123.849C224.543 126.623 222.134 128.606 219.775 130.16C216.003 132.643 211.95 134.67 207.7 136.2C206.635 136.533 205.643 137.064 204.775 137.766C200.394 137.995 194.991 136.584 190.675 135.809" fill="#F2635F"/>
<path d="M188.269 135.805C188.289 139.202 188.544 142.593 189.032 145.954C189.14 147.586 189.492 149.193 190.076 150.721C190.415 151.323 190.876 151.847 191.431 152.259C191.986 152.67 192.62 152.961 193.295 153.112C194.365 153.435 195.476 153.609 196.595 153.628C197.143 153.651 197.691 153.562 198.204 153.366C198.717 153.17 199.185 152.872 199.579 152.489C201.314 150.828 202.735 148.867 203.773 146.701C205.066 144.013 206.174 141.24 207.089 138.401C207.254 137.787 207.171 137.133 206.857 136.58C206.543 136.027 206.024 135.621 205.413 135.448C204.799 135.295 204.151 135.384 203.601 135.696C203.051 136.008 202.643 136.52 202.461 137.125C202.061 138.249 201.669 139.378 201.261 140.498C201.093 140.955 200.919 141.41 200.741 141.864L200.576 142.272C200.567 142.296 200.428 142.63 200.529 142.389C200.64 142.126 200.461 142.544 200.435 142.603C200.377 142.735 200.317 142.868 200.257 143.003C199.808 143.988 199.302 144.945 198.74 145.869C198.443 146.356 198.131 146.833 197.805 147.302C197.657 147.515 197.505 147.725 197.352 147.937C196.938 148.518 197.606 147.709 197.227 148.086C196.961 148.351 196.703 148.622 196.427 148.879C196.299 149 196.146 149.109 196.027 149.24C195.858 149.428 196.319 149.021 196.303 149.031C196.826 148.725 196.896 148.816 196.65 148.876C196.75 148.852 197.27 148.853 196.803 148.834C196.634 148.827 196.466 148.834 196.297 148.82C196.103 148.809 195.911 148.784 195.718 148.768C196.272 148.815 195.7 148.758 195.462 148.71C195.051 148.622 194.645 148.511 194.247 148.379C193.807 148.239 194.647 148.461 194.234 148.366C194.261 148.372 193.984 148.23 193.99 148.22C194.023 148.166 194.332 148.559 194.373 148.593C194.122 148.386 194.305 148.373 194.356 148.567C194.328 148.46 194.299 148.353 194.273 148.244C194.204 147.944 194.152 147.637 194.096 147.333C193.962 146.6 193.841 145.864 193.731 145.126C193.295 142.04 193.076 138.927 193.075 135.81C193.075 135.174 192.822 134.563 192.372 134.113C191.922 133.663 191.311 133.41 190.675 133.41C190.038 133.41 189.428 133.663 188.978 134.113C188.527 134.563 188.275 135.174 188.275 135.81L188.269 135.805Z" fill="#211715"/>
<path d="M193.661 239.523C193.34 226.098 193.546 212.661 193.8 199.236C193.992 189.095 194.592 178.981 195.389 168.87C195.631 165.808 195.889 162.747 196.189 159.69C196.313 158.424 196.443 157.158 196.589 155.89C196.652 155.324 196.719 154.757 196.789 154.19C196.823 153.917 196.857 153.644 196.889 153.371C196.818 153.905 196.907 153.254 196.932 153.078C197.081 152.465 196.99 151.818 196.679 151.27C196.367 150.721 195.859 150.312 195.256 150.125C194.643 149.96 193.989 150.044 193.436 150.358C192.884 150.672 192.477 151.191 192.304 151.802C190.786 162.362 190.185 173.102 189.568 183.745C188.96 194.236 188.862 204.745 188.76 215.255C188.682 223.341 188.667 231.43 188.86 239.515C188.934 242.599 193.734 242.61 193.66 239.515L193.661 239.523Z" fill="#211715"/>
<path d="M192.366 134.108C190.454 131.794 188.466 129.535 186.391 127.369C184.215 125.183 181.888 123.152 179.428 121.292C178.936 121.009 178.545 120.58 178.308 120.064C178.071 119.549 177.999 118.973 178.104 118.415C178.279 117.743 178.593 117.116 179.026 116.573C179.458 116.03 179.999 115.583 180.614 115.262C183.754 113.377 187.595 113.099 190.852 111.424C192.361 110.488 193.787 109.425 195.114 108.246C196.511 107.299 198.203 106.891 199.878 107.098C201.62 107.139 203.353 107.365 205.048 107.772C206.609 108.292 208.012 109.199 209.127 110.409C210.504 111.67 212.16 112.587 213.959 113.086C215.542 113.371 217.047 113.987 218.376 114.894C219.589 115.937 220.605 117.188 221.376 118.589C222.234 120.047 223.1 121.829 222.686 123.563C222.17 125.054 221.171 126.33 219.849 127.19C218.218 128.393 216.499 129.47 214.705 130.412C212.782 131.481 210.794 132.427 208.751 133.244C206.916 133.81 205.17 134.634 203.565 135.689L204.776 135.362C200.217 135.549 195.761 134.302 191.312 133.491C190.699 133.339 190.051 133.428 189.502 133.74C188.953 134.052 188.544 134.563 188.36 135.167C188.197 135.78 188.281 136.434 188.594 136.986C188.908 137.538 189.425 137.945 190.036 138.119C194.736 138.976 199.57 140.38 204.387 140.178C205.634 140.125 206.223 139.544 207.241 138.987C208.216 138.528 209.218 138.127 210.241 137.787C212.602 136.852 214.904 135.773 217.133 134.556C221.057 132.394 225.761 129.723 227.219 125.187C228.701 120.576 225.64 115.225 222.412 112.079C220.685 110.429 218.55 109.268 216.226 108.715C215.244 108.53 214.296 108.193 213.418 107.715C212.547 107.056 211.72 106.341 210.942 105.574C209.106 104.054 206.876 103.087 204.511 102.785C202.044 102.31 199.521 102.192 197.02 102.435C194.432 102.798 192.576 104.126 190.637 105.782C188.905 107.139 186.899 108.104 184.757 108.61C180.241 109.942 175.407 111.603 173.689 116.461C173.253 117.658 173.138 118.949 173.357 120.204C173.576 121.459 174.121 122.634 174.937 123.613C176.326 125.274 178.31 126.284 179.878 127.701C183.144 130.744 186.185 134.019 188.978 137.501C189.43 137.947 190.04 138.196 190.675 138.196C191.31 138.196 191.92 137.947 192.372 137.501C192.81 137.044 193.054 136.436 193.054 135.804C193.054 135.171 192.81 134.563 192.372 134.107L192.366 134.108Z" fill="#211715"/>
<path d="M197.17 115.71C197.22 115.729 197.27 115.75 197.32 115.77L196.747 115.528C197.295 115.761 197.811 116.063 198.282 116.428L197.797 116.052C198.266 116.417 198.688 116.84 199.052 117.311L198.677 116.825C198.873 117.083 199.052 117.354 199.211 117.637C199.533 118.171 200.046 118.564 200.646 118.737C200.955 118.836 201.285 118.851 201.603 118.78C201.92 118.766 202.228 118.667 202.495 118.495C203.033 118.177 203.427 117.663 203.595 117.061C203.752 116.436 203.665 115.775 203.353 115.211C203.052 114.701 202.708 114.218 202.326 113.766C202.07 113.451 201.787 113.159 201.481 112.894C201.043 112.509 200.575 112.16 200.081 111.851C199.559 111.548 199.011 111.29 198.445 111.082C198.135 110.983 197.805 110.968 197.488 111.039C197.17 111.053 196.862 111.152 196.595 111.324C196.322 111.483 196.084 111.694 195.894 111.945C195.703 112.196 195.564 112.483 195.484 112.788C195.404 113.093 195.385 113.41 195.428 113.723C195.47 114.035 195.574 114.336 195.734 114.608L196.11 115.093C196.403 115.388 196.768 115.601 197.169 115.711L197.17 115.71Z" fill="#211715"/>
<path d="M204.339 130.3C204.515 129.707 204.705 129.119 204.907 128.534C205.03 128.181 205.158 127.829 205.292 127.48C205.35 127.326 205.41 127.173 205.471 127.02C205.588 126.729 205.597 126.635 205.482 126.982C205.728 126.326 206.033 125.694 206.392 125.093C206.559 124.793 206.737 124.493 206.93 124.208C207.016 124.1 207.096 123.988 207.17 123.872C206.87 124.434 207.002 124.086 207.161 123.912C207.253 123.812 207.361 123.722 207.453 123.619C207.701 123.326 206.953 123.898 207.305 123.726C207.395 123.682 207.481 123.631 207.563 123.575C207.163 123.737 207.09 123.77 207.343 123.675C207.413 123.65 207.483 123.628 207.555 123.608C207.728 123.558 207.903 123.526 208.078 123.484C208.547 123.37 207.549 123.524 208.078 123.477C208.451 123.445 208.823 123.423 209.197 123.419C210.697 123.404 212.197 123.6 213.697 123.649C214.332 123.644 214.94 123.389 215.389 122.94C215.838 122.491 216.092 121.884 216.097 121.249C216.085 120.616 215.828 120.013 215.381 119.566C214.933 119.118 214.33 118.861 213.697 118.849C210.476 118.749 206.364 117.811 203.847 120.429C202.803 121.6 201.974 122.947 201.399 124.407C200.744 125.911 200.179 127.453 199.707 129.024C199.624 129.328 199.601 129.645 199.639 129.958C199.678 130.271 199.779 130.573 199.934 130.847C200.09 131.122 200.298 131.362 200.547 131.556C200.796 131.75 201.08 131.893 201.384 131.977C201.688 132.06 202.005 132.083 202.318 132.044C202.631 132.006 202.933 131.905 203.207 131.75C203.482 131.594 203.722 131.386 203.916 131.137C204.11 130.888 204.253 130.604 204.336 130.3H204.339Z" fill="#211715"/>
<path d="M188.871 120.661C189.231 120.677 189.591 120.708 189.949 120.754L189.311 120.668C190.344 120.813 191.354 121.089 192.317 121.49L191.744 121.248C192.666 121.641 193.537 122.147 194.336 122.754L193.85 122.378C194.072 122.551 194.287 122.729 194.498 122.915C194.957 123.353 195.563 123.602 196.198 123.615C196.673 123.616 197.138 123.476 197.534 123.212C197.93 122.949 198.238 122.573 198.42 122.134C198.603 121.695 198.65 121.211 198.557 120.745C198.464 120.279 198.234 119.851 197.898 119.515C195.402 117.292 192.215 115.999 188.877 115.855C188.241 115.86 187.634 116.114 187.185 116.563C186.736 117.012 186.481 117.62 186.477 118.255C186.49 118.887 186.747 119.49 187.194 119.937C187.641 120.385 188.244 120.642 188.877 120.655L188.871 120.661Z" fill="#211715"/>
<path d="M193.9 166.434C191.49 163.677 189.146 160.809 186.6 158.175C184.208 155.705 181.385 153.691 178.27 152.232C177.032 151.646 175 152.004 174.745 153.666C173.06 164.649 180.568 174.615 190.204 178.966C190.758 179.268 191.407 179.348 192.017 179.188C192.628 179.028 193.154 178.64 193.488 178.105C193.804 177.554 193.891 176.901 193.73 176.287C193.569 175.672 193.173 175.146 192.627 174.821C188.484 173.094 184.923 170.213 182.369 166.521C181.215 164.714 180.359 162.733 179.834 160.654C179.598 159.706 179.449 158.74 179.387 157.765C179.348 157.219 179.325 156.673 179.327 156.126C179.327 155.872 179.333 155.618 179.347 155.364C179.347 155.287 179.435 154.535 179.373 154.935L175.848 156.369C178.695 157.681 181.266 159.522 183.426 161.793C185.876 164.372 188.161 167.142 190.503 169.821C190.725 170.047 190.99 170.226 191.282 170.35C191.574 170.473 191.887 170.537 192.204 170.538C192.521 170.539 192.835 170.478 193.128 170.357C193.421 170.236 193.687 170.059 193.911 169.835C194.135 169.611 194.313 169.345 194.433 169.052C194.554 168.759 194.615 168.445 194.614 168.128C194.613 167.811 194.549 167.498 194.426 167.206C194.303 166.914 194.123 166.649 193.897 166.427L193.9 166.434Z" fill="#211715"/>
<path d="M195.526 174.124C197.955 171.707 200.394 169.18 203.037 166.997C205.374 165.162 207.996 163.724 210.799 162.739L207.761 160.424C207.995 162.633 207.737 164.866 207.007 166.964C206.741 167.801 206.407 168.614 206.007 169.396C205.792 169.826 205.555 170.245 205.296 170.65C205.189 170.815 205.078 170.976 204.964 171.136C204.867 171.269 204.873 171.266 204.982 171.126C204.907 171.221 204.83 171.315 204.751 171.407C201.529 175.158 196.858 177.994 192.451 180.126C191.906 180.451 191.511 180.978 191.35 181.592C191.189 182.206 191.275 182.858 191.59 183.409C191.921 183.949 192.447 184.34 193.059 184.5C193.671 184.661 194.321 184.578 194.874 184.27C197.616 182.937 200.231 181.355 202.684 179.544C204.819 178.096 206.756 176.375 208.445 174.425C209.867 172.569 210.947 170.474 211.636 168.24C212.504 165.732 212.82 163.066 212.561 160.424C212.379 159.033 211.153 157.501 209.523 158.11C206.133 159.303 202.955 161.03 200.11 163.225C197.314 165.576 194.651 168.08 192.132 170.725C189.939 172.907 193.332 176.301 195.526 174.119V174.124Z" fill="#211715"/>
<path d="M182.256 229.3C179.203 229.224 176.149 229.372 173.118 229.743C170.409 222.359 167.266 214.58 164.09 207.208C170.517 204.588 173.151 199.34 176.402 193.549C177.323 191.91 184.771 188.18 189.382 187.068C189.382 187.068 189.16 192.346 189.049 195.124C190.907 194.024 193.592 192.487 196.218 190.812C199.709 188.584 202.125 187.612 205.088 187.386C206.223 187.445 207.328 187.775 208.31 188.349C208.708 188.769 209.005 189.274 209.178 189.826C209.352 190.378 209.397 190.962 209.31 191.534C207.903 195.283 205.791 198.728 203.088 201.682C203.276 203.922 203.467 207.767 203.844 210.893C203.977 213.093 203.298 219.673 201.977 221.386C200.196 223.731 197.923 225.656 195.318 227.028C193.34 227.941 191.229 228.531 189.065 228.776C186.813 229.137 184.536 229.312 182.256 229.3Z" fill="white"/>
<path d="M112.828 124.326C113.597 127.488 114.994 139.798 113.257 145.326C112.317 148.858 110.044 151.888 106.916 153.779C102.023 156.664 95.0716 158.717 89.9986 158.537C89.5433 158.518 89.0951 158.654 88.7277 158.924C88.3604 159.193 88.0958 159.58 87.9776 160.02C86.9484 164.225 86.4777 168.547 86.5776 172.875C86.9776 176.117 86.5106 178.891 88.9056 185.725C86.9826 183.139 85.3056 180.719 83.9796 178.595C77.5796 168.739 62.7966 163.47 50.7686 167.495C50.6509 165.099 50.2199 162.729 49.4866 160.445C49.2536 159.584 49.1086 159.038 49.1086 159.038C48.1506 155.438 50.4016 150.011 51.9566 146.353C53.5116 142.695 55.3306 138.614 53.7906 135.186L53.8066 135.086C53.5286 134.499 53.2756 133.9 53.0426 133.296C52.3714 131.76 52.034 130.098 52.0526 128.422C52.1327 127.598 52.3766 126.799 52.77 126.071C53.1635 125.343 53.6985 124.701 54.3436 124.183C55.3636 123.363 56.5996 122.858 57.9016 122.727C59.6723 122.651 61.4332 123.028 63.0186 123.82L63.5246 123.612C67.4266 121.672 71.1506 119.392 74.6536 116.8C85.2766 108.685 102.513 91.107 105.01 86.25C106.889 90.5121 108.197 95.004 108.9 99.609C109.566 103.446 109.666 108.666 111.767 112.144C113.046 114.261 114.12 114.779 115.641 116.566C116.556 117.458 117.323 118.492 117.91 119.628C118.387 120.972 115.123 123.455 112.826 124.328" fill="white"/>
<path d="M102.7 282.766C102.177 270.866 102.216 258.466 102.043 250.86C106.758 252.299 111.643 253.1 116.57 253.242C129.486 253.424 155.78 240.324 173.903 231.908C170.792 223.242 167.014 213.908 163.236 205.242C151.384 208.942 140.014 213.358 129.014 216.057C126.129 216.915 123.091 217.131 120.114 216.688C113.39 215.344 108.423 208.688 103.453 203.242C95.7533 194.797 88.1203 185.242 83.9763 178.592C76.9003 167.686 59.5553 162.4 47.0303 169.1C34.5053 175.8 27.2893 186.828 24.7653 203.763C22.6713 217.815 23.3753 232.081 23.3303 246.288C23.2853 260.737 23.3773 270.597 17.3613 284.022L102.7 282.766Z" fill="white"/>
<path d="M102.076 252.5C102.213 260.177 102.213 271.689 102.7 282.765L102.076 252.5Z" fill="white"/>
<path d="M47.8269 63C50.8869 62.2249 54.0043 61.6972 57.1489 61.422C63.6248 60.7955 70.1554 61.041 76.5659 62.152C81.8104 63.298 86.7665 65.5002 91.132 68.6242C95.4975 71.7483 99.181 75.7288 101.958 80.323C103.108 82.2239 104.127 84.2008 105.009 86.24C102.509 91.098 85.2769 108.676 74.6539 116.792C71.1513 119.384 67.4276 121.664 63.5259 123.604L63.0209 123.812C61.4352 123.02 59.674 122.643 57.9029 122.719C56.601 122.85 55.365 123.355 54.3449 124.175C53.6998 124.693 53.1648 125.335 52.7714 126.063C52.3779 126.791 52.134 127.59 52.0539 128.414C52.0354 130.09 52.3728 131.752 53.0439 133.288L53.6659 134.903L53.7919 135.182C55.3319 138.61 53.5129 142.69 51.9579 146.349C50.4029 150.008 48.1519 155.438 49.1099 159.034C49.1099 159.034 49.5979 160.867 50.1979 163.1C49.1769 158.268 46.8138 153.821 43.3799 150.271C41.4588 148.323 39.369 146.55 37.1349 144.971C40.2559 153.045 37.6739 162.607 31.8999 169.04C26.1999 175.38 17.8099 178.89 9.34992 179.95C8.12992 180.1 6.69992 180.13 5.89992 179.2C5.56388 178.695 5.39044 178.1 5.40296 177.494C5.41547 176.888 5.61334 176.3 5.96992 175.81C6.59992 174.78 7.54992 173.99 8.23992 173C10.1999 170.21 9.78992 166.35 8.48992 163.2C7.18992 160.05 5.11992 157.26 3.82992 154.11C2.69093 151.32 2.22069 148.303 2.45685 145.299C2.69301 142.295 3.62899 139.387 5.18992 136.81C6.70978 134.419 8.78849 132.434 11.2467 131.026C13.7049 129.618 16.4688 128.829 19.2999 128.728C16.498 124.247 14.5401 119.291 13.5229 114.105C12.0229 105.735 13.1429 95.555 16.8729 87.905C21.6395 77.8954 29.9 69.9731 40.0999 65.629C42.6024 64.5507 45.1861 63.6716 47.8269 63Z" fill="#7A7473"/>
<path d="M19.4332 285.238C22.9983 277.194 25.0499 268.562 25.4852 259.775C26.0222 250.075 25.6692 240.317 25.6522 230.605C25.6342 220.648 25.7522 210.505 27.7252 200.705C29.1252 193.728 31.6332 186.843 36.0682 181.197C40.0682 176.106 45.8492 171.475 52.1102 169.586C58.9382 167.667 66.2411 168.428 72.5272 171.712C75.5983 173.25 78.3326 175.384 80.5712 177.989C81.5793 179.292 82.5141 180.651 83.3712 182.058C84.5102 183.758 85.7032 185.415 86.9242 187.058C92.5492 194.607 98.7872 201.617 105.049 208.633C107.825 211.743 110.768 214.884 114.403 217.003C118.657 219.482 123.28 219.718 128.03 218.743C137.717 216.755 147.095 213.098 156.452 209.972C158.919 209.147 161.393 208.343 163.874 207.561L161.164 206.461C164.903 215.049 168.417 223.74 171.589 232.554L172.689 229.844C165.173 233.336 157.701 236.921 150.124 240.281C142.853 243.644 135.365 246.517 127.71 248.881C124.83 249.773 121.874 250.4 118.88 250.753C115.383 250.978 111.87 250.713 108.446 249.965C99.7462 248.255 91.4882 244.732 83.6542 240.665C74.812 235.959 66.2691 230.711 58.0742 224.951C55.5232 223.196 53.1202 227.351 55.6522 229.096C63.1092 234.313 70.8395 239.128 78.8102 243.52C86.9442 247.92 95.5362 251.837 104.555 254.015C108.626 255.063 112.809 255.609 117.012 255.643C120.093 255.545 123.152 255.089 126.126 254.282C133.981 252.326 141.54 249.187 148.956 245.99C157.768 242.19 166.413 238.023 175.114 233.981C175.571 233.714 175.926 233.303 176.125 232.812C176.324 232.322 176.355 231.78 176.214 231.27C172.902 222.065 169.214 212.999 165.306 204.03C165.038 203.574 164.627 203.22 164.137 203.021C163.647 202.822 163.105 202.79 162.595 202.93C152.83 205.991 143.239 209.61 133.395 212.411C128.97 213.67 123.946 215.469 119.367 214.018C115.684 212.851 112.76 209.906 110.189 207.156C103.796 200.401 97.7481 193.326 92.0702 185.959C89.6612 182.793 87.5992 179.394 85.2362 176.207C82.9948 173.208 80.199 170.667 77.0002 168.721C70.5639 164.764 62.9781 163.1 55.4762 164C48.0762 164.963 41.3842 168.956 36.0612 174.079C23.6472 186.025 21.5002 203.971 20.9802 220.324C20.6522 230.679 20.9902 241.046 20.9082 251.404C20.8412 259.888 20.3792 268.277 17.7482 276.404C17.0417 278.582 16.2205 280.721 15.2882 282.813C14.9863 283.367 14.9073 284.015 15.0673 284.626C15.2273 285.236 15.6143 285.762 16.1492 286.097C16.7 286.413 17.3532 286.5 17.9677 286.339C18.5821 286.178 19.1085 285.782 19.4332 285.236V285.238Z" fill="#211715"/>
<path d="M99.6762 252.5C99.8522 262.59 99.8632 272.681 100.3 282.765C100.433 285.842 105.234 285.858 105.1 282.765C104.663 272.681 104.652 262.59 104.476 252.5C104.422 249.415 99.6222 249.405 99.6762 252.5Z" fill="#211715"/>
<path d="M65.0286 122.12C61.5366 120.42 57.7106 119.498 54.1046 121.447C52.4928 122.36 51.2116 123.759 50.445 125.446C49.6784 127.132 49.4657 129.018 49.8376 130.832C50.5053 134.363 52.0689 137.664 54.3786 140.417C55.5067 141.816 56.9364 142.942 58.5608 143.711C60.1853 144.48 61.9625 144.872 63.7596 144.857C64.3921 144.844 64.9952 144.587 65.4425 144.14C65.8899 143.693 66.1469 143.09 66.1596 142.457C66.1534 141.822 65.8985 141.216 65.4498 140.767C65.001 140.318 64.3942 140.063 63.7596 140.057C58.8766 140.257 55.9596 135.107 54.7796 130.957C54.1946 128.896 54.4136 126.912 56.2636 125.745C58.2216 124.511 60.5636 125.273 62.6056 126.269C63.159 126.574 63.8084 126.655 64.4197 126.495C65.0309 126.334 65.5572 125.945 65.8896 125.408C66.2053 124.857 66.2919 124.204 66.1308 123.59C65.9698 122.976 65.574 122.449 65.0286 122.124V122.12Z" fill="#211715"/>
<path d="M95.7996 110.937C95.6996 113.069 96.9206 117.672 100.008 117.437C103.982 116.577 103.108 110.888 101.255 108.512C99.7376 106.572 96.3386 106.341 95.7996 110.937Z" fill="#211715"/>
<path d="M113.466 126.641C115.885 125.672 118.685 124.08 119.902 121.66C121.346 118.79 118.602 116.192 116.79 114.253C115.86 113.394 114.993 112.468 114.196 111.484C113.452 110.364 112.917 109.119 112.616 107.808C111.868 104.908 111.71 101.908 111.216 98.971C111.043 98.3599 110.636 97.8415 110.084 97.5279C109.531 97.2143 108.878 97.1306 108.264 97.295C107.658 97.4765 107.146 97.8847 106.834 98.4347C106.522 98.9846 106.434 99.6338 106.588 100.247C107.462 105.454 107.488 110.891 111.003 115.174C111.734 116.063 112.611 116.808 113.396 117.647C114.156 118.46 114.796 119.422 115.535 120.213C115.656 120.453 115.687 120.497 115.626 120.344C115.521 120.079 115.518 119.785 115.616 119.518C115.542 119.318 115.88 119.343 115.602 119.543C115.367 119.712 115.067 120.157 114.712 120.457C113.956 121.101 113.105 121.625 112.19 122.012C111.587 122.198 111.078 122.606 110.766 123.155C110.454 123.704 110.364 124.351 110.514 124.964C110.687 125.575 111.094 126.094 111.646 126.408C112.199 126.722 112.852 126.806 113.466 126.641Z" fill="#211715"/>
<path d="M53.1701 167.5C52.7987 160.069 49.6456 153.05 44.3371 147.837C38.9761 142.592 32.0171 139.355 26.6371 134.161C16.4731 124.354 13.1931 109.117 16.6141 95.68C19.7141 83.494 28.8751 73.434 40.1771 68.213C45.8633 65.6828 51.9491 64.1692 58.1581 63.741C65.1241 63.17 72.5791 63.272 79.3101 65.341C85.5673 67.3227 91.1835 70.9356 95.5811 75.808C100.25 81.1411 103.597 87.4997 105.349 94.368C105.882 96.3004 106.296 98.2638 106.588 100.247C106.761 100.858 107.168 101.377 107.72 101.691C108.273 102.004 108.927 102.088 109.54 101.923C110.145 101.74 110.657 101.332 110.969 100.782C111.281 100.233 111.369 99.5841 111.216 98.971C109.042 84.181 100.455 69.994 86.8381 63.22C80.0491 59.842 72.6731 58.788 65.1571 58.704C57.9885 58.5293 50.8386 59.5122 43.9831 61.615C37.7073 63.5986 31.8959 66.827 26.896 71.1073C21.8961 75.3876 17.8104 80.632 14.8831 86.527C11.5363 93.5881 10.0463 101.386 10.5541 109.184C11.018 116.623 13.3528 123.825 17.3421 130.121C19.242 133.251 21.5918 136.085 24.3161 138.532C27.3636 141.042 30.5421 143.389 33.8381 145.562C37.0871 147.683 40.0578 150.203 42.6811 153.062C44.9787 155.756 46.6438 158.93 47.5541 162.352C48.0032 164.032 48.278 165.754 48.3741 167.491C48.5511 170.562 53.3531 170.582 53.1741 167.491L53.1701 167.5Z" fill="#211715"/>
<path d="M110.514 124.964C111.321 128.798 111.712 132.707 111.681 136.624C111.76 141.176 111.572 145.946 108.315 149.561C106.602 151.279 104.537 152.607 102.262 153.453C99.6242 154.589 96.8576 155.401 94.0235 155.869C91.3085 156.316 87.9315 155.489 86.1925 158.185C85.6268 159.284 85.2717 160.479 85.1455 161.709C84.8765 163.142 84.6755 164.59 84.5025 166.038C83.8368 171.459 84.1272 176.954 85.3605 182.275C86.0785 185.275 90.7085 184.006 89.9885 180.999C88.9605 176.5 88.6831 171.863 89.1675 167.274C89.2825 166.123 89.4295 164.974 89.6225 163.837C89.7225 163.224 89.8395 162.612 89.9705 162.004C90.0265 161.746 90.0835 161.489 90.1455 161.233C90.1921 161.04 90.2415 160.847 90.2935 160.655C90.2687 160.728 90.2244 160.793 90.1654 160.843C90.1063 160.893 90.0348 160.926 89.9585 160.938C92.6722 160.966 95.3773 160.628 98.0005 159.932C103.12 158.644 108.975 156.457 112.354 152.186C115.654 148.012 116.483 142.974 116.494 137.794C116.59 133.056 116.137 128.322 115.146 123.688C114.434 120.688 109.805 121.956 110.518 124.964H110.514Z" fill="#211715"/>
<path d="M34.9452 145.923C37.2662 152.47 35.7452 159.602 31.8692 165.238C27.8762 171.038 21.2952 174.689 14.6152 176.487C12.8876 176.967 11.1282 177.324 9.35021 177.555C8.81821 177.62 8.08321 177.455 7.61221 177.555C7.99721 177.472 7.50721 178.131 7.80221 177.733C7.94221 177.543 7.98821 177.099 8.15221 176.857C9.22421 175.272 10.5782 174.122 11.2962 172.284C11.9484 170.484 12.1416 168.55 11.8582 166.656C11.3422 162.597 9.15821 159.225 7.25321 155.698C5.45283 152.534 4.62045 148.911 4.85921 145.279C5.12745 141.565 6.74309 138.077 9.40242 135.47C12.0617 132.864 15.5816 131.319 19.3002 131.125C22.3812 131.025 22.3942 126.225 19.3002 126.325C15.1387 126.487 11.131 127.942 7.83434 130.487C4.53765 133.031 2.11572 136.54 0.905212 140.525C-0.324808 144.679 -0.300804 149.103 0.974212 153.243C2.31821 157.543 5.43421 161.043 6.70721 165.343C7.33656 167.077 7.36158 168.972 6.77821 170.722C5.97821 172.654 4.04921 173.814 3.33021 175.84C2.90435 176.904 2.87112 178.085 3.23646 179.172C3.6018 180.258 4.34187 181.179 5.32421 181.77C7.24421 182.822 9.52421 182.376 11.5722 182.044C19.7782 180.711 27.9822 177.011 33.5972 170.744C39.8102 163.809 42.7532 153.617 39.5742 144.649C39.3915 144.044 38.983 143.533 38.4334 143.221C37.8839 142.909 37.2353 142.82 36.6222 142.973C36.0115 143.147 35.4936 143.554 35.1799 144.106C34.8662 144.658 34.782 145.311 34.9452 145.925V145.923Z" fill="#211715"/>
<path d="M102.942 85.03C102.464 85.8913 101.915 86.7108 101.299 87.48C101.599 87.088 101.136 87.68 101.033 87.813C100.797 88.109 100.558 88.403 100.315 88.695C99.8045 89.3117 99.2845 89.921 98.7552 90.523C96.2152 93.43 93.5452 96.223 90.8262 98.962C85.2532 104.574 79.2352 110.485 73.0002 115.053C69.6936 117.61 66.1085 119.784 62.3132 121.535C61.7662 121.859 61.369 122.385 61.2078 123C61.0466 123.615 61.1344 124.269 61.4522 124.819C61.7846 125.356 62.3107 125.745 62.9217 125.905C63.5327 126.065 64.1819 125.985 64.7352 125.68C68.2479 124.045 71.5815 122.05 74.6822 119.726C77.7379 117.51 80.6649 115.122 83.4492 112.574C89.8183 106.955 95.8505 100.965 101.514 94.636C103.65 92.4716 105.52 90.0602 107.084 87.453C108.518 84.72 104.377 82.291 102.94 85.03H102.942Z" fill="#211715"/>
<path d="M113.6 131.208C111.355 131.394 109.124 131.724 106.922 132.198C105.89 132.423 104.867 132.683 103.852 132.978C102.794 133.217 101.768 133.581 100.796 134.063C100.124 134.435 99.6045 135.031 99.3289 135.748C99.0533 136.465 99.0391 137.256 99.2889 137.982C99.7936 139.054 100.49 140.024 101.345 140.845C102.358 142.023 103.439 143.143 104.58 144.198C105.031 144.642 105.64 144.89 106.273 144.887C106.906 144.885 107.512 144.632 107.96 144.184C108.408 143.737 108.66 143.13 108.663 142.497C108.666 141.864 108.418 141.255 107.974 140.804C107.026 139.936 106.122 139.02 105.267 138.06C104.795 137.523 104.343 136.968 103.867 136.433L103.725 136.266C103.9 136.509 103.913 136.52 103.762 136.297C103.87 136.583 103.894 136.894 103.831 137.193C103.768 137.492 103.62 137.767 103.406 137.985C103.085 138.262 103.046 138.322 103.289 138.166C102.999 138.28 102.937 138.306 103.104 138.246C103.312 138.189 103.515 138.106 103.72 138.039C105.37 137.502 107.05 137.058 108.75 136.71C109.6 136.535 110.454 136.384 111.313 136.258C111.352 136.252 112.085 136.158 111.572 136.221C111.797 136.194 112.021 136.165 112.246 136.14C112.696 136.089 113.146 136.046 113.598 136.008C114.234 136.008 114.845 135.755 115.295 135.305C115.745 134.855 115.998 134.245 115.998 133.608C115.998 132.971 115.745 132.361 115.295 131.911C114.845 131.461 114.234 131.208 113.598 131.208H113.6Z" fill="#211715"/>
<path d="M51.4766 135.824C53.0686 139.677 50.2766 144.098 48.8486 147.619C47.3356 151.355 45.8236 155.619 46.7956 159.676C47.5136 162.676 52.1436 161.408 51.4236 158.4C51.1637 156.705 51.3297 154.972 51.9066 153.357C52.4591 151.487 53.1271 149.653 53.9066 147.865C55.6296 143.765 57.9546 139.014 56.1066 134.548C55.9202 133.945 55.5111 133.437 54.9626 133.125C54.4141 132.814 53.7675 132.723 53.1546 132.872C52.5428 133.044 52.0237 133.451 51.7098 134.004C51.3959 134.556 51.3114 135.21 51.4766 135.824Z" fill="#211715"/>
<path d="M189.981 197.341C192.17 195.952 194.461 194.741 196.66 193.374C199.07 191.874 201.475 190.308 204.339 189.874C204.587 189.833 204.837 189.806 205.088 189.793C205.647 189.771 204.767 189.729 205.236 189.787C205.789 189.9 206.332 190.052 206.863 190.241C206.421 190.123 206.686 189.889 206.813 190.328C207.018 191.04 207.02 190.898 206.763 191.57C205.75 194.08 204.368 196.426 202.663 198.529C202.263 199.038 201.81 199.499 201.393 199.992C201.104 200.354 200.898 200.775 200.788 201.226C200.679 201.677 200.67 202.145 200.761 202.6C200.861 203.995 200.952 205.391 201.061 206.786C201.355 209.185 201.447 211.604 201.335 214.018C201.25 214.967 201.135 215.84 200.967 216.772C200.86 217.353 200.739 217.932 200.588 218.503C200.542 218.676 200.494 218.849 200.442 219.021C200.413 219.116 200.062 219.998 200.277 219.55C199.319 221.544 196.805 223.425 194.821 224.571C191.851 226.287 188.046 226.682 184.673 226.846C181.127 227.019 177.594 226.837 174.055 227.228C173.424 227.246 172.824 227.504 172.378 227.951C171.932 228.397 171.673 228.997 171.655 229.628C171.659 230.263 171.913 230.871 172.363 231.321C172.812 231.77 173.42 232.024 174.055 232.028C181.855 231.166 190.532 232.771 197.591 228.511C200.441 226.79 203.617 224.19 204.833 220.995C205.726 218.291 206.198 215.466 206.233 212.618C206.241 210.946 206.138 209.276 205.925 207.618C205.764 205.642 205.653 203.662 205.491 201.686L204.791 203.386C207.459 200.512 209.598 197.188 211.107 193.569C211.515 192.725 211.725 191.8 211.719 190.863C211.713 189.926 211.493 189.002 211.074 188.164C210.68 187.411 210.116 186.759 209.427 186.261C208.739 185.762 207.944 185.429 207.105 185.289C203.599 184.403 199.817 185.953 196.805 187.664C193.705 189.425 190.582 191.286 187.568 193.199C184.968 194.849 187.368 199.005 189.99 197.344L189.981 197.341Z" fill="#211715"/>
<path d="M166.522 208.734C172.222 205.827 175.259 200.429 178.3 195.076C178.622 194.509 178.572 194.763 178.307 194.966C178.44 194.851 178.566 194.727 178.684 194.596C179.1 194.175 178.44 194.746 178.865 194.45C179.045 194.324 179.226 194.2 179.41 194.08C180.377 193.461 181.379 192.897 182.41 192.392C184.345 191.34 186.405 190.536 188.541 190C191.553 189.322 190.278 184.693 187.265 185.372C184.921 185.986 182.655 186.864 180.51 187.991C178.441 188.834 176.543 190.047 174.91 191.572C174.074 192.667 173.36 193.85 172.78 195.1C172.004 196.461 171.202 197.812 170.302 199.1C168.72 201.417 166.588 203.305 164.096 204.594C163.824 204.753 163.586 204.964 163.395 205.215C163.205 205.466 163.066 205.753 162.986 206.058C162.906 206.362 162.887 206.68 162.93 206.992C162.972 207.305 163.076 207.605 163.235 207.878C163.395 208.15 163.606 208.388 163.857 208.578C164.108 208.769 164.394 208.908 164.699 208.988C165.004 209.068 165.322 209.087 165.634 209.044C165.946 209.001 166.247 208.897 166.519 208.738L166.522 208.734Z" fill="#211715"/>
<path d="M303.9 138.882C303.464 137.596 303.294 136.235 303.4 134.882C303.439 133.982 303.47 133.268 303.49 132.792C303.3 137.286 302.129 162.792 302.55 168.684C306.219 169.643 308.658 170.745 312.426 171.265C312.969 169.998 313.402 168.686 313.72 167.344C314.458 164.33 314.42 161.138 315.458 158.212C316.24 156.188 317.345 154.304 318.731 152.634C318.179 152.61 317.897 152.605 317.897 152.605C315.346 152.879 311.86 151.724 310.408 149.673C308.736 148.548 305.347 142.977 303.9 138.882Z" fill="white"/>
<path d="M384.768 137.156C386.479 135.96 387.918 134.416 388.991 132.625C390.065 130.835 390.748 128.839 390.998 126.766C391.357 122.104 390.886 117.414 389.608 112.916C388.048 106.746 385.248 94.2361 386.758 72.4261C387.858 66.1631 388.014 56.9961 388.044 53.4701C388.144 41.2491 383.597 27.2141 376.058 18.9991C371.263 14.1674 365.581 10.3056 359.324 7.62506C352.174 4.46378 344.489 2.69063 336.677 2.40006C320.316 1.53406 305.443 8.97506 298.552 14.4111C284.929 25.1581 276.369 48.5861 279.185 65.3691C281.045 84.9091 273.735 105.529 274.415 121.599C274.605 126.419 276.745 132.309 283.255 137.199" fill="#B5886A"/>
<path d="M363.845 103.128C366.512 101.428 368.045 99.9991 369.428 99.0441C371.537 97.3292 373.337 95.2661 374.75 92.9441C376.961 89.1841 377.424 87.0321 377.35 82.7311C377.242 81.3191 376.905 79.9341 376.35 78.6311C375.973 77.8855 375.434 77.2339 374.772 76.7238C374.111 76.2137 373.343 75.8581 372.526 75.6831C370.85 75.3111 369.295 76.0201 367.702 76.7341C365.603 77.9589 363.609 79.3553 361.74 80.9091C358.687 81.6961 358.113 80.2561 357.205 78.2151C356.153 76.0634 354.913 74.0088 353.499 72.0751C351.61 68.4341 345.764 64.8251 342.207 62.7821L329.9 55.7051C323.673 52.1291 312.621 45.9461 307.866 40.8621C306.866 42.1571 298.197 51.3961 296.408 53.1011C291.676 57.4011 286.271 60.8958 280.408 63.4461C279.133 73.3943 279.739 83.4934 282.193 93.2181C283.693 98.8381 287.171 104.567 290.402 109.202C296.693 118.228 305.971 124.313 316.291 125.891L316.148 126.461C315.37 128.37 310.741 131.061 304.548 132.461C304.548 132.461 304.1 132.587 303.49 132.756C303.47 133.231 303.438 133.956 303.398 134.882C302.104 137.346 308.015 148.063 310.406 149.673C311.858 151.724 315.344 152.879 317.895 152.605C317.895 152.605 333.36 152.878 359.473 159.128C363.251 147.285 367.56 138.128 371.564 133.971C369.132 132.61 366.985 130.793 365.24 128.62C360.787 122.68 361.464 114.481 362.352 107.112C362.545 105.557 363.001 103.758 363.952 103.091" fill="white"/>
<path d="M369.215 283.26C341.007 283.754 304.376 284.239 291.785 284.24C290.268 274.424 287.743 258.633 287.219 248.684C285.882 232.017 282.326 212.017 282.034 199.35C282.44 189.159 283.39 178.997 284.881 168.908C285.154 159.069 286.706 139.528 288.438 135.795C293.238 133.804 298.329 132.603 303.512 132.239C303.438 134.313 302.104 162.461 302.549 168.684C306.219 169.644 308.658 170.746 312.428 171.266C316.98 172.306 322.438 173.35 327.882 174.128C335.833 175.264 344.256 175.703 352.252 176.609C356.885 168.295 357.882 164.017 359.474 159.128C363.586 146.239 368.326 136.535 372.623 132.98C375.734 133.572 383.958 137.438 386.183 139.836C378.326 152.98 374.326 169.128 371.788 190.075C371.488 196.83 371.159 202.227 368.771 209.461C376.61 226.14 385.301 241.851 392.549 258.795C395.512 266.98 397.881 273.646 401.656 282.553C396.029 282.748 383.738 283.005 369.215 283.26Z" fill="#F4B3B3"/>
<path d="M312.583 170.9C311.016 174.71 308.86 176.622 306.264 179.7C298.638 189.758 283.157 195.125 278.044 206.192C273.627 215.738 278.626 226.598 286.403 234.383C287.813 235.8 289.572 237.253 291.793 237.291C294.94 237.345 297.047 234.661 298.408 232.307C306.753 217.878 315.824 195.951 326.038 183.222C326.034 185.107 326.184 186.988 326.488 188.848C327.781 198.002 336.788 220.028 340.873 228.948C349.573 227.866 361.756 220.165 365.487 213.948L364.326 212.682C359.438 207.348 354.876 202.834 351.743 198.882C350.513 197.33 349.101 195.801 348.867 193.97C348.233 191.178 349.216 188.258 350.597 185.748C351.978 183.238 352.486 181.862 353.672 179.248C355.256 175.785 356.312 172.104 356.804 168.328C357.983 158.208 358.681 149.199 359.86 139.078C360.307 135.242 361.402 129.872 359.215 126.688C358.866 126.178 357.423 125.881 356.822 125.739C355.722 125.481 354.752 126.483 354.171 127.449C353.131 129.184 352.488 131.128 352.286 133.141L349.012 132.523C349.01 131.771 348.722 131.049 348.206 130.502C347.691 129.955 346.986 129.625 346.236 129.579C344.658 129.621 343.297 130.643 342.074 131.64C333.918 138.279 326.913 142.812 320.164 150.877C318.171 153.024 316.577 155.509 315.457 158.216C314.423 161.142 314.457 164.334 313.719 167.348C313.43 168.559 313.05 169.746 312.583 170.9Z" fill="white"/>
<path d="M277.757 65.6209C276.947 73.8309 277.372 82.1159 279.018 90.1999C280.838 98.2158 284.453 105.714 289.591 112.13C298.232 123.38 312.024 130.224 326.33 128.384C335.041 127.264 343.846 124.384 350.93 119.084C351.465 118.749 351.852 118.223 352.012 117.613C352.172 117.002 352.093 116.354 351.791 115.8C351.467 115.254 350.94 114.857 350.326 114.696C349.711 114.535 349.058 114.622 348.507 114.939C342.637 119.339 335.828 121.753 328.685 123.158C322.421 124.441 315.924 123.957 309.92 121.758C304.003 119.482 298.765 115.734 294.7 110.869C292.448 108.142 290.444 105.22 288.713 102.136C286.747 98.8749 285.254 95.3515 284.277 91.6709C282.226 83.1487 281.646 74.3386 282.562 65.6209C282.558 64.9858 282.303 64.3779 281.854 63.9288C281.405 63.4797 280.797 63.2254 280.162 63.2209C279.53 63.2342 278.927 63.4913 278.48 63.9386C278.033 64.3858 277.775 64.9886 277.762 65.6209H277.757Z" fill="#211715"/>
<path d="M368.921 78.8001C370.332 78.1701 371.759 77.5641 373.166 78.5141C373.619 78.8697 373.993 79.3149 374.267 79.8217C374.54 80.3286 374.706 80.8863 374.754 81.4601C375.266 84.0189 375.021 86.6716 374.048 89.0931C371.837 94.4471 367.339 98.0051 362.634 101.053C360.05 102.726 362.453 106.883 365.056 105.197C371.156 101.247 377.499 95.9881 379.256 88.5171C380.093 84.9651 380.096 80.7401 378.428 77.4171C377.464 75.594 375.832 74.2152 373.874 73.5701C371.274 72.6801 368.874 73.5971 366.497 74.6591C365.951 74.9832 365.554 75.5095 365.393 76.1239C365.232 76.7383 365.319 77.3915 365.636 77.9421C365.967 78.4803 366.493 78.8702 367.105 79.0305C367.716 79.1909 368.366 79.1094 368.919 78.8031L368.921 78.8001Z" fill="#211715"/>
<path d="M311.645 86.6999C311.262 87.8699 310.903 89.0539 310.625 90.2529C310.493 90.7396 310.425 91.2416 310.425 91.7459C310.433 92.2642 310.568 92.7726 310.816 93.2274C311.065 93.6822 311.42 94.0698 311.852 94.3569C312.307 94.6761 312.826 94.8918 313.374 94.9889C313.703 95.0566 314.038 95.0881 314.374 95.0829C314.694 95.0619 315.015 95.0039 315.329 94.9609L314.691 95.0469C314.771 95.0359 314.851 95.0259 314.932 95.0199C315.566 95.0061 316.172 94.7565 316.632 94.3199C317.082 93.8699 317.335 93.2594 317.335 92.6229C317.335 91.9865 317.082 91.376 316.632 90.9259C316.409 90.7021 316.144 90.525 315.852 90.4048C315.56 90.2846 315.247 90.2238 314.932 90.2259C314.621 90.2489 314.31 90.3029 314.003 90.3449L314.641 90.2599C314.434 90.2914 314.224 90.2985 314.015 90.2809L314.653 90.3669C314.485 90.3428 314.32 90.2981 314.163 90.2339L314.737 90.4759C314.575 90.4071 314.421 90.321 314.278 90.2189L314.764 90.5939C314.731 90.5669 314.701 90.5364 314.675 90.5029L315.051 90.9889C315.015 90.9383 314.984 90.884 314.959 90.8269L315.201 91.4009C315.181 91.3397 315.164 91.2773 315.152 91.2139L315.238 91.8519C315.22 91.6899 315.223 91.5262 315.248 91.3649L315.162 92.0029C315.294 91.3006 315.469 90.607 315.686 89.9259C315.874 89.2749 316.071 88.6259 316.286 87.9819C316.455 87.3681 316.373 86.7122 316.059 86.1585C315.745 85.6048 315.223 85.1987 314.609 85.0294C313.995 84.8602 313.34 84.9418 312.786 85.2562C312.232 85.5706 311.826 86.0921 311.657 86.7059L311.645 86.6999Z" fill="#211715"/>
<path d="M340.1 78.427C340.673 80.785 339.887 86.084 335.473 86.273C329.673 85.887 329.757 79.428 331.892 76.518C333.635 74.136 338.4 73.388 340.1 78.427Z" fill="#211715"/>
<path d="M303.915 74.806C304.529 77.077 304.041 82.266 300.073 82.637C294.838 82.509 294.642 76.221 296.444 73.299C297.919 70.906 302.176 69.976 303.915 74.806Z" fill="#211715"/>
<path d="M306.014 39.3569C302.708 43.2919 299.064 47.0159 295.452 50.6679C293.259 52.8251 290.852 54.7549 288.27 56.428C285.347 58.5316 282.154 60.2309 278.776 61.4799C275.854 62.437 277.105 67.074 280.052 66.109C285.852 64.209 291.245 60.5289 295.932 56.702C299.209 53.8246 302.288 50.7292 305.147 47.437C306.584 45.895 308.047 44.3659 309.408 42.7509C309.843 42.2928 310.085 41.6854 310.085 41.054C310.085 40.4225 309.843 39.8151 309.408 39.3569C308.956 38.9117 308.346 38.6622 307.711 38.6622C307.076 38.6622 306.467 38.9117 306.014 39.3569Z" fill="#211715"/>
<path d="M385.979 139.228C388.153 137.697 389.955 135.696 391.25 133.374C392.545 131.051 393.3 128.467 393.46 125.813C393.739 120.713 392.778 115.855 391.587 110.926C390.045 104.47 389.138 97.878 388.879 91.245C388.613 84.9718 388.706 78.6885 389.158 72.426L387.4 74.74C387.802 74.6325 388.169 74.421 388.463 74.1268C388.757 73.8326 388.969 73.466 389.076 73.064C390.032 66.7833 390.488 60.4368 390.442 54.084C390.515 47.0186 389.34 39.9959 386.971 33.339C384.724 27.039 381.455 20.77 376.571 16.098C371.618 11.447 365.861 7.73525 359.58 5.14401C345.686 -0.838933 330.103 -1.61988 315.68 2.94401C309.703 4.82859 304.044 7.60379 298.894 11.176C293.978 14.7663 289.8 19.2696 286.587 24.44C279.736 35.14 275.538 48.62 276.339 61.395C276.439 62.939 276.625 64.477 276.874 66.003C277.232 68.195 280.236 68.134 281.261 66.576L276.789 65.365C277.789 76.332 276.032 87.245 274.311 98.047C273.499 103.147 272.682 108.257 272.248 113.404C271.893 117.625 271.611 122.099 272.708 126.238C274.137 131.632 277.682 135.938 282.047 139.267C282.598 139.584 283.251 139.672 283.866 139.511C284.481 139.35 285.007 138.953 285.331 138.406C285.637 137.853 285.718 137.203 285.557 136.592C285.397 135.981 285.008 135.454 284.47 135.122C281.076 132.649 278.585 129.133 277.377 125.111C276.384 121.479 276.72 117.296 277.048 113.404C277.9 103.295 280.148 93.354 281.231 83.269C281.943 77.3289 282.063 71.3328 281.589 65.369C281.573 64.8504 281.39 64.3507 281.068 63.9437C280.746 63.5367 280.302 63.2438 279.801 63.108C279.3 62.9723 278.769 63.001 278.286 63.1898C277.802 63.3787 277.392 63.7177 277.116 64.157V64.162L281.503 64.735C279.646 53.36 283.003 40.916 288.379 30.885C291.029 25.7393 294.59 21.1163 298.888 17.24C299.726 16.4933 300.61 15.8013 301.536 15.168C302.588 14.43 303.672 13.737 304.777 13.081C307.265 11.5972 309.859 10.3 312.538 9.20001C319.05 6.4676 326.009 4.95776 333.068 4.74601C340.062 4.61892 347.024 5.7109 353.643 7.97301C359.538 9.94247 365.055 12.8996 369.958 16.718C374.659 20.4607 378.38 25.2896 380.8 30.789C383.543 36.8452 385.155 43.3525 385.554 49.989C385.82 55.7691 385.642 61.5611 385.022 67.314C384.88 68.814 384.701 70.302 384.447 71.785L386.123 70.108C385.623 70.2589 385.183 70.5639 384.867 70.9797C384.55 71.3955 384.373 71.9007 384.361 72.423C383.608 81.9895 383.803 91.6069 384.943 101.135C385.337 104.148 385.828 107.144 386.48 110.113C387.267 113.698 388.343 117.22 388.623 120.898C388.983 123.629 388.796 126.404 388.073 129.062C387.186 131.465 385.618 133.556 383.559 135.08C383.024 135.415 382.638 135.941 382.478 136.551C382.318 137.162 382.397 137.81 382.698 138.364C383.023 138.91 383.549 139.307 384.164 139.468C384.778 139.629 385.432 139.542 385.982 139.225L385.979 139.228Z" fill="#211715"/>
<path d="M362.259 101.394C359.919 103.313 359.916 107.166 359.639 109.908C359.28 112.924 359.215 115.968 359.445 118.997C359.67 122.082 360.508 125.091 361.908 127.848C363.547 130.706 365.844 133.131 368.608 134.923C369.159 135.239 369.812 135.325 370.427 135.164C371.041 135.003 371.567 134.607 371.892 134.062C372.201 133.509 372.284 132.859 372.123 132.247C371.963 131.634 371.571 131.108 371.031 130.778C368.969 129.416 367.263 127.581 366.054 125.425C364.984 123.299 364.357 120.976 364.211 118.6C364.038 116.041 364.083 113.471 364.344 110.919C364.444 109.742 364.555 108.557 364.718 107.387C364.73 106.44 365.06 105.524 365.654 104.787C366.1 104.335 366.35 103.725 366.35 103.09C366.35 102.455 366.1 101.845 365.654 101.393C365.198 100.956 364.59 100.712 363.957 100.712C363.325 100.712 362.717 100.956 362.26 101.393L362.259 101.394Z" fill="#211715"/>
<path d="M310.649 105.2C312.857 105.305 315.068 105.234 317.277 105.282C318.348 105.305 319.411 105.377 320.477 105.471C320.996 105.516 320.231 105.418 320.788 105.508C321.019 105.546 321.251 105.583 321.482 105.628C321.782 105.686 322.082 105.761 322.382 105.828C322.704 105.905 322.544 105.853 322.329 105.728C322.944 106.095 321.937 105.475 322.246 105.482C322.29 105.607 322.323 105.736 322.346 105.866C322.31 105.593 322.295 105.547 322.301 105.728C322.294 105.909 322.307 105.862 322.342 105.589C322.313 105.745 322.275 105.899 322.226 106.05C322.056 106.629 322.395 105.825 322.086 106.35C321.852 106.75 321.614 107.137 321.347 107.514C321.254 107.644 321.159 107.773 321.064 107.902C321.008 107.977 320.64 108.448 321.006 107.984C319.996 109.299 318.912 110.556 317.759 111.747C317.315 112.198 317.067 112.807 317.07 113.44C317.073 114.073 317.325 114.68 317.773 115.127C318.221 115.575 318.827 115.828 319.46 115.83C320.093 115.833 320.702 115.585 321.153 115.141C322.575 113.672 323.895 112.109 325.105 110.462C326.678 108.376 327.961 105.58 326.36 103.113C325.907 102.505 325.332 101.999 324.671 101.627C324.01 101.256 323.278 101.028 322.523 100.957C321.117 100.713 319.696 100.564 318.27 100.513C315.729 100.408 313.184 100.521 310.644 100.4C310.009 100.404 309.401 100.658 308.952 101.108C308.503 101.557 308.248 102.165 308.244 102.8C308.257 103.432 308.515 104.035 308.962 104.482C309.409 104.93 310.012 105.187 310.644 105.2H310.649Z" fill="#211715"/>
<path d="M306.481 42.9001C310.042 46.4801 314.433 49.2761 318.707 51.9181C323.238 54.7181 327.891 57.3181 332.507 59.9741C337.497 62.8401 342.823 65.4611 347.392 68.9901C351.16 71.9011 353.482 76.0901 355.539 80.3071C356.064 81.5091 357.01 82.4777 358.2 83.0303C359.39 83.5828 360.74 83.6813 361.998 83.3071C363.555 82.9231 364.881 81.4401 366.198 80.5291C367.082 79.9164 367.991 79.3401 368.923 78.8001C371.595 77.2531 369.181 73.1001 366.501 74.6561C364.238 76.0052 362.082 77.5264 360.053 79.2061L361.112 78.5881C360.869 78.6451 360.188 78.7181 360.145 78.7261C360.216 78.7121 359.845 78.4841 360.154 78.7261C360.421 78.9381 360.117 78.7831 360.138 78.6981C360.133 78.7171 360.454 79.1681 360.103 78.6461C360.013 78.5131 359.937 78.3661 359.861 78.2251C359.647 77.8251 359.477 77.4061 359.288 76.9951C358.411 75.1508 357.378 73.3853 356.199 71.7181C355.075 69.9256 353.743 68.2732 352.229 66.7961C350.465 65.2445 348.576 63.8414 346.582 62.6011C338.416 57.3951 329.712 53.0471 321.461 47.9711C317.412 45.4801 313.249 42.8901 309.877 39.5001C307.696 37.3071 304.301 40.7001 306.483 42.8941L306.481 42.9001Z" fill="#211715"/>
<path d="M341.483 32.358C346.152 34.409 350.648 37.27 353.614 41.166C356.658 45.166 359.651 49.85 360.564 54.849L365.193 53.573L365.093 53.152C364.393 50.145 359.763 51.418 360.464 54.428L360.564 54.849C360.648 55.1529 360.791 55.4374 360.984 55.6862C361.178 55.9349 361.419 56.1431 361.693 56.2987C361.967 56.4544 362.269 56.5546 362.582 56.5935C362.895 56.6324 363.213 56.6093 363.516 56.5255C363.82 56.4417 364.105 56.2989 364.354 56.1052C364.602 55.9114 364.811 55.6706 364.966 55.3965C365.122 55.1223 365.222 54.8202 365.261 54.5073C365.3 54.1944 365.277 53.8769 365.193 53.573C364.193 48.096 360.936 42.908 357.593 38.529C353.995 33.9684 349.279 30.4148 343.903 28.213C343.349 27.9115 342.701 27.8328 342.09 27.9928C341.48 28.1527 340.954 28.5394 340.619 29.074C340.303 29.6249 340.216 30.2779 340.377 30.8923C340.538 31.5067 340.934 32.0331 341.48 32.358H341.483Z" fill="#211715"/>
<path d="M366.4 34.3671C370.597 41.7657 372.641 50.1914 372.3 58.6911C372.181 61.7801 376.981 61.7751 377.1 58.6911C377.443 49.3402 375.175 40.0786 370.549 31.9451C369.023 29.2591 364.874 31.6751 366.404 34.3671H366.4Z" fill="#211715"/>
<path d="M265.114 156.963C266.837 153.674 268.819 150.528 271.042 147.555C274.292 143.195 279.312 139.995 284.632 137.655C285.662 137.205 286.692 136.775 287.722 136.375L288.289 136.154C286.619 140.626 285.146 159.347 284.881 168.908C283.342 179.336 282.38 189.842 282 200.376C280.396 202.103 279.064 204.063 278.049 206.19C273.632 215.736 278.631 226.596 286.408 234.381C287.818 235.798 289.577 237.251 291.798 237.289C292.544 237.303 293.283 237.158 293.968 236.864L296.331 239.276C292.192 244.209 286.914 248.06 280.953 250.496C273.983 253.496 265.473 254.366 258.413 251.516C255.306 250.195 252.514 248.231 250.221 245.752C247.929 243.273 246.188 240.337 245.113 237.136C242.993 231.066 243.103 224.576 243.903 218.276C246.113 201.016 260.967 165.945 261.887 163.795C262.983 161.2 264.071 158.938 265.114 156.963Z" fill="white"/>
<path d="M368.771 209.461C371.159 202.227 371.487 196.83 371.788 190.075C374.225 169.968 378.008 154.283 385.257 141.431C389.057 144.075 393.457 147.131 393.457 147.131C412.357 168.188 409.044 191.685 408.27 217.99C408.055 225.308 407.826 232.718 405.787 239.75C403.213 248.632 396.948 256.889 388.214 260.461C385.289 261.347 382.266 261.87 379.214 262.016C374.914 262.016 372.502 262.09 367.325 259.905C355.402 255.004 345.438 246.29 338.992 235.127C338.092 233.596 337.585 229.427 341.214 228.905C351.577 227.424 366.548 216.905 366.623 210.592L368.771 209.461Z" fill="white"/>
<path d="M294.1 283.6C292.311 272.026 290.257 260.391 289.62 248.682C289.453 245.609 284.652 245.59 284.82 248.682C285.48 260.816 287.62 272.882 289.472 284.876C289.645 285.487 290.052 286.006 290.604 286.319C291.156 286.633 291.81 286.717 292.424 286.552C293.029 286.369 293.54 285.961 293.852 285.411C294.165 284.862 294.253 284.213 294.1 283.6Z" fill="#211715"/>
<path d="M390.234 259.433C393.322 267.333 396.311 275.27 399.342 283.191C399.526 283.795 399.935 284.305 400.484 284.617C401.033 284.928 401.681 285.018 402.294 284.867C402.905 284.694 403.423 284.287 403.737 283.735C404.051 283.182 404.134 282.529 403.97 281.915C400.939 273.994 397.951 266.056 394.863 258.157C394.678 257.553 394.269 257.043 393.72 256.732C393.171 256.42 392.524 256.33 391.911 256.48C391.299 256.653 390.781 257.06 390.467 257.613C390.153 258.165 390.069 258.819 390.234 259.433Z" fill="#211715"/>
<path d="M383.951 141.3C386.729 143.622 389.338 146.136 391.761 148.826C392.213 149.272 392.823 149.522 393.458 149.522C394.093 149.522 394.703 149.272 395.155 148.826C395.592 148.369 395.836 147.761 395.836 147.129C395.836 146.497 395.592 145.889 395.155 145.432C392.733 142.742 390.123 140.227 387.345 137.906C386.884 137.471 386.279 137.222 385.645 137.206C385.17 137.205 384.704 137.345 384.309 137.609C383.913 137.872 383.604 138.248 383.422 138.687C383.24 139.126 383.193 139.61 383.286 140.076C383.379 140.542 383.608 140.97 383.945 141.306L383.951 141.3Z" fill="#211715"/>
<path d="M364.224 210.593C364.224 210.71 364.211 210.825 364.205 210.941C364.205 210.849 364.324 210.419 364.205 210.841C364.146 211.055 364.084 211.272 364.029 211.488C364.012 211.555 363.866 211.953 363.973 211.676C364.08 211.399 363.914 211.809 363.882 211.876C363.729 212.176 363.574 212.476 363.399 212.764C362.749 213.831 361.962 214.809 361.057 215.672C358.679 218.034 356.005 220.077 353.1 221.749C350.148 223.555 346.971 224.962 343.65 225.936C342.089 226.37 340.339 226.427 338.885 227.162C338.16 227.55 337.531 228.097 337.046 228.763C336.561 229.428 336.233 230.193 336.085 231.003C335.359 234.703 337.638 237.734 339.644 240.603C342.104 244.146 344.929 247.421 348.074 250.373C353.645 255.507 360.102 259.587 367.131 262.413C373.579 265.043 381.025 264.989 387.703 263.155C391.348 261.991 394.69 260.035 397.491 257.429C400.551 254.712 403.103 251.473 405.03 247.863C409.464 239.644 410.251 230.207 410.569 221.037C410.86 212.637 411.318 204.237 411.375 195.83C411.574 187.974 410.86 180.121 409.248 172.43C407.476 164.578 404.118 157.172 399.381 150.664C398.055 148.856 396.644 147.115 395.148 145.44C393.088 143.13 389.703 146.534 391.754 148.834C396.918 154.553 400.825 161.29 403.225 168.612C405.32 175.547 406.428 182.744 406.515 189.988C406.746 197.718 406.325 205.449 406.03 213.172C405.69 222.072 405.944 231.236 403.253 239.827C401.161 246.846 396.572 252.857 390.353 256.727C387.714 258.211 384.792 259.125 381.777 259.409C378.954 259.817 376.084 259.783 373.27 259.309C369.843 258.505 366.551 257.207 363.497 255.456C360.46 253.872 357.573 252.013 354.873 249.904C351.844 247.503 349.068 244.8 346.587 241.836C345.279 240.27 344.06 238.632 342.935 236.929C342.324 236.008 341.718 235.076 341.171 234.115C341.079 233.952 340.835 233.364 341.004 233.854C340.913 233.591 340.843 233.326 340.778 233.054C340.67 232.608 340.75 232.918 340.761 233.027C340.745 232.874 340.741 232.721 340.734 232.567C340.728 232.451 340.734 232.334 340.734 232.218C340.743 231.826 340.655 232.548 340.728 232.163C340.75 232.051 340.943 231.363 340.812 231.757C340.845 231.657 341.066 231.436 340.812 231.668C340.899 231.587 341.057 231.425 340.853 231.561C341.735 230.97 343.536 230.938 344.761 230.604C348.09 229.653 351.293 228.304 354.299 226.587C357.334 224.909 360.18 222.911 362.788 220.626C364.956 218.856 366.749 216.671 368.06 214.199C368.622 213.078 368.944 211.852 369.006 210.599C369.106 207.509 364.306 207.513 364.206 210.599L364.224 210.593Z" fill="#211715"/>
<path d="M287.084 134.06C280.066 136.815 273.361 140.418 268.784 146.59C265.176 151.551 262.163 156.919 259.807 162.583C257.034 169.083 254.437 175.655 251.966 182.272C248.136 192.528 244.343 203.01 242.22 213.772C240.833 220.802 240.294 228.296 242.055 235.306C243.725 242.226 248.035 248.219 254.063 252.006C267.009 259.868 284.355 254.179 294.656 244.48C295.838 243.367 296.948 242.18 298.021 240.965C300.054 238.654 296.672 235.247 294.626 237.571C290.549 242.321 285.415 246.048 279.637 248.454C273.287 251.059 265.719 251.901 259.237 249.269C256.486 248.083 254.013 246.334 251.978 244.135C249.943 241.936 248.391 239.335 247.422 236.5C246.193 232.795 245.635 228.901 245.776 225C245.813 223.06 245.963 221.123 246.186 219.2C246.221 218.892 246.257 218.584 246.298 218.277C246.292 218.323 246.249 218.63 246.289 218.343C246.322 218.109 246.356 217.876 246.389 217.643C246.47 217.115 246.559 216.589 246.656 216.064C248.509 205.896 252.034 195.985 255.576 186.304C258.176 179.204 260.958 172.167 263.876 165.188C263.553 165.962 263.818 165.328 263.947 165.024C264.668 163.333 265.429 161.66 266.247 160.013C267.567 157.334 269.048 154.738 270.681 152.238C271.936 150.211 273.403 148.324 275.058 146.609C277.525 144.278 280.339 142.345 283.401 140.88C285.016 140.066 286.677 139.353 288.36 138.692C288.963 138.507 289.473 138.098 289.785 137.549C290.097 137 290.186 136.353 290.036 135.74C289.863 135.129 289.456 134.61 288.904 134.296C288.351 133.982 287.698 133.898 287.084 134.063V134.06Z" fill="#211715"/>
<path d="M351.412 132.519C351.389 131.572 351.128 130.646 350.653 129.826C350.177 129.006 349.503 128.319 348.692 127.829C347.766 127.375 346.737 127.168 345.706 127.229C344.676 127.289 343.679 127.615 342.812 128.175C341.147 129.241 339.572 130.441 338.102 131.763C336.539 133.001 334.962 134.22 333.39 135.446C327.164 140.299 321.241 145.406 316.433 151.715C315.132 153.372 314.075 155.207 313.296 157.164C312.636 159.122 312.206 161.15 312.015 163.208C311.698 166.633 310.603 169.94 308.814 172.877C307.151 175.165 305.348 177.348 303.415 179.413C301.385 181.688 299.134 183.756 296.694 185.585C286.707 193.31 272.685 200.865 274.076 215.643C274.784 223.167 278.857 229.965 283.99 235.348C286.68 238.17 290.267 240.731 294.353 239.272C297.763 238.054 299.671 234.972 301.353 231.972C308.704 218.899 314.554 205.004 322.572 192.299C323.512 190.809 324.487 189.342 325.499 187.899C325.815 187.348 325.902 186.695 325.741 186.081C325.58 185.467 325.184 184.94 324.639 184.615C324.086 184.307 323.435 184.225 322.823 184.385C322.211 184.546 321.685 184.936 321.355 185.476C313.355 196.855 307.622 209.69 301.254 222.004C299.778 224.857 298.273 227.696 296.68 230.484C295.572 232.423 293.751 235.599 291.032 234.763C289.599 234.151 288.343 233.188 287.381 231.963C286.204 230.744 285.114 229.445 284.116 228.075C282.165 225.452 280.66 222.524 279.665 219.41C278.781 216.695 278.588 213.802 279.104 210.994C279.621 208.186 280.83 205.551 282.622 203.328C286.239 198.797 291.211 195.528 295.855 192.158C298.333 190.358 300.799 188.531 303.099 186.508C305.182 184.555 307.133 182.467 308.941 180.257C310.808 178.312 312.45 176.16 313.833 173.845C315.414 170.638 316.403 167.171 316.753 163.612C316.921 161.807 317.329 160.032 317.965 158.334C318.724 156.687 319.702 155.15 320.874 153.767C323.179 150.909 325.7 148.231 328.415 145.759C330.986 143.415 333.706 141.245 336.447 139.105C337.898 137.973 339.354 136.848 340.8 135.705C342.101 134.57 343.464 133.509 344.883 132.526C345.462 132.167 346.561 131.592 346.603 132.526C346.739 135.603 351.541 135.62 351.404 132.526L351.412 132.519Z" fill="#211715"/>
<path d="M342.621 227.028C339.787 220.752 337.206 214.382 334.784 207.915C332.448 201.681 329.912 195.215 328.862 188.606C328.139 184.447 328.406 180.175 329.643 176.139C330.509 174 331.619 171.968 332.951 170.083C334.251 167.992 335.589 165.928 336.767 163.768C339.29 159.138 341.261 154.168 343.496 149.395C344.629 146.98 345.781 144.575 346.952 142.18C347.498 141.069 348.016 139.932 348.637 138.86C348.997 138.238 349.457 137.437 350.18 137.202C350.769 137.012 350.851 137.125 350.88 137.775C350.837 139.088 350.64 140.391 350.292 141.658C349.729 144.396 349.002 147.103 348.299 149.808C347.124 154.331 345.953 158.849 344.924 163.408C344.246 166.416 348.872 167.701 349.553 164.684C350.553 160.245 351.689 155.844 352.835 151.441C353.491 148.921 354.163 146.401 354.723 143.859C355.278 141.342 356.234 138.153 355.316 135.637C354.861 134.423 353.963 133.427 352.802 132.85C351.642 132.273 350.305 132.157 349.063 132.527C346.517 133.202 344.993 135.387 343.871 137.615C341.232 142.855 338.771 148.184 336.327 153.515C335.156 156.069 334.062 158.676 332.727 161.151C331.455 163.51 329.982 165.751 328.577 168.03C327.044 170.257 325.808 172.676 324.903 175.224C324.42 177.16 324.06 179.125 323.823 181.107C323.14 185.3 324.059 189.886 325.123 193.965C326.088 197.665 327.31 201.302 328.59 204.906C331.54 213.206 334.848 221.416 338.476 229.449C338.8 229.995 339.327 230.392 339.941 230.553C340.556 230.714 341.209 230.627 341.76 230.31C342.298 229.979 342.688 229.453 342.849 228.841C343.009 228.23 342.928 227.58 342.621 227.027V227.028Z" fill="#211715"/>
<path d="M354.686 133.137C354.857 131.545 355.39 130.012 356.244 128.657C356.406 128.412 356.892 128.031 356.387 128.097C356.662 128.122 356.932 128.189 357.187 128.297C358.324 128.629 357.263 128.204 357.325 128.172C357.596 128.029 358.104 131.01 358.118 131.315C358.157 132.964 358.058 134.614 357.823 136.247C356.957 143.288 356.271 150.347 355.569 157.406C354.869 164.422 354.513 171.506 351.601 178.032C350.964 179.46 350.355 180.903 349.676 182.312C348.908 183.903 348.008 185.417 347.343 187.059C346.015 190.337 345.761 194.267 347.643 197.393C349.578 200.283 351.794 202.974 354.259 205.427C357.025 208.434 359.87 211.37 362.634 214.38C364.729 216.66 368.116 213.258 366.029 210.98C363.404 208.123 360.709 205.33 358.073 202.48C355.733 200.189 353.627 197.671 351.787 194.962C349.926 191.876 351.973 188.379 353.392 185.595C355.034 182.442 356.432 179.168 357.573 175.802C358.66 172.101 359.354 168.296 359.644 164.449C360.074 160.48 360.46 156.506 360.851 152.533C361.244 148.533 361.644 144.525 362.097 140.527C362.462 137.303 363.15 134.009 362.885 130.754C362.821 128.882 362.273 127.059 361.293 125.463C360.742 124.811 360.059 124.284 359.289 123.916C358.519 123.547 357.68 123.346 356.827 123.326C352.094 122.945 350.307 129.526 349.891 133.126C349.894 133.762 350.148 134.37 350.598 134.819C351.047 135.269 351.655 135.523 352.291 135.526C352.923 135.511 353.525 135.254 353.972 134.807C354.419 134.36 354.676 133.758 354.691 133.126L354.686 133.137Z" fill="#211715"/>
<path d="M305.187 134.776C308.136 134.13 310.985 133.091 313.658 131.687C314.696 131.129 315.674 130.464 316.574 129.704C317.267 129.158 317.829 128.464 318.219 127.673C318.523 127.119 318.603 126.47 318.443 125.859C318.283 125.248 317.895 124.722 317.358 124.389C316.327 123.844 314.602 124.018 314.075 125.25C314.02 125.377 313.957 125.499 313.884 125.617C313.847 125.675 313.804 125.73 313.769 125.788C313.584 126.095 314.188 125.316 313.922 125.588C313.677 125.836 313.447 126.088 313.18 126.315C313.091 126.39 312.992 126.459 312.907 126.538C313.016 126.438 313.365 126.2 313.045 126.424C312.845 126.564 312.645 126.704 312.445 126.837C312.009 127.118 311.559 127.378 311.101 127.621C310.586 127.894 310.06 128.147 309.527 128.383C309.46 128.412 308.992 128.607 309.327 128.472C309.662 128.337 309.176 128.531 309.109 128.558C308.789 128.685 308.467 128.807 308.142 128.924C306.76 129.418 305.349 129.828 303.918 130.152C303.307 130.325 302.789 130.732 302.475 131.285C302.161 131.837 302.077 132.49 302.241 133.104C302.422 133.71 302.83 134.224 303.38 134.536C303.931 134.849 304.581 134.936 305.194 134.781L305.187 134.776Z" fill="#211715"/>
<path d="M313.066 168.951C309.673 168.451 306.485 167.251 303.187 166.369L304.949 168.684C304.624 163.927 304.915 159.089 305.057 154.331C305.231 148.52 305.457 142.711 305.711 136.903C305.778 135.348 305.855 133.794 305.911 132.239C305.906 131.604 305.651 130.997 305.202 130.548C304.753 130.099 304.146 129.844 303.511 129.839C300.692 129.993 297.894 130.416 295.156 131.103C293.677 131.458 292.21 131.872 290.767 132.357C289.386 132.82 287.143 133.281 286.367 134.583C285.771 135.819 285.385 137.145 285.224 138.508C284.835 140.537 284.564 142.589 284.308 144.639C283.702 149.499 283.293 154.385 282.965 159.272C282.81 161.584 282.681 163.898 282.58 166.213C282.457 169.097 282.042 171.906 281.68 174.773C280.646 182.932 279.965 191.124 279.638 199.35C279.512 202.439 284.312 202.433 284.438 199.35C284.672 193.598 285.075 187.857 285.645 182.126C286.153 177.066 287.154 171.996 287.353 166.92C287.653 159.383 288.199 151.826 289.153 144.341C289.322 143.006 289.569 141.301 289.859 139.784C289.982 139.142 290.115 138.5 290.282 137.868C290.342 137.641 290.404 137.414 290.476 137.19C290.541 136.99 290.876 136.201 290.519 137.006L289.085 138.106C293.657 136.115 298.543 134.94 303.521 134.636L301.121 132.236C300.759 142.116 300.23 151.99 300.091 161.877C300.059 164.14 300.003 166.421 300.158 168.677C300.168 169.2 300.342 169.706 300.657 170.123C300.972 170.541 301.411 170.848 301.911 171C305.211 171.88 308.397 173.086 311.79 173.582C312.403 173.73 313.049 173.64 313.598 173.328C314.146 173.017 314.555 172.508 314.742 171.906C314.907 171.292 314.823 170.639 314.509 170.086C314.196 169.533 313.677 169.126 313.066 168.953V168.951Z" fill="#211715"/>
<path d="M361.789 159.766C363.465 154.281 365.559 148.932 368.052 143.766C369.745 140.372 371.518 137.041 374.32 134.677L371.985 135.294C374.262 135.85 376.459 136.693 378.524 137.803C379.764 138.414 380.987 139.066 382.164 139.792C383.021 140.252 383.803 140.839 384.486 141.533L384.111 138.624C377.257 150.151 373.654 163.251 371.372 176.374C370.582 180.921 369.947 185.494 369.388 190.074C369.393 190.709 369.647 191.317 370.096 191.766C370.545 192.215 371.153 192.469 371.788 192.474L369.388 190.074C369.272 196.428 368.286 202.736 366.457 208.822C365.498 211.766 370.131 213.028 371.085 210.098C373.211 203.572 373.885 196.898 374.185 190.074C374.178 189.44 373.922 188.833 373.474 188.385C373.025 187.936 372.419 187.681 371.785 187.674L374.185 190.074C375.834 176.55 378.191 162.695 383.63 150.112C384.974 146.994 386.519 143.966 388.253 141.046C388.512 140.586 388.615 140.054 388.547 139.53C388.48 139.006 388.244 138.517 387.877 138.138C385.836 136.263 383.491 134.748 380.943 133.658C378.527 132.319 375.942 131.312 373.258 130.665C370.572 130.174 368.158 134.165 366.896 136.077C365.12 138.842 363.581 141.753 362.296 144.777C360.344 149.253 358.629 153.829 357.16 158.486C356.215 161.434 360.848 162.697 361.789 159.762V159.766Z" fill="#211715"/>
<path d="M308.12 150.562C309.233 152.256 310.874 153.536 312.788 154.203C314.403 154.871 316.154 155.145 317.896 155.003C318.529 154.984 319.134 154.736 319.596 154.303C319.933 153.967 320.162 153.539 320.255 153.073C320.349 152.606 320.301 152.123 320.119 151.684C319.937 151.244 319.628 150.869 319.232 150.606C318.837 150.342 318.372 150.202 317.896 150.203C317.258 150.263 316.615 150.25 315.98 150.166L316.618 150.252C315.725 150.13 314.852 149.895 314.018 149.552L314.591 149.794C313.942 149.524 313.328 149.176 312.763 148.759L313.249 149.134C312.86 148.838 312.508 148.496 312.204 148.113L312.579 148.599C312.467 148.451 312.364 148.297 312.269 148.137C312.11 147.865 311.899 147.627 311.648 147.436C311.396 147.246 311.11 147.106 310.805 147.026C310.5 146.946 310.183 146.927 309.87 146.97C309.558 147.013 309.257 147.117 308.985 147.276C308.713 147.435 308.475 147.646 308.284 147.897C308.094 148.149 307.954 148.435 307.874 148.74C307.794 149.045 307.775 149.362 307.818 149.675C307.861 149.987 307.965 150.288 308.124 150.56L308.12 150.562Z" fill="#211715"/>
<path d="M350.926 119.09C356.194 115.184 360.933 110.613 365.026 105.49C365.462 105.033 365.705 104.425 365.705 103.793C365.705 103.161 365.462 102.553 365.026 102.096C364.573 101.652 363.963 101.404 363.329 101.404C362.694 101.404 362.085 101.652 361.631 102.096C359.845 104.352 357.929 106.501 355.892 108.534C354.713 109.693 353.502 110.817 352.258 111.908C351.618 112.467 350.968 113.014 350.309 113.55C350.061 113.75 349.579 114.134 349.462 114.226C349.605 114.114 349.153 114.461 349.106 114.496C348.906 114.646 348.706 114.796 348.506 114.943C347.968 115.275 347.579 115.801 347.418 116.413C347.258 117.024 347.339 117.674 347.645 118.227C347.971 118.771 348.498 119.166 349.112 119.327C349.725 119.488 350.378 119.402 350.929 119.088L350.926 119.09Z" fill="#211715"/>
</g>
<defs>
<clipPath id="clip0_523_924">
<rect width="411.386" height="286.628" fill="white"/>
</clipPath>
</defs>
</svg>
