<svg width="155" height="155" viewBox="0 0 155 155" fill="none" xmlns="http://www.w3.org/2000/svg">
<path d="M81.4749 80.6806C80.5831 80.7369 79.7021 80.4612 79.0014 79.9066C78.6689 79.6161 78.3999 79.2599 78.2115 78.8604C77.5631 77.467 77.4991 75.0459 78.0319 72.0417C78.7177 68.1783 80.7295 66.4908 83.0587 64.5367C83.6034 64.0797 84.1673 63.6073 84.7235 63.0955C85.2809 62.6143 85.7215 62.0127 86.012 61.336C86.3025 60.6594 86.4353 59.9256 86.4003 59.19C86.3657 58.511 86.1814 57.8481 85.8604 57.2487C85.5395 56.6494 85.0899 56.1284 84.5439 55.7232C83.5627 54.9576 82.3511 54.5469 81.1065 54.5578C79.8718 54.5418 78.6697 54.9539 77.7045 55.724C76.1581 56.8914 75.2271 58.5189 74.5222 59.9553C74.2199 60.5779 73.7043 61.0713 73.0691 61.346C72.5694 61.5489 72.0346 61.6516 71.4953 61.6484C70.9086 61.6538 70.3279 61.5298 69.7946 61.2852C68.45 60.6495 67.85 59.4598 67.9597 57.6539C68.1086 55.6649 68.8411 53.7641 70.0656 52.1897C72.5037 49.011 77.0052 46.9555 81.5341 46.9555C83.2869 46.9286 85.0271 47.2565 86.6499 47.9194C88.2727 48.5824 89.7447 49.5668 90.9773 50.8133C93.2303 53.1565 94.4669 56.2946 94.4179 59.5449C94.4095 60.9545 94.1171 62.348 93.5581 63.6421C92.9991 64.9363 92.185 66.1044 91.1644 67.0769C89.8755 68.2884 88.8559 69.1232 87.9563 69.8583C87.4247 70.2934 86.9661 70.6684 86.5291 71.0586C85.4527 72.0357 84.7992 73.3937 84.7072 74.8445L84.683 75.4294C84.6661 76.3192 84.5947 77.2073 84.4692 78.0884C84.3404 78.7497 84.0257 79.3606 83.5621 79.8494C83.2862 80.1187 82.9597 80.3309 82.6015 80.4735C82.2433 80.6162 81.8604 80.6866 81.4749 80.6806Z" fill="#3D8DCC"/>
<path d="M81.1979 93.0455C80.5774 93.0552 79.9637 92.9143 79.4095 92.6351C78.8553 92.3558 78.377 91.9464 78.0156 91.4419C77.5682 90.7337 77.3611 89.9002 77.4251 89.065C77.489 88.2298 77.8205 87.4375 78.3704 86.8057C78.7178 86.4548 79.1329 86.1783 79.5906 85.9932C80.0484 85.8081 80.539 85.7181 81.0326 85.7289L81.1121 85.7289C81.6286 85.7289 83.3797 85.8378 84.3417 87.2388C84.8299 88.0099 85.0299 88.9287 84.9063 89.833C84.7827 90.7373 84.3434 91.5687 83.6662 92.1805C82.9724 92.7531 82.0973 93.0598 81.1979 93.0455Z" fill="#3D8DCC"/>
<path d="M81.4748 79.727C80.6182 79.7155 79.8 79.5339 79.2747 78.8024C78.924 78.2264 78.7213 77.5725 78.6847 76.8991C78.4957 74.8757 78.6997 72.8349 79.2855 70.889C79.7568 69.4049 80.5951 68.0639 81.7228 66.9902C83.026 65.7017 84.6325 64.6924 85.8448 63.3188C86.5278 62.5683 87.0009 61.651 87.2165 60.6594C87.432 59.6678 87.3824 58.6369 87.0726 57.6706C86.7235 56.705 86.1368 55.843 85.3665 55.1641C84.5963 54.4851 83.6674 54.0113 82.6656 53.7862C81.6353 53.5497 80.5636 53.56 79.538 53.8162C78.5123 54.0723 77.5617 54.5671 76.7635 55.2603C75.9621 55.9472 75.2701 56.7523 74.7117 57.648C74.2635 58.3421 73.9678 59.1404 73.5006 59.8162C72.6439 61.0556 70.2082 60.9733 69.3333 59.7304C68.9633 59.1049 68.8153 58.3728 68.9133 57.6527C68.9808 56.6478 69.2287 55.6632 69.6452 54.7462C71.2409 51.1979 74.8106 49.0245 78.5059 48.2274C81.798 47.4589 85.26 48.005 88.1557 49.7496C89.8167 50.7979 91.1783 52.2582 92.1081 53.9883C93.0378 55.7185 93.5042 57.6598 93.4618 59.6235C93.4199 61.4924 92.8466 63.3108 91.8089 64.8657C90.7507 66.4395 89.1415 67.6554 87.6896 68.849C86.8833 69.4449 86.1252 70.1035 85.4224 70.8186C84.7617 71.5632 84.2727 72.4438 83.99 73.3982C83.8101 74.1239 83.7199 74.8689 83.7214 75.6165C83.684 76.5276 83.7428 77.6032 83.3662 78.4563C83.2135 78.833 82.9516 79.1554 82.6142 79.382C82.2768 79.6086 81.8793 79.729 81.4728 79.7278C80.2474 79.7584 80.2411 81.666 81.4728 81.6351C82.0362 81.6383 82.5936 81.5194 83.1066 81.2865C83.6197 81.0536 84.0761 80.7123 84.4445 80.2861C85.1904 79.3722 85.4236 78.3606 85.5329 77.2126C85.6123 76.3754 85.5964 75.5327 85.6695 74.6959C85.7647 73.786 86.131 72.9257 86.7209 72.2264C87.4312 71.483 88.2067 70.8048 89.0382 70.2C89.8484 69.5336 90.6459 68.8526 91.4183 68.1425C93.0147 66.7276 94.2001 64.9085 94.8497 62.8766C96.1331 58.7184 94.9896 54.0016 92.1875 50.7227C90.9032 49.2694 89.3302 48.0995 87.5689 47.2876C85.8075 46.4756 83.8964 46.0394 81.9572 46.0067C77.8487 45.8874 73.5546 47.3735 70.5587 50.2232C68.924 51.7627 67.7751 53.7464 67.2532 55.9303C66.8256 57.8093 66.7843 60.1309 68.3844 61.493C70.0723 62.931 72.9463 63.0351 74.5889 61.4612C75.2246 60.8501 75.5314 60.0189 75.9605 59.2671C76.4577 58.3571 77.0985 57.5333 77.8582 56.8274C78.5785 56.1423 79.4956 55.7004 80.4804 55.5642C81.4651 55.4279 82.4678 55.604 83.3471 56.0677C84.1652 56.4857 84.8062 57.1834 85.1535 58.034C85.5008 58.8846 85.5314 59.8315 85.2396 60.7027C84.9066 61.6961 84.1199 62.3759 83.3522 63.0415C82.6092 63.6848 81.8424 64.2994 81.1085 64.9543C79.8055 66.0504 78.7461 67.407 77.9985 68.9368C77.1278 71.0227 76.6931 73.2646 76.7214 75.5247C76.7019 77.3839 76.9598 79.5085 78.5226 80.7379C79.3803 81.3554 80.4189 81.6704 81.4752 81.6335C82.7026 81.6513 82.703 79.7441 81.4748 79.727Z" fill="#211715"/>
<path d="M81.1978 92.0919C80.5161 92.1012 79.8516 91.8781 79.3136 91.4593C79.3506 91.4883 79.3931 91.5269 79.2576 91.4069C79.1908 91.3477 79.1269 91.2877 79.0645 91.2221C78.9802 91.1432 78.9046 91.0555 78.8388 90.9607C78.6152 90.617 78.4663 90.2303 78.4017 89.8255C78.3167 89.2403 78.3993 88.643 78.6401 88.103C78.8724 87.5763 79.2934 87.1556 79.8202 86.9237C80.3103 86.7241 80.8407 86.6437 81.3679 86.6892C81.4632 86.6948 81.5578 86.7087 81.6532 86.7147C81.3635 86.6964 81.7326 86.7306 81.8093 86.7464C82.0765 86.7981 82.3378 86.8764 82.5893 86.9801C82.4018 86.9006 82.6708 87.0258 82.6855 87.0333C82.7395 87.0615 82.7935 87.0913 82.8444 87.1223C82.9239 87.17 83.0033 87.2213 83.0828 87.2753C83.0494 87.2519 82.9703 87.1744 83.1194 87.3039C83.3748 87.5059 83.5809 87.7634 83.7221 88.0569C83.8314 88.2755 83.9082 88.509 83.9498 88.7499C83.9498 88.7566 83.9895 89.0697 83.974 88.8853C83.98 88.9509 83.9856 89.0165 83.9887 89.082C83.9979 89.2798 83.9927 89.4779 83.9732 89.6749C83.9872 89.5306 83.9732 89.6927 83.9669 89.7146C83.9423 89.8449 83.9152 89.9741 83.8799 90.1016C83.8621 90.1654 83.8429 90.2287 83.8223 90.2915C83.8195 90.2999 83.7166 90.5725 83.7754 90.4334C83.6461 90.7572 83.4541 91.0523 83.2103 91.3016C82.9436 91.5597 82.6283 91.7623 82.2827 91.8977C81.9371 92.0332 81.5681 92.0988 81.197 92.0907C79.9708 92.1078 79.9673 94.015 81.197 93.9979C82.2185 94.0088 83.2151 93.6826 84.0325 93.0699C84.85 92.4572 85.4426 91.5921 85.7188 90.6086C85.9932 89.6918 85.9717 88.7118 85.6573 87.808C85.3428 86.9041 84.7515 86.1224 83.9673 85.5739C83.3172 85.1726 82.5895 84.9137 81.8321 84.8141C81.0747 84.7145 80.3048 84.7766 79.5731 84.9962C78.6214 85.3046 77.7995 85.9212 77.2372 86.7486C76.6749 87.576 76.4042 88.5672 76.4679 89.5656C76.4864 90.1751 76.6272 90.7747 76.8819 91.3287C77.1367 91.8828 77.5001 92.38 77.9507 92.7908C78.8563 93.5658 80.0075 93.9943 81.1994 93.9999C82.4256 94.0154 82.426 92.1082 81.1978 92.0919Z" fill="#211715"/>
<path d="M52.4718 41.3013C48.9972 44.2938 46.009 47.8083 43.6142 51.7192C39.1879 58.9823 37.1813 67.464 37.8834 75.9428C38.2256 80.0782 39.191 84.1383 40.747 87.9855C42.3467 91.9369 44.5287 95.6267 47.2205 98.9324C50.5849 103.102 54.6292 106.672 59.1827 109.494C61.3557 110.83 63.6465 111.963 66.0262 112.88C67.1772 113.322 68.3473 113.708 69.5366 114.039C70.1238 114.202 70.7832 114.281 71.3486 114.502C71.8667 114.704 71.9969 115.531 72.179 116.001C72.7067 117.363 73.234 118.725 73.7608 120.088C74.0459 120.824 74.3316 121.559 74.6179 122.294C74.7538 122.643 74.8901 122.992 75.0267 123.341C75.1726 123.713 75.2797 124.192 75.5466 124.5C75.6662 124.629 75.817 124.725 75.9846 124.779C76.1521 124.833 76.3307 124.843 76.5031 124.808C76.931 124.72 77.1346 124.363 77.332 124.015C77.7179 123.335 78.1028 122.655 78.4869 121.974C79.2463 120.628 80.0038 119.281 80.7592 117.934C81.0982 117.33 81.4373 116.725 81.7766 116.121C81.8781 115.856 82.0435 115.62 82.258 115.434C82.515 115.28 82.8934 115.318 83.1837 115.292C84.4289 115.183 85.6661 115.013 86.8952 114.78C89.4168 114.299 91.8869 113.58 94.2721 112.632C99.2933 110.6 103.917 107.699 107.932 104.063C111.196 101.178 114.049 97.8592 116.411 94.199C118.569 90.8385 120.205 87.1703 121.264 83.3194C122.274 79.6007 122.697 75.7466 122.515 71.8968C122.312 67.9279 121.514 64.0116 120.148 60.279C118.69 56.335 116.701 52.6082 114.235 49.2021C111.703 45.6197 108.68 42.411 105.254 39.6702C101.966 37.0701 98.3046 34.9797 94.3941 33.4693C90.5447 31.9843 86.4912 31.0963 82.374 30.8362C78.1865 30.5759 73.9844 30.9753 69.9215 32.0197C65.6725 33.1203 61.6237 34.8832 57.9239 37.2438C56.0103 38.4621 54.1882 39.8182 52.4718 41.3013C51.7876 41.8941 52.708 42.9587 53.3933 42.365C57.5951 38.694 62.4798 35.888 67.7679 34.1074C72.6235 32.5098 77.7475 31.8886 82.845 32.2797C87.8827 32.6708 92.798 34.0314 97.3205 36.2868C102.002 38.6356 106.196 41.8495 109.682 45.7585C113.224 49.6788 116.087 54.1623 118.153 59.0244C120.035 63.4692 121.053 68.2317 121.152 73.0569C121.214 77.7917 120.344 82.492 118.593 86.8905C116.685 91.5941 113.928 95.9064 110.461 99.6124C106.15 104.279 100.956 108.181 95.1308 110.749C92.254 112.023 89.2332 112.943 86.1345 113.489C85.3627 113.624 84.5871 113.735 83.8076 113.822C83.0117 113.911 82.0947 113.838 81.4126 114.315C80.7442 114.783 80.4057 115.697 80.0165 116.39L78.7029 118.731C78.2414 119.552 77.7792 120.373 77.3164 121.194C77.0788 121.615 76.8409 122.036 76.6027 122.457C76.4016 122.885 76.1611 123.294 75.8845 123.678L76.1682 123.432L76.1406 123.436L76.4965 123.461L76.4698 123.454L76.7148 123.737C76.4492 123.224 76.2315 122.688 76.0644 122.136C75.8519 121.592 75.6401 121.048 75.429 120.504C75.0392 119.5 74.6503 118.497 74.2625 117.493C73.9004 116.556 73.538 115.62 73.1752 114.683C73.0286 114.182 72.726 113.74 72.3114 113.423C71.889 113.189 71.4284 113.033 70.9512 112.96C67.477 112.088 64.1395 110.741 61.0328 108.958C54.71 105.322 49.3596 100.212 45.438 94.0618C42.229 88.9987 40.1789 83.289 39.4347 77.3418C38.7173 71.4537 39.3579 65.4801 41.3076 59.8793C43.4366 53.8871 46.9354 48.4754 51.5252 44.075C52.1322 43.4878 52.7549 42.9178 53.3933 42.365C54.0772 41.7724 53.1571 40.7076 52.4718 41.3013Z" fill="#211715"/>
</svg>
