<svg xmlns="http://www.w3.org/2000/svg" width="217.439" height="359.188" viewBox="0 0 217.439 359.188"><defs><style>.a{fill:#957f6e;}.b{fill:#fff;}.c{fill:#211715;}.d{fill:#bdbdbd;}.e{fill:#d9d9d9;}.f{fill:#645d5c;}</style></defs><path class="a" d="M170.217,130.152a42.846,42.846,0,0,0-.3-4.6,26.71,26.71,0,0,0-2.975-9.459,16.889,16.889,0,0,1-2.62,2.667,13.222,13.222,0,0,1-7.358,2.95c-.52,1.957-1.109,3.609-1.4,4.482-1.722,4.674-10.879,20.152-22.686,27.217l1.176,1.763c2.84,4.26,9.24,7.9,16.78,9.05,8.17,1.24,15.9-.58,20.92-3.66a6.91,6.91,0,0,0,2.31-2.02,2.091,2.091,0,0,0,.36-1.01c.01-.15-.03-.73-.21-.79-4.5-1.52-5.73-6.17-5.51-10.89.23-4.74,1.43-9.59,1.51-14.33Q170.227,130.823,170.217,130.152Z"/><path class="b" d="M159.877,88.744a8.032,8.032,0,0,1,6.426-1.88,7.581,7.581,0,0,1,5.451,3.625,10.716,10.716,0,0,1,1.123,4.313,32.13,32.13,0,0,1-3.276,17.029,20.412,20.412,0,0,1-5.28,6.929,13.527,13.527,0,0,1-6.295,2.838l-1.073.165c-.522,1.938-1.1,3.565-1.387,4.429-1.905,5.172-12.915,23.574-26.545,29.166-.014,3.723-.166,8.135,1.163,11.405.957,2.365,5.445,5.874,10.164,9.064,0,0,1.213,34.137-34.547,34.137S71.433,175.6,71.433,175.6c5.038-3.124,9.713-6.523,10.648-8.833,1.316-3.268,1.163-7.642,1.15-11.358-6.155-2.661-11.793-7.167-16.807-13.168a54.626,54.626,0,0,1-10.412-20.324L53.96,121.6a13.522,13.522,0,0,1-6.3-2.838,20.4,20.4,0,0,1-5.28-6.929A32.12,32.12,0,0,1,39.109,94.8a10.714,10.714,0,0,1,1.122-4.313,7.585,7.585,0,0,1,5.452-3.625,8.029,8.029,0,0,1,6.425,1.88s-5.955-49.65,52.712-49.65S159.877,88.744,159.877,88.744Z"/><path class="a" d="M168.35,53.3c-.2-1.184-.411-2.281-.612-3.267C162.154,22.654,134.573.917,105.65,2.506,76.726.917,49.146,22.654,43.561,50.037c-1.513,7.386-1.331,20.022.044,25.918L46.374,86.8a7.969,7.969,0,0,1,5.734,1.943c11.432-7.929,30.821-21.7,40.861-30.338-.825,5.125-3.76,13.842-.064,12.946,15.434-3.574,30.226-10.781,39.17-22.025,1.885,6.639,5,15.608,7.29,19.527,3.238,5.546,12.623,18.025,20.512,19.89a8.032,8.032,0,0,1,6.426-1.88,7.729,7.729,0,0,1,1,.219C171.323,77.774,169.969,62.742,168.35,53.3Z"/><path class="c" d="M45.889,75.551A49.4,49.4,0,0,1,44.92,65.9a86.377,86.377,0,0,1,.422-11.775,50.281,50.281,0,0,1,6.937-19.921A61.1,61.1,0,0,1,86.273,7.371,55.018,55.018,0,0,1,97.176,5.1c3.776-.375,7.586-.268,11.373-.273a56.041,56.041,0,0,1,21.756,4.462,60.953,60.953,0,0,1,31.41,30.033,64.6,64.6,0,0,1,5.035,19.406c.919,7.419,1.425,15.283-.176,22.644a28.754,28.754,0,0,1-1.545,4.984,2.415,2.415,0,0,0,1.677,2.953,2.462,2.462,0,0,0,2.952-1.677c3.047-7.3,3-15.861,2.42-23.618-.546-7.275-1.552-14.783-3.993-21.687-5.3-14.992-16.687-27.556-30.7-34.958A63.253,63.253,0,0,0,114.3.315,111.113,111.113,0,0,0,102.389.024a59.809,59.809,0,0,0-12.04,1.32A65.977,65.977,0,0,0,51.122,27.231a58.172,58.172,0,0,0-9.654,21.14A73.589,73.589,0,0,0,40.5,71.945a42.331,42.331,0,0,0,.757,4.882c.684,3.011,5.313,1.737,4.629-1.276Z"/><path class="c" d="M129.99,50.771c1.118,3.822,2.359,7.612,3.769,11.336a51.153,51.153,0,0,0,3.979,8.7,64.718,64.718,0,0,0,12.295,14.84c2.673,2.332,5.712,4.534,9.206,5.409,3,.749,4.276-3.878,1.276-4.629-5.358-1.341-9.964-6.6-13.457-10.836a50.275,50.275,0,0,1-8.321-13.852c-1.562-4.014-2.91-8.114-4.119-12.247-.865-2.959-5.5-1.7-4.628,1.276Z"/><path class="c" d="M130.533,47.434a55.5,55.5,0,0,1-19.011,14.848,81,81,0,0,1-11.7,4.692q-3.144,1-6.35,1.777c-.263.064-.541.116-.8.193-.393.116-.451-.081-.129.067-.144-.067-.325-.195.178.049a2.227,2.227,0,0,1,.595.352.613.613,0,0,1,.23.335c0-.069-.045-.458-.046-.133,0,.365-.01-.229-.011-.3-.024-3.308,1.225-6.827,1.8-10.271a2.422,2.422,0,0,0-4.012-2.335C81.2,65.354,70.254,73.039,59.425,80.7Q55.174,83.7,50.9,86.672a2.464,2.464,0,0,0-.861,3.284,2.422,2.422,0,0,0,3.284.861c11.3-7.843,22.532-15.823,33.4-24.268,2.693-2.094,5.361-4.224,7.95-6.446l-4.011-2.335c-.61,3.673-1.891,7.34-1.969,11.085a4.968,4.968,0,0,0,1.577,4.229c1.751,1.337,3.979.439,5.883-.055A82.014,82.014,0,0,0,122.462,61.4a53.7,53.7,0,0,0,11.466-10.571,2.477,2.477,0,0,0,0-3.394,2.418,2.418,0,0,0-3.4,0Z"/><path class="c" d="M165.144,117.824c3.7,7.339,2.678,15.43,1.638,23.26-.907,6.828-.877,15.2,6.8,17.973l-1.059-.618.11.128-.617-1.059c-.1-.348.192-.2-.115-.057-.245.113-.483.461-.706.625a15.747,15.747,0,0,1-2.137,1.251,24.212,24.212,0,0,1-4.275,1.665,31.776,31.776,0,0,1-11.188,1.136c-6.149-.436-13.8-2.82-17.463-8.167-1.734-2.533-5.895-.135-4.144,2.423,3.4,4.962,9.122,7.955,14.824,9.452a36.264,36.264,0,0,0,19.994-.444c2.832-.906,6.024-2.191,8.215-4.273a5.09,5.09,0,0,0,1.775-4.015,3.066,3.066,0,0,0-.879-2.059c-.632-.609-1.582-.745-2.3-1.26-1.7-1.224-2.333-3.471-2.483-5.477-.25-3.32.381-6.666.832-9.942,1.074-7.818.949-15.776-2.678-22.965-1.391-2.758-5.533-.331-4.144,2.423Z"/><path class="c" d="M161.574,90.441a5.517,5.517,0,0,1,7.923.949,9.234,9.234,0,0,1,1.067,4.754,28.767,28.767,0,0,1-.342,6.065c-1.211,7.083-4.944,15.719-12.834,17.075a2.419,2.419,0,0,0-1.676,2.952,2.455,2.455,0,0,0,2.952,1.676c8.171-1.4,13.02-9.12,15.256-16.488a33.937,33.937,0,0,0,1.407-11.951c-.257-3.959-1.454-7.683-5.1-9.744a10.537,10.537,0,0,0-12.042,1.318,2.421,2.421,0,0,0,0,3.394,2.448,2.448,0,0,0,3.394,0Z"/><path class="c" d="M155.543,115.62a26.974,26.974,0,0,1-1.275,6.8c-.256.858-.537,1.707-.822,2.555-.077.229-.15.46-.235.687-.066.179-.365.846-.055.156a53.842,53.842,0,0,1-3.584,6.565,63.959,63.959,0,0,1-14.278,16.468,27.2,27.2,0,0,1-10.587,5.358c-3.009.692-1.735,5.321,1.276,4.629,8.046-1.85,14.781-7.653,20.082-13.725a69.279,69.279,0,0,0,11.052-16.461,35.1,35.1,0,0,0,3.226-13.032c.1-3.09-4.7-3.086-4.8,0Z"/><path class="c" d="M53.806,87.047a10.5,10.5,0,0,0-10.614-1.98c-3.931,1.551-5.9,4.858-6.4,8.928a32.936,32.936,0,0,0,5.765,22.774,17.222,17.222,0,0,0,10.76,7.143,2.469,2.469,0,0,0,2.952-1.676,2.42,2.42,0,0,0-1.676-2.952c-7.89-1.355-11.623-9.993-12.834-17.075a28.624,28.624,0,0,1-.35-5.841c.059-1.651.133-3.553,1.075-4.978a5.513,5.513,0,0,1,7.922-.949,2.462,2.462,0,0,0,3.395,0,2.421,2.421,0,0,0,0-3.394Z"/><path class="c" d="M51.969,114.844a65.971,65.971,0,0,0,7.2,21.066A53.391,53.391,0,0,0,76.635,154.6a38.225,38.225,0,0,0,12.151,5.124c3.009.677,4.294-3.95,1.276-4.629-14.939-3.359-26.112-16.809-30.813-30.83a72.727,72.727,0,0,1-2.652-10.7,2.419,2.419,0,0,0-2.952-1.676,2.454,2.454,0,0,0-1.676,2.952Z"/><path class="d" d="M2.6,296.872c1.778-43.852,5.926-72.3,8.889-87.112.993-4.964,3.481-9.851,6.815-12.74,2.74-2.376,6.37-2.815,9.3-4.213,10.654-5.078,23.562-8.69,33.9-14.234l8.56-5.944c6.519,19.393,14.017,41.746,21.022,61.274,4.871,13.577,10.345,27.951,15.287,41.623,5.421-15.143,9.408-25.865,14.746-40.746,7.005-19.527,15.352-42,20.289-62.063l8.841,5.786c7.985,5.377,23.03,11.677,34.124,17.035,3.413,1.649,8.278,3.611,11.238,5.979s5.185,7.583,6.957,13.489c6.16,20.536,9.205,76.919,12.464,141.778H32.607c.342-4.662.83-10.215,1.347-15.915a24.768,24.768,0,0,1-19.539-2.646C4.4,332.052,1.559,317.127,2.6,296.872"/><path class="c" d="M35.005,356.786c.388-5.312.866-10.616,1.35-15.92a2.41,2.41,0,0,0-2.4-2.4,2.464,2.464,0,0,0-2.4,2.4c-.484,5.3-.962,10.608-1.35,15.92a2.412,2.412,0,0,0,2.4,2.4,2.459,2.459,0,0,0,2.4-2.4Z"/><path class="c" d="M126.618,155.9a55.528,55.528,0,0,0,.23,6.97,13.517,13.517,0,0,0,1.827,6.113c2.583,3.73,6.768,6.416,10.461,8.921a2.4,2.4,0,0,0,2.423-4.145c-1.793-1.215-3.573-2.459-5.25-3.832-.727-.595-1.439-1.211-2.113-1.865-.295-.286-.584-.579-.859-.883q-.21-.231-.408-.471c-.269-.326.272.419-.11-.148a9.27,9.27,0,0,1-1.228-4.192,58.409,58.409,0,0,1-.173-6.468c.019-3.09-4.781-3.093-4.8,0Z"/><path class="c" d="M80.836,156.126a55.061,55.061,0,0,1-.182,6.332,14.9,14.9,0,0,1-.538,2.662c-.073.243-.149.488-.241.724.067-.173.075-.147-.006.008-.074.14-.545.836-.271.481a18.375,18.375,0,0,1-3.535,3.257c-1.875,1.414-3.85,2.694-5.842,3.933-2.617,1.629-.21,5.783,2.423,4.145,2.132-1.327,4.238-2.7,6.234-4.23a22.4,22.4,0,0,0,4.619-4.364,12.105,12.105,0,0,0,1.838-5.643,52.721,52.721,0,0,0,.3-7.305c-.02-3.088-4.82-3.095-4.8,0Z"/><path class="b" d="M113.442,255.984c2.456-6.749,4.882-13.4,7.68-21.2,4.44-12.375,9.418-25.934,13.726-39.312a20.793,20.793,0,0,1-2.56.8c-7.943,3.158-19.512,4.444-27.644,4.423a111.711,111.711,0,0,1-25.5-3.663l-.463-.113c4.131,12.926,8.822,25.989,13.085,37.87l14.611,40.731C108.958,268.311,111.212,262.109,113.442,255.984Z"/><path class="c" d="M78.508,199.337a114.828,114.828,0,0,0,21.936,3.6,90.236,90.236,0,0,0,20.973-1.312,58.7,58.7,0,0,0,11.509-3.048,2.471,2.471,0,0,0,1.676-2.952,2.418,2.418,0,0,0-2.952-1.677,68.946,68.946,0,0,1-19.98,4.071,87.959,87.959,0,0,1-20.328-.907,114.616,114.616,0,0,1-11.558-2.4c-2.989-.792-4.264,3.837-1.276,4.629Z"/><path class="c" d="M93.725,287.266c.265.239.479.524.735.766q-.367-.484-.152-.188c.046.066.09.133.134.2.073.116.141.234.205.355.1.192.208.607-.026-.111.045.139.1.273.148.413a5.57,5.57,0,0,1,.181.827l-.086-.638a5.96,5.96,0,0,1,0,1.5l.086-.638a6.534,6.534,0,0,1-.171.83c-.032.116-.068.231-.107.345s-.23.584-.034.118,0-.021-.051.088-.109.206-.168.306-.115.183-.174.275c-.248.381.42-.484.143-.182-.082.089-.53.657-.638.62,0,0,.563-.394.191-.158-.059.037-.116.077-.175.114q-.2.126-.413.232c-.062.032-.127.061-.19.092-.337.166.5-.186.232-.1-.135.044-.266.1-.4.138a6.7,6.7,0,0,1-.99.217l.638-.086a7.026,7.026,0,0,1-1.8.006l.638.086a8.315,8.315,0,0,1-1.384-.355c.726.234.4.173.212.082-.116-.057-.23-.119-.341-.185-.082-.05-.161-.1-.241-.156-.329-.212.514.442.132.1a8.551,8.551,0,0,1-.618-.616c-.282-.311.346.511,0-.009-.066-.1-.129-.2-.187-.3s-.106-.206-.159-.309c-.188-.361.22.625.036.051a4.728,4.728,0,0,1-.169-.743l.086.638a5.156,5.156,0,0,1,0-1.284l-.086.638a5.939,5.939,0,0,1,.2-.9c.042-.14.092-.276.14-.413.162-.455-.244.5-.026.068a9.377,9.377,0,0,1,.456-.821q.12-.187.249-.367a1.009,1.009,0,0,1,.131-.178c-.07.059-.4.481-.134.185.089-.1.176-.2.272-.3s.462-.389.1-.11.036-.017.135-.079q.2-.126.412-.232a.883.883,0,0,1,.193-.092s-.595.228-.276.117c.138-.047.273-.1.412-.14a6.342,6.342,0,0,1,.974-.206l-.638.085a6.428,6.428,0,0,1,1.562,0l-.638-.085a5.88,5.88,0,0,1,.655.13c.09.024.178.051.266.079s.5.194.077.014c-.4-.172-.076-.03.016.016s.2.1.291.16.186.121.279.181c.336.22-.462-.378-.136-.1a2.555,2.555,0,0,0,1.7.7,2.4,2.4,0,0,0,1.7-4.1,7.6,7.6,0,0,0-4.874-1.855,8.064,8.064,0,0,0-4.48,1.228,8.549,8.549,0,0,0-3.582,8.6,7.392,7.392,0,0,0,3.039,4.324,8.309,8.309,0,0,0,11.5-2.613,8.314,8.314,0,0,0,.961-4.459,7.9,7.9,0,0,0-2.568-5.224,2.4,2.4,0,1,0-3.4,3.394Z"/><path class="c" d="M107.109,356.784c1.127-10.371,2.348-20.732,3.417-31.11,1.007-9.782,1.692-19.613,2.135-29.437a49.505,49.505,0,0,0-.207-8.668,44.978,44.978,0,0,0-2.842-10.134,2.466,2.466,0,0,0-2.952-1.676,2.418,2.418,0,0,0-1.676,2.952,47.033,47.033,0,0,1,2.586,8.41,37.259,37.259,0,0,1,.344,7.863c-.207,5.466-.595,10.928-.972,16.384-.674,9.737-1.74,19.43-2.818,29.129-.6,5.429-1.225,10.856-1.815,16.287a2.415,2.415,0,0,0,2.4,2.4,2.455,2.455,0,0,0,2.4-2.4Z"/><path class="c" d="M149.04,180.575c5.63,3.764,11.862,6.64,17.979,9.507q9.949,4.663,19.918,9.285c2.836,1.323,6.177,2.665,8.261,5.095,2.2,2.563,3.406,6.063,4.442,9.219a88.6,88.6,0,0,1,2.834,11.543c1.9,10.277,2.936,20.429,3.907,30.951,1.319,14.307,2.281,28.646,3.152,42.986,1.03,16.972,1.907,33.954,2.765,50.936q.169,3.344.337,6.687c.155,3.074,4.956,3.093,4.8,0-.877-17.449-1.761-34.9-2.787-52.341-.874-14.867-1.834-29.734-3.135-44.571-.982-11.194-2.092-22.415-3.98-33.5a106.969,106.969,0,0,0-2.39-11.118,54.525,54.525,0,0,0-3.709-9.882,17.625,17.625,0,0,0-6.717-7.383c-3.065-1.866-6.415-3.221-9.642-4.772-3.346-1.607-6.719-3.154-10.089-4.709-6.642-3.065-13.348-6.083-19.7-9.724-1.3-.745-2.577-1.523-3.822-2.356-2.575-1.722-4.981,2.434-2.423,4.145Z"/><path class="c" d="M139.1,172.079c-3.35,13.561-7.777,26.836-12.4,40.008-4.61,13.136-9.37,26.221-14.131,39.3q-4.024,11.061-8.019,22.134a2.423,2.423,0,0,0,1.677,2.952,2.449,2.449,0,0,0,2.952-1.676c9.437-26.3,19.542-52.413,28.09-79.02,2.379-7.407,4.592-14.871,6.458-22.425.741-3-3.887-4.278-4.628-1.276Z"/><path class="c" d="M125.549,269.439q9.96-14.231,19.236-28.923c6.144-9.74,12.278-19.584,17.754-29.72a4.72,4.72,0,0,0,.364-4.514,13.669,13.669,0,0,0-2.978-3.438c-2.387-2.358-4.87-4.615-7.366-6.857l-.485,3.769c2.184-1.3,4.335-2.652,6.565-3.871,2.047-1.118,5.067-2.042,4.318-5.049-.492-1.98-2.08-4.04-3.273-5.657a43.685,43.685,0,0,0-3.96-4.663,83.182,83.182,0,0,0-13.11-10.36c-2.564-1.737-4.969,2.42-2.422,4.145l3.234,2.191c.536.363,1.076.722,1.609,1.09.485.335-.39-.327.413.3q.931.728,1.848,1.476a57.19,57.19,0,0,1,6.392,6,31.356,31.356,0,0,1,2.528,3.195q.552.8,1.052,1.64c.23.386.975,1.307.979,1.715l.328-1.212-.179.285.861-.861a46.824,46.824,0,0,1-4.66,2.536c-1.661.964-3.294,1.976-4.946,2.956a2.421,2.421,0,0,0-.486,3.769c2.02,1.815,4.032,3.64,5.992,5.52q1.464,1.407,2.884,2.859c.29.3.541.868.531.355,0-.251-.429.7-.412.674-.195.346-.392.691-.588,1.037q-4.065,7.158-8.3,14.221Q140.92,238,131.934,251.561q-5.164,7.8-10.53,15.455a2.422,2.422,0,0,0,.861,3.284,2.45,2.45,0,0,0,3.284-.861Z"/><path class="c" d="M181.4,356.784c-.824-11.2-1.976-22.368-2.94-33.553-.374-4.342-.76-8.691-.941-13.047a59.81,59.81,0,0,1,.465-9.256c2.1-18.63,6.346-37.425,9.317-56.116,1.026-6.455,2-12.919,3.074-19.366a100.672,100.672,0,0,1,2.622-12.894c.905-2.961-3.727-4.226-4.629-1.276a90.932,90.932,0,0,0-2.353,11.306c-.95,5.557-1.8,11.131-2.672,16.7-1.568,10-3.393,19.942-5.2,29.9-1.719,9.474-3.332,18.978-4.567,28.529a79.283,79.283,0,0,0-.913,10.339c.01,3.868.382,7.749.7,11.6,1.009,12.383,2.328,24.741,3.24,37.133a2.459,2.459,0,0,0,2.4,2.4,2.419,2.419,0,0,0,2.4-2.4Z"/><path class="c" d="M67.753,173.267c9.2,27.378,18.5,54.708,28.543,81.792,2.922,7.882,5.851,15.762,8.691,23.674a2.463,2.463,0,0,0,2.953,1.677,2.422,2.422,0,0,0,1.676-2.953c-5.039-14.037-10.358-27.971-15.423-42-4.892-13.547-9.559-27.175-14.18-40.816q-3.834-11.319-7.632-22.651c-.979-2.913-5.616-1.664-4.628,1.276Z"/><path class="c" d="M90.086,267.6q-4.534-6.477-8.93-13.052a2.4,2.4,0,1,0-4.144,2.423q4.394,6.575,8.93,13.051a2.4,2.4,0,0,0,4.144-2.422Z"/><path class="c" d="M5,296.872c.858-21.04,2.332-42.082,5.03-62.972.793-6.145,1.775-12.721,2.924-19.041.635-3.5,1.193-7.067,2.76-10.292a16.991,16.991,0,0,1,4.424-5.972c1.944-1.541,4.5-2.041,6.763-2.906,2.9-1.108,5.686-2.546,8.571-3.71,3.057-1.233,6.142-2.392,9.222-3.564a156.23,156.23,0,0,0,18.026-7.77c2.728-1.452.306-5.6-2.422-4.144-10.475,5.577-22.01,8.745-32.766,13.7-2.319,1.069-4.768,1.744-7.109,2.756a15.6,15.6,0,0,0-6.148,4.876c-3.074,3.933-4.586,8.545-5.51,13.385C5.885,226.3,4.108,241.6,2.741,256.885c-1.191,13.3-2,26.641-2.543,39.987-.126,3.088,4.674,3.083,4.8,0Z"/><path class="c" d="M96.641,131.845a21.228,21.228,0,0,0,10.223,2.361c3.638-.024,7.341-.728,10.258-3a2.412,2.412,0,0,0,0-3.394,2.462,2.462,0,0,0-3.394,0c.71-.553.095-.085-.087.031-.208.134-.422.257-.641.372-.152.079-.905.393-.306.165-.294.112-.585.226-.885.322a15.221,15.221,0,0,1-5.278.705,15.852,15.852,0,0,1-5.036-.678c-.324-.1-.64-.213-.96-.323-.1-.035-.2-.089-.309-.12.59.173.17.076.013,0-.4-.186-.787-.382-1.175-.586a2.453,2.453,0,0,0-3.284.861,2.426,2.426,0,0,0,.861,3.283Z"/><path class="c" d="M134.818,92.824c.875,2.844.3,9.386-5.083,9.942-7.121-.042-7.5-7.952-5.1-11.671C126.594,88.05,132.365,86.784,134.818,92.824Z"/><path class="e" d="M73.275,54.678c-22.932,1.855-37.346,20.9-35.665,41.683,1.946,24.06,18.178,38.055,41.961,36.131,24.337-1.969,37.555-18.346,35.609-42.406C113.487,69.161,96.127,52.83,73.275,54.678Z"/><path class="b" d="M74.272,66.989A26.082,26.082,0,0,0,49.891,95.483c1.33,16.447,12.427,26.014,28.684,24.7,16.637-1.346,25.673-12.542,24.342-28.989A26.059,26.059,0,0,0,74.272,66.989Z"/><path class="f" d="M72.141,133.093c.466,5.76,3.1,35.394,3.769,43.666a7.9,7.9,0,0,0,8.329,7.526c5.109-.413,7.489-2.869,7.012-8.767-.7-8.632-3.046-34.921-3.7-43.076Z"/><path class="c" d="M73.275,52.278A42.273,42.273,0,0,0,48.251,62.811a40.385,40.385,0,0,0-12.31,21.783c-3.278,16.291,2.692,35.4,17.13,44.52,7.027,4.438,15.487,6.172,23.724,5.932,8.5-.249,17.247-2.273,24.428-6.978a35.766,35.766,0,0,0,14.018-17.891,48.331,48.331,0,0,0,1.576-25.532A40.214,40.214,0,0,0,80.1,52.267a43.63,43.63,0,0,0-6.821.011,2.461,2.461,0,0,0-2.4,2.4,2.419,2.419,0,0,0,2.4,2.4,37.47,37.47,0,0,1,23.356,5.586A35.454,35.454,0,0,1,110.542,80.1a43.591,43.591,0,0,1,1.6,23.353,32.078,32.078,0,0,1-9.685,17.648c-5.314,4.835-12.379,7.512-19.55,8.617-7.566,1.166-15.617.692-22.726-2.28a31.272,31.272,0,0,1-14.907-13.223A42.731,42.731,0,0,1,39.9,91.7a36.3,36.3,0,0,1,7.61-21.092A35.906,35.906,0,0,1,67.16,58.083a39.427,39.427,0,0,1,6.115-1,2.461,2.461,0,0,0,2.4-2.4A2.419,2.419,0,0,0,73.275,52.278Z"/><path class="c" d="M69.741,133.093c1.143,14.093,2.483,28.171,3.654,42.262a14.267,14.267,0,0,0,1.573,6.293,10.457,10.457,0,0,0,5.695,4.581c3.985,1.342,9.481,0,11.727-3.732,2.017-3.352,1.218-7.553.905-11.241q-.513-6.045-1.043-12.088c-.776-8.908-1.584-17.814-2.306-26.726a2.462,2.462,0,0,0-2.4-2.4,2.418,2.418,0,0,0-2.4,2.4c.59,7.286,1.245,14.568,1.881,21.85q.544,6.251,1.086,12.5c.271,3.144.657,6.307.783,9.46a9.314,9.314,0,0,1-.184,2.629c-.054.215-.113.43-.188.64-.174.489-.092.22-.047.126a4.953,4.953,0,0,1-.359.629c-.266.4.145-.131-.209.246-.376.4-.136.219-.617.5a3.76,3.76,0,0,1-.8.39,8.5,8.5,0,0,1-2.547.487,5.374,5.374,0,0,1-4.462-2.1,7.752,7.752,0,0,1-1.272-4.274c-.587-7.08-1.215-14.157-1.833-21.235s-1.261-14.129-1.835-21.2a2.461,2.461,0,0,0-2.4-2.4,2.419,2.419,0,0,0-2.4,2.4Z"/><path class="c" d="M74.272,64.589a29.836,29.836,0,0,0-17.55,7.338A28.273,28.273,0,0,0,48,87.305c-2.274,11.453,1.909,24.778,12.039,31.2a29.59,29.59,0,0,0,16.8,4.175c5.9-.2,11.968-1.615,16.946-4.887,10.05-6.605,13.321-19.327,10.947-30.691A28.615,28.615,0,0,0,79.081,64.593a30.161,30.161,0,0,0-4.809,0,2.459,2.459,0,0,0-2.4,2.4,2.419,2.419,0,0,0,2.4,2.4,24.98,24.98,0,0,1,15.5,3.662,23.389,23.389,0,0,1,9.208,11.427c3.38,9.1,1.953,20.7-5.208,27.292-6.991,6.434-19.207,7.9-28.031,4.312a20.583,20.583,0,0,1-9.878-8.64A28.418,28.418,0,0,1,52.21,92.484,23.93,23.93,0,0,1,58.41,77a24.365,24.365,0,0,1,15.862-7.613,2.464,2.464,0,0,0,2.4-2.4A2.419,2.419,0,0,0,74.272,64.589Z"/><path class="b" d="M47.369,242.062c1.865-6.806,5.561-12.524,6.5-19.55a148.515,148.515,0,0,0,1.289-20.952c-.08-7.644-.395-15.817.51-22.436.732-5.349,7.072-9.867,13.544-11.731,5.17-1.19,14.4-2.19,17.635-2.642,4.04-.563,7.656.337,9.015,3.592,1.689,4.042.129,7.139-3.153,9.416a5.8,5.8,0,0,1,5.065,5.119c.191,1.419.553,4.044-2.3,5.6A5.754,5.754,0,0,1,99.2,193.3c.21,3.1-1.567,5.843-5.628,7.049,8.665,9.338-5.52,10.23-9.6,14.744-1.063,3.184.3,6.833.061,10.2-.285,4.026-.553,3.718-3.239,6.676-4.468,4.923-5.652,5.888-6.482,12.778Z"/><path class="c" d="M49.683,242.7c1.126-4.015,2.905-7.781,4.374-11.673A49.95,49.95,0,0,0,56.77,218.27c.948-9.14.655-18.226.669-27.392,0-2.25.042-4.5.167-6.749a25.66,25.66,0,0,1,.6-5.456c.872-3.1,3.829-5.321,6.5-6.824a28.65,28.65,0,0,1,9.8-3.022c3.213-.52,6.443-.926,9.672-1.331,2.628-.33,6.29-1.371,8.571.531a4.767,4.767,0,0,1,1.363,4.154,5.963,5.963,0,0,1-2.616,3.506c-1.477,1.054-1.669,4.024.573,4.387a3.835,3.835,0,0,1,2.441,1.134,3.892,3.892,0,0,1,.887,1.952c.1.42-.053-.529.024.1.022.178.04.355.053.533.023.309.029.915.017,1.009a5.971,5.971,0,0,1-.259.766,2.657,2.657,0,0,1-.976.844c-1.447.851-1.677,3.358,0,4.145a4.342,4.342,0,0,1,2.337,2.03s.2.637.237.9c-.077-.514-.016.386-.017.412,0,.115-.039.583-.034.551-.287,1.8-1.959,3-3.848,3.59a2.43,2.43,0,0,0-1.059,4.011,12.075,12.075,0,0,1,1.672,2.256,4.545,4.545,0,0,1,.22.442c-.158-.373.012.064.04.163.048.165.09.329.127.5-.121-.542-.009-.039-.008.112,0,.05-.064.612,0,.207s-.039.145-.064.182c-.044.066-.226.493.061-.1a3.791,3.791,0,0,0-.2.376c-.04.12-.334.47.025.015a3.193,3.193,0,0,1-.235.273,9.837,9.837,0,0,1-.836.771c.407-.324-.3.193-.427.275-.271.176-.548.341-.828.5-.691.395-1.405.75-2.121,1.1-1.341.652-2.709,1.26-4,2-1.526.873-3.259,1.967-3.763,3.738-.822,2.88-.047,5.831.1,8.737a16.814,16.814,0,0,1-.156,3.392c.061-.394-.08.332-.08.333-.036.133-.071.265-.109.4-.122.425-.01.033.033-.051a6.141,6.141,0,0,1-.33.552c-.206.315.387-.43-.068.075-.105.117-.208.236-.314.352-.331.366-.675.722-1.01,1.084q-1.218,1.313-2.41,2.65a20.349,20.349,0,0,0-3.5,4.885,24.842,24.842,0,0,0-1.778,7.49,2.413,2.413,0,0,0,2.4,2.4,2.46,2.46,0,0,0,2.4-2.4,25.39,25.39,0,0,1,.759-3.973,7.91,7.91,0,0,1,1.155-2.552,46.056,46.056,0,0,1,4.917-5.69,11.6,11.6,0,0,0,1.927-2.451,9.906,9.906,0,0,0,.875-3.7,25.775,25.775,0,0,0-.157-5.39,13.031,13.031,0,0,1,.1-5.261l-.618,1.059c.169-.181.346-.346.525-.515.089-.084.55-.425.121-.111.392-.287.8-.548,1.22-.794.846-.5,1.73-.927,2.613-1.353a31.492,31.492,0,0,0,5.285-2.886,7.133,7.133,0,0,0,3.292-5.436c.07-2.744-1.695-5.116-3.453-7.043l-1.059,4.012c3.62-1.14,6.736-3.637,7.293-7.579a8.167,8.167,0,0,0-4.821-8.673v4.145c6.4-3.765,3.657-13.977-3.334-15.108l.574,4.387c3.437-2.453,5.671-5.953,4.815-10.3-.838-4.258-4.093-6.778-8.282-7.252a13.829,13.829,0,0,0-2.855-.016c-.5.047-.987.12-1.48.186-.342.046.432-.056.052-.007l-.559.073c-1.582.2-3.164.4-4.746.6-3.819.494-7.656.981-11.428,1.773a25.774,25.774,0,0,0-11.278,5.728,15.5,15.5,0,0,0-3.683,4.551,16.18,16.18,0,0,0-1.445,5.986c-.962,9.788.044,19.658-.466,29.469-.282,5.424-.538,11.1-2.16,16.313-1.531,4.924-3.956,9.515-5.35,14.488-.836,2.98,3.794,4.251,4.628,1.276Z"/><path class="c" d="M72.1,181.674c3.629-.35,7.266-.625,10.9-.9,3.226-.243,6.475-.571,9.711-.616,3.086-.042,3.095-4.842,0-4.8-3.236.045-6.485.373-9.711.616-3.635.274-7.272.549-10.9.9a2.466,2.466,0,0,0-2.4,2.4,2.416,2.416,0,0,0,2.4,2.4Z"/><path class="c" d="M71.156,192.02c8.1-.459,16.212-.683,24.312-1.139,3.072-.174,3.092-4.975,0-4.8-8.1.456-16.212.68-24.312,1.139-3.071.174-3.092,4.975,0,4.8Z"/><path class="c" d="M74.954,203.726q9.413-.53,18.824-1.067a2.454,2.454,0,0,0,2.4-2.4,2.421,2.421,0,0,0-2.4-2.4q-9.411.532-18.824,1.067a2.453,2.453,0,0,0-2.4,2.4,2.422,2.422,0,0,0,2.4,2.4Z"/><path class="c" d="M71.105,97.183c-.964-3.531-.014-11.556,6.615-12.034,8.732.325,8.893,10.068,5.811,14.55C81.007,103.368,73.881,104.705,71.105,97.183Z"/><path class="c" d="M22.461,94.577c-4.489,2.25-9.127,4.187-13.687,6.286a2.41,2.41,0,0,0-.861,3.284,2.469,2.469,0,0,0,3.284.861c4.56-2.1,9.2-4.036,13.686-6.286a2.416,2.416,0,0,0,.861-3.284,2.458,2.458,0,0,0-3.283-.861Z"/><path class="c" d="M22.339,81.557c-4.68-.224-9.365-.428-14.034-.825a2.411,2.411,0,0,0-2.4,2.4,2.462,2.462,0,0,0,2.4,2.4c4.669.4,9.354.6,14.034.825a2.417,2.417,0,0,0,2.4-2.4,2.452,2.452,0,0,0-2.4-2.4Z"/><path class="c" d="M26.722,69.953c.257.2.152.118-.041-.034l-.3-.237q-.343-.27-.685-.544-.732-.587-1.456-1.186-1.428-1.182-2.827-2.4c-1.767-1.53-3.506-3.091-5.235-4.663a2.4,2.4,0,1,0-3.394,3.394C16.515,67.681,20.3,71.016,24.3,74.1a2.4,2.4,0,0,0,1.85.242,2.448,2.448,0,0,0,1.434-1.1,2.423,2.423,0,0,0,.242-1.849,2.842,2.842,0,0,0-1.1-1.434Z"/><path class="d" d="M57.413,315.094c9.926-20.889,22.211-59.427,24.592-70.963-2.991-2.174-32.45-13.645-39.166-14.861-1.908,4.011-12.557,22.6-20.16,41.523Z"/><path class="c" d="M24.994,271.431c5.026-12.47,11.181-24.441,17.493-36.3.821-1.543,1.669-3.076,2.424-4.653l-2.71,1.1c5.213.969,10.335,3.111,15.289,4.933q4.935,1.815,9.826,3.749,2.313.914,4.614,1.858c1.488.611,2.128.877,3.532,1.486a29.259,29.259,0,0,1,5.332,2.593l-1.1-2.71c-1.784,8.581-4.578,17.008-7.274,25.335-3.7,11.43-7.693,22.786-12.216,33.919a127.658,127.658,0,0,1-6.641,14.558,71.74,71.74,0,0,1-11.6,15.57,23.452,23.452,0,0,1-6.265,4.787,19.418,19.418,0,0,1-8.451,1.742,22.283,22.283,0,0,1-9.16-1.936,17.32,17.32,0,0,1-5.761-4.032c-3.093-3.274-4.856-7.8-5.922-12.346a77.07,77.07,0,0,1-1.592-18.771c.029-1.817.095-3.633.186-5.447.154-3.088-4.646-3.08-4.8,0a105.535,105.535,0,0,0,.78,21.342c.822,5.338,2.343,10.806,5.369,15.343,6.912,10.363,22.524,14,33.263,7.439,5.506-3.361,9.824-8.912,13.513-14.087a86.981,86.981,0,0,0,8.791-15.951c5.019-11.5,9.3-23.331,13.278-35.227,3.186-9.514,6.337-19.118,8.662-28.886q.248-1.035.466-2.076a2.518,2.518,0,0,0-1.1-2.711,25.423,25.423,0,0,0-4.487-2.223c-2.839-1.252-5.711-2.431-8.592-3.583-6.4-2.561-12.862-5.014-19.405-7.2a54.918,54.918,0,0,0-7.256-2.1,2.46,2.46,0,0,0-2.71,1.1c-1.727,3.6-3.732,7.085-5.587,10.624-3.239,6.177-6.372,12.411-9.3,18.742q-2.911,6.3-5.515,12.73a2.415,2.415,0,0,0,1.676,2.952,2.459,2.459,0,0,0,2.953-1.676Z"/><path class="e" d="M72.909,79.205a17.51,17.51,0,0,1,2.546-.672c.275-.042.248-.041-.078,0,.124-.015.249-.029.374-.042q.28-.029.563-.046c.439-.026.88-.034,1.319-.021a6.2,6.2,0,0,1,1.315.1c-.594-.153-.009,0,.108.023q.372.063.739.147.644.145,1.271.349.27.087.534.186c.118.043.235.089.352.135q-.424-.183-.053-.02a2.462,2.462,0,0,0,3.283-.861,2.428,2.428,0,0,0-.861-3.284,17.074,17.074,0,0,0-12.688-.622,2.4,2.4,0,0,0,1.276,4.628Z"/></svg>