<svg width="183" height="184" viewBox="0 0 183 184" fill="none" xmlns="http://www.w3.org/2000/svg">
<path d="M91.4038 2.00098C38.5688 2.00098 2.04785 42.923 2.04785 90.808C2.04785 144.385 39.3539 181.281 91.4069 181.281C145.466 181.281 180.766 144.041 180.766 90.808C180.766 42.597 144.053 2.00098 91.4038 2.00098Z" fill="white"/>
<path d="M34.7324 141.377C38.7024 138.958 44.6334 135.797 52.2234 134.054C56.5984 133.054 68.6614 130.871 73.4964 130.754L74.5714 132.405C80.1564 137.952 86.3864 139.903 93.3534 139.903C100.997 139.903 109.16 136.686 112.54 132.405L113.659 130.86C119.206 131.326 129.239 133.161 133.144 134.054C140.735 135.797 146.666 138.958 150.635 141.377H34.7324Z" fill="white"/>
<path d="M129.841 66.61C129.587 65.307 129.254 64.02 128.847 62.756C128.84 62.733 128.832 62.71 128.825 62.687C127.122 57.438 124.138 52.6 120.143 48.79C113.048 42.025 103.351 39.161 93.0831 39.315C82.8161 39.162 73.1211 42.026 66.0271 48.79C62.0321 52.6 59.048 57.438 57.345 62.687C57.338 62.71 57.33 62.733 57.323 62.756C56.529 65.22 56.0181 67.774 55.8221 70.355C54.1781 70.355 52.403 70.39 50.429 70.39C47.041 70.39 45.43 74.241 45.011 77.263C44.568 80.462 44.627 83.731 44.991 86.776C45.306 89.411 45.888 92.775 47.27 94.827C48.045 95.978 49.621 97.053 51.002 97.192C51.72 97.264 55.2191 97.43 56.2381 97.508L56.683 97.542C58.747 105.825 64.039 113.618 71.136 118.278C77.892 122.713 85.4361 123.522 93.0851 123.522C101.112 123.522 108.279 122.713 115.034 118.278C122.132 113.618 127.423 105.825 129.487 97.542L129.932 97.508C130.952 97.43 134.45 97.264 135.168 97.192C136.549 97.053 138.125 95.978 138.9 94.827C140.282 92.774 140.863 89.411 141.179 86.776C141.543 83.731 141.602 80.463 141.159 77.263C140.74 74.24 139.129 70.39 135.741 70.39C133.767 70.39 131.991 70.355 130.348 70.355C130.253 69.098 130.082 67.847 129.841 66.61Z" fill="white"/>
<path d="M91.4036 0.00101176C71.4606 0.0370118 51.6296 5.98801 35.6566 18.089C20.7316 29.396 9.71657 45.259 4.18757 63.143C-1.54243 81.674 -1.26743 102.213 4.24957 120.766C9.43357 138.199 19.7406 153.79 34.1866 164.902C48.9086 176.226 67.1156 182.12 85.5596 183.122C104.45 184.148 123.927 180.488 140.392 170.933C155.574 162.122 167.525 148.472 174.516 132.394C182.123 114.9 184.516 94.876 181.61 76.041C178.766 57.603 170.19 40.149 157.133 26.797C143.624 12.983 125.65 4.034 106.577 1.155C101.552 0.397003 96.4866 0.00900468 91.4046 4.6836e-06C88.8306 -0.00499532 88.8266 3.995 91.4046 4C110.516 4.034 129.318 9.70501 144.698 21.178C158.977 31.83 169.525 47.155 174.772 64.142C180.212 81.754 180.016 101.134 175.099 118.85C170.565 135.184 161.432 150.006 148.221 160.727C134.586 171.792 117.343 177.643 99.9566 178.96C81.6986 180.344 62.9736 177.28 46.8256 168.398C31.7846 160.124 19.8646 147.188 12.6106 131.649C4.84957 115.024 2.27057 95.426 5.03857 77.314C7.75157 59.557 15.7956 42.778 28.3286 29.862C41.3116 16.482 58.4916 7.94101 76.8736 5.08001C81.6786 4.33201 86.5456 4.01001 91.4056 4.00101C93.9796 3.99601 93.9836 -0.00398824 91.4056 0.00101176H91.4036Z" fill="#211715"/>
<path d="M76.4556 122.961C76.4506 123.495 76.4456 124.029 76.4406 124.564C76.4146 127.248 76.3896 129.933 76.3626 132.618C76.3576 133.089 76.3536 133.56 76.3486 134.031C81.4686 138.339 87.1156 139.903 93.3526 139.903C99.4956 139.903 105.974 137.825 110.036 134.787C109.986 130.176 109.942 125.565 109.902 120.962C104.655 123.067 99.1116 123.523 93.0846 123.523C87.3956 123.523 81.7636 123.075 76.4716 121.021C76.4666 121.666 76.4606 122.313 76.4546 122.961H76.4556Z" fill="#C6C6C6"/>
<path d="M74.4663 121.849C74.4323 125.367 74.3993 128.886 74.3653 132.404C74.3553 133.45 75.2923 134.452 76.3653 134.404C77.4573 134.355 78.3543 133.525 78.3653 132.404C78.3993 128.886 78.4323 125.367 78.4663 121.849C78.4763 120.803 77.5393 119.801 76.4663 119.849C75.3743 119.898 74.4773 120.728 74.4663 121.849Z" fill="#211715"/>
<path d="M107.907 121.849C107.941 125.367 107.974 128.886 108.008 132.404C108.018 133.45 108.921 134.453 110.008 134.404C111.083 134.356 112.019 133.525 112.008 132.404C111.974 128.886 111.941 125.367 111.907 121.849C111.897 120.803 110.994 119.8 109.907 119.849C108.832 119.897 107.896 120.728 107.907 121.849Z" fill="#211715"/>
<path d="M73.8905 128.747C68.9395 128.778 63.9015 129.813 59.0445 130.677C53.3465 131.691 47.7795 132.901 42.4235 135.166C39.4115 136.44 36.5185 137.953 33.7235 139.649C31.5255 140.983 33.5335 144.443 35.7425 143.103C41.9965 139.307 48.6105 136.768 55.7845 135.345C59.0325 134.701 62.2955 134.128 65.5695 133.628C68.3145 133.209 71.1085 132.765 73.8905 132.747C76.4635 132.731 76.4695 128.731 73.8905 128.747Z" fill="#211715"/>
<path d="M111.479 132.747C114.207 132.764 116.945 133.194 119.635 133.603C122.964 134.108 126.282 134.69 129.585 135.345C136.76 136.768 143.373 139.307 149.627 143.103C151.833 144.442 153.845 140.985 151.645 139.649C146.206 136.347 140.332 133.715 134.13 132.231C129.232 131.059 124.215 130.24 119.232 129.529C116.672 129.164 114.071 128.763 111.479 128.746C108.905 128.73 108.902 132.73 111.479 132.746V132.747Z" fill="#211715"/>
<path d="M111.126 130.99C107.173 135.852 99.775 137.813 93.763 137.9C86.978 137.998 80.857 135.761 75.985 130.99C74.144 129.188 71.313 132.014 73.157 133.818C78.76 139.304 85.943 142.018 93.763 141.899C97.737 141.839 101.759 141.037 105.441 139.541C108.604 138.256 111.768 136.507 113.954 133.818C114.635 132.981 114.773 131.809 113.954 130.99C113.251 130.287 111.81 130.148 111.126 130.99Z" fill="#211715"/>
<path d="M55.8228 68.3549C52.5768 68.3599 48.7428 67.7289 46.1628 70.1209C43.9388 72.1829 43.2048 75.3299 42.8938 78.2249C42.4808 82.0679 42.7428 85.9839 43.4268 89.7819C44.0188 93.0669 45.1408 96.5889 48.2368 98.3209C50.5918 99.6379 53.6258 99.3199 56.2378 99.5089C58.8058 99.6949 58.7948 95.6939 56.2378 95.5089C55.0378 95.4219 53.8358 95.3689 52.6348 95.2999C51.4338 95.2309 50.6868 95.2879 49.6888 94.5069C48.4728 93.5559 48.0208 91.9199 47.6588 90.4889C47.2188 88.7449 46.9738 86.9499 46.8298 85.1589C46.5608 81.8179 46.3398 77.7899 47.7938 74.6629C48.2458 73.6919 48.9188 72.6719 50.0258 72.4239C50.8678 72.2349 51.9388 72.3859 52.7978 72.3779C53.8058 72.3689 54.8138 72.3579 55.8218 72.3559C58.3958 72.3519 58.3998 68.3519 55.8218 68.3559L55.8228 68.3549Z" fill="#211715"/>
<path d="M130.349 72.355C131.357 72.357 132.365 72.368 133.373 72.377C134.24 72.385 135.303 72.235 136.145 72.423C137.255 72.671 137.923 73.692 138.377 74.662C139.836 77.784 139.61 81.823 139.341 85.158C139.197 86.95 138.951 88.743 138.512 90.488C138.154 91.912 137.701 93.565 136.482 94.506C134.852 95.764 132.048 95.354 129.933 95.507C127.381 95.692 127.36 99.693 129.933 99.507C132.062 99.353 134.538 99.599 136.58 98.915C140.066 97.748 141.679 94.523 142.463 91.16C143.312 87.514 143.626 83.644 143.414 79.911C143.235 76.75 142.747 73.447 140.712 70.899C138.157 67.699 134.015 68.359 130.348 68.353C127.774 68.349 127.77 72.349 130.348 72.353L130.349 72.355Z" fill="#211715"/>
<path d="M57.8227 70.355C58.3887 63.54 61.2477 56.895 65.8527 51.833C70.2337 47.016 76.0107 43.902 82.3167 42.413C88.6227 40.924 95.5627 40.822 101.9 42.001C108.144 43.163 114.099 45.79 118.729 50.204C124.246 55.463 127.718 62.761 128.348 70.355C128.56 72.902 132.561 72.925 132.348 70.355C131.707 62.639 128.672 55.301 123.56 49.467C118.839 44.079 112.408 40.441 105.493 38.697C98.3867 36.905 90.5987 36.804 83.4007 38.108C76.4247 39.372 69.7667 42.46 64.6107 47.375C58.3007 53.391 54.5377 61.706 53.8197 70.355C53.6067 72.92 57.6077 72.906 57.8197 70.355H57.8227Z" fill="#211715"/>
<path d="M54.3098 96.0508C56.9188 109.759 67.3918 121.648 81.2448 124.492C88.2408 125.929 95.8548 125.928 102.906 124.876C109.848 123.84 116.208 120.742 121.234 115.828C126.649 110.532 130.447 103.491 131.863 96.0508C132.342 93.5348 128.487 92.4579 128.006 94.9879C125.685 107.183 116.737 117.834 104.396 120.552C101.244 121.246 98.0148 121.456 94.7938 121.509C91.4598 121.564 88.0908 121.509 84.7818 121.061C78.3318 120.186 72.4418 117.571 67.7678 113C62.8038 108.146 59.4638 101.798 58.1678 94.9879C57.6868 92.4619 53.8298 93.5318 54.3098 96.0508Z" fill="#211715"/>
<path d="M83.3402 80.102C84.0182 82.305 83.5762 87.372 79.4032 87.803C73.8872 87.77 73.5942 81.6439 75.4502 78.7629C76.9702 76.4049 81.4412 75.424 83.3402 80.102Z" fill="#211715"/>
<path d="M112.313 80.102C112.991 82.305 112.549 87.372 108.376 87.803C102.86 87.77 102.567 81.6439 104.423 78.7629C105.943 76.4049 110.414 75.424 112.313 80.102Z" fill="#211715"/>
<path d="M97.4446 112.258C97.2556 109.57 99.3076 107.766 102.945 107.639C106.607 107.51 108.463 108.97 108.574 111.083C108.685 113.213 106.988 115.79 103.324 116.03C100.016 116.247 97.5976 114.67 97.4456 112.258H97.4446Z" fill="#211715"/>
<path d="M129.366 94.4169C126.441 98.6869 123.536 102.542 119.112 105.367C113.686 108.831 107.901 110.234 101.523 110.474C98.9571 110.571 98.9441 114.571 101.523 114.474C108.583 114.208 115.12 112.659 121.13 108.821C123.424 107.356 125.624 105.609 127.47 103.602C129.487 101.41 131.14 98.8869 132.819 96.4359C134.277 94.3069 130.813 92.3039 129.366 94.4169Z" fill="#211715"/>
<path d="M99.4445 112.258C99.4325 112.042 99.4425 111.83 99.4425 111.615C99.4435 111.177 99.3295 112.078 99.4335 111.66C99.4525 111.582 99.4655 111.504 99.4855 111.426C99.5145 111.311 99.5545 111.201 99.5895 111.088C99.6585 110.859 99.6945 111.105 99.5215 111.243C99.5995 111.181 99.8505 110.736 99.8785 110.646C99.7895 110.933 99.6405 110.923 99.7875 110.778C99.8725 110.694 99.9505 110.604 100.039 110.523C100.036 110.525 100.22 110.38 100.222 110.363C100.212 110.504 99.8665 110.611 100.219 110.381C100.403 110.261 100.597 110.165 100.789 110.061C100.963 109.967 100.89 109.914 100.688 110.098C100.773 110.02 100.977 109.991 101.091 109.954C101.33 109.877 101.573 109.814 101.819 109.762C101.975 109.729 102.132 109.703 102.289 109.677C102.215 109.69 101.863 109.717 102.251 109.686C102.905 109.634 103.558 109.611 104.214 109.662C104.325 109.671 104.435 109.683 104.546 109.693C104.035 109.644 104.545 109.698 104.639 109.716C104.877 109.762 105.114 109.819 105.345 109.891C105.432 109.918 105.517 109.951 105.604 109.978C106.04 110.111 105.22 109.765 105.606 109.978C105.796 110.083 105.985 110.221 106.179 110.313C106.397 110.416 105.841 109.965 106.088 110.245C106.135 110.298 106.198 110.345 106.249 110.396C106.276 110.423 106.474 110.6 106.466 110.636C106.435 110.78 106.208 110.202 106.341 110.488C106.38 110.573 106.445 110.683 106.499 110.76C106.675 111.008 106.262 110.594 106.426 110.568C106.496 110.557 106.555 111.136 106.597 111.18C106.443 111.019 106.566 110.695 106.571 111.028C106.572 111.117 106.58 111.205 106.58 111.294C106.58 111.365 106.574 111.436 106.573 111.507C106.573 111.976 106.562 111.388 106.596 111.406C106.631 111.425 106.478 111.918 106.469 111.947C106.447 112.019 106.42 112.09 106.397 112.162C106.287 112.521 106.631 111.742 106.394 112.162C106.306 112.317 106.227 112.476 106.129 112.625C105.907 112.966 106.006 112.63 106.155 112.615C106.136 112.617 106.02 112.775 105.993 112.804C105.85 112.964 105.691 113.103 105.535 113.25C105.21 113.558 105.908 113.024 105.519 113.261C105.402 113.333 105.29 113.412 105.171 113.482C105.069 113.541 104.962 113.592 104.859 113.649C104.501 113.849 104.869 113.663 104.869 113.655C104.873 113.704 104.171 113.882 104.133 113.891C104.028 113.918 103.923 113.942 103.817 113.964C103.738 113.98 103.198 114.042 103.678 113.998C103.357 114.028 103.037 114.049 102.715 114.049C102.41 114.049 102.107 114.028 101.804 113.999C102.321 114.047 101.81 113.993 101.713 113.974C101.564 113.944 101.417 113.91 101.27 113.87C101.152 113.838 101.034 113.802 100.918 113.763C100.849 113.741 100.781 113.717 100.714 113.691C100.508 113.61 100.537 113.622 100.803 113.729C100.666 113.767 100.274 113.435 100.156 113.367C99.7975 113.157 100.227 113.373 100.196 113.41C100.192 113.415 99.9495 113.191 99.9145 113.155C99.8875 113.128 99.6895 112.877 99.6635 112.88C99.7535 112.872 99.9325 113.278 99.6905 112.887C99.6405 112.807 99.6025 112.692 99.5415 112.621C99.4745 112.484 99.4995 112.551 99.6175 112.821C99.5875 112.745 99.5595 112.668 99.5345 112.59C99.5095 112.512 99.4875 112.432 99.4675 112.352C99.3325 111.793 99.4745 112.625 99.4445 112.258C99.3605 111.218 98.5845 110.207 97.4445 110.258C96.4325 110.303 95.3545 111.141 95.4445 112.258C95.5615 113.706 96.0965 115.061 97.1755 116.07C98.2305 117.057 99.6105 117.684 101.034 117.897C104.211 118.374 107.503 117.545 109.445 114.843C110.961 112.734 110.967 109.752 109.259 107.766C107.297 105.487 103.636 105.349 100.909 105.873C97.7855 106.473 95.2555 108.939 95.4445 112.258C95.5035 113.301 96.3215 114.307 97.4445 114.257C98.4775 114.211 99.5085 113.377 99.4445 112.258Z" fill="#211715"/>
<path d="M133.673 98.6078C128.115 98.6078 123.904 93.2338 123.904 83.7318C123.904 74.2298 128.994 69.4958 133.676 69.4958C138.438 69.4958 144.777 73.4058 144.777 83.7318C144.777 92.7118 139.872 98.6078 133.673 98.6078Z" fill="white"/>
<path d="M133.674 96.6079C129.425 96.5469 127.137 92.4359 126.323 88.4299C125.316 83.4719 125.644 76.855 129.628 73.191C132.226 70.801 135.435 71.126 138.197 72.954C142.322 75.684 143.153 81.504 142.658 86.102C142.13 91.002 139.212 96.5279 133.674 96.6069C131.102 96.6439 131.095 100.644 133.674 100.607C147.624 100.406 150.863 78.738 141.784 70.709C138.16 67.504 132.737 66.3229 128.492 69.0519C122.677 72.7899 121.365 80.5759 122.08 86.9559C122.804 93.4179 126.289 100.5 133.674 100.607C136.249 100.644 136.25 96.6439 133.674 96.6069V96.6079Z" fill="#211715"/>
</svg>
