<svg width="143" height="120" viewBox="0 0 143 120" fill="none" xmlns="http://www.w3.org/2000/svg">
<path d="M73.1286 102.424C73.1286 100.844 73.1286 99.2243 73.1286 97.6023L47.8916 97.6123C47.8963 104.276 47.8963 110.938 47.8916 117.6H73.1286V102.424Z" fill="white"/>
<path d="M2.49468 81.1043C2.48668 61.7043 2.47768 39.4333 2.47168 24.3123C2.47325 23.8895 2.5581 23.4711 2.72137 23.081C2.88465 22.6909 3.12316 22.3368 3.42327 22.0389C3.72339 21.7411 4.07925 21.5052 4.47052 21.3448C4.8618 21.1845 5.28082 21.1027 5.70368 21.1043L73.3037 21.0803H114.154C115.215 21.0803 116.232 21.5018 116.982 22.2519C117.732 23.002 118.154 24.0195 118.154 25.0803V62.5403C118.154 69.4583 118.16 76.4023 118.162 82.9733C116.962 82.9733 116.232 82.9733 116.232 82.9733C116.232 82.9733 59.1317 82.9733 2.48768 82.9733L2.49468 81.1043Z" fill="white"/>
<path d="M118.169 82.9673C118.169 86.9333 118.178 90.7673 118.178 94.3813C118.176 94.8048 118.091 95.2237 117.927 95.6142C117.763 96.0047 117.524 96.359 117.223 96.6569C116.922 96.9549 116.565 97.1906 116.173 97.3506C115.781 97.5106 115.362 97.5917 114.938 97.5893C92.7021 97.5983 28.3471 97.6163 5.73207 97.6263C5.30971 97.6287 4.89103 97.5478 4.49998 97.3882C4.10893 97.2286 3.75318 96.9934 3.45309 96.6962C3.153 96.399 2.91445 96.0455 2.75109 95.656C2.58773 95.2665 2.50277 94.8487 2.50107 94.4263C2.50107 90.7983 2.49207 86.9513 2.50107 82.9663L118.169 82.9673Z" fill="white"/>
<path d="M73.3113 18.6802L6.81131 18.7042C4.02631 18.7042 1.45731 19.5802 0.411315 22.4262C0.0935175 23.558 -0.0212558 24.7373 0.0723145 25.9092V29.5892L0.0803145 45.7482C0.0856479 57.4815 0.0903145 69.2148 0.0943145 80.9482C0.0943145 83.8282 0.0943145 86.7082 0.0943145 89.5882C0.0943145 92.0882 -0.425685 95.2162 0.976315 97.4252C3.16831 100.878 7.96531 100.025 11.4833 100.025L34.4373 100.016L90.1113 99.9952L111.871 99.9902C113.478 99.9902 115.311 100.208 116.837 99.6512C118.11 99.1902 119.179 98.2945 119.856 97.1222C120.491 95.7316 120.738 94.1957 120.573 92.6762C120.573 86.0482 120.571 79.4198 120.565 72.7912C120.565 69.3738 120.565 65.9565 120.565 62.5392C120.565 59.4512 115.765 59.4452 115.765 62.5392C115.765 69.1338 115.768 75.7292 115.773 82.3252C115.773 85.4872 115.773 88.6492 115.773 91.8112C115.773 92.5252 115.805 93.2462 115.773 93.9592C115.757 94.3152 115.841 94.6762 115.549 94.9592C115.23 95.2742 114.674 95.1842 114.235 95.1842L94.7953 95.1912L41.7223 95.2112L17.6643 95.2212H8.34931C7.51431 95.2212 5.54931 95.5772 5.04331 94.8672C4.62631 94.2822 4.89831 92.9122 4.89831 92.2172V88.0542C4.89365 76.8115 4.88898 65.5698 4.88431 54.3292C4.88431 48.8625 4.88198 43.3958 4.87731 37.9292V30.4522V25.5902C4.7987 25.0614 4.81871 24.5227 4.93631 24.0012C5.37331 23.0632 7.72631 23.5082 8.61331 23.5082H14.3523H28.8143L64.3703 23.4952H73.3163C76.4043 23.4952 76.4103 18.6952 73.3163 18.6952L73.3113 18.6802Z" fill="#211715"/>
<path d="M45.4932 97.4951V117.6C45.4932 120.689 50.2932 120.694 50.2932 117.6V97.4951C50.2932 94.4071 45.4932 94.4021 45.4932 97.4951Z" fill="#211715"/>
<path d="M70.7227 97.8362V117.6C70.7227 120.689 75.5227 120.694 75.5227 117.6V97.8362C75.5227 94.7472 70.7227 94.7422 70.7227 97.8362Z" fill="#211715"/>
<path d="M38.2515 120H83.1735C86.2625 120 86.2675 115.2 83.1735 115.2H38.2515C35.1635 115.2 35.1585 120 38.2515 120Z" fill="#211715"/>
<path d="M3.8323 85.3671H116.239C119.327 85.3671 119.332 80.5671 116.239 80.5671H3.8323C0.743297 80.5671 0.738297 85.3671 3.8323 85.3671Z" fill="#211715"/>
<path d="M125.823 36.2722L138.803 49.2532C139.814 50.2813 140.377 51.6669 140.37 53.1082C140.363 54.5495 139.788 55.9299 138.768 56.9485C137.748 57.9672 136.367 58.5417 134.926 58.5469C133.485 58.552 132.1 57.9875 131.072 56.9762L118.063 43.9672" fill="#3D8DCC"/>
<path d="M124.127 37.9691C128.349 42.1911 132.571 46.4131 136.793 50.6351C137.315 51.057 137.692 51.631 137.873 52.2774C138.054 52.9238 138.03 53.6105 137.803 54.2421C137.604 54.7136 137.292 55.1288 136.894 55.4512C136.497 55.7736 136.026 55.9932 135.524 56.0908C135.022 56.1883 134.503 56.1607 134.014 56.0104C133.525 55.8602 133.08 55.5919 132.72 55.2291C130.605 53.2031 128.573 51.0811 126.502 49.0101L119.761 42.2701C117.574 40.0821 114.179 43.4761 116.367 45.6641C120.697 49.9931 124.931 54.4451 129.367 58.6641C130.716 60.0135 132.511 60.826 134.415 60.9503C136.32 61.0746 138.205 60.5022 139.719 59.3397C141.232 58.1773 142.272 56.5041 142.643 54.632C143.015 52.7598 142.693 50.8165 141.738 49.1641C141.001 48.0635 140.125 47.0629 139.132 46.1871L135.032 42.0871L127.525 34.5801C125.338 32.3931 121.943 35.7861 124.131 37.9741L124.127 37.9691Z" fill="#211715"/>
<path d="M91.2203 8.90924C93.2556 6.83031 95.6883 5.18211 98.3737 4.06276C101.059 2.94342 103.942 2.37581 106.852 2.39372C109.761 2.41164 112.637 3.01471 115.308 4.16704C117.98 5.31937 120.392 6.9974 122.401 9.10124C131.691 18.5652 131.501 31.5502 122.306 40.5762C112.757 49.9502 100.065 49.4902 90.8343 40.0902C88.7654 38.0434 87.13 35.6008 86.0258 32.9081C84.9215 30.2154 84.3709 27.3279 84.4069 24.4178C84.443 21.5077 85.0648 18.6347 86.2354 15.9702C87.406 13.3056 89.1014 10.9042 91.2203 8.90924Z" fill="white"/>
<path d="M92.9172 10.6071C98.7322 4.98713 107.392 3.04213 114.827 6.60713C122.262 10.1721 127.52 18.2071 126.813 26.5621C126.103 34.9621 118.913 42.5541 110.856 44.5071C102.704 46.4831 94.1642 41.8901 89.8342 34.9901C84.8482 27.0471 86.3612 17.1421 92.9172 10.6051C95.1072 8.42013 91.7172 5.02613 89.5232 7.20513C85.9314 10.687 83.4966 15.1887 82.5486 20.1004C81.6006 25.0122 82.1852 30.0967 84.2232 34.6651C88.2812 43.6851 98.3382 50.4901 108.367 49.7141C118.811 48.9051 128.419 40.6021 130.978 30.4601C133.531 20.3371 128.569 9.81413 120.09 4.08713C115.6 1.06319 110.217 -0.351266 104.82 0.0741265C99.0491 0.615888 93.6433 3.13791 89.5202 7.21213C87.2972 9.36313 90.6942 12.7551 92.9172 10.6071Z" fill="#211715"/>
</svg>
