<svg width="69" height="69" viewBox="0 0 69 69" fill="none" xmlns="http://www.w3.org/2000/svg">
<g clip-path="url(#clip0_464_1095)">
<path d="M34.3751 3.62986e-05C30.5979 -0.0111001 26.8419 0.56516 23.2416 1.70818C16.5683 3.84241 10.7442 8.04048 6.60801 13.6978C4.59049 16.4569 3.00157 19.5053 1.89515 22.7397C0.759757 26.0625 0.127962 29.5366 0.0207734 33.0465C-0.133474 37.4567 0.458292 41.8613 1.77108 46.0742C2.4037 48.0775 3.21858 50.0186 4.20548 51.8731C4.68359 52.7691 5.20362 53.6408 5.76557 54.4883C6.04317 54.9066 6.41152 55.3109 6.64422 55.7536C6.85761 56.1591 6.49287 56.7437 6.35263 57.1347C5.94645 58.2674 5.53987 59.3999 5.13289 60.5324C4.91355 61.1442 4.69485 61.756 4.4768 62.3679C4.373 62.6586 4.26953 62.9495 4.16637 63.2404C4.0563 63.551 3.86488 63.9067 3.86488 64.2424C3.86966 64.3873 3.91168 64.5286 3.9869 64.6525C4.06212 64.7764 4.16799 64.8789 4.29431 64.95C4.60811 65.1261 4.92747 65.0135 5.2379 64.9036C5.84491 64.6884 6.45159 64.4724 7.05796 64.2557C8.25653 63.8276 9.45446 63.3977 10.6517 62.9661C11.1886 62.7729 11.7256 62.5796 12.2628 62.3864C12.4689 62.2762 12.6991 62.2186 12.9329 62.2186C13.1759 62.2614 13.3915 62.4886 13.5861 62.6292C14.4198 63.2332 15.2821 63.7942 16.173 64.3122C18.0019 65.3733 19.9275 66.258 21.9239 66.9542C26.146 68.3973 30.5891 69.0855 35.0498 68.9872C38.6379 68.9516 42.2042 68.4242 45.6492 67.4196C48.805 66.4913 51.8022 65.0902 54.5388 63.2641C57.1736 61.494 59.5152 59.3222 61.4787 56.8275C63.4929 54.247 65.1086 51.3786 66.2717 48.3182C67.4914 45.0764 68.2629 41.6832 68.5649 38.2326C68.9208 34.6366 68.7695 31.0084 68.1154 27.4545C67.4705 24.0619 66.3187 20.7858 64.6988 17.7362C63.1033 14.7354 61.0587 11.9962 58.6358 9.61353C56.1692 7.1928 53.3377 5.17491 50.245 3.63369C47.0061 2.02708 43.5346 0.940774 39.958 0.414696C38.1095 0.141059 36.2437 0.00247225 34.3751 3.62986e-05C33.6295 3.62986e-05 33.6283 1.15925 34.3751 1.15925C38.971 1.14022 43.5256 2.02801 47.7782 3.77182C51.6628 5.39617 55.1879 7.77326 58.1504 10.7662C61.0758 13.727 63.4019 17.2252 65.001 21.0687C66.6483 25.0559 67.526 29.319 67.5877 33.6329C67.6783 37.9839 67.0424 42.3195 65.7064 46.461C64.4807 50.2434 62.5455 53.7573 60.0043 56.8145C57.4889 59.7956 54.4124 62.2528 50.9496 64.0465C47.2248 65.9457 43.1827 67.1436 39.025 67.5804C33.824 68.1601 28.4855 67.7881 23.474 66.2452C20.9961 65.4863 18.6193 64.4297 16.3956 63.0984C15.8423 62.7661 15.2995 62.4169 14.7672 62.0508C14.2238 61.6767 13.6923 61.1367 13.0104 61.0657C12.3419 60.9964 11.6381 61.383 11.022 61.6045L8.94176 62.3531C8.21131 62.6156 7.48063 62.8775 6.74971 63.139C6.37475 63.2729 5.99964 63.4066 5.62436 63.5401C5.26807 63.6983 4.89788 63.8231 4.51856 63.913H4.82778L4.80871 63.9002L5.01654 64.1081L5.00375 64.0893V64.3974C5.11488 63.9351 5.26841 63.484 5.46239 63.0499C5.62331 62.5968 5.78488 62.1439 5.94709 61.6912C6.24561 60.8562 6.54493 60.0216 6.84506 59.1873C7.12475 58.409 7.40419 57.6305 7.6834 56.8519C7.86253 56.4608 7.91233 56.0226 7.82558 55.6012C7.68858 55.2279 7.48628 54.882 7.22814 54.5796C5.53576 52.1627 4.18446 49.5239 3.21241 46.7378C1.23695 41.0642 0.662531 34.9966 1.53814 29.0528C2.2713 24.1698 4.07472 19.5094 6.81923 15.4055C9.54849 11.3528 13.1694 7.97945 17.4041 5.54421C21.9617 2.96206 27.0588 1.48008 32.2898 1.21624C32.9843 1.17809 33.6795 1.15909 34.3751 1.15925C35.1205 1.15925 35.122 3.62986e-05 34.3751 3.62986e-05Z" fill="#211715"/>
<g clip-path="url(#clip1_464_1095)">
<path d="M21.9501 23.2256C22.8757 20.4516 25.8695 18.9736 28.6397 19.9248C31.4132 20.8772 32.9099 23.9027 31.9832 26.6799C31.7599 27.3491 31.036 28.4676 30.0071 29.8207C28.9947 31.1521 27.735 32.6502 26.5018 34.0593C25.2696 35.4674 24.0683 36.7816 23.1748 37.744C22.8958 38.0445 22.647 38.3105 22.4367 38.5344C22.4034 38.2255 22.3648 37.8583 22.3228 37.4445C22.1892 36.1293 22.0217 34.345 21.8859 32.4671C21.75 30.5877 21.6463 28.6213 21.6392 26.9396C21.632 25.2305 21.7266 23.8951 21.9501 23.2256Z" fill="#5FA3F2" stroke="black"/>
</g>
<path d="M48.9958 31.7999C53.0422 30.9731 56.9643 33.5916 57.757 37.651C58.5503 41.7137 55.9083 45.6787 51.8585 46.5061C50.872 46.7077 49.0101 46.6091 46.6931 46.3144C44.4031 46.023 41.7456 45.5516 39.2153 45.051C36.6863 44.5507 34.2911 44.0228 32.5277 43.6198C31.7874 43.4506 31.1587 43.3035 30.6786 43.1897C31.0799 42.8955 31.6072 42.5111 32.2302 42.0618C33.707 40.9967 35.7202 39.568 37.8674 38.1123C40.0157 36.6559 42.2924 35.1762 44.2975 34.0072C46.3263 32.8245 48.0089 32.0015 48.9958 31.7999Z" fill="#5FA3F2" stroke="black"/>
</g>
<defs>
<clipPath id="clip0_464_1095">
<rect width="68.7476" height="68.9922" fill="white"/>
</clipPath>
<clipPath id="clip1_464_1095">
<rect width="17.4175" height="16.1273" fill="white" transform="translate(13.9985 25.7068) rotate(-30)"/>
</clipPath>
</defs>
</svg>
