<svg width="85" height="85" viewBox="0 0 85 85" fill="none" xmlns="http://www.w3.org/2000/svg">
<path d="M33.8007 75.7683C37.4534 76.7317 41.2338 77.1214 45.0064 76.9232C52.003 76.5409 58.6983 73.947 64.1282 69.5151C66.7766 67.3537 69.0832 64.8043 70.9697 61.9531C72.9066 59.0237 74.3943 55.8209 75.3833 52.451C76.6449 48.2218 77.1831 43.8099 76.9751 39.4016C76.8682 37.3032 76.5691 35.2191 76.0817 33.1755C75.845 32.1878 75.5616 31.2129 75.2315 30.251C75.0684 29.7762 74.8138 29.292 74.7003 28.8049C74.596 28.3587 75.0965 27.8848 75.3308 27.5418C76.0096 26.5481 76.6887 25.5545 77.3682 24.5612C77.7348 24.0244 78.1008 23.4875 78.4661 22.9504C78.6399 22.6951 78.8134 22.4398 78.9866 22.1842C79.1715 21.9114 79.4464 21.6154 79.5311 21.2905C79.563 21.1491 79.558 21.0018 79.5164 20.8629C79.4749 20.7239 79.3983 20.5981 79.294 20.4974C79.0347 20.2479 78.6972 20.2763 78.3691 20.3043C77.7273 20.3595 77.0857 20.4155 76.4442 20.4723C75.1763 20.5843 73.9085 20.6982 72.6409 20.814C72.0727 20.8656 71.5042 20.9171 70.9356 20.9686C70.7083 21.0233 70.471 21.0211 70.2448 20.962C70.0203 20.8594 69.869 20.5851 69.7162 20.4C69.0616 19.6051 68.3686 18.8446 67.637 18.1187C66.1347 16.6305 64.4943 15.2886 62.7378 14.1113C59.0157 11.6498 54.8892 9.86314 50.5474 8.83323C47.0659 7.96268 43.4815 7.57365 39.8942 7.67699C36.6058 7.77944 33.3518 8.37943 30.2428 9.45656C27.2464 10.5051 24.4324 12.0163 21.9031 13.9354C19.3028 15.9248 17.0157 18.2933 15.1183 20.9617C13.1202 23.7915 11.5177 26.8808 10.3552 30.1441C9.10373 33.5345 8.33506 37.084 8.07177 40.6883C7.84027 44.1343 8.12864 47.5954 8.92719 50.9553C9.71446 54.2619 11.0023 57.4285 12.7462 60.3455C14.5228 63.3104 16.7541 65.9774 19.3585 68.2491C22.0878 70.6208 25.1736 72.5477 28.5023 73.9589C30.2221 74.6899 31.993 75.2946 33.8007 75.7683C34.5223 75.9563 34.8159 74.8348 34.0931 74.6464C29.6404 73.5057 25.4565 71.4977 21.7807 68.7375C18.4309 66.1857 15.6189 62.9961 13.5067 59.3524C11.4223 55.7492 10.0534 51.7769 9.47522 47.6539C8.88667 43.3797 9.11248 39.0325 10.1407 34.8421C11.1505 30.6084 12.8594 26.5728 15.197 22.9017C17.3371 19.5502 20.0963 16.6376 23.3267 14.3199C26.5129 12.0693 30.1101 10.4671 33.9138 9.60455C37.9976 8.70597 42.2115 8.56615 46.3455 9.19206C51.5251 9.94289 56.5979 11.6493 61.0587 14.4065C63.2655 15.7659 65.2992 17.388 67.1155 19.2372C67.5671 19.6984 68.0044 20.1732 68.4272 20.6618C68.8587 21.1609 69.237 21.8176 69.879 22.0583C70.5084 22.294 71.2871 22.0973 71.9392 22.0383L74.1413 21.8385C74.9144 21.7687 75.6876 21.6995 76.4609 21.6308C76.8576 21.5958 77.2543 21.561 77.6512 21.5264C78.0359 21.4632 78.4256 21.4357 78.8154 21.4445L78.5161 21.3665L78.5314 21.3837L78.3827 21.13L78.3903 21.1515L78.468 20.8532C78.2439 21.2727 77.9815 21.6705 77.6843 22.0417C77.4143 22.4396 77.1437 22.8372 76.8725 23.2344C76.373 23.9672 75.8728 24.6994 75.3719 25.4312C74.905 26.1139 74.4382 26.7967 73.9716 27.4798C73.6996 27.8132 73.5409 28.2247 73.5185 28.6544C73.557 29.0502 73.6655 29.436 73.8391 29.7938C74.8674 32.5597 75.5096 35.4543 75.7476 38.3958C76.2284 44.3849 75.254 50.4019 72.9075 55.9334C70.9664 60.4742 68.0456 64.5296 64.3544 67.8091C60.6909 71.0429 56.3359 73.3944 51.6234 74.6831C46.5614 76.0326 41.2546 76.1812 36.1256 75.1172C35.4438 74.979 34.7663 74.822 34.0931 74.6464C33.3717 74.4584 33.0779 75.5799 33.8007 75.7683Z" fill="#211715"/>
<g clip-path="url(#clip0_464_1147)">
<path d="M42.1228 64.8806C29.9725 64.8806 20.1228 55.0309 20.1228 42.8806C20.1228 30.7304 29.9725 20.8806 42.1228 20.8806C54.2731 20.8806 64.1228 30.7304 64.1228 42.8806C64.1228 55.0309 54.2731 64.8806 42.1228 64.8806Z" fill="#FFCC68"/>
<path fill-rule="evenodd" clip-rule="evenodd" d="M47.7391 38.7536C47.7391 41.0157 49.5729 42.8495 51.835 42.8495C54.0971 42.8495 55.9309 41.0157 55.9309 38.7536C55.9309 36.4915 54.0971 34.6577 51.835 34.6577C49.5729 34.6577 47.7391 36.4915 47.7391 38.7536ZM27.8181 38.7536C27.8181 41.0157 29.6519 42.8495 31.914 42.8495C34.1761 42.8495 36.0099 41.0157 36.0099 38.7536C36.0099 36.4915 34.1761 34.6577 31.914 34.6577C29.6519 34.6577 27.8181 36.4915 27.8181 38.7536ZM35.641 56.375C33.9301 54.6642 32.969 52.3438 32.969 49.9243H42.0917H51.2144C51.2144 52.3438 50.2533 54.6642 48.5424 56.375C46.8316 58.0859 44.5112 59.047 42.0917 59.047C39.6722 59.047 37.3518 58.0859 35.641 56.375Z" fill="white"/>
</g>
<defs>
<clipPath id="clip0_464_1147">
<rect width="44" height="44" fill="white" transform="matrix(-1 0 0 1 64.1228 20.8806)"/>
</clipPath>
</defs>
</svg>
